<svg width="84" height="84" viewBox="0 0 84 84" fill="none" xmlns="http://www.w3.org/2000/svg">
<path d="M0 0H84V84H0V0Z" fill="#FAFAFA"/>
<path d="M24.4565 35.7092H32.1717V60H24.4565V35.7092ZM28.3658 24C25.7252 24 24 25.8137 24 28.1942C24 30.5258 25.6747 32.3923 28.2648 32.3923H28.314C31.0051 32.3923 32.681 30.5257 32.681 28.1942C32.6305 25.8137 31.0052 24 28.3658 24ZM51.1148 35.1386C47.0194 35.1386 45.1847 37.4953 44.1612 39.148V35.7092H36.4437C36.5458 37.988 36.4437 60 36.4437 60H44.1612V46.4343C44.1612 45.7078 44.2117 44.9839 44.4147 44.4634C44.9735 43.013 46.2433 41.511 48.3732 41.511C51.1677 41.511 52.2837 43.7395 52.2837 47.0035V59.9999H60V46.0711C60 38.6101 56.1941 35.1386 51.1148 35.1386Z" fill="#0A0A0A"/>
<path d="M0 0V-1H-1V0H0ZM84 0H85V-1H84V0ZM84 84V85H85V84H84ZM0 84H-1V85H0V84ZM0 1H84V-1H0V1ZM83 0V84H85V0H83ZM84 83H0V85H84V83ZM1 84V0H-1V84H1Z" fill="#FAFAFA"/>
</svg>
