<svg width="645" height="645" viewBox="0 0 645 645" fill="none" xmlns="http://www.w3.org/2000/svg">
<path fill-rule="evenodd" clip-rule="evenodd" d="M644.142 322.256L644.094 322.256L643.949 322.258L643.708 322.264L643.37 322.276L642.937 322.296L642.407 322.325L641.783 322.366L641.063 322.42L640.249 322.489L639.342 322.576L638.341 322.681L637.247 322.808L636.062 322.957L634.786 323.13L633.42 323.33L631.965 323.557L630.421 323.814L628.791 324.103L627.075 324.424L625.274 324.78L623.39 325.171L621.424 325.601L619.377 326.07L617.25 326.579L615.046 327.13L612.765 327.725L610.409 328.364L607.98 329.049L605.48 329.782L602.91 330.563L600.272 331.394L597.567 332.275L594.798 333.208L591.967 334.194L589.075 335.233L586.124 336.327L583.116 337.477L580.054 338.682L576.939 339.944L573.773 341.264L570.559 342.642L567.299 344.079L563.994 345.574L560.647 347.13L557.261 348.745L553.837 350.42L550.377 352.156L546.885 353.952L543.362 355.808L539.81 357.726L536.231 359.704L532.629 361.743L529.005 363.842L525.362 366.001L521.701 368.221L518.026 370.5L514.338 372.838L510.639 375.234L506.933 377.689L503.221 380.202L499.505 382.771L495.789 385.396L492.073 388.077L488.361 390.813L484.653 393.602L480.954 396.443L477.264 399.337L473.586 402.281L469.922 405.274L466.275 408.315L462.645 411.404L459.035 414.538L455.448 417.716L451.884 420.938L448.347 424.2L444.837 427.503L441.357 430.844L437.908 434.222L434.493 437.634L431.112 441.08L427.768 444.558L424.463 448.065L421.197 451.601L417.972 455.162L414.79 458.748L411.653 462.356L408.56 465.984L405.515 469.631L402.518 473.293L399.57 476.97L396.673 480.659L393.827 484.358L391.034 488.065L388.294 491.777L385.609 495.492L382.979 499.209L380.405 502.925L377.888 506.637L375.428 510.344L373.027 514.043L370.684 517.732L368.401 521.408L366.177 525.07L364.013 528.715L361.909 532.341L359.865 535.945L357.882 539.525L355.96 543.079L354.098 546.605L352.297 550.1L350.557 553.562L348.877 556.989L347.257 560.379L345.697 563.729L344.197 567.037L342.755 570.301L341.373 573.519L340.048 576.688L338.781 579.807L337.571 582.874L336.418 585.886L335.319 588.841L334.276 591.738L333.286 594.575L332.348 597.349L331.463 600.059L330.628 602.702L329.843 605.278L329.107 607.784L328.418 610.218L327.775 612.58L327.177 614.867L326.622 617.077L326.11 619.21L325.638 621.263L325.205 623.236L324.81 625.127L324.452 626.935L324.128 628.658L323.837 630.295L323.578 631.845L323.348 633.307L323.146 634.68L322.971 635.964L322.82 637.156L322.692 638.257L322.585 639.265L322.497 640.181L322.426 641.002L322.371 641.729L322.329 642.361L322.299 642.898L322.278 643.339L322.266 643.684L322.259 643.933L322.257 644.086L322.257 644.142L322.256 644.101L322.254 643.964L322.249 643.73L322.237 643.4L322.218 642.975L322.19 642.453L322.15 641.836L322.097 641.124L322.029 640.318L321.944 639.417L321.84 638.424L321.715 637.338L321.568 636.16L321.397 634.891L321.199 633.532L320.974 632.084L320.719 630.547L320.434 628.924L320.115 627.215L319.762 625.421L319.373 623.543L318.947 621.583L318.481 619.542L317.975 617.422L317.428 615.224L316.837 612.949L316.201 610.599L315.519 608.176L314.79 605.682L314.013 603.117L313.187 600.484L312.309 597.785L311.38 595.021L310.399 592.194L309.364 589.307L308.274 586.36L307.129 583.357L305.928 580.299L304.67 577.188L303.355 574.027L301.982 570.816L300.55 567.56L299.059 564.258L297.509 560.915L295.898 557.532L294.228 554.111L292.497 550.654L290.706 547.164L288.854 543.643L286.941 540.093L284.968 536.517L282.934 532.916L280.84 529.294L278.685 525.652L276.471 521.993L274.196 518.318L271.863 514.631L269.471 510.934L267.021 507.228L264.513 503.516L261.948 499.801L259.327 496.084L256.651 492.368L253.92 488.655L251.135 484.948L248.297 481.248L245.408 477.557L242.468 473.878L239.479 470.213L236.441 466.564L233.356 462.933L230.226 459.321L227.051 455.732L223.833 452.166L220.573 448.627L217.274 445.115L213.936 441.632L210.561 438.181L207.151 434.763L203.708 431.379L200.233 428.033L196.727 424.724L193.194 421.455L189.635 418.227L186.051 415.041L182.445 411.9L178.818 408.804L175.173 405.755L171.511 402.754L167.836 399.802L164.148 396.901L160.45 394.051L156.743 391.253L153.032 388.509L149.316 385.82L145.6 383.185L141.884 380.607L138.171 378.085L134.464 375.621L130.764 373.215L127.074 370.868L123.397 368.58L119.733 366.351L116.087 364.182L112.46 362.073L108.854 360.025L105.272 358.037L101.715 356.11L98.1873 354.243L94.6898 352.438L91.2249 350.692L87.7951 349.007L84.4026 347.383L81.0495 345.818L77.738 344.313L74.4704 342.867L71.2488 341.48L68.0754 340.151L64.9522 338.879L61.8813 337.665L58.8648 336.507L55.9047 335.404L53.003 334.356L50.1617 333.361L47.3826 332.42L44.6677 331.531L42.0188 330.692L39.4377 329.903L36.9262 329.163L34.4859 328.47L32.1185 327.823L29.8257 327.222L27.6091 326.664L25.4701 326.148L23.4102 325.673L21.4309 325.237L19.5334 324.84L17.7193 324.478L15.9895 324.152L14.3455 323.858L12.7883 323.596L11.319 323.364L9.93863 323.16L8.64813 322.983L7.44841 322.83L6.34031 322.7L5.3246 322.591L4.40199 322.502L3.57311 322.43L2.83856 322.373L2.19885 322.331L1.65441 322.3L1.20564 322.279L0.85284 322.266L0.596266 322.259L0.436094 322.256L0.372437 322.256L0.405338 322.255L0.534776 322.254L0.76066 322.248L1.08283 322.237L1.50106 322.219L2.01507 322.192L2.62448 322.153L3.32887 322.101L4.12776 322.034L5.02058 321.95L6.00671 321.848L7.08547 321.725L8.25609 321.58L9.51777 321.41L10.8696 321.215L12.3107 320.992L13.84 320.74L15.4565 320.457L17.1591 320.141L18.9465 319.791L20.8175 319.405L22.7709 318.981L24.8053 318.519L26.9192 318.016L29.1113 317.472L31.38 316.884L33.7238 316.252L36.141 315.574L38.6301 314.849L41.1892 314.076L43.8167 313.253L46.5108 312.38L49.2696 311.455L52.0913 310.478L54.974 309.447L57.9157 308.362L60.9144 307.221L63.9682 306.025L67.075 304.772L70.2327 303.461L73.4391 302.092L76.6923 300.665L79.99 299.179L83.3301 297.633L86.7103 296.028L90.1285 294.362L93.5824 292.636L97.0698 290.85L100.588 289.003L104.136 287.095L107.71 285.126L111.309 283.097L114.93 281.008L118.57 278.858L122.228 276.648L125.901 274.379L129.588 272.05L133.284 269.663L136.989 267.217L140.701 264.714L144.416 262.153L148.133 259.537L151.849 256.865L155.562 254.138L159.27 251.357L162.971 248.524L166.662 245.639L170.342 242.703L174.008 239.717L177.659 236.683L181.292 233.602L184.905 230.475L188.496 227.304L192.063 224.089L195.605 220.833L199.119 217.537L202.604 214.202L206.058 210.83L209.479 207.423L212.865 203.982L216.215 200.509L219.527 197.006L222.799 193.475L226.03 189.918L229.219 186.336L232.364 182.731L235.463 179.106L238.516 175.462L241.521 171.802L244.477 168.127L247.382 164.44L250.237 160.743L253.038 157.037L255.787 153.326L258.481 149.611L261.119 145.894L263.702 142.178L266.228 138.465L268.697 134.757L271.108 131.057L273.46 127.366L275.753 123.687L277.986 120.023L280.16 116.375L282.273 112.746L284.327 109.139L286.319 105.554L288.251 101.996L290.123 98.4656L291.933 94.9655L293.683 91.498L295.373 88.0653L297.002 84.6696L298.572 81.3133L300.082 77.9985L301.532 74.7273L302.924 71.5019L304.258 68.3246L305.534 65.1973L306.753 62.1221L307.915 59.1012L309.023 56.1366L310.075 53.2302L311.073 50.384L312.019 47.5999L312.913 44.8798L313.755 42.2255L314.548 39.6389L315.292 37.1218L315.989 34.6757L316.639 32.3025L317.244 30.0037L317.806 27.7809L318.325 25.6357L318.803 23.5694L319.242 21.5837L319.642 19.6797L320.007 17.8588L320.336 16.1223L320.632 14.4714L320.896 12.9073L321.131 11.4309L321.337 10.0434L321.516 8.74571L321.671 7.53873L321.803 6.4233L321.913 5.4002L322.004 4.47014L322.077 3.63378L322.135 2.8917L322.179 2.24441L322.21 1.69237L322.232 1.23597L322.246 0.875515L322.253 0.61127L322.256 0.443416L322.257 0.37207L322.257 0.397283L322.258 0.519036L322.263 0.737245L322.274 1.05176L322.291 1.46235L322.318 1.96874L322.356 2.57057L322.407 3.26742L322.472 4.05881L322.555 4.94417L322.655 5.9229L322.777 6.99431L322.92 8.15765L323.087 9.41211L323.281 10.7568L323.501 12.1908L323.751 13.7132L324.032 15.3228L324.345 17.0185L324.692 18.7992L325.075 20.6636L325.496 22.6105L325.955 24.6385L326.454 26.7462L326.995 28.9321L327.58 31.1948L328.208 33.5326L328.882 35.9441L329.604 38.4275L330.373 40.9811L331.192 43.6033L332.061 46.2921L332.981 49.0459L333.954 51.8626L334.981 54.7405L336.062 57.6776L337.198 60.6719L338.39 63.7213L339.639 66.824L340.945 69.9777L342.309 73.1804L343.731 76.4299L345.213 79.7242L346.754 83.061L348.354 86.4381L350.015 89.8533L351.736 93.3045L353.518 96.7893L355.36 100.306L357.263 103.851L359.227 107.423L361.251 111.02L363.336 114.639L365.481 118.278L367.686 121.935L369.951 125.607L372.274 129.292L374.657 132.988L377.098 136.693L379.597 140.404L382.153 144.118L384.765 147.835L387.433 151.551L390.155 155.265L392.931 158.973L395.761 162.675L398.642 166.367L401.574 170.048L404.555 173.715L407.585 177.367L410.663 181.002L413.786 184.616L416.954 188.209L420.165 191.779L423.418 195.323L426.711 198.839L430.043 202.326L433.412 205.783L436.817 209.206L440.255 212.595L443.725 215.948L447.226 219.263L450.754 222.539L454.31 225.773L457.89 228.965L461.493 232.114L465.116 235.217L468.759 238.274L472.418 241.282L476.091 244.242L479.777 247.152L483.474 250.01L487.179 252.816L490.89 255.569L494.605 258.267L498.322 260.91L502.038 263.497L505.751 266.028L509.459 268.501L513.16 270.917L516.852 273.273L520.532 275.571L524.197 277.809L527.847 279.988L531.477 282.106L535.086 284.164L538.673 286.162L542.233 288.099L545.766 289.975L549.268 291.79L552.739 293.545L556.174 295.239L559.573 296.874L562.932 298.448L566.251 299.962L569.525 301.418L572.754 302.814L575.936 304.153L579.067 305.433L582.146 306.657L585.172 307.824L588.141 308.935L591.052 309.992L593.903 310.995L596.692 311.945L599.417 312.842L602.077 313.689L604.669 314.486L607.192 315.234L609.643 315.934L612.023 316.588L614.327 317.197L616.556 317.761L618.708 318.284L620.78 318.765L622.773 319.207L624.683 319.611L626.511 319.978L628.254 320.31L629.912 320.609L631.483 320.875L632.966 321.112L634.361 321.32L635.666 321.502L636.88 321.658L638.003 321.792L639.033 321.904L639.97 321.996L640.814 322.071L641.564 322.13L642.219 322.175L642.778 322.207L643.242 322.23L643.611 322.244L643.882 322.252L644.058 322.255L644.142 322.256Z" fill="url(#paint0_linear_1161_1868)"/>
<defs>
<linearGradient id="paint0_linear_1161_1868" x1="326.878" y1="637.981" x2="314.557" y2="4.99241" gradientUnits="userSpaceOnUse">
<stop offset="0.00478469" stop-color="#343061"/>
<stop offset="0.222529" stop-color="#6E4B74"/>
<stop offset="0.424683" stop-color="#C27193"/>
<stop offset="0.626411" stop-color="#EE988E"/>
<stop offset="0.805208" stop-color="#F5BB95"/>
<stop offset="0.9875" stop-color="#F5D6A2"/>
</linearGradient>
</defs>
</svg>
