<svg width="1647" height="1057" viewBox="0 0 1647 1057" fill="none" xmlns="http://www.w3.org/2000/svg">
<path opacity="0.8" d="M989.66 946.968C1166.26 1108.7 1417.83 1073.2 1597.59 883.947C1777.34 694.693 1741.29 398.585 1532.83 276.204C1324.37 153.824 1094.51 158.174 924.909 339.225C755.311 520.275 813.062 785.24 989.66 946.968Z" fill="#EAEFF9"/>
<path opacity="0.8" d="M370.705 706.198C442.726 772.154 545.324 757.678 618.632 680.495C691.941 603.312 677.241 482.552 592.226 432.642C507.211 382.733 413.466 384.508 344.3 458.345C275.133 532.182 298.685 640.241 370.705 706.198Z" fill="#F0C933"/>
<path d="M86.5664 958.627C136.24 998.851 203.706 989.732 242.168 942.235C280.631 894.738 274.445 816.251 225.851 786.625C177.257 756.998 105.68 745.734 70.2487 803.017C34.8175 860.3 36.8932 918.402 86.5664 958.627Z" fill="#2F3180"/>
</svg>
