<svg width="84" height="84" viewBox="0 0 84 84" fill="none" xmlns="http://www.w3.org/2000/svg">
<path d="M0 0H84V84H0V0Z" fill="black"/>
<path d="M24.4565 35.7092H32.1717V60H24.4565V35.7092ZM28.3658 24C25.7252 24 24 25.8137 24 28.1942C24 30.5258 25.6747 32.3923 28.2648 32.3923H28.314C31.0051 32.3923 32.681 30.5257 32.681 28.1942C32.6305 25.8137 31.0052 24 28.3658 24ZM51.1148 35.1386C47.0194 35.1386 45.1847 37.4953 44.1612 39.148V35.7092H36.4437C36.5458 37.988 36.4437 60 36.4437 60H44.1612V46.4343C44.1612 45.7078 44.2117 44.9839 44.4147 44.4634C44.9735 43.013 46.2433 41.511 48.3732 41.511C51.1677 41.511 52.2837 43.7395 52.2837 47.0035V59.9999H60V46.0711C60 38.6101 56.1941 35.1386 51.1148 35.1386Z" fill="#FAFAFA"/>
<path d="M0 0V-2H-2V0H0ZM84 0H86V-2H84V0ZM84 84V86H86V84H84ZM0 84H-2V86H0V84ZM0 2H84V-2H0V2ZM82 0V84H86V0H82ZM84 82H0V86H84V82ZM2 84V0H-2V84H2Z" fill="black"/>
</svg>
