<svg width="176" height="105" viewBox="0 0 176 105" fill="none" xmlns="http://www.w3.org/2000/svg">
<rect x="14.4982" y="14" width="147.108" height="77.9333" fill="#FAFAFA"/>
<path fill-rule="evenodd" clip-rule="evenodd" d="M82.2906 37.4645C82.0039 37.5243 81.7759 37.6569 81.6351 37.8458C81.5262 37.9918 81.5248 38.0339 81.4941 41.9206C81.4611 46.0967 81.4516 46.2528 81.1966 46.8268C80.9346 47.4162 80.6193 47.5952 79.8403 47.5969L79.3049 47.5981V42.9041V38.2102L79.1873 38.0327C79.1212 37.933 78.9551 37.7979 78.8085 37.7245C78.5774 37.609 78.4812 37.5939 77.9727 37.5939C77.3147 37.5939 77.0145 37.6796 76.767 37.9378L76.6145 38.0971L76.6006 42.8475L76.5867 47.5981L75.9998 47.5969C75.5364 47.596 75.3669 47.5749 75.1941 47.4965C74.7971 47.3162 74.5205 46.7767 74.3974 45.9424C74.3626 45.7063 74.342 44.2479 74.342 42.0139C74.342 39.6779 74.3228 38.3714 74.2858 38.1993C74.1766 37.6901 73.7757 37.4905 72.9302 37.5245C72.2091 37.5534 71.9165 37.7551 71.8297 38.2829C71.7713 38.6384 71.7746 43.6016 71.8341 44.8554C71.9098 46.4502 72.1133 47.3875 72.5828 48.3033C72.8813 48.8855 73.5312 49.5357 74.0875 49.8085C74.6086 50.064 75.3577 50.2504 76.0412 50.2946L76.5906 50.3301L76.5764 51.2758L76.5622 52.2214L75.9615 52.258C74.7521 52.3317 73.9206 52.6669 73.2157 53.3649C72.8583 53.7189 72.7485 53.8703 72.5487 54.2849C72.096 55.2241 71.911 56.0973 71.8347 57.6544C71.7758 58.8571 71.7716 67.5823 71.8297 67.936C71.8804 68.2441 72.0112 68.4274 72.2815 68.5692C72.5823 68.727 73.5419 68.727 73.8427 68.5692C74.0943 68.4372 74.2293 68.2644 74.292 67.9941C74.3188 67.8784 74.3405 65.456 74.3418 62.4345C74.3442 56.7379 74.3563 56.4179 74.5993 55.6387C74.8355 54.8811 75.1051 54.7028 76.0142 54.7028H76.5872L76.6008 61.4384L76.6145 68.1741L76.7712 68.3385C76.9974 68.5759 77.2319 68.6587 77.7638 68.6893C78.4259 68.7272 78.7919 68.6425 79.0645 68.3883L79.2787 68.1885L79.2924 61.4413L79.306 54.6941L79.9277 54.7115C80.5335 54.7285 80.5545 54.7331 80.7499 54.8909C81.1254 55.1942 81.3407 55.8226 81.4462 56.923C81.4743 57.2155 81.4969 59.7614 81.4976 62.7077C81.4991 68.6688 81.4717 68.2777 81.9065 68.5325C82.1018 68.6469 82.2254 68.6759 82.5924 68.6934C82.8398 68.7051 83.1397 68.6878 83.2628 68.6546C83.5536 68.5761 83.8336 68.3261 83.9005 68.0852C83.9719 67.8282 83.9728 58.3493 83.9015 57.44C83.7119 55.0213 83.0302 53.6509 81.6993 53.0129C81.4311 52.8844 81.0561 52.7415 80.866 52.6955C80.5728 52.6245 79.7015 52.5146 79.3963 52.5101C79.3119 52.5088 79.3049 52.4154 79.3049 51.2916V50.0744L79.9187 50.0125C81.1153 49.8919 81.8823 49.5686 82.5453 48.9056C83.1555 48.2954 83.5169 47.51 83.744 46.3007C83.919 45.3689 83.9543 44.527 83.9543 41.2804V38.1646L83.8368 37.9315C83.7495 37.7584 83.6587 37.6689 83.4841 37.5837C83.212 37.4508 82.6331 37.393 82.2906 37.4645ZM52.0795 37.6892C51.7331 37.7873 51.5705 37.9103 51.4573 38.1596C51.3662 38.3603 51.3582 38.5253 51.3572 40.2485L51.356 42.1194L45.9622 42.0978C39.2165 42.0709 39.5496 42.1095 39.5496 41.3547C39.5496 40.9542 39.5604 40.9068 39.6671 40.8392C39.943 40.6647 40.3468 40.636 42.9811 40.6037L45.6028 40.5717L45.762 40.4191C46.0139 40.1776 46.106 39.868 46.1048 39.2656C46.1033 38.4803 45.9363 38.0868 45.5408 37.937C45.3441 37.8625 40.9684 37.8624 40.2999 37.937C38.8006 38.1041 37.794 38.6602 37.3655 39.5582C37.1237 40.0647 37.037 40.5109 37.0377 41.2436C37.0387 42.2554 37.2328 42.7897 37.8025 43.3488C38.3661 43.902 39.236 44.2502 40.6205 44.4768C41.2732 44.5836 41.4959 44.5887 46.3278 44.607L51.356 44.6261V45.5113V46.3965L46.7458 46.3975C41.7676 46.3985 41.5956 46.4064 40.5551 46.6834C38.5521 47.2165 37.4896 48.5104 37.1138 50.874C37.0324 51.3856 37.0223 52.2214 37.004 59.912C36.9901 65.73 37.0011 68.4799 37.0391 68.6851C37.1408 69.2354 37.4607 69.4318 38.2583 69.4336C38.941 69.4351 39.2945 69.2823 39.4637 68.9123C39.5074 68.8167 39.5307 66.4432 39.5504 60.0575L39.5774 51.3333L39.6955 50.9504C40.1101 49.6052 40.886 49.021 42.4817 48.853C42.7604 48.8236 44.7775 48.801 47.1637 48.8005L51.356 48.7996V49.5256V50.2517L49.0444 50.277C47.2498 50.2967 46.6061 50.3219 46.1667 50.3895C43.9703 50.7274 42.8727 51.477 42.5474 52.8613C42.4288 53.3661 42.4719 54.5034 42.626 54.9337C43.0439 56.1006 44.0942 56.7436 46.1058 57.0637C46.6932 57.1572 47.0937 57.1752 49.0705 57.1965L51.356 57.2211V57.8933V58.5655L47.3727 58.5801L43.3893 58.5948L43.1971 58.7143C42.8772 58.9132 42.7624 59.2197 42.7624 59.8747C42.7624 60.5071 42.8407 60.7299 43.1444 60.9616L43.3289 61.1023L47.3475 61.1166L51.3662 61.1309L51.3416 62.9451C51.3157 64.8576 51.2919 65.0791 51.0394 65.7501C50.9581 65.9663 50.8384 66.1456 50.6496 66.3344C50.2145 66.7695 50.1458 66.7803 47.9496 66.7573C45.9873 66.7368 45.8488 66.7205 45.557 66.4749C45.241 66.2089 45.2223 66.1251 45.1926 64.8375C45.1754 64.0901 45.1434 63.6241 45.105 63.5576C44.903 63.2088 44.5337 63.0613 43.8624 63.0613C43.2532 63.0613 42.9198 63.1577 42.6826 63.4023L42.5012 63.5894L42.4858 65.1669C42.4684 66.9478 42.5024 67.2097 42.8203 67.7489C43.3966 68.7261 44.6033 69.2185 46.8372 69.3878C47.7633 69.4579 49.0999 69.4186 49.7627 69.3016C51.9064 68.9232 53.1117 67.7804 53.576 65.686C53.7581 64.8643 53.8113 64.1552 53.8113 62.5502V61.1169L55.8879 61.144C57.4294 61.1641 58.0687 61.1914 58.3688 61.2498C59.2973 61.4305 59.7824 61.686 60.028 62.1235C60.157 62.3533 60.1588 62.3733 60.1749 63.7659C60.1964 65.6323 60.1269 66.0127 59.6956 66.3914C59.4355 66.6198 59.1331 66.666 57.8958 66.666C56.595 66.666 56.5359 66.6842 56.2956 67.1601C56.1568 67.435 56.1418 67.5145 56.1418 67.9713C56.1418 68.4142 56.1593 68.5135 56.2814 68.7631C56.3819 68.9686 56.4781 69.0806 56.6252 69.1632C56.8229 69.2743 56.8789 69.278 58.3895 69.2772C60.1219 69.2764 60.3861 69.2428 60.9259 68.9551C61.1013 68.8616 61.3646 68.6506 61.5406 68.4625C62.2467 67.7077 62.6005 66.4703 62.6742 64.498C62.7772 61.7412 62.0706 60.1129 60.4198 59.3029C59.2547 58.7312 58.1339 58.5693 55.3394 58.5688L53.8113 58.5686V57.8949V57.2211L56.0969 57.1956C58.5284 57.1686 58.9804 57.1312 59.9955 56.8737C61.2695 56.5506 62.0908 55.9565 62.4552 55.0946C62.5873 54.7822 62.6924 54.1697 62.6914 53.7187C62.6889 52.6189 62.2616 51.7424 61.4698 51.2128C61.0372 50.9235 60.7055 50.785 60.0019 50.6C59.004 50.3375 58.5875 50.3028 56.123 50.2764L53.8113 50.2517V49.5256V48.7996L58.082 48.8005C60.5198 48.801 62.5629 48.8235 62.8424 48.853C63.804 48.9543 64.4259 49.1953 64.93 49.6619C65.447 50.1407 65.725 50.8223 65.8258 51.8586C65.8558 52.1671 65.8768 55.6684 65.8776 60.4808L65.879 68.5834L65.9967 68.7581C66.2134 69.0797 66.402 69.1474 67.0805 69.1474C67.7601 69.1474 67.9476 69.0798 68.1658 68.756L68.2849 68.5791L68.2677 59.7734L68.2505 50.9676L68.1366 50.4484C67.7617 48.7385 67.0933 47.7337 65.9312 47.133C65.4018 46.8593 64.9016 46.6866 64.2249 46.5438C63.6616 46.425 63.6338 46.4243 58.735 46.4085L53.8113 46.3925V45.5064V44.6203L58.5522 44.6199C61.2834 44.6197 63.5477 44.5972 63.8938 44.567C65.7086 44.4088 66.8208 44.0391 67.5044 43.3668C68.0834 42.7975 68.2827 42.2594 68.2812 41.2694C68.2795 40.2029 68.0416 39.5214 67.4724 38.9522C66.9377 38.4176 66.1753 38.1048 65.0503 37.9584C64.5556 37.8941 63.9497 37.8811 61.9828 37.8928C59.5335 37.9074 59.5316 37.9075 59.3664 38.0253C59.2755 38.0901 59.1462 38.2547 59.0791 38.391C58.9709 38.6108 58.9571 38.7126 58.9574 39.2918C58.9577 39.8276 58.9752 39.9776 59.055 40.1276C59.1691 40.3423 59.3331 40.5309 59.4795 40.6157C59.5537 40.6587 60.4311 40.6838 62.5094 40.7024C65.1022 40.7257 65.457 40.7386 65.6289 40.8165C65.8541 40.9184 65.8916 41.0193 65.8688 41.462C65.8535 41.7601 65.8452 41.7769 65.67 41.8613C65.2499 42.0636 64.8809 42.0773 59.2593 42.0984L53.815 42.1189L53.8001 40.1606C53.7858 38.2809 53.7809 38.1963 53.678 38.0548C53.4276 37.7104 52.6403 37.5304 52.0795 37.6892ZM86.0565 37.724C85.826 37.8649 85.7002 38.0888 85.6237 38.4944C85.4863 39.2226 85.6667 39.9725 86.0386 40.219L86.2161 40.3366H94.3502H102.484L102.662 40.219C102.762 40.1529 102.897 39.9868 102.97 39.8402C103.086 39.6091 103.101 39.513 103.101 39.0044C103.101 38.3464 103.015 38.0462 102.757 37.7987L102.597 37.6462L94.4121 37.633C86.3172 37.6201 86.2249 37.6211 86.0565 37.724ZM86.0386 42.805C85.9385 42.8714 85.8044 43.0365 85.7311 43.1838C85.6175 43.4118 85.601 43.5144 85.6005 43.9934C85.5996 44.8222 85.8125 45.2447 86.2862 45.3546C86.3972 45.3804 87.4812 45.402 88.6952 45.4027L90.9023 45.4039L90.9033 48.3686C90.9049 53.4067 91.0392 54.8127 91.6365 56.0469C91.9871 56.7713 92.4362 57.1299 93.0753 57.1959L93.3597 57.2252L93.3456 58.3279L93.3315 59.4306L92.0778 59.4267C91.0881 59.4237 90.7554 59.4047 90.4983 59.3366C89.4083 59.0479 88.8902 58.3825 88.6799 57.0014C88.619 56.6016 88.6043 55.7342 88.604 52.5383C88.6037 48.6396 88.6019 48.5675 88.4961 48.349C88.3316 48.0092 87.993 47.8593 87.3903 47.8593C86.6595 47.8593 86.3068 48.0664 86.1982 48.5593C86.1563 48.7494 86.1462 50.0232 86.1632 53.005C86.1886 57.4722 86.1952 57.5922 86.4667 58.5599C86.8614 59.9664 87.6308 60.9149 88.8246 61.4664C89.691 61.8667 90.5489 62.0216 92.13 62.0632L93.3315 62.0949L93.3457 63.151L93.3598 64.2071L89.8456 64.2219L86.3313 64.2368L86.1337 64.3596C86.0251 64.4271 85.8892 64.5745 85.8318 64.687C85.6052 65.1312 85.6129 66.0996 85.8465 66.5267C85.9277 66.6751 86.0398 66.7817 86.1987 66.8619L86.4318 66.9794H89.8947H93.3577V67.5348C93.3577 68.2001 93.4326 68.3668 93.8167 68.556C94.0311 68.6616 94.1407 68.6772 94.6651 68.6772C95.2049 68.6772 95.2935 68.6637 95.5209 68.5466C95.8932 68.355 95.9697 68.1791 95.9697 67.5157V66.9794H99.4688C103.435 66.9794 103.283 66.9941 103.521 66.5882C103.709 66.2672 103.788 65.6537 103.705 65.165C103.636 64.7647 103.508 64.5249 103.267 64.3461C103.121 64.238 103.078 64.2366 99.5444 64.2223L95.9697 64.2079V63.1383V62.0688H96.8558C97.3431 62.0688 97.9837 62.0428 98.2793 62.011C99.4432 61.886 100.579 61.4843 101.288 60.9468C102.107 60.3267 102.681 59.2523 102.954 57.8295C103.04 57.3832 103.048 56.9607 103.048 52.9436C103.048 48.5659 103.048 48.5454 102.939 48.3986C102.879 48.3175 102.734 48.1975 102.617 48.132C102.188 47.892 101.31 47.9332 100.982 48.2089C100.657 48.483 100.671 48.2874 100.671 52.3363C100.67 56.9439 100.64 57.3361 100.226 58.1858C100.021 58.6058 99.6759 58.955 99.2847 59.1388C98.7785 59.3768 98.4704 59.4191 97.1974 59.425L95.9958 59.4306L95.9818 58.3279L95.9677 57.2252L96.2621 57.1948C97.553 57.0616 98.2354 55.6147 98.4229 52.6132C98.4525 52.1391 98.4769 50.3231 98.477 48.5776L98.4773 45.4039L100.397 45.4027C101.527 45.4019 102.414 45.3792 102.552 45.3474C102.681 45.3177 102.851 45.2322 102.929 45.1574C103.187 44.911 103.323 44.2349 103.235 43.6378C103.174 43.2267 103.038 42.957 102.814 42.805L102.641 42.6874H94.4286H86.2161L86.0386 42.805ZM95.6918 49.2828C95.6759 51.8153 95.6471 53.2796 95.6087 53.5013C95.5129 54.0533 95.3895 54.4323 95.2602 54.572C95.1436 54.6977 95.1143 54.7028 94.506 54.7028C94.158 54.7028 93.831 54.6802 93.7795 54.6527C93.6274 54.5713 93.4749 54.1373 93.4116 53.6058C93.3758 53.3057 93.3401 51.5859 93.3211 49.2567L93.2898 45.4039H94.503H95.7161L95.6918 49.2828ZM59.5087 53.0983C60.1852 53.2121 60.192 53.2183 60.1738 53.7002L60.1586 54.102L59.9758 54.1911C59.5595 54.3938 58.852 54.4155 52.662 54.4155C46.4715 54.4155 45.8234 54.3954 45.4006 54.1906L45.2177 54.102L45.2025 53.7002C45.1853 53.2445 45.1901 53.2382 45.6421 53.1305C46.1161 53.0176 47.8123 52.9907 53.4457 53.0069C58.0356 53.0201 59.1433 53.0368 59.5087 53.0983Z" fill="black"/>
<path fill-rule="evenodd" clip-rule="evenodd" d="M124.875 36.5544C124.525 36.6535 124.361 36.7775 124.247 37.029C124.152 37.2377 124.147 37.4283 124.146 40.7799C124.145 44.4384 124.174 45.1369 124.365 46.0237C124.896 48.4978 126.31 49.6392 129.197 49.9228C129.954 49.9971 138.002 49.9949 138.2 49.9203C138.576 49.7782 138.796 49.3512 138.796 48.7642C138.796 48.3854 138.674 47.9721 138.52 47.8322C138.23 47.5683 138.454 47.5804 133.289 47.5483C128.648 47.5195 128.42 47.5136 127.966 47.4101C127.418 47.2851 127.057 47.1288 126.879 46.9392C126.768 46.8209 126.752 46.7475 126.735 46.2831L126.717 45.7602L132.454 45.76C138.055 45.7599 138.194 45.7574 138.359 45.6567C138.598 45.5109 138.747 45.187 138.781 44.7388C138.835 44.025 138.636 43.5234 138.234 43.3551C138.092 43.296 137.062 43.2832 132.394 43.2832H126.727V42.3083V41.3333L132.38 41.3331C137.96 41.3329 138.034 41.3316 138.207 41.2263C138.516 41.0375 138.611 40.7341 138.611 39.9367C138.611 39.303 138.602 39.2341 138.48 39.0191C138.407 38.8912 138.281 38.737 138.199 38.6765C138.051 38.5667 138.037 38.5664 132.389 38.5523L126.727 38.5383V37.8916C126.727 37.0902 126.635 36.8509 126.25 36.6556C125.948 36.5022 125.242 36.4502 124.875 36.5544ZM120.365 36.5914C119.952 36.6508 119.711 36.7948 119.573 37.0655C119.47 37.2673 119.454 37.3785 119.454 37.918V38.5384L113.477 38.5524C107.508 38.5665 107.499 38.5666 107.35 38.6765C107.268 38.737 107.142 38.8912 107.07 39.0191C106.948 39.2341 106.938 39.303 106.938 39.9367C106.938 40.5505 106.951 40.6482 107.062 40.8749C107.295 41.3468 106.693 41.3036 113.444 41.3333L119.428 41.3596L119.442 42.3214L119.457 43.2832H113.578C108.732 43.2832 107.668 43.2959 107.527 43.3551C107.125 43.5229 106.934 43.9906 106.975 44.7036C107.001 45.1612 107.121 45.4514 107.354 45.6255C107.498 45.733 107.547 45.7341 113.463 45.7602L119.428 45.7866L119.444 46.1812C119.452 46.3983 119.447 46.6264 119.431 46.6881C119.382 46.8865 119.082 47.123 118.734 47.2389C117.901 47.516 117.936 47.5142 112.63 47.5474C107.787 47.5777 107.671 47.5809 107.491 47.6847C107.192 47.8569 107.043 48.218 107.045 48.7642C107.046 49.0106 107.077 49.2999 107.114 49.4072C107.207 49.6759 107.486 49.9087 107.766 49.95C107.89 49.9683 110.031 49.9744 112.524 49.9635C117.444 49.9419 117.403 49.9442 118.47 49.6352C120.33 49.0959 121.341 47.9354 121.782 45.8307C121.899 45.2704 121.902 45.1829 121.919 41.2265L121.937 37.1934L121.815 37.0103C121.589 36.6693 121.002 36.4997 120.365 36.5914ZM122.468 50.0822C122.343 50.1086 122.159 50.1808 122.058 50.2428C121.744 50.437 121.698 50.5882 121.677 51.4915L121.658 52.2952H114.688H107.718L107.538 52.4142C107.238 52.6139 107.122 52.918 107.122 53.5074C107.122 54.0967 107.238 54.4009 107.538 54.6005L107.718 54.7195H122.985H138.253L138.43 54.6008C138.754 54.3821 138.822 54.1919 138.822 53.5074C138.822 52.8228 138.754 52.6326 138.43 52.414L138.253 52.2952H131.204H124.154L124.136 51.4652C124.12 50.6875 124.111 50.6239 123.992 50.4572C123.922 50.3593 123.765 50.2353 123.644 50.1816C123.382 50.0655 122.786 50.0151 122.468 50.0822ZM112.05 56.5206C110.314 56.6951 108.96 57.3388 108.258 58.3231C107.766 59.0125 107.473 59.7881 107.305 60.8423C107.194 61.5386 107.126 67.0898 107.222 67.6017C107.329 68.1728 107.644 68.3669 108.466 68.3669C109.244 68.3669 109.586 68.1776 109.7 67.6841C109.734 67.535 109.755 66.2863 109.756 64.3222C109.757 61.6832 109.77 61.1347 109.841 60.7943C109.99 60.0707 110.275 59.6659 110.811 59.4143L111.101 59.2782L113.204 59.2622C115.197 59.247 115.325 59.2518 115.662 59.3541C116.113 59.4912 116.491 59.8164 116.691 60.2388C116.921 60.7243 116.974 61.1872 116.976 62.7302C116.978 64.2495 117.039 64.8312 117.26 65.4406C117.789 66.8977 118.988 67.6597 121.267 67.9876C121.852 68.0717 122.594 68.0794 130.206 68.0794H138.506L138.698 67.9599C138.993 67.7766 139.082 67.541 139.101 66.8936C139.116 66.4 139.105 66.3149 138.996 66.1062C138.93 65.9774 138.808 65.8233 138.726 65.7636C138.578 65.6554 138.552 65.655 130.057 65.6256C121.502 65.5959 121.285 65.5911 120.588 65.4139C120.083 65.2857 119.722 65.074 119.56 64.8118C119.475 64.6739 119.454 64.5493 119.454 64.1601V63.6788L121.312 63.678C125.7 63.6763 127.542 63.398 128.4 62.6072C128.81 62.23 128.852 62.096 128.893 61.0399C128.942 59.7833 129.038 59.5976 129.759 59.3754C130.046 59.2868 130.293 59.2782 132.551 59.2782C134.747 59.2782 135.061 59.2885 135.321 59.3691C135.727 59.4949 136.017 59.7194 136.167 60.0245C136.29 60.2731 136.293 60.3218 136.319 61.9755C136.349 63.9116 136.336 63.8546 136.822 64.1002C137.039 64.2097 137.158 64.2317 137.531 64.2317C137.904 64.2317 138.023 64.2097 138.24 64.1002C138.734 63.8507 138.715 63.9449 138.732 61.7382C138.749 59.5607 138.718 59.2699 138.397 58.5753C138.152 58.0434 137.563 57.4549 137.004 57.1835C135.888 56.641 134.266 56.4182 131.866 56.4778C129.126 56.5458 127.689 56.8507 126.966 57.5172C126.585 57.8677 126.502 58.1368 126.467 59.1227C126.435 60.0507 126.411 60.1273 126.08 60.3798C125.837 60.5652 125.567 60.6702 125.014 60.7946C124.583 60.8917 124.309 60.9035 122.008 60.9242L119.477 60.9469L119.415 60.3497C119.336 59.5847 119.242 59.2256 118.973 58.6767C118.36 57.4252 116.939 56.7085 114.685 56.5143C113.942 56.4502 112.72 56.4531 112.05 56.5206Z" fill="black"/>
<rect x="14.4982" y="14" width="147.108" height="77.9333" stroke="black" stroke-width="3"/>
<rect x="2" y="2" width="172" height="101" stroke="black" stroke-width="4"/>
</svg>
