<svg width="182" height="105" viewBox="0 0 182 105" fill="none" xmlns="http://www.w3.org/2000/svg">
<path fill-rule="evenodd" clip-rule="evenodd" d="M85.4691 37.0309C85.1813 37.0907 84.9524 37.2234 84.811 37.4123C84.7018 37.5582 84.7003 37.6003 84.6695 41.487C84.6364 45.6631 84.6268 45.8192 84.3708 46.3932C84.1078 46.9826 83.7913 47.1616 83.0093 47.1633L82.4717 47.1645V42.4705V37.7766L82.3537 37.5991C82.2873 37.4994 82.1206 37.3643 81.9735 37.291C81.7414 37.1754 81.6449 37.1603 81.1344 37.1603C80.4738 37.1603 80.1724 37.246 79.924 37.5042L79.7708 37.6635L79.7569 42.4139L79.743 47.1645L79.1538 47.1633C78.6885 47.1624 78.5184 47.1413 78.345 47.0629C77.9464 46.8826 77.6687 46.3431 77.5451 45.5089C77.5101 45.2727 77.4895 43.8143 77.4895 41.5803C77.4895 39.2443 77.4702 37.9378 77.4331 37.7657C77.3235 37.2565 76.921 37.0569 76.0722 37.0909C75.3483 37.1198 75.0546 37.3215 74.9674 37.8493C74.9088 38.2048 74.912 43.168 74.9718 44.4218C75.0478 46.0166 75.2521 46.9539 75.7235 47.8697C76.0231 48.4519 76.6755 49.1021 77.234 49.3749C77.7571 49.6304 78.5091 49.8168 79.1954 49.861L79.7469 49.8965L79.7326 50.8422L79.7184 51.7878L79.1153 51.8244C77.9012 51.8981 77.0665 52.2333 76.3588 52.9313C76 53.2853 75.8898 53.4367 75.6892 53.8513C75.2347 54.7905 75.049 55.6637 74.9724 57.2208C74.9132 58.4235 74.909 67.1487 74.9674 67.5025C75.0183 67.8105 75.1496 67.9938 75.4209 68.1356C75.7229 68.2934 76.6863 68.2934 76.9883 68.1356C77.2408 68.0036 77.3763 67.8308 77.4393 67.5605C77.4662 67.4448 77.488 65.0224 77.4893 62.0009C77.4917 56.3043 77.5039 55.9843 77.7478 55.2051C77.9849 54.4475 78.2555 54.2692 79.1682 54.2692H79.7435L79.7571 61.0048L79.7708 67.7405L79.9282 67.9049C80.1553 68.1423 80.3907 68.2251 80.9246 68.2557C81.5893 68.2936 81.9568 68.209 82.2304 67.9548L82.4455 67.7549L82.4592 61.0077L82.4729 54.2605L83.097 54.2779C83.7051 54.2949 83.7262 54.2995 83.9224 54.4573C84.2994 54.7606 84.5155 55.389 84.6214 56.4895C84.6496 56.782 84.6723 59.3278 84.673 62.2741C84.6746 68.2352 84.647 67.8441 85.0835 68.0989C85.2796 68.2133 85.4036 68.2423 85.7721 68.2598C86.0205 68.2715 86.3215 68.2542 86.4451 68.221C86.7371 68.1425 87.0181 67.8925 87.0853 67.6517C87.157 67.3946 87.1579 57.9157 87.0863 57.0064C86.896 54.5877 86.2116 53.2173 84.8755 52.5793C84.6062 52.4508 84.2298 52.3079 84.039 52.2619C83.7446 52.1909 82.8699 52.081 82.5635 52.0765C82.4788 52.0752 82.4717 51.9818 82.4717 50.858V49.6408L83.088 49.5789C84.2892 49.4583 85.0592 49.135 85.7248 48.472C86.3374 47.8618 86.7002 47.0764 86.9282 45.8671C87.1039 44.9354 87.1393 44.0934 87.1393 40.8468V37.731L87.0213 37.4979C86.9337 37.3248 86.8426 37.2353 86.6673 37.1501C86.3941 37.0172 85.8129 36.9594 85.4691 37.0309ZM55.1401 37.2556C54.7924 37.3537 54.6291 37.4767 54.5155 37.726C54.424 37.9267 54.416 38.0918 54.415 39.8149L54.4138 41.6858L48.9989 41.6642C42.2269 41.6373 42.5613 41.6759 42.5613 40.9211C42.5613 40.5206 42.5722 40.4732 42.6793 40.4057C42.9563 40.2311 43.3616 40.2024 46.0062 40.1702L48.6382 40.1381L48.798 39.9855C49.0509 39.744 49.1433 39.4344 49.1421 38.8321C49.1406 38.0467 48.973 37.6532 48.576 37.5034C48.3784 37.4289 43.9856 37.4288 43.3146 37.5034C41.8094 37.6705 40.7989 38.2266 40.3687 39.1246C40.126 39.6311 40.0389 40.0773 40.0396 40.81C40.0406 41.8219 40.2355 42.3561 40.8074 42.9153C41.3733 43.4684 42.2466 43.8166 43.6365 44.0432C44.2916 44.15 44.5152 44.1551 49.366 44.1734L54.4138 44.1925V45.0777V45.9629L49.7856 45.9639C44.788 45.9649 44.6153 45.9729 43.5707 46.2498C41.56 46.7829 40.4933 48.0768 40.116 50.4404C40.0343 50.952 40.0242 51.7878 40.0058 59.4784C39.9919 65.2964 40.0029 68.0463 40.041 68.2515C40.1431 68.8018 40.4643 68.9982 41.265 69C41.9504 69.0015 42.3052 68.8487 42.4751 68.4787C42.519 68.3831 42.5424 66.0096 42.5622 59.6239L42.5893 50.8997L42.7078 50.5168C43.124 49.1716 43.903 48.5875 45.5049 48.4194C45.7847 48.39 47.8096 48.3674 50.2051 48.3669L54.4138 48.366V49.092V49.8181L52.0932 49.8434C50.2916 49.8631 49.6454 49.8883 49.2042 49.9559C46.9993 50.2938 45.8974 51.0435 45.5709 52.4277C45.4518 52.9325 45.4951 54.0698 45.6498 54.5001C46.0693 55.667 47.1237 56.31 49.1431 56.6301C49.7328 56.7236 50.1349 56.7416 52.1194 56.7629L54.4138 56.7875V57.4597V58.1319L50.4149 58.1465L46.416 58.1612L46.2231 58.2807C45.902 58.4796 45.7867 58.7861 45.7867 59.4411C45.7867 60.0735 45.8653 60.2964 46.1702 60.528L46.3553 60.6687L50.3897 60.683L54.424 60.6974L54.3994 62.5115C54.3734 64.424 54.3494 64.6456 54.096 65.3165C54.0143 65.5327 53.8942 65.712 53.7047 65.9008C53.2679 66.3359 53.1989 66.3467 50.9941 66.3237C49.0242 66.3032 48.8852 66.2869 48.5922 66.0413C48.2749 65.7753 48.2562 65.6915 48.2264 64.4039C48.209 63.6565 48.177 63.1905 48.1384 63.124C47.9356 62.7752 47.5649 62.6278 46.891 62.6278C46.2793 62.6278 45.9447 62.7241 45.7066 62.9687L45.5245 63.1558L45.509 64.7333C45.4915 66.5142 45.5256 66.7761 45.8448 67.3153C46.4234 68.2925 47.6348 68.7849 49.8774 68.9542C50.8071 69.0243 52.1489 68.985 52.8143 68.868C54.9663 68.4896 56.1764 67.3468 56.6425 65.2524C56.8253 64.4307 56.8787 63.7216 56.8787 62.1166V60.6834L58.9634 60.7104C60.5109 60.7305 61.1527 60.7578 61.454 60.8162C62.3861 60.997 62.8731 61.2524 63.1196 61.6899C63.2491 61.9197 63.251 61.9397 63.2671 63.3323C63.2887 65.1987 63.219 65.5792 62.786 65.9578C62.5248 66.1862 62.2212 66.2324 60.9791 66.2324C59.6733 66.2324 59.6139 66.2507 59.3727 66.7265C59.2333 67.0014 59.2182 67.0809 59.2182 67.5377C59.2182 67.9806 59.2358 68.0799 59.3584 68.3295C59.4593 68.535 59.5559 68.647 59.7036 68.7296C59.9021 68.8408 59.9582 68.8444 61.4748 68.8436C63.2139 68.8428 63.4792 68.8092 64.0211 68.5215C64.1972 68.428 64.4615 68.217 64.6381 68.0289C65.347 67.2741 65.7022 66.0367 65.7761 64.0644C65.8795 61.3076 65.1702 59.6793 63.513 58.8693C62.3433 58.2976 61.2181 58.1357 58.4127 58.1353L56.8787 58.135V57.4613V56.7875L59.1732 56.762C61.6142 56.735 62.068 56.6976 63.087 56.4401C64.366 56.117 65.1905 55.5229 65.5563 54.661C65.6889 54.3486 65.7944 53.7362 65.7934 53.2851C65.7909 52.1853 65.362 51.3088 64.5671 50.7792C64.1328 50.4899 63.7998 50.3514 63.0934 50.1664C62.0916 49.9039 61.6735 49.8692 59.1994 49.8428L56.8787 49.8181V49.092V48.366L61.1661 48.3669C63.6134 48.3674 65.6644 48.3899 65.945 48.4194C66.9103 48.5207 67.5348 48.7617 68.0408 49.2283C68.5598 49.7071 68.8389 50.3887 68.9401 51.425C68.9702 51.7336 68.9913 55.2348 68.9921 60.0472L68.9934 68.1498L69.1116 68.3245C69.3292 68.6461 69.5185 68.7138 70.1997 68.7138C70.8819 68.7138 71.0701 68.6462 71.2892 68.3224L71.4088 68.1455L71.3915 59.3398L71.3742 50.534L71.2599 50.0148C70.8836 48.3049 70.2125 47.3001 69.0459 46.6994C68.5144 46.4257 68.0123 46.253 67.3329 46.1102C66.7674 45.9915 66.7395 45.9907 61.8216 45.9749L56.8787 45.9589V45.0728V44.1867L61.6381 44.1863C64.3799 44.1861 66.6531 44.1636 67.0006 44.1335C68.8224 43.9752 69.939 43.6055 70.6253 42.9332C71.2065 42.3639 71.4065 41.8258 71.405 40.8358C71.4033 39.7693 71.1646 39.0878 70.5931 38.5186C70.0563 37.984 69.2909 37.6712 68.1615 37.5248C67.6649 37.4605 67.0566 37.4475 65.0821 37.4592C62.6232 37.4738 62.6213 37.4739 62.4555 37.5917C62.3642 37.6565 62.2344 37.8211 62.167 37.9574C62.0584 38.1772 62.0446 38.279 62.0449 38.8582C62.0452 39.394 62.0628 39.544 62.1428 39.694C62.2574 39.9087 62.422 40.0973 62.569 40.1821C62.6435 40.2251 63.5243 40.2502 65.6108 40.2688C68.2137 40.2921 68.5698 40.305 68.7424 40.3829C68.9685 40.4848 69.0061 40.5857 68.9833 41.0284C68.9679 41.3266 68.9595 41.3433 68.7837 41.4277C68.362 41.63 67.9915 41.6437 62.3479 41.6648L56.8824 41.6853L56.8675 39.727C56.8531 37.8473 56.8482 37.7627 56.7449 37.6212C56.4935 37.2768 55.7031 37.0968 55.1401 37.2556ZM89.2497 37.2904C89.0183 37.4313 88.8921 37.6552 88.8152 38.0608C88.6772 38.789 88.8584 39.5389 89.2317 39.7854L89.41 39.903H97.5758H105.742L105.92 39.7854C106.02 39.7193 106.156 39.5532 106.229 39.4067C106.345 39.1755 106.36 39.0794 106.36 38.5709C106.36 37.9128 106.274 37.6126 106.015 37.3651L105.855 37.2126L97.6379 37.1994C89.5114 37.1865 89.4188 37.1875 89.2497 37.2904ZM89.2317 42.3714C89.1313 42.4378 88.9966 42.603 88.923 42.7502C88.809 42.9782 88.7924 43.0809 88.7919 43.5599C88.791 44.3886 89.0047 44.8111 89.4803 44.921C89.5917 44.9468 90.68 44.9684 91.8987 44.9691L94.1144 44.9704L94.1154 47.935C94.117 52.9731 94.2518 54.3791 94.8515 55.6133C95.2035 56.3377 95.6543 56.6963 96.2959 56.7623L96.5814 56.7916L96.5672 57.8943L96.5531 58.997L95.2945 58.9932C94.3009 58.9901 93.9669 58.9711 93.7088 58.903C92.6146 58.6144 92.0944 57.9489 91.8833 56.5678C91.8222 56.168 91.8075 55.3006 91.8072 52.1047C91.8069 48.206 91.805 48.134 91.6988 47.9154C91.5337 47.5756 91.1938 47.4257 90.5887 47.4257C89.8551 47.4257 89.501 47.6328 89.3919 48.1258C89.3498 48.3158 89.3398 49.5896 89.3568 52.5714C89.3824 57.0386 89.389 57.1586 89.6615 58.1263C90.0577 59.5328 90.8302 60.4813 92.0286 61.0328C92.8984 61.4331 93.7596 61.588 95.3469 61.6296L96.5531 61.6613L96.5673 62.7174L96.5815 63.7736L93.0535 63.7883L89.5255 63.8032L89.3272 63.926C89.2182 63.9935 89.0818 64.1409 89.0241 64.2534C88.7966 64.6976 88.8044 65.666 89.0389 66.0931C89.1204 66.2415 89.2329 66.3481 89.3924 66.4283L89.6264 66.5458H93.1029H96.5793V67.1012C96.5793 67.7665 96.6546 67.9332 97.0402 68.1224C97.2554 68.228 97.3654 68.2436 97.8919 68.2436C98.4338 68.2436 98.5227 68.2301 98.751 68.113C99.1248 67.9214 99.2016 67.7455 99.2016 67.0821V66.5458H102.714C106.696 66.5458 106.543 66.5605 106.782 66.1546C106.971 65.8336 107.051 65.2202 106.967 64.7314C106.898 64.3311 106.769 64.0913 106.527 63.9125C106.381 63.8044 106.338 63.803 102.79 63.7887L99.2016 63.7743V62.7047V61.6352H100.091C100.58 61.6352 101.223 61.6092 101.52 61.5775C102.689 61.4524 103.829 61.0507 104.541 60.5132C105.362 59.8932 105.939 58.8187 106.214 57.3959C106.3 56.9496 106.308 56.5271 106.308 52.51C106.308 48.1323 106.307 48.1119 106.198 47.965C106.138 47.8839 105.992 47.7639 105.875 47.6984C105.444 47.4584 104.563 47.4996 104.234 47.7753C103.907 48.0494 103.922 47.8538 103.921 51.9027C103.921 56.5103 103.891 56.9025 103.474 57.7522C103.268 58.1722 102.922 58.5214 102.53 58.7053C102.021 58.9432 101.712 58.9855 100.434 58.9914L99.2278 58.997L99.2137 57.8943L99.1995 56.7916L99.4951 56.7612C100.791 56.628 101.476 55.1811 101.664 52.1796C101.694 51.7055 101.719 49.8895 101.719 48.144L101.719 44.9704L103.646 44.9691C104.781 44.9683 105.671 44.9456 105.81 44.9138C105.939 44.8841 106.11 44.7986 106.188 44.7238C106.447 44.4774 106.584 43.8013 106.495 43.2042C106.434 42.7931 106.297 42.5234 106.073 42.3714L105.899 42.2538H97.6545H89.41L89.2317 42.3714ZM98.9226 48.8492C98.9067 51.3817 98.8777 52.846 98.8391 53.0677C98.743 53.6197 98.6191 53.9987 98.4893 54.1384C98.3722 54.2642 98.3429 54.2692 97.7322 54.2692C97.3828 54.2692 97.0545 54.2467 97.0028 54.2191C96.8501 54.1377 96.697 53.7037 96.6335 53.1722C96.5976 52.8721 96.5617 51.1523 96.5427 48.8231L96.5112 44.9704H97.7291H98.947L98.9226 48.8492ZM62.5983 52.6647C63.2775 52.7785 63.2843 52.7847 63.266 53.2666L63.2508 53.6685L63.0672 53.7575C62.6493 53.9602 61.9391 53.9819 55.7249 53.9819C49.5103 53.9819 48.8596 53.9618 48.4351 53.757L48.2516 53.6685L48.2363 53.2666C48.219 52.8109 48.2238 52.8046 48.6776 52.6969C49.1534 52.584 50.8562 52.5571 56.5116 52.5733C61.1195 52.5865 62.2314 52.6032 62.5983 52.6647Z" fill="#FAFAFA"/>
<path fill-rule="evenodd" clip-rule="evenodd" d="M127.843 36.0546C127.495 36.1542 127.332 36.2787 127.218 36.5313C127.124 36.7408 127.119 36.9322 127.118 40.2978C127.117 43.9715 127.146 44.6729 127.336 45.5635C127.864 48.0479 129.271 49.1941 132.142 49.4788C132.895 49.5535 140.901 49.5513 141.098 49.4763C141.472 49.3337 141.691 48.9048 141.691 48.3154C141.691 47.935 141.569 47.52 141.417 47.3796C141.129 47.1145 141.351 47.1267 136.213 47.0944C131.596 47.0655 131.369 47.0596 130.918 46.9556C130.373 46.8302 130.014 46.6732 129.837 46.4828C129.726 46.364 129.71 46.2903 129.694 45.824L129.676 45.2989L135.382 45.2987C140.954 45.2985 141.092 45.296 141.256 45.1949C141.494 45.0486 141.642 44.7233 141.676 44.2732C141.729 43.5565 141.532 43.0527 141.132 42.8838C140.991 42.8243 139.966 42.8116 135.323 42.8116H129.686V41.8325V40.8535L135.308 40.8533C140.86 40.8531 140.933 40.8517 141.105 40.746C141.413 40.5565 141.508 40.2518 141.508 39.451C141.508 38.8147 141.498 38.7455 141.377 38.5296C141.304 38.4012 141.179 38.2464 141.097 38.1856C140.95 38.0753 140.936 38.075 135.318 38.0609L129.686 38.0468V37.3974C129.686 36.5927 129.594 36.3524 129.211 36.1562C128.91 36.0022 128.208 35.95 127.843 36.0546ZM123.357 36.0917C122.946 36.1514 122.707 36.2961 122.569 36.5679C122.466 36.7705 122.451 36.8822 122.451 37.4239V38.0469L116.505 38.061C110.567 38.0751 110.558 38.0752 110.41 38.1856C110.329 38.2464 110.203 38.4012 110.131 38.5296C110.01 38.7455 110 38.8147 110 39.451C110 40.0674 110.013 40.1655 110.124 40.3932C110.355 40.867 109.756 40.8236 116.472 40.8535L122.425 40.8799L122.439 41.8458L122.453 42.8116H116.605C111.784 42.8116 110.727 42.8243 110.586 42.8838C110.186 43.0523 109.996 43.5219 110.037 44.2378C110.063 44.6974 110.182 44.9888 110.414 45.1636C110.557 45.2715 110.606 45.2727 116.491 45.2989L122.425 45.3254L122.44 45.7216C122.449 45.9396 122.443 46.1687 122.428 46.2306C122.379 46.4299 122.081 46.6674 121.734 46.7838C120.906 47.062 120.941 47.0602 115.662 47.0936C110.845 47.124 110.73 47.1271 110.55 47.2314C110.253 47.4043 110.105 47.767 110.107 48.3154C110.108 48.5628 110.139 48.8534 110.175 48.9611C110.268 49.2309 110.545 49.4647 110.823 49.5061C110.947 49.5245 113.077 49.5307 115.557 49.5197C120.451 49.4981 120.411 49.5004 121.471 49.19C123.322 48.6485 124.328 47.4831 124.766 45.3697C124.883 44.807 124.886 44.7191 124.903 40.7462L124.92 36.6963L124.8 36.5125C124.575 36.17 123.991 35.9997 123.357 36.0917ZM125.449 49.6389C125.324 49.6654 125.141 49.738 125.041 49.8002C124.729 49.9952 124.683 50.147 124.662 51.0541L124.643 51.8612H117.71H110.776L110.598 51.9807C110.299 52.1812 110.183 52.4866 110.183 53.0784C110.183 53.6702 110.299 53.9756 110.598 54.1761L110.776 54.2956H125.963H141.151L141.327 54.1764C141.649 53.9568 141.717 53.7658 141.717 53.0784C141.717 52.391 141.649 52.2 141.327 51.9804L141.151 51.8612H134.139H127.126L127.108 51.0277C127.092 50.2467 127.083 50.1829 126.964 50.0155C126.895 49.9172 126.739 49.7927 126.619 49.7388C126.357 49.6222 125.765 49.5716 125.449 49.6389ZM115.085 56.1042C113.359 56.2795 112.012 56.9259 111.313 57.9143C110.824 58.6065 110.532 59.3854 110.365 60.4439C110.255 61.1431 110.187 66.7176 110.282 67.2316C110.389 67.8051 110.703 68 111.52 68C112.294 68 112.635 67.8099 112.748 67.3143C112.782 67.1646 112.803 65.9107 112.803 63.9384C112.805 61.2884 112.818 60.7376 112.888 60.3957C113.036 59.6692 113.319 59.2627 113.853 59.01L114.142 58.8733L116.233 58.8573C118.216 58.842 118.343 58.8468 118.678 58.9495C119.127 59.0872 119.503 59.4138 119.702 59.838C119.93 60.3254 119.983 60.7903 119.985 62.3397C119.988 63.8654 120.048 64.4495 120.268 65.0615C120.795 66.5246 121.987 67.2898 124.254 67.6191C124.836 67.7036 125.574 67.7113 133.146 67.7113H141.403L141.594 67.5913C141.887 67.4072 141.976 67.1707 141.995 66.5205C142.009 66.0249 141.998 65.9394 141.89 65.7298C141.824 65.6005 141.703 65.4457 141.622 65.3858C141.474 65.2772 141.448 65.2768 132.998 65.2472C124.488 65.2174 124.272 65.2126 123.578 65.0346C123.076 64.9059 122.717 64.6933 122.556 64.43C122.471 64.2916 122.451 64.1664 122.451 63.7756V63.2923L124.299 63.2916C128.664 63.2898 130.496 63.0104 131.35 62.2162C131.757 61.8374 131.799 61.7029 131.84 60.6424C131.889 59.3805 131.985 59.194 132.701 58.9709C132.987 58.882 133.232 58.8733 135.479 58.8733C137.663 58.8733 137.976 58.8836 138.234 58.9646C138.638 59.0909 138.927 59.3163 139.076 59.6227C139.198 59.8724 139.201 59.9213 139.227 61.5819C139.257 63.526 139.244 63.4688 139.728 63.7155C139.944 63.8254 140.062 63.8475 140.433 63.8475C140.804 63.8475 140.922 63.8254 141.138 63.7155C141.63 63.4649 141.61 63.5595 141.628 61.3436C141.645 59.157 141.614 58.865 141.295 58.1675C141.05 57.6334 140.464 57.0424 139.909 56.7698C138.798 56.2251 137.185 56.0014 134.797 56.0612C132.072 56.1295 130.642 56.4357 129.923 57.105C129.544 57.457 129.461 57.7271 129.427 58.7172C129.394 59.6491 129.371 59.726 129.042 59.9795C128.8 60.1657 128.532 60.2711 127.982 60.3961C127.553 60.4935 127.281 60.5054 124.992 60.5262L122.473 60.549L122.412 59.9493C122.334 59.1811 122.239 58.8205 121.972 58.2693C121.362 57.0125 119.949 56.2929 117.707 56.0978C116.967 56.0335 115.752 56.0365 115.085 56.1042Z" fill="#FAFAFA"/>
<rect x="17" y="13" width="148" height="79" stroke="#FAFAFA" stroke-width="2"/>
<rect x="2" y="2" width="178" height="101" stroke="#FAFAFA" stroke-width="4"/>
</svg>
