<svg width="182" height="107" viewBox="0 0 182 107" fill="none" xmlns="http://www.w3.org/2000/svg">
<rect x="17.5" y="15.5" width="147.108" height="77.9333" fill="white"/>
<path fill-rule="evenodd" clip-rule="evenodd" d="M85.2924 38.9642C85.0057 39.0241 84.7777 39.1567 84.6369 39.3456C84.528 39.4915 84.5266 39.5337 84.4959 43.4204C84.4629 47.5964 84.4534 47.7526 84.1983 48.3266C83.9364 48.916 83.6211 49.095 82.8421 49.0967L82.3067 49.0978V44.4039V39.7099L82.1891 39.5324C82.123 39.4327 81.9569 39.2976 81.8103 39.2243C81.5792 39.1087 81.483 39.0937 80.9745 39.0937C80.3165 39.0937 80.0163 39.1793 79.7688 39.4376L79.6162 39.5968L79.6024 44.3473L79.5885 49.0978L79.0016 49.0967C78.5382 49.0958 78.3687 49.0746 78.1959 48.9962C77.7989 48.8159 77.5223 48.2764 77.3992 47.4422C77.3644 47.206 77.3438 45.7477 77.3438 43.5137C77.3438 41.1776 77.3245 39.8711 77.2876 39.699C77.1784 39.1899 76.7775 38.9903 75.932 39.0242C75.2109 39.0532 74.9183 39.2549 74.8315 39.7826C74.7731 40.1381 74.7763 45.1013 74.8359 46.3552C74.9116 47.95 75.1151 48.8872 75.5846 49.8031C75.8831 50.3853 76.533 51.0354 77.0893 51.3083C77.6104 51.5638 78.3594 51.7502 79.043 51.7943L79.5924 51.8299L79.5782 52.7755L79.564 53.7211L78.9632 53.7578C77.7539 53.8314 76.9224 54.1666 76.2175 54.8647C75.8601 55.2186 75.7503 55.3701 75.5504 55.7846C75.0978 56.7239 74.9127 57.597 74.8365 59.1542C74.7775 60.3568 74.7734 69.082 74.8315 69.4358C74.8822 69.7438 75.013 69.9272 75.2832 70.0689C75.584 70.2267 76.5437 70.2267 76.8445 70.0689C77.096 69.9369 77.231 69.7641 77.2938 69.4938C77.3206 69.3782 77.3423 66.9558 77.3436 63.9342C77.346 58.2377 77.3581 57.9176 77.6011 57.1385C77.8373 56.3809 78.1069 56.2026 79.0159 56.2026H79.589L79.6026 62.9382L79.6162 69.6739L79.773 69.8383C79.9992 70.0756 80.2337 70.1585 80.7655 70.189C81.4276 70.227 81.7937 70.1423 82.0662 69.8881L82.2805 69.6882L82.2942 62.941L82.3078 56.1938L82.9295 56.2113C83.5353 56.2282 83.5563 56.2328 83.7517 56.3907C84.1272 56.6939 84.3425 57.3224 84.448 58.4228C84.4761 58.7153 84.4987 61.2612 84.4994 64.2074C84.5009 70.1686 84.4735 69.7775 84.9082 70.0322C85.1036 70.1467 85.2272 70.1757 85.5942 70.1931C85.8416 70.2049 86.1415 70.1875 86.2646 70.1543C86.5554 70.0759 86.8354 69.8259 86.9023 69.585C86.9737 69.328 86.9746 59.8491 86.9033 58.9397C86.7137 56.521 86.032 55.1507 84.7011 54.5127C84.4329 54.3841 84.0579 54.2413 83.8678 54.1953C83.5745 54.1242 82.7033 54.0143 82.3981 54.0098C82.3137 54.0086 82.3067 53.9152 82.3067 52.7913V51.5742L82.9205 51.5123C84.1171 51.3916 84.8841 51.0684 85.5471 50.4054C86.1573 49.7952 86.5187 49.0098 86.7458 47.8004C86.9208 46.8687 86.9561 46.0267 86.9561 42.7802V39.6644L86.8385 39.4313C86.7512 39.2582 86.6605 39.1687 86.4859 39.0834C86.2138 38.9506 85.6349 38.8928 85.2924 38.9642ZM55.0813 39.189C54.7349 39.287 54.5723 39.41 54.4591 39.6594C54.3679 39.8601 54.36 40.0251 54.359 41.7482L54.3578 43.6191L48.9639 43.5976C42.2183 43.5707 42.5514 43.6093 42.5514 42.8544C42.5514 42.4539 42.5622 42.4066 42.6689 42.339C42.9448 42.1645 43.3486 42.1358 45.9829 42.1035L48.6046 42.0714L48.7638 41.9189C49.0157 41.6774 49.1078 41.3677 49.1066 40.7654C49.1051 39.9801 48.9381 39.5866 48.5426 39.4368C48.3459 39.3622 43.9701 39.3622 43.3017 39.4367C41.8024 39.6039 40.7958 40.16 40.3672 41.058C40.1255 41.5645 40.0388 42.0106 40.0395 42.7433C40.0405 43.7552 40.2346 44.2894 40.8043 44.8486C41.3679 45.4017 42.2378 45.7499 43.6223 45.9765C44.275 46.0834 44.4977 46.0884 49.3296 46.1068L54.3578 46.1258V47.0111V47.8963L49.7476 47.8972C44.7694 47.8983 44.5973 47.9062 43.5569 48.1831C41.5539 48.7162 40.4914 50.0102 40.1155 52.3738C40.0342 52.8854 40.0241 53.7211 40.0057 61.4117C39.9919 67.2297 40.0029 69.9796 40.0408 70.1848C40.1426 70.7351 40.4625 70.9316 41.2601 70.9333C41.9428 70.9349 42.2962 70.782 42.4655 70.4121C42.5092 70.3165 42.5325 67.943 42.5522 61.5573L42.5792 52.833L42.6972 52.4502C43.1119 51.1049 43.8878 50.5208 45.4835 50.3527C45.7622 50.3234 47.7793 50.3008 50.1655 50.3002L54.3578 50.2994V51.0254V51.7514L52.0462 51.7768C50.2516 51.7965 49.6079 51.8217 49.1685 51.8893C46.9721 52.2271 45.8745 52.9768 45.5492 54.3611C45.4306 54.8659 45.4737 56.0031 45.6278 56.4334C46.0457 57.6004 47.096 58.2434 49.1076 58.5635C49.695 58.6569 50.0955 58.6749 52.0723 58.6962L54.3578 58.7209V59.3931V60.0653L50.3744 60.0799L46.3911 60.0945L46.1989 60.214C45.879 60.4129 45.7642 60.7195 45.7642 61.3744C45.7642 62.0069 45.8425 62.2297 46.1462 62.4613L46.3306 62.6021L50.3493 62.6164L54.3679 62.6307L54.3434 64.4448C54.3175 66.3574 54.2937 66.5789 54.0412 67.2499C53.9598 67.466 53.8402 67.6454 53.6514 67.8342C53.2163 68.2693 53.1476 68.28 50.9513 68.257C48.9891 68.2366 48.8506 68.2202 48.5588 67.9746C48.2428 67.7087 48.2241 67.6249 48.1944 66.3373C48.1771 65.5899 48.1452 65.1238 48.1068 65.0574C47.9048 64.7086 47.5355 64.5611 46.8642 64.5611C46.2549 64.5611 45.9216 64.6574 45.6844 64.9021L45.503 65.0892L45.4876 66.6666C45.4702 68.4475 45.5041 68.7095 45.8221 69.2486C46.3984 70.2259 47.6051 70.7182 49.839 70.8875C50.7651 70.9577 52.1017 70.9183 52.7645 70.8013C54.9082 70.423 56.1135 69.2801 56.5778 67.1857C56.7599 66.364 56.8131 65.655 56.8131 64.05V62.6167L58.8897 62.6438C60.4312 62.6639 61.0704 62.6911 61.3706 62.7495C62.2991 62.9303 62.7842 63.1857 63.0298 63.6232C63.1588 63.853 63.1606 63.8731 63.1766 65.2657C63.1982 67.132 63.1287 67.5125 62.6974 67.8912C62.4373 68.1196 62.1348 68.1657 60.8976 68.1657C59.5968 68.1657 59.5376 68.184 59.2974 68.6598C59.1586 68.9347 59.1435 69.0142 59.1435 69.471C59.1435 69.9139 59.161 70.0132 59.2832 70.2628C59.3837 70.4683 59.4799 70.5803 59.627 70.663C59.8247 70.7741 59.8807 70.7778 61.3913 70.777C63.1237 70.7761 63.3879 70.7426 63.9277 70.4549C64.1031 70.3613 64.3664 70.1504 64.5424 69.9623C65.2485 69.2075 65.6023 67.97 65.6759 65.9977C65.779 63.241 65.0724 61.6126 63.4216 60.8026C62.2565 60.231 61.1356 60.069 58.3412 60.0686L56.8131 60.0684V59.3946V58.7209L59.0987 58.6954C61.5302 58.6683 61.9822 58.631 62.9972 58.3735C64.2713 58.0503 65.0926 57.4563 65.4569 56.5944C65.5891 56.2819 65.6942 55.6695 65.6932 55.2185C65.6907 54.1187 65.2634 53.2422 64.4716 52.7126C64.039 52.4233 63.7073 52.2848 63.0037 52.0997C62.0058 51.8373 61.5892 51.8025 59.1248 51.7762L56.8131 51.7514V51.0254V50.2994L61.0838 50.3002C63.5216 50.3008 65.5647 50.3233 65.8442 50.3527C66.8058 50.454 67.4277 50.695 67.9318 51.1617C68.4488 51.6404 68.7268 52.322 68.8276 53.3584C68.8576 53.6669 68.8786 57.1681 68.8794 61.9805L68.8808 70.0832L68.9985 70.2579C69.2152 70.5795 69.4037 70.6472 70.0823 70.6472C70.7619 70.6472 70.9493 70.5796 71.1675 70.2557L71.2867 70.0789L71.2695 61.2731L71.2523 52.4674L71.1384 51.9481C70.7635 50.2382 70.0951 49.2334 68.933 48.6327C68.4036 48.359 67.9034 48.1863 67.2267 48.0436C66.6634 47.9248 66.6356 47.9241 61.7368 47.9082L56.8131 47.8923V47.0062V46.1201L61.554 46.1196C64.2852 46.1194 66.5495 46.097 66.8956 46.0668C68.7104 45.9086 69.8226 45.5389 70.5062 44.8666C71.0852 44.2973 71.2845 43.7591 71.2829 42.7692C71.2813 41.7027 71.0434 41.0212 70.4742 40.452C69.9395 39.9174 69.1771 39.6046 68.0521 39.4582C67.5574 39.3939 66.9515 39.3809 64.9846 39.3926C62.5353 39.4071 62.5334 39.4072 62.3682 39.5251C62.2773 39.5899 62.148 39.7544 62.0809 39.8907C61.9726 40.1105 61.9589 40.2123 61.9592 40.7915C61.9595 41.3273 61.977 41.4773 62.0567 41.6274C62.1708 41.842 62.3349 42.0306 62.4813 42.1154C62.5555 42.1584 63.4329 42.1835 65.5112 42.2022C68.104 42.2254 68.4588 42.2384 68.6307 42.3163C68.8559 42.4181 68.8934 42.5191 68.8706 42.9617C68.8553 43.2599 68.847 43.2767 68.6718 43.361C68.2517 43.5634 67.8827 43.577 62.2611 43.5982L56.8168 43.6186L56.8019 41.6603C56.7876 39.7807 56.7827 39.696 56.6798 39.5546C56.4294 39.2102 55.6421 39.0302 55.0813 39.189ZM89.0583 39.2237C88.8278 39.3647 88.702 39.5885 88.6254 39.9941C88.488 40.7224 88.6685 41.4723 89.0404 41.7187L89.2179 41.8363H97.352H105.486L105.664 41.7187C105.763 41.6527 105.898 41.4866 105.972 41.34C106.087 41.1089 106.102 41.0127 106.102 40.5042C106.102 39.8462 106.017 39.5459 105.758 39.2985L105.599 39.1459L97.4139 39.1328C89.3189 39.1198 89.2267 39.1208 89.0583 39.2237ZM89.0404 44.3048C88.9403 44.3711 88.8061 44.5363 88.7328 44.6835C88.6193 44.9116 88.6028 45.0142 88.6022 45.4932C88.6014 46.3219 88.8142 46.7445 89.288 46.8544C89.399 46.8801 90.483 46.9018 91.6969 46.9024L93.9041 46.9037L93.9051 49.8684C93.9067 54.9064 94.0409 56.3125 94.6383 57.5466C94.9889 58.271 95.438 58.6296 96.0771 58.6956L96.3615 58.725L96.3474 59.8277L96.3333 60.9304L95.0795 60.9265C94.0899 60.9234 93.7572 60.9045 93.5 60.8363C92.4101 60.5477 91.892 59.8823 91.6817 58.5012C91.6208 58.1013 91.6061 57.234 91.6058 54.038C91.6055 50.1394 91.6037 50.0673 91.4979 49.8488C91.3334 49.509 90.9948 49.359 90.3921 49.359C89.6613 49.359 89.3086 49.5662 89.1999 50.0591C89.158 50.2492 89.148 51.5229 89.165 54.5047C89.1904 58.9719 89.197 59.092 89.4685 60.0596C89.8632 61.4661 90.6326 62.4146 91.8263 62.9661C92.6928 63.3665 93.5507 63.5214 95.1318 63.563L96.3333 63.5946L96.3475 64.6507L96.3616 65.7069L92.8473 65.7217L89.333 65.7365L89.1355 65.8593C89.0269 65.9269 88.891 66.0742 88.8336 66.1868C88.6069 66.631 88.6147 67.5994 88.8483 68.0264C88.9295 68.1748 89.0415 68.2815 89.2005 68.3616L89.4336 68.4792H92.8965H96.3594V69.0346C96.3594 69.6999 96.4343 69.8665 96.8185 70.0557C97.0329 70.1613 97.1425 70.177 97.6669 70.177C98.2067 70.177 98.2953 70.1635 98.5227 70.0464C98.895 69.8547 98.9715 69.6789 98.9715 69.0155V68.4792H102.471C106.437 68.4792 106.285 68.4938 106.523 68.0879C106.711 67.7669 106.79 67.1535 106.706 66.6647C106.638 66.2645 106.51 66.0246 106.268 65.8458C106.123 65.7378 106.08 65.7364 102.546 65.7221L98.9715 65.7076V64.6381V63.5685H99.8575C100.345 63.5685 100.985 63.5426 101.281 63.5108C102.445 63.3858 103.581 62.9841 104.29 62.4466C105.108 61.8265 105.683 60.7521 105.956 59.3293C106.042 58.883 106.05 58.4605 106.05 54.4433C106.05 50.0656 106.05 50.0452 105.941 49.8984C105.881 49.8172 105.736 49.6972 105.619 49.6317C105.189 49.3917 104.312 49.433 103.984 49.7086C103.658 49.9827 103.673 49.7872 103.673 53.8361C103.672 58.4437 103.642 58.8358 103.227 59.6856C103.022 60.1055 102.678 60.4547 102.287 60.6386C101.78 60.8766 101.472 60.9188 100.199 60.9247L98.9976 60.9304L98.9835 59.8277L98.9694 58.725L99.2639 58.6946C100.555 58.5613 101.237 57.1144 101.425 54.1129C101.454 53.6389 101.479 51.8229 101.479 50.0773L101.479 46.9037L103.399 46.9024C104.529 46.9017 105.415 46.8789 105.554 46.8471C105.683 46.8175 105.853 46.7319 105.931 46.6571C106.189 46.4108 106.325 45.7347 106.237 45.1375C106.176 44.7265 106.04 44.4567 105.816 44.3047L105.643 44.1872H97.4304H89.2179L89.0404 44.3048ZM98.6936 50.7826C98.6777 53.315 98.6489 54.7793 98.6104 55.001C98.5147 55.553 98.3913 55.9321 98.2619 56.0717C98.1453 56.1975 98.1161 56.2026 97.5078 56.2026C97.1598 56.2026 96.8328 56.18 96.7813 56.1524C96.6292 56.071 96.4767 55.637 96.4133 55.1055C96.3776 54.8055 96.3419 53.0856 96.3229 50.7565L96.2916 46.9037H97.5048H98.7179L98.6936 50.7826ZM62.5105 54.598C63.187 54.7119 63.1938 54.7181 63.1756 55.1999L63.1604 55.6018L62.9775 55.6908C62.5612 55.8935 61.8538 55.9152 55.6638 55.9152C49.4733 55.9152 48.8252 55.8952 48.4024 55.6903L48.2195 55.6018L48.2043 55.1999C48.1871 54.7442 48.1919 54.738 48.6439 54.6303C49.1178 54.5173 50.8141 54.4904 56.4474 54.5067C61.0374 54.5198 62.145 54.5366 62.5105 54.598Z" fill="black"/>
<path fill-rule="evenodd" clip-rule="evenodd" d="M127.876 38.0544C127.527 38.1535 127.363 38.2775 127.249 38.529C127.154 38.7377 127.149 38.9283 127.148 42.2799C127.147 45.9384 127.176 46.6369 127.366 47.5237C127.898 49.9978 129.312 51.1392 132.198 51.4228C132.955 51.4971 141.004 51.4949 141.201 51.4203C141.577 51.2782 141.798 50.8512 141.798 50.2642C141.798 49.8854 141.675 49.4721 141.522 49.3322C141.232 49.0683 141.455 49.0804 136.29 49.0483C131.649 49.0195 131.421 49.0136 130.967 48.9101C130.42 48.7851 130.059 48.6288 129.881 48.4392C129.769 48.3209 129.753 48.2475 129.737 47.7831L129.719 47.2602L135.455 47.26C141.057 47.2599 141.195 47.2574 141.361 47.1567C141.6 47.0109 141.749 46.687 141.782 46.2388C141.836 45.525 141.638 45.0234 141.235 44.8551C141.093 44.796 140.063 44.7832 135.396 44.7832H129.729V43.8083V42.8333L135.381 42.8331C140.962 42.8329 141.036 42.8316 141.208 42.7263C141.518 42.5375 141.613 42.2341 141.613 41.4367C141.613 40.803 141.603 40.7341 141.481 40.5191C141.409 40.3912 141.283 40.237 141.201 40.1765C141.052 40.0667 141.039 40.0664 135.39 40.0523L129.729 40.0383V39.3916C129.729 38.5902 129.637 38.3509 129.252 38.1556C128.949 38.0022 128.243 37.9502 127.876 38.0544ZM123.367 38.0914C122.954 38.1508 122.713 38.2948 122.575 38.5655C122.472 38.7673 122.456 38.8785 122.456 39.418V40.0384L116.478 40.0524C110.509 40.0665 110.5 40.0666 110.352 40.1765C110.27 40.237 110.144 40.3912 110.071 40.5191C109.949 40.7341 109.939 40.803 109.939 41.4367C109.939 42.0505 109.952 42.1482 110.064 42.3749C110.296 42.8468 109.694 42.8036 116.446 42.8333L122.43 42.8596L122.444 43.8214L122.458 44.7832H116.579C111.733 44.7832 110.67 44.7959 110.528 44.8551C110.127 45.0229 109.935 45.4906 109.977 46.2036C110.003 46.6612 110.122 46.9514 110.355 47.1255C110.499 47.233 110.549 47.2341 116.465 47.2602L122.43 47.2866L122.445 47.6812C122.454 47.8983 122.449 48.1264 122.433 48.1881C122.383 48.3865 122.084 48.623 121.736 48.7389C120.903 49.016 120.938 49.0142 115.631 49.0474C110.789 49.0777 110.673 49.0809 110.493 49.1847C110.194 49.3569 110.045 49.718 110.047 50.2642C110.048 50.5106 110.079 50.7999 110.116 50.9072C110.208 51.1759 110.488 51.4087 110.767 51.45C110.892 51.4683 113.033 51.4744 115.526 51.4635C120.446 51.4419 120.405 51.4442 121.471 51.1352C123.332 50.5959 124.343 49.4354 124.784 47.3307C124.901 46.7704 124.904 46.6829 124.921 42.7265L124.938 38.6934L124.817 38.5103C124.591 38.1693 124.004 37.9997 123.367 38.0914ZM125.47 51.5822C125.345 51.6086 125.16 51.6808 125.06 51.7428C124.746 51.937 124.7 52.0882 124.679 52.9915L124.66 53.7952H117.69H110.719L110.54 53.9142C110.24 54.1139 110.124 54.418 110.124 55.0074C110.124 55.5967 110.24 55.9009 110.54 56.1005L110.719 56.2195H125.987H141.255L141.431 56.1008C141.756 55.8821 141.824 55.6919 141.824 55.0074C141.824 54.3228 141.756 54.1326 141.431 53.914L141.255 53.7952H134.205H127.156L127.138 52.9652C127.121 52.1875 127.112 52.1239 126.993 51.9572C126.924 51.8593 126.767 51.7353 126.646 51.6816C126.383 51.5655 125.788 51.5151 125.47 51.5822ZM115.052 58.0206C113.316 58.1951 111.962 58.8388 111.26 59.8231C110.768 60.5125 110.474 61.2881 110.306 62.3423C110.196 63.0386 110.127 68.5898 110.223 69.1017C110.33 69.6728 110.646 69.8669 111.468 69.8669C112.246 69.8669 112.588 69.6776 112.702 69.1841C112.736 69.035 112.757 67.7863 112.758 65.8222C112.759 63.1832 112.772 62.6347 112.842 62.2943C112.992 61.5707 113.276 61.1659 113.813 60.9143L114.103 60.7782L116.205 60.7622C118.199 60.747 118.326 60.7518 118.663 60.8541C119.114 60.9912 119.493 61.3164 119.693 61.7388C119.922 62.2243 119.975 62.6872 119.977 64.2302C119.98 65.7495 120.041 66.3312 120.262 66.9406C120.791 68.3977 121.99 69.1597 124.268 69.4876C124.854 69.5717 125.595 69.5794 133.207 69.5794H141.508L141.7 69.4599C141.995 69.2766 142.084 69.041 142.103 68.3936C142.118 67.9 142.106 67.8149 141.998 67.6062C141.931 67.4774 141.81 67.3233 141.728 67.2636C141.58 67.1554 141.553 67.155 133.058 67.1256C124.504 67.0959 124.286 67.0911 123.589 66.9139C123.085 66.7857 122.723 66.574 122.561 66.3118C122.476 66.1739 122.456 66.0493 122.456 65.6601V65.1788L124.314 65.178C128.702 65.1763 130.544 64.898 131.402 64.1072C131.811 63.73 131.853 63.596 131.895 62.5399C131.944 61.2833 132.04 61.0976 132.76 60.8754C133.048 60.7868 133.294 60.7782 135.552 60.7782C137.749 60.7782 138.063 60.7885 138.323 60.8691C138.729 60.9949 139.018 61.2194 139.169 61.5245C139.291 61.7731 139.295 61.8218 139.321 63.4755C139.351 65.4116 139.337 65.3546 139.824 65.6002C140.041 65.7097 140.16 65.7317 140.533 65.7317C140.906 65.7317 141.024 65.7097 141.241 65.6002C141.736 65.3507 141.716 65.4449 141.734 63.2382C141.751 61.0607 141.72 60.7699 141.399 60.0753C141.153 59.5434 140.564 58.9549 140.006 58.6835C138.89 58.141 137.267 57.9182 134.867 57.9778C132.128 58.0458 130.69 58.3507 129.967 59.0172C129.587 59.3677 129.503 59.6368 129.469 60.6227C129.436 61.5507 129.413 61.6273 129.082 61.8798C128.838 62.0652 128.569 62.1702 128.016 62.2946C127.585 62.3917 127.311 62.4035 125.01 62.4242L122.478 62.4469L122.417 61.8497C122.338 61.0847 122.243 60.7256 121.974 60.1767C121.362 58.9252 119.94 58.2085 117.687 58.0143C116.943 57.9502 115.722 57.9531 115.052 58.0206Z" fill="black"/>
<rect x="17.5" y="15.5" width="147.108" height="77.9333" stroke="white" stroke-width="3"/>
<rect x="2" y="2.99048" width="178" height="102.01" stroke="white" stroke-width="4"/>
</svg>
