<svg width="176" height="104" viewBox="0 0 176 104" fill="none" xmlns="http://www.w3.org/2000/svg">
<rect width="176" height="104" fill="black"/>
<rect x="13.9982" y="12.5" width="148.108" height="78.9333" fill="black"/>
<path fill-rule="evenodd" clip-rule="evenodd" d="M82.2906 36.4645C82.0039 36.5243 81.7759 36.6569 81.6351 36.8458C81.5262 36.9918 81.5248 37.0339 81.4941 40.9206C81.4611 45.0967 81.4516 45.2528 81.1965 45.8268C80.9346 46.4162 80.6193 46.5952 79.8403 46.5969L79.3049 46.5981V41.9041V37.2102L79.1873 37.0327C79.1212 36.933 78.9551 36.7979 78.8085 36.7245C78.5774 36.609 78.4812 36.5939 77.9727 36.5939C77.3147 36.5939 77.0145 36.6796 76.767 36.9378L76.6144 37.0971L76.6006 41.8475L76.5867 46.5981L75.9998 46.5969C75.5364 46.596 75.3669 46.5749 75.1941 46.4965C74.7971 46.3162 74.5205 45.7767 74.3974 44.9424C74.3626 44.7063 74.342 43.2479 74.342 41.0139C74.342 38.6779 74.3227 37.3714 74.2858 37.1993C74.1766 36.6901 73.7757 36.4905 72.9302 36.5245C72.2091 36.5534 71.9165 36.7551 71.8297 37.2829C71.7713 37.6384 71.7745 42.6016 71.8341 43.8554C71.9098 45.4502 72.1133 46.3875 72.5828 47.3033C72.8813 47.8855 73.5312 48.5357 74.0875 48.8085C74.6086 49.064 75.3576 49.2504 76.0412 49.2946L76.5906 49.3301L76.5764 50.2758L76.5622 51.2214L75.9614 51.258C74.7521 51.3317 73.9206 51.6669 73.2157 52.3649C72.8583 52.7189 72.7485 52.8703 72.5486 53.2849C72.096 54.2241 71.9109 55.0973 71.8347 56.6544C71.7757 57.8571 71.7716 66.5823 71.8297 66.936C71.8804 67.2441 72.0112 67.4274 72.2814 67.5692C72.5822 67.727 73.5419 67.727 73.8427 67.5692C74.0942 67.4372 74.2292 67.2644 74.292 66.9941C74.3188 66.8784 74.3405 64.456 74.3418 61.4345C74.3442 55.7379 74.3563 55.4179 74.5993 54.6387C74.8355 53.8811 75.1051 53.7028 76.0141 53.7028H76.5872L76.6008 60.4384L76.6144 67.1741L76.7712 67.3385C76.9974 67.5759 77.2319 67.6587 77.7637 67.6893C78.4258 67.7272 78.7919 67.6425 79.0644 67.3883L79.2787 67.1885L79.2924 60.4413L79.306 53.6941L79.9277 53.7115C80.5335 53.7285 80.5545 53.7331 80.7499 53.8909C81.1254 54.1942 81.3407 54.8226 81.4462 55.9231C81.4743 56.2155 81.4969 58.7614 81.4976 61.7077C81.4991 67.6688 81.4717 67.2777 81.9064 67.5325C82.1018 67.6469 82.2254 67.6759 82.5924 67.6934C82.8398 67.7051 83.1397 67.6878 83.2628 67.6546C83.5536 67.5761 83.8336 67.3261 83.9005 67.0852C83.9719 66.8282 83.9728 57.3493 83.9015 56.44C83.7119 54.0213 83.0302 52.6509 81.6993 52.0129C81.4311 51.8844 81.0561 51.7415 80.866 51.6955C80.5727 51.6245 79.7015 51.5146 79.3963 51.5101C79.3119 51.5088 79.3049 51.4154 79.3049 50.2916V49.0744L79.9187 49.0125C81.1153 48.8919 81.8823 48.5686 82.5453 47.9056C83.1555 47.2954 83.5169 46.51 83.744 45.3007C83.919 44.3689 83.9543 43.527 83.9543 40.2804V37.1646L83.8367 36.9315C83.7494 36.7584 83.6587 36.6689 83.4841 36.5837C83.212 36.4508 82.6331 36.393 82.2906 36.4645ZM52.0795 36.6892C51.7331 36.7873 51.5705 36.9103 51.4573 37.1596C51.3661 37.3603 51.3582 37.5253 51.3572 39.2485L51.356 41.1194L45.9621 41.0978C39.2165 41.0709 39.5496 41.1095 39.5496 40.3547C39.5496 39.9542 39.5604 39.9068 39.6671 39.8392C39.943 39.6647 40.3468 39.636 42.9811 39.6037L45.6028 39.5717L45.762 39.4191C46.0139 39.1776 46.106 38.868 46.1048 38.2656C46.1033 37.4803 45.9363 37.0868 45.5408 36.937C45.3441 36.8625 40.9683 36.8624 40.2999 36.937C38.8006 37.1041 37.794 37.6602 37.3654 38.5582C37.1237 39.0647 37.037 39.5109 37.0377 40.2436C37.0387 41.2554 37.2328 41.7897 37.8025 42.3488C38.3661 42.902 39.236 43.2502 40.6205 43.4768C41.2732 43.5836 41.4959 43.5887 46.3278 43.607L51.356 43.6261V44.5113V45.3965L46.7458 45.3975C41.7676 45.3985 41.5955 45.4064 40.5551 45.6834C38.5521 46.2165 37.4896 47.5104 37.1137 49.874C37.0324 50.3856 37.0223 51.2214 37.0039 58.912C36.9901 64.73 37.0011 67.4799 37.039 67.6851C37.1408 68.2354 37.4607 68.4318 38.2583 68.4336C38.941 68.4351 39.2944 68.2823 39.4637 67.9123C39.5074 67.8167 39.5307 65.4432 39.5504 59.0575L39.5774 50.3333L39.6954 49.9504C40.1101 48.6052 40.886 48.021 42.4817 47.853C42.7604 47.8236 44.7775 47.801 47.1637 47.8005L51.356 47.7996V48.5256V49.2517L49.0444 49.277C47.2498 49.2967 46.6061 49.3219 46.1667 49.3895C43.9703 49.7274 42.8727 50.477 42.5474 51.8613C42.4288 52.3661 42.4719 53.5034 42.626 53.9337C43.0439 55.1006 44.0942 55.7436 46.1058 56.0637C46.6932 56.1572 47.0937 56.1752 49.0705 56.1965L51.356 56.2211V56.8933V57.5655L47.3726 57.5801L43.3893 57.5948L43.1971 57.7143C42.8772 57.9132 42.7624 58.2197 42.7624 58.8747C42.7624 59.5071 42.8407 59.7299 43.1444 59.9616L43.3288 60.1023L47.3475 60.1166L51.3661 60.1309L51.3416 61.9451C51.3157 63.8576 51.2919 64.0791 51.0394 64.7501C50.958 64.9663 50.8384 65.1456 50.6496 65.3344C50.2145 65.7695 50.1458 65.7803 47.9495 65.7573C45.9873 65.7368 45.8488 65.7205 45.557 65.4749C45.241 65.2089 45.2223 65.1251 45.1926 63.8375C45.1753 63.0901 45.1434 62.6241 45.105 62.5576C44.903 62.2088 44.5337 62.0613 43.8624 62.0613C43.2531 62.0613 42.9198 62.1577 42.6826 62.4023L42.5012 62.5894L42.4858 64.1669C42.4684 65.9478 42.5023 66.2097 42.8203 66.7489C43.3966 67.7261 44.6033 68.2185 46.8372 68.3878C47.7633 68.4579 49.0999 68.4186 49.7627 68.3016C51.9064 67.9232 53.1117 66.7804 53.576 64.686C53.7581 63.8643 53.8113 63.1552 53.8113 61.5502V60.1169L55.8879 60.144C57.4294 60.1641 58.0686 60.1914 58.3688 60.2498C59.2973 60.4305 59.7823 60.686 60.028 61.1235C60.157 61.3533 60.1588 61.3733 60.1748 62.7659C60.1964 64.6323 60.1269 65.0127 59.6956 65.3914C59.4355 65.6198 59.133 65.666 57.8958 65.666C56.595 65.666 56.5358 65.6843 56.2956 66.1601C56.1568 66.435 56.1417 66.5145 56.1417 66.9713C56.1417 67.4142 56.1592 67.5135 56.2814 67.7631C56.3819 67.9686 56.4781 68.0806 56.6252 68.1632C56.8229 68.2743 56.8789 68.278 58.3895 68.2772C60.1219 68.2764 60.3861 68.2428 60.9259 67.9551C61.1013 67.8616 61.3646 67.6506 61.5406 67.4625C62.2467 66.7077 62.6005 65.4703 62.6741 63.498C62.7772 60.7412 62.0706 59.1129 60.4198 58.3029C59.2547 57.7312 58.1338 57.5693 55.3394 57.5688L53.8113 57.5686V56.8949V56.2211L56.0969 56.1956C58.5284 56.1686 58.9804 56.1312 59.9954 55.8737C61.2695 55.5506 62.0908 54.9565 62.4551 54.0946C62.5873 53.7822 62.6924 53.1697 62.6914 52.7187C62.6889 51.6189 62.2616 50.7424 61.4698 50.2128C61.0372 49.9235 60.7055 49.785 60.0019 49.6C59.004 49.3375 58.5874 49.3028 56.123 49.2764L53.8113 49.2517V48.5256V47.7996L58.082 47.8005C60.5198 47.801 62.5629 47.8235 62.8424 47.853C63.804 47.9543 64.4259 48.1953 64.93 48.6619C65.447 49.1407 65.725 49.8223 65.8258 50.8586C65.8558 51.1671 65.8768 54.6684 65.8776 59.4808L65.879 67.5834L65.9967 67.7581C66.2134 68.0797 66.4019 68.1474 67.0805 68.1474C67.7601 68.1474 67.9475 68.0798 68.1657 67.756L68.2849 67.5791L68.2677 58.7734L68.2505 49.9676L68.1366 49.4484C67.7617 47.7385 67.0933 46.7337 65.9312 46.133C65.4018 45.8593 64.9016 45.6866 64.2249 45.5438C63.6616 45.425 63.6338 45.4243 58.735 45.4085L53.8113 45.3925V44.5064V43.6203L58.5522 43.6199C61.2834 43.6197 63.5477 43.5972 63.8938 43.567C65.7086 43.4088 66.8208 43.0391 67.5044 42.3668C68.0834 41.7975 68.2827 41.2594 68.2811 40.2694C68.2795 39.2029 68.0416 38.5214 67.4724 37.9522C66.9377 37.4176 66.1753 37.1048 65.0503 36.9584C64.5556 36.8941 63.9497 36.8811 61.9828 36.8928C59.5335 36.9074 59.5316 36.9075 59.3664 37.0253C59.2755 37.0901 59.1462 37.2547 59.0791 37.391C58.9708 37.6108 58.9571 37.7126 58.9574 38.2918C58.9577 38.8276 58.9752 38.9776 59.0549 39.1276C59.169 39.3423 59.3331 39.5309 59.4795 39.6157C59.5537 39.6587 60.4311 39.6838 62.5094 39.7024C65.1022 39.7257 65.457 39.7386 65.6289 39.8165C65.8541 39.9184 65.8915 40.0193 65.8688 40.462C65.8535 40.7601 65.8452 40.7769 65.67 40.8613C65.2499 41.0636 64.8809 41.0773 59.2593 41.0984L53.815 41.1189L53.8001 39.1606C53.7858 37.2809 53.7809 37.1963 53.678 37.0548C53.4276 36.7104 52.6403 36.5304 52.0795 36.6892ZM86.0565 36.724C85.826 36.8649 85.7002 37.0888 85.6236 37.4944C85.4862 38.2226 85.6667 38.9725 86.0386 39.219L86.2161 39.3366H94.3502H102.484L102.662 39.219C102.762 39.1529 102.897 38.9868 102.97 38.8402C103.086 38.6091 103.101 38.513 103.101 38.0044C103.101 37.3464 103.015 37.0462 102.757 36.7987L102.597 36.6462L94.4121 36.633C86.3171 36.6201 86.2249 36.6211 86.0565 36.724ZM86.0386 41.805C85.9385 41.8714 85.8043 42.0365 85.731 42.1838C85.6175 42.4118 85.601 42.5144 85.6004 42.9934C85.5996 43.8222 85.8124 44.2447 86.2862 44.3546C86.3972 44.3804 87.4812 44.402 88.6951 44.4027L90.9023 44.4039L90.9033 47.3686C90.9049 52.4067 91.0391 53.8127 91.6365 55.0469C91.9871 55.7713 92.4362 56.1299 93.0753 56.1959L93.3597 56.2252L93.3456 57.3279L93.3315 58.4306L92.0777 58.4267C91.0881 58.4237 90.7554 58.4047 90.4982 58.3366C89.4083 58.0479 88.8902 57.3825 88.6799 56.0014C88.619 55.6016 88.6043 54.7342 88.604 51.5383C88.6037 47.6396 88.6019 47.5675 88.4961 47.349C88.3316 47.0092 87.993 46.8593 87.3903 46.8593C86.6595 46.8593 86.3068 47.0664 86.1981 47.5593C86.1562 47.7494 86.1462 49.0232 86.1632 52.005C86.1886 56.4722 86.1952 56.5922 86.4667 57.5599C86.8614 58.9664 87.6308 59.9149 88.8245 60.4664C89.691 60.8667 90.5489 61.0216 92.13 61.0632L93.3315 61.0949L93.3457 62.151L93.3598 63.2071L89.8455 63.2219L86.3312 63.2368L86.1337 63.3596C86.0251 63.4271 85.8892 63.5745 85.8318 63.687C85.6051 64.1312 85.6129 65.0996 85.8465 65.5267C85.9277 65.6751 86.0397 65.7817 86.1987 65.8619L86.4318 65.9794H89.8947H93.3576V66.5348C93.3576 67.2001 93.4325 67.3668 93.8167 67.556C94.0311 67.6616 94.1407 67.6772 94.6651 67.6772C95.2049 67.6772 95.2935 67.6637 95.5209 67.5466C95.8931 67.355 95.9697 67.1791 95.9697 66.5157V65.9794H99.4688C103.435 65.9794 103.283 65.9941 103.521 65.5882C103.709 65.2672 103.788 64.6537 103.705 64.165C103.636 63.7647 103.508 63.5249 103.267 63.3461C103.121 63.238 103.078 63.2366 99.5444 63.2223L95.9697 63.2079V62.1383V61.0688H96.8557C97.343 61.0688 97.9837 61.0428 98.2793 61.011C99.4432 60.886 100.579 60.4843 101.288 59.9468C102.107 59.3267 102.681 58.2523 102.954 56.8295C103.04 56.3832 103.048 55.9607 103.048 51.9436C103.048 47.5659 103.048 47.5454 102.939 47.3986C102.879 47.3175 102.734 47.1975 102.617 47.132C102.187 46.892 101.31 46.9332 100.982 47.2089C100.657 47.483 100.671 47.2874 100.671 51.3363C100.67 55.9439 100.64 56.3361 100.226 57.1858C100.021 57.6058 99.6759 57.955 99.2847 58.1388C98.7785 58.3768 98.4703 58.4191 97.1973 58.425L95.9958 58.4306L95.9817 57.3279L95.9676 56.2252L96.2621 56.1948C97.553 56.0616 98.2354 54.6147 98.4229 51.6132C98.4525 51.1391 98.4769 49.3231 98.477 47.5776L98.4772 44.4039L100.397 44.4027C101.527 44.4019 102.414 44.3792 102.552 44.3474C102.681 44.3177 102.851 44.2322 102.929 44.1574C103.187 43.911 103.323 43.2349 103.235 42.6378C103.174 42.2267 103.038 41.957 102.814 41.805L102.641 41.6874H94.4286H86.2161L86.0386 41.805ZM95.6918 48.2828C95.6759 50.8153 95.6471 52.2796 95.6086 52.5013C95.5129 53.0533 95.3895 53.4323 95.2601 53.572C95.1435 53.6977 95.1143 53.7028 94.506 53.7028C94.158 53.7028 93.831 53.6802 93.7795 53.6527C93.6274 53.5713 93.4749 53.1373 93.4115 52.6058C93.3758 52.3057 93.3401 50.5859 93.3211 48.2567L93.2898 44.4039H94.503H95.7161L95.6918 48.2828ZM59.5087 52.0983C60.1852 52.2121 60.192 52.2183 60.1738 52.7002L60.1586 53.102L59.9757 53.1911C59.5594 53.3938 58.852 53.4155 52.662 53.4155C46.4715 53.4155 45.8234 53.3954 45.4006 53.1906L45.2177 53.102L45.2025 52.7002C45.1853 52.2445 45.1901 52.2382 45.6421 52.1305C46.116 52.0176 47.8123 51.9907 53.4456 52.0069C58.0356 52.0201 59.1432 52.0368 59.5087 52.0983Z" fill="#FAFAFA"/>
<path fill-rule="evenodd" clip-rule="evenodd" d="M124.875 35.5544C124.525 35.6535 124.361 35.7775 124.247 36.029C124.152 36.2377 124.147 36.4283 124.146 39.7799C124.145 43.4384 124.174 44.1369 124.365 45.0237C124.896 47.4978 126.31 48.6392 129.197 48.9228C129.954 48.9971 138.002 48.9949 138.2 48.9203C138.576 48.7782 138.796 48.3512 138.796 47.7642C138.796 47.3854 138.674 46.9721 138.52 46.8322C138.23 46.5683 138.454 46.5804 133.289 46.5483C128.648 46.5195 128.42 46.5136 127.966 46.4101C127.418 46.2851 127.057 46.1288 126.879 45.9392C126.768 45.8209 126.752 45.7475 126.735 45.2831L126.717 44.7602L132.454 44.76C138.055 44.7599 138.194 44.7574 138.359 44.6567C138.598 44.5109 138.747 44.187 138.781 43.7388C138.835 43.025 138.636 42.5234 138.234 42.3551C138.092 42.296 137.061 42.2832 132.394 42.2832H126.727V41.3083V40.3333L132.379 40.3331C137.96 40.3329 138.034 40.3316 138.207 40.2263C138.516 40.0375 138.611 39.7341 138.611 38.9367C138.611 38.303 138.602 38.2341 138.48 38.0191C138.407 37.8912 138.281 37.737 138.199 37.6765C138.051 37.5667 138.037 37.5664 132.389 37.5523L126.727 37.5383V36.8916C126.727 36.0902 126.635 35.8509 126.25 35.6556C125.948 35.5022 125.242 35.4502 124.875 35.5544ZM120.365 35.5914C119.952 35.6508 119.711 35.7948 119.573 36.0655C119.47 36.2673 119.454 36.3785 119.454 36.918V37.5384L113.477 37.5524C107.508 37.5665 107.499 37.5666 107.35 37.6765C107.268 37.737 107.142 37.8912 107.07 38.0191C106.948 38.2341 106.938 38.303 106.938 38.9367C106.938 39.5505 106.951 39.6482 107.062 39.8749C107.295 40.3468 106.693 40.3036 113.444 40.3333L119.428 40.3596L119.442 41.3214L119.457 42.2832H113.578C108.731 42.2832 107.668 42.2959 107.527 42.3551C107.125 42.5229 106.934 42.9906 106.975 43.7036C107.001 44.1612 107.121 44.4514 107.354 44.6255C107.498 44.733 107.547 44.7341 113.463 44.7602L119.428 44.7866L119.444 45.1812C119.452 45.3983 119.447 45.6264 119.431 45.6881C119.382 45.8865 119.082 46.123 118.734 46.2389C117.901 46.516 117.936 46.5142 112.63 46.5474C107.787 46.5777 107.671 46.5809 107.491 46.6847C107.192 46.8569 107.043 47.218 107.045 47.7642C107.046 48.0106 107.077 48.2999 107.114 48.4072C107.207 48.6759 107.486 48.9087 107.766 48.95C107.89 48.9683 110.031 48.9744 112.524 48.9635C117.444 48.9419 117.403 48.9442 118.47 48.6352C120.33 48.0959 121.341 46.9354 121.782 44.8307C121.899 44.2704 121.902 44.1829 121.919 40.2265L121.937 36.1934L121.815 36.0103C121.589 35.6693 121.002 35.4997 120.365 35.5914ZM122.468 49.0822C122.343 49.1086 122.159 49.1808 122.058 49.2428C121.744 49.437 121.698 49.5882 121.677 50.4915L121.658 51.2952H114.688H107.718L107.538 51.4142C107.238 51.6139 107.122 51.918 107.122 52.5074C107.122 53.0967 107.238 53.4009 107.538 53.6005L107.718 53.7195H122.985H138.253L138.43 53.6008C138.754 53.3821 138.822 53.1919 138.822 52.5074C138.822 51.8228 138.754 51.6326 138.43 51.414L138.253 51.2952H131.204H124.154L124.136 50.4652C124.12 49.6875 124.11 49.6239 123.992 49.4572C123.922 49.3593 123.765 49.2353 123.644 49.1816C123.381 49.0655 122.786 49.0151 122.468 49.0822ZM112.05 55.5206C110.314 55.6951 108.96 56.3388 108.258 57.3231C107.766 58.0125 107.473 58.7881 107.305 59.8423C107.194 60.5386 107.126 66.0898 107.222 66.6017C107.329 67.1728 107.644 67.3669 108.466 67.3669C109.244 67.3669 109.586 67.1776 109.7 66.6841C109.734 66.535 109.755 65.2863 109.756 63.3222C109.757 60.6832 109.77 60.1347 109.841 59.7943C109.99 59.0707 110.275 58.6659 110.811 58.4143L111.101 58.2782L113.204 58.2622C115.197 58.247 115.325 58.2518 115.661 58.3541C116.113 58.4912 116.491 58.8164 116.691 59.2388C116.921 59.7243 116.974 60.1872 116.976 61.7302C116.978 63.2495 117.039 63.8312 117.26 64.4406C117.789 65.8977 118.988 66.6597 121.267 66.9876C121.852 67.0717 122.594 67.0794 130.206 67.0794H138.506L138.698 66.9599C138.993 66.7766 139.082 66.541 139.101 65.8936C139.116 65.4 139.105 65.3149 138.996 65.1062C138.93 64.9774 138.808 64.8233 138.726 64.7636C138.578 64.6554 138.552 64.655 130.057 64.6256C121.502 64.5959 121.285 64.5911 120.587 64.4139C120.083 64.2857 119.722 64.074 119.56 63.8118C119.475 63.6739 119.454 63.5493 119.454 63.1601V62.6788L121.312 62.678C125.7 62.6763 127.542 62.398 128.4 61.6072C128.81 61.23 128.852 61.096 128.893 60.0399C128.942 58.7833 129.038 58.5976 129.759 58.3754C130.046 58.2868 130.293 58.2782 132.551 58.2782C134.747 58.2782 135.061 58.2885 135.321 58.3691C135.727 58.4949 136.017 58.7194 136.167 59.0245C136.289 59.2731 136.293 59.3218 136.319 60.9755C136.349 62.9116 136.336 62.8546 136.822 63.1002C137.039 63.2097 137.158 63.2317 137.531 63.2317C137.904 63.2317 138.023 63.2097 138.24 63.1002C138.734 62.8507 138.715 62.9449 138.732 60.7382C138.749 58.5607 138.718 58.2699 138.397 57.5753C138.152 57.0434 137.562 56.4549 137.004 56.1835C135.888 55.641 134.266 55.4182 131.866 55.4778C129.126 55.5458 127.689 55.8507 126.966 56.5172C126.585 56.8677 126.502 57.1368 126.467 58.1227C126.434 59.0507 126.411 59.1273 126.08 59.3798C125.837 59.5652 125.567 59.6702 125.014 59.7946C124.583 59.8917 124.309 59.9035 122.008 59.9242L119.477 59.9469L119.415 59.3497C119.336 58.5847 119.242 58.2256 118.973 57.6767C118.36 56.4252 116.939 55.7085 114.685 55.5143C113.942 55.4502 112.72 55.4531 112.05 55.5206Z" fill="#FAFAFA"/>
<rect x="13.9982" y="12.5" width="148.108" height="78.9333" stroke="white" stroke-width="2"/>
<rect x="2" y="2" width="172" height="100" stroke="black" stroke-width="4"/>
</svg>
