<svg width="40" height="40" viewBox="0 0 40 40" fill="none" xmlns="http://www.w3.org/2000/svg">
<path fill-rule="evenodd" clip-rule="evenodd" d="M25.9415 13.8216C27.8559 13.8216 29.4854 14.5069 30.8327 15.8299C31.9669 16.9877 32.5103 18.665 32.5103 20.8857V33.6448H27.7136V25.186C27.7136 22.8948 27.5955 21.3587 27.4067 20.602C27.1945 19.8465 26.8397 19.2558 26.3198 18.8778C25.8001 18.4762 25.1622 18.287 24.4063 18.287C23.4373 18.287 22.5864 18.5945 21.8777 19.2557C21.1692 19.9174 20.6964 20.8155 20.4134 21.9734C20.271 22.5866 20.2002 23.8862 20.2002 25.8954V33.6448H15.357V14.2941H20.2002V16.3024C21.3107 15.381 22.3033 14.743 23.2014 14.3651C24.0987 14.0108 24.997 13.8216 25.9415 13.8216ZM2.00789 40H38.0149C39.1018 40 40 39.1031 40 38.0154V2.00828C40 0.897734 39.1018 0 38.0149 0H2.00789C0.897344 0 0 0.897734 0 2.00828V38.0154C0 39.103 0.897344 40 2.00789 40ZM10.5845 6.35547C11.4348 6.35547 12.1677 6.6625 12.782 7.27687C13.3962 7.89125 13.6794 8.64711 13.6794 9.52156C13.6794 10.372 13.3962 11.1047 12.782 11.7187C12.1913 12.333 11.4584 12.6169 10.6081 12.6169C9.75789 12.6169 9.02492 12.3095 8.4107 11.6951C7.79648 11.0811 7.48969 10.3248 7.48969 9.42703C7.48969 8.57656 7.79641 7.86766 8.38711 7.2532C9.00133 6.6625 9.73359 6.35547 10.5845 6.35547ZM8.15117 14.2941H12.9944V33.6448H8.15117V14.2941Z" fill="black"/>
</svg>
