<svg width="40" height="40" viewBox="0 0 40 40" fill="none" xmlns="http://www.w3.org/2000/svg">
<path d="M2.83217 39.8856C2.20838 39.7514 1.45917 39.3679 1.06698 38.982C0.641959 38.5637 0.362132 38.0674 0.161659 37.3761L0 36.8187V20.1022C0 4.4758 0.00789733 3.35496 0.121109 2.91561C0.420816 1.75249 1.05726 0.920424 1.99301 0.468371C3.02869 -0.0319615 1.7806 0.000425514 20.0259 0.000425514C38.1995 0.000425514 37.0725 -0.0277526 38.0472 0.450988C38.9742 0.906261 39.599 1.7492 39.8728 2.91423C39.9939 3.42952 40 4.25357 40 20.1371C40 35.7442 39.9922 36.8491 39.8786 37.2899C39.5149 38.7018 38.5903 39.5951 37.185 39.8923C36.4861 40.0401 3.52053 40.0337 2.83217 39.8856ZM35.4196 19.2646V7.67818H20.035H4.65035V19.2646V30.851H20.035H35.4196V19.2646ZM9.95133 27.0296C10.8376 26.1179 12.5852 24.3354 13.835 23.0686L16.1073 20.7652L17.0397 21.7086C18.0202 22.7008 18.3663 22.9375 19.1351 23.1417C19.628 23.2726 20.5314 23.27 21.0465 23.1361C21.7368 22.9566 22.1204 22.6959 23.1119 21.7323L24.0559 20.8149L27.1329 23.9556C28.8252 25.6831 30.5507 27.4543 30.9673 27.8918L31.7248 28.6873H20.0324H8.34L9.95133 27.0296ZM6.82552 19.2646L6.82581 11.4124L10.6985 15.3169L14.5713 19.2214L12.4855 21.3544C11.3382 22.5275 9.59537 24.304 8.61242 25.3021L6.82524 27.1168L6.82552 19.2646ZM32.0247 25.8779C31.3783 25.2157 29.6548 23.4562 28.1946 21.9678L25.5397 19.2617L29.3948 15.4068L33.2498 11.5519L33.2508 19.3169C33.2513 23.5877 33.2401 27.0819 33.2258 27.0819C33.2115 27.0819 32.671 26.5401 32.0247 25.8779ZM19.4141 20.9478C19.2841 20.8787 16.7466 18.3594 13.7752 15.3495L8.37262 9.8768L14.2388 9.85896C17.4651 9.84914 22.7507 9.84914 25.9845 9.85896L31.8641 9.8768L26.3872 15.384C23.0497 18.74 20.8222 20.9279 20.6847 20.9852C20.3628 21.1195 19.7001 21.1 19.4141 20.9478Z" fill="black"/>
</svg>
