<svg width="40" height="40" viewBox="0 0 40 40" fill="none" xmlns="http://www.w3.org/2000/svg">
<path fill-rule="evenodd" clip-rule="evenodd" d="M13.5587 0.0858164C10.5018 0.363399 7.46446 1.0425 5.5855 1.86821C3.71138 2.69174 2.17935 4.04598 1.48549 5.49215C0.651767 7.23012 -0.000914073 13.7953 9.60948e-07 20.4337C0.000785276 25.4083 0.346929 28.9727 1.13033 32.0711C2.0421 35.6775 3.97948 37.5763 7.74171 38.5505C11.8279 39.6087 21.0293 40.2798 26.0564 39.8862C33.2959 39.3195 36.9402 37.6321 38.2756 34.2286C39.0314 32.3022 39.1289 31.4427 39.9198 19.7295C40.0893 17.2172 39.9776 12.7486 39.702 11.0278C38.7686 5.19728 36.4425 2.144 32.1006 1.04891C31.2815 0.842382 29.2049 0.579781 25.8463 0.258281C23.3702 0.0212861 15.4879 -0.0893374 13.5587 0.0858164ZM34.3738 4.79602C35.7853 5.50137 36.351 7.15816 35.6697 8.59127C34.9361 10.1342 32.9414 10.9944 31.482 10.3972C30.5025 9.99634 29.3091 8.2635 29.3118 7.24599C29.3146 6.18611 30.1913 5.05657 31.3484 4.62214C32.0659 4.35276 33.6714 4.44507 34.3738 4.79602ZM23.2037 8.38155C24.3671 8.6841 26.1283 9.46 27.0283 10.0665C27.9629 10.6963 29.4028 12.0771 30.0465 12.9604C31.5017 14.958 32.2309 17.245 32.2249 19.7936C32.2183 22.5714 31.4095 25.025 29.7909 27.1761C26.5254 31.5164 21.29 33.1033 16.0802 31.3318C13.405 30.4222 9.97034 27.9029 9.11348 26.2219C7.57675 23.2069 7.29871 18.9865 8.42446 15.7619C9.74407 11.9823 12.9596 9.23453 17.1998 8.26324C18.6494 7.93112 21.7032 7.99129 23.2037 8.38155ZM18.1339 12.4198C16.825 12.7375 14.8565 14.0355 13.9858 15.1551C12.2902 17.3353 11.9672 20.6684 13.2165 23.0927C15.3723 27.2755 20.237 29.2593 23.8855 27.4433C24.7504 27.0129 25.7653 26.1755 26.3695 25.3942C28.6391 22.4586 27.8949 17.9343 24.6045 14.6656C23.7063 13.7734 23.2804 13.4595 22.3823 13.0279C20.774 12.255 19.5404 12.0785 18.1339 12.4198Z" fill="#9F8FE0"/>
</svg>
