<svg width="40" height="40" viewBox="0 0 40 40" fill="none" xmlns="http://www.w3.org/2000/svg">
<path fill-rule="evenodd" clip-rule="evenodd" d="M5.55467 0.0740453C3.99934 0.32441 2.27823 1.60945 1.54017 3.07131C1.12786 3.8879 0.992689 4.49517 0.991558 5.53626C0.989055 7.87271 2.08605 9.79887 3.68013 10.2571C4.33009 10.444 6.13187 10.4297 6.93307 10.2313C9.14934 9.68264 10.6766 7.87936 10.8427 5.61521C11.0284 3.08233 9.12293 0.417505 6.87299 0.0635711C6.31905 -0.0235054 6.1523 -0.0221766 5.55467 0.0740453ZM2.53009 12.7394C2.06618 12.838 1.74536 13.0244 1.74536 13.1953C1.74536 13.2785 1.65185 13.4304 1.53751 13.5331C1.3056 13.7412 1.16348 14.2582 0.824567 16.1277C-0.0621499 21.0181 -0.200879 25.9514 0.251403 36.5135C0.375112 39.4035 0.3932 39.5115 0.80228 39.8049C1.00755 39.9521 1.16291 39.971 2.37691 39.9959C3.11763 40.0111 4.83203 39.9827 6.18662 39.9329C8.84943 39.8349 9.03483 39.8021 9.35872 39.3727C9.50553 39.178 9.50884 39.0955 9.42591 37.6921C9.13731 32.8112 9.11688 26.5531 9.37358 21.7166C9.50311 19.2772 9.50238 19.2869 9.75044 16.3768C9.87189 14.9516 9.8983 14.3079 9.84032 14.1847C9.77992 14.0564 9.7892 13.9528 9.87528 13.7938C10.136 13.312 9.76159 12.8006 9.11647 12.7574C8.19019 12.6952 2.80682 12.6806 2.53009 12.7394ZM27.0801 12.9274C25.4286 13.1762 24.0563 13.7507 22.9466 14.6578L22.6279 14.9183L22.52 14.5102C22.4037 14.0703 22.2535 13.865 21.9289 13.7025C21.7246 13.6003 18.0507 13.0938 16.8053 12.9961C16.0549 12.9373 14.7524 13.071 14.3716 13.246C14.1481 13.3486 14.0958 13.4273 14.0239 13.7702C13.6822 15.398 13.3689 17.7356 13.1948 19.9578C12.9291 23.3499 13.2154 38.2752 13.5559 38.7781C13.7856 39.1174 14.6034 39.4463 15.4793 39.5517C16.4636 39.6701 20.047 39.531 20.9611 39.3389C21.648 39.1946 21.8445 39.105 22.292 38.7323L22.6108 38.4668L22.4282 36.6381C22.3278 35.6322 22.1865 34.2113 22.1143 33.4805C21.9448 31.7658 21.9267 27.9949 22.083 26.9927C22.4603 24.5744 23.1319 23.0992 24.3545 22.0035C24.9437 21.4755 25.4417 21.2141 26.0746 21.1008C27.9588 20.7637 30.0358 22.6502 30.5285 25.1461C30.5932 25.4739 30.6898 26.2873 30.7431 26.9537C30.8634 28.4558 30.8633 32.9868 30.7429 34.6139C30.5439 37.3031 30.5392 37.5525 30.6822 37.8442C30.7555 37.9936 30.8154 38.1553 30.8154 38.2035C30.8154 38.3496 31.1221 38.4295 32.4708 38.6347C34.3833 38.9256 35.5701 39.0173 36.7909 38.9683C38.6461 38.8939 39.1258 38.7505 39.4259 38.1801C39.6138 37.823 39.648 37.623 39.7422 36.3335C39.9867 32.9852 40.0571 30.2376 39.9542 28.0607C39.7553 23.8495 39.1969 21.0759 38.0458 18.5831C36.4761 15.1831 34.192 13.4439 30.6135 12.9239C29.6329 12.7814 28.0382 12.783 27.0801 12.9274Z" fill="#9F8FE0"/>
</svg>
