<svg width="60" height="60" viewBox="0 0 60 60" fill="none" xmlns="http://www.w3.org/2000/svg">
<path fill-rule="evenodd" clip-rule="evenodd" d="M38.9122 20.7323C41.7838 20.7323 44.2281 21.7603 46.249 23.7449C47.9503 25.4816 48.7655 27.9975 48.7655 31.3286V50.4673H41.5704V37.779C41.5704 34.3423 41.3933 32.038 41.1101 30.9029C40.7917 29.7697 40.2595 28.8837 39.4798 28.3167C38.7001 27.7144 37.7433 27.4305 36.6095 27.4305C35.156 27.4305 33.8796 27.8917 32.8166 28.8836C31.7538 29.8761 31.0446 31.2233 30.62 32.96C30.4065 33.8798 30.3002 35.8294 30.3002 38.8431V50.4672H23.0355V21.4412H30.3002V24.4536C31.9661 23.0715 33.4549 22.1145 34.8021 21.5476C36.1481 21.0162 37.4954 20.7323 38.9122 20.7323ZM3.01184 60H57.0224C58.6527 60 60 58.6547 60 57.0231V3.01242C60 1.3466 58.6527 0 57.0224 0H3.01184C1.34602 0 0 1.3466 0 3.01242V57.0231C0 58.6546 1.34602 60 3.01184 60ZM15.8768 9.5332C17.1521 9.5332 18.2516 9.99375 19.173 10.9153C20.0944 11.8369 20.5191 12.9707 20.5191 14.2823C20.5191 15.558 20.0944 16.657 19.173 17.578C18.287 18.4996 17.1875 18.9253 15.9122 18.9253C14.6368 18.9253 13.5374 18.4642 12.6161 17.5426C11.6947 16.6216 11.2345 15.4871 11.2345 14.1405C11.2345 12.8648 11.6946 11.8015 12.5807 10.8798C13.502 9.99375 14.6004 9.5332 15.8768 9.5332ZM12.2268 21.4412H19.4916V50.4673H12.2268V21.4412Z" fill="#FAFAFA"/>
</svg>
