<svg width="60" height="60" viewBox="0 0 60 60" fill="none" xmlns="http://www.w3.org/2000/svg">
<path d="M4.24825 59.8284C3.31257 59.6271 2.18876 59.0518 1.60047 58.4729C0.962939 57.8456 0.543198 57.1011 0.242489 56.0642L0 55.2281V30.1533C0 6.7137 0.011846 5.03245 0.181663 4.37341C0.631224 2.62873 1.58589 1.38064 2.98951 0.702556C4.54303 -0.0479423 2.6709 0.00063827 30.0388 0.00063827C57.2993 0.00063827 55.6087 -0.041629 57.0709 0.676483C58.4614 1.35939 59.3984 2.6238 59.8092 4.37135C59.9909 5.14428 60 6.38036 60 30.2056C60 53.6163 59.9883 55.2736 59.8179 55.9348C59.2723 58.0527 57.8855 59.3926 55.7775 59.8385C54.7292 60.0602 5.28079 60.0506 4.24825 59.8284ZM53.1294 28.8969V11.5173H30.0524H6.97553V28.8969V46.2765H30.0524H53.1294V28.8969ZM14.927 40.5444C16.2563 39.1768 18.8778 36.5031 20.7525 34.6029L24.161 31.1479L25.5595 32.5629C27.0304 34.0512 27.5495 34.4062 28.7026 34.7125C29.442 34.9089 30.7971 34.905 31.5698 34.7041C32.6051 34.4349 33.1806 34.0438 34.6678 32.5985L36.0839 31.2223L40.6993 35.9335C43.2378 38.5246 45.826 41.1815 46.4509 41.8378L47.5872 43.0309H30.0486H12.51L14.927 40.5444ZM10.2383 28.8969L10.2387 17.1185L16.0478 22.9753L21.8569 28.832L18.7282 32.0315C17.0074 33.7913 14.3931 36.456 12.9186 37.9531L10.2379 40.6753L10.2383 28.8969ZM48.037 38.8169C47.0675 37.8236 44.4822 35.1843 42.2919 32.9517L38.3095 28.8926L44.0921 23.1103L49.8748 17.3279L49.8762 28.9754C49.877 35.3815 49.8601 40.6229 49.8387 40.6229C49.8173 40.6229 49.0065 39.8102 48.037 38.8169ZM29.1211 31.4217C28.9261 31.3181 25.1199 27.5392 20.6628 23.0242L12.5589 14.8152L21.3581 14.7884C26.1977 14.7737 34.1261 14.7737 38.9768 14.7884L47.7962 14.8152L39.5808 23.076C34.5745 28.11 31.2333 31.3918 31.027 31.4779C30.5442 31.6792 29.5502 31.6499 29.1211 31.4217Z" fill="white"/>
</svg>
