<svg width="50" height="40" viewBox="0 0 50 40" fill="none" xmlns="http://www.w3.org/2000/svg">
<path fill-rule="evenodd" clip-rule="evenodd" d="M2.98933 0.29603C2.61206 0.447563 2.34742 0.699431 2.40123 0.85626C2.53443 1.2423 24.7065 21.463 24.9968 21.463C25.2488 21.463 47.4388 1.23848 47.5705 0.888921C47.879 0.0697606 45.6892 -0.0161571 24.9071 0.00208574C12.464 0.0132668 3.39159 0.134787 2.98933 0.29603ZM0.00646895 20.0141C0.01235 33.1678 0.0541057 34.3527 0.548995 35.4393C1.35558 37.2097 2.4918 38.399 4.18142 39.2415L5.70255 40L24.6845 39.9982C36.8538 39.9974 44.0599 39.8876 44.7621 39.6922C46.472 39.217 48.2695 37.662 49.1828 35.868L50 34.2623L49.9209 20.0512L49.8418 5.83978L38.6737 16.0122C26.7778 26.8475 26.5373 27.022 24.0879 26.608C23.4639 26.5024 22.5855 26.1319 22.1359 25.7844C21.6866 25.4372 16.8198 21.0563 11.321 16.0499C5.82223 11.0431 1.02536 6.68101 0.661617 6.35617L0 5.76563L0.00646895 20.0141Z" fill="#9F8FE0"/>
</svg>
