<svg width="1692" height="843" viewBox="0 0 1692 843" fill="none" xmlns="http://www.w3.org/2000/svg">
<path d="M811.122 628.995C799.753 633.244 795.566 645.409 799.977 657.868C804.387 670.327 818.59 675.508 828.915 668.917C839.24 662.326 844.334 651.856 840.06 640.044C835.786 628.231 822.49 624.746 811.122 628.995Z" fill="#0B2CB8"/>
<path opacity="0.8" d="M49.0261 322.616C22.9746 277.549 42.18 227.39 83.4266 193.97C124.673 160.551 181.889 137.183 225.113 112.254C268.337 87.3256 326.134 98.8566 353.854 146.81C381.574 194.764 365.546 255.294 319.454 275.457C273.361 295.62 227.298 335.027 177.767 357.172C128.237 379.318 75.0776 367.683 49.0261 322.616Z" fill="#EEF1FA"/>
<path d="M132.032 519.468C120.663 523.717 116.476 535.881 120.886 548.341C125.297 560.8 139.5 565.98 149.825 559.389C160.15 552.798 165.244 542.329 160.97 530.516C156.696 518.704 143.4 515.219 132.032 519.468Z" fill="#3F84E5"/>
<path opacity="0.8" d="M1094.44 654.836C1215.2 765.502 1388.61 739.689 1513.37 608.156C1638.13 476.623 1614.85 272.495 1471.95 189.146C1329.04 105.798 1170.74 110.008 1053.02 235.826C935.294 361.644 973.682 544.169 1094.44 654.836Z" fill="#EAEFF9"/>
<path d="M415.952 705.677C487.975 771.554 590.57 757.093 663.873 679.997C737.176 602.902 722.47 482.284 637.454 432.435C552.437 382.586 458.694 384.361 389.533 458.114C320.371 531.867 343.929 639.8 415.952 705.677Z" fill="#F0C933"/>
<path d="M1537.12 786.337C1525.75 790.586 1521.56 802.751 1525.98 815.21C1530.39 827.669 1544.59 832.849 1554.91 826.258C1565.24 819.667 1570.33 809.198 1566.06 797.385C1561.79 785.573 1548.49 782.088 1537.12 786.337Z" fill="#3F84E5"/>
</svg>
