<svg width="581" height="169" viewBox="0 0 581 169" fill="none" xmlns="http://www.w3.org/2000/svg">
<g opacity="0.8" filter="url(#filter0_d_824_765)">
<rect x="24" y="16" width="118" height="121" rx="32" fill="white"/>
</g>
<mask id="mask0_824_765" style="mask-type:alpha" maskUnits="userSpaceOnUse" x="19" y="16" width="128" height="128">
<rect x="19" y="16" width="128" height="128" rx="32" fill="white"/>
</mask>
<g mask="url(#mask0_824_765)">
<rect x="19" y="16" width="128" height="128" fill="white"/>
<path d="M111.836 51.0728C105.813 45.0495 98.0595 41.0566 89.6579 39.6513C81.2563 38.2461 72.6255 39.4985 64.9699 43.2339C57.3143 46.9693 51.0157 53.0013 46.9529 60.4883C42.89 67.9753 41.2657 76.5438 42.3065 84.9983C43.3473 93.4528 47.0013 101.372 52.7587 107.65C58.516 113.928 66.0896 118.252 74.4226 120.019C82.7556 121.786 91.4324 120.908 99.2423 117.507C107.052 114.106 113.606 108.352 117.988 101.047L107.606 94.8178C104.52 99.9603 99.9063 104.011 94.408 106.406C88.9097 108.8 82.801 109.418 76.9344 108.174C71.0678 106.93 65.7359 103.886 61.6826 99.4659C57.6293 95.046 55.0568 89.471 54.3241 83.5189C53.5913 77.5668 54.7349 71.5344 57.5952 66.2633C60.4555 60.9923 64.8898 56.7457 70.2796 54.1159C75.6693 51.4861 81.7455 50.6044 87.6604 51.5937C93.5753 52.583 99.0338 55.3941 103.274 59.6347L111.836 51.0728Z" fill="#F0C933"/>
<circle cx="71.0914" cy="91.8182" r="4.54546" fill="url(#paint0_linear_824_765)"/>
<circle cx="93.8179" cy="91.8182" r="4.54546" fill="url(#paint1_linear_824_765)"/>
<rect x="76.5459" y="30" width="13.6364" height="13.6364" fill="#F0C933"/>
<rect x="76.5459" y="116.364" width="13.6364" height="13.6364" fill="url(#paint2_linear_824_765)"/>
<path d="M64.1374 116.348C68.9107 118.813 74.1228 120.314 79.4761 120.765C84.8294 121.216 90.2191 120.608 95.3374 118.975C100.456 117.343 105.203 114.719 109.307 111.252C113.411 107.786 116.792 103.545 119.257 98.7716L108.419 93.1742C106.689 96.5241 104.316 99.5005 101.435 101.933C98.555 104.366 95.2236 106.208 91.6315 107.354C88.0394 108.499 84.2568 108.926 80.4998 108.609C76.7427 108.293 73.0848 107.24 69.7348 105.509L64.1374 116.348Z" fill="url(#paint3_linear_824_765)"/>
<path d="M46.104 97.8588C49.8863 105.654 56.0458 112.047 63.6948 116.116C71.3438 120.185 80.0873 121.721 88.6653 120.502L86.9489 108.425C80.9287 109.28 74.7924 108.203 69.4242 105.347C64.0561 102.491 59.7332 98.0041 57.0787 92.5335L46.104 97.8588Z" fill="url(#paint4_linear_824_765)"/>
</g>
<path d="M198.08 126V88.14H230.6V77.46H198.08V50.28H237.8V39.6H187.4V126H198.08ZM260.602 49.74V38.7H249.922V49.74H260.602ZM260.602 126V61.2H249.922V126H260.602ZM309.895 59.52C300.535 59.52 293.095 63.12 288.295 69.54V61.2H278.695V126H289.495V91.86C289.495 76.86 296.575 69.66 307.315 69.66C320.995 69.66 324.895 81.36 324.895 93.54V126H335.695V90.18C335.695 77.88 330.775 59.52 309.895 59.52Z" fill="url(#paint5_linear_824_765)"/>
<path d="M380.544 126L399.984 58.26L419.424 126H430.104L455.124 39.6H443.904L424.764 107.94L405.564 39.6L394.344 39.66L375.204 107.94L356.004 39.6H344.844L369.864 126H380.544ZM515.892 96.6C516.852 73.56 505.452 59.4 485.952 59.4C467.112 59.4 454.752 72.78 454.752 94.02C454.752 114.3 467.292 127.8 486.432 127.8C498.972 127.8 509.712 121.26 514.812 109.8L504.552 106.26C500.952 113.64 494.472 117.66 485.952 117.66C474.012 117.66 467.052 110.04 466.212 96.6H515.892ZM486.312 69C497.292 69 503.472 75.3 504.792 88.02H466.392C467.892 75.72 474.672 69 486.312 69ZM541.28 126V37.8H530.6V126H541.28ZM571.313 126V37.8H560.633V126H571.313Z" fill="#F0C933"/>
<defs>
<filter id="filter0_d_824_765" x="0" y="0" width="166" height="169" filterUnits="userSpaceOnUse" color-interpolation-filters="sRGB">
<feFlood flood-opacity="0" result="BackgroundImageFix"/>
<feColorMatrix in="SourceAlpha" type="matrix" values="0 0 0 0 0 0 0 0 0 0 0 0 0 0 0 0 0 0 127 0" result="hardAlpha"/>
<feOffset dy="8"/>
<feGaussianBlur stdDeviation="12"/>
<feColorMatrix type="matrix" values="0 0 0 0 0.137255 0 0 0 0 0.164706 0 0 0 0 0.2 0 0 0 0.24 0"/>
<feBlend mode="normal" in2="BackgroundImageFix" result="effect1_dropShadow_824_765"/>
<feBlend mode="normal" in="SourceGraphic" in2="effect1_dropShadow_824_765" result="shape"/>
</filter>
<linearGradient id="paint0_linear_824_765" x1="71.0914" y1="87.2727" x2="71.0914" y2="96.3636" gradientUnits="userSpaceOnUse">
<stop stop-color="#2F3180"/>
<stop offset="1" stop-color="#050A1E"/>
</linearGradient>
<linearGradient id="paint1_linear_824_765" x1="93.8179" y1="87.2727" x2="93.8179" y2="96.3636" gradientUnits="userSpaceOnUse">
<stop stop-color="#2F3180"/>
<stop offset="1" stop-color="#050A1E"/>
</linearGradient>
<linearGradient id="paint2_linear_824_765" x1="83.3641" y1="116.364" x2="83.3641" y2="130" gradientUnits="userSpaceOnUse">
<stop stop-color="#2F3180"/>
<stop offset="1" stop-color="#050A1E"/>
</linearGradient>
<linearGradient id="paint3_linear_824_765" x1="82.9091" y1="39.0908" x2="82.9091" y2="120.909" gradientUnits="userSpaceOnUse">
<stop stop-color="#2F3180"/>
<stop offset="1" stop-color="#050A1E"/>
</linearGradient>
<linearGradient id="paint4_linear_824_765" x1="82.9091" y1="39.0908" x2="82.9091" y2="120.909" gradientUnits="userSpaceOnUse">
<stop stop-color="#2F3180"/>
<stop offset="1" stop-color="#050A1E"/>
</linearGradient>
<linearGradient id="paint5_linear_824_765" x1="380" y1="16" x2="380" y2="144" gradientUnits="userSpaceOnUse">
<stop stop-color="#2F3180"/>
<stop offset="1" stop-color="#050A1E"/>
</linearGradient>
</defs>
</svg>
