<svg width="84" height="84" viewBox="0 0 84 84" fill="none" xmlns="http://www.w3.org/2000/svg">
<path d="M0 0H84V84H0V0Z" fill="#FAFAFA"/>
<path d="M42 48C45.3137 48 48 45.3137 48 42C48 38.6863 45.3137 36 42 36C38.6863 36 36 38.6863 36 42C36 45.3137 38.6863 48 42 48Z" fill="#0A0A0A"/>
<path d="M49.92 24H34.08C31.4066 24 28.8427 25.062 26.9524 26.9524C25.062 28.8427 24 31.4066 24 34.08V49.92C24 52.5934 25.062 55.1573 26.9524 57.0476C28.8427 58.938 31.4066 60 34.08 60H49.92C52.5934 60 55.1573 58.938 57.0476 57.0476C58.938 55.1573 60 52.5934 60 49.92V34.08C60 31.4066 58.938 28.8427 57.0476 26.9524C55.1573 25.062 52.5934 24 49.92 24V24ZM42 50.64C40.2912 50.64 38.6207 50.1333 37.1999 49.1839C35.779 48.2345 34.6716 46.8851 34.0177 45.3064C33.3637 43.7276 33.1926 41.9904 33.526 40.3144C33.8594 38.6384 34.6823 37.0989 35.8906 35.8906C37.0989 34.6823 38.6384 33.8594 40.3144 33.526C41.9904 33.1926 43.7276 33.3637 45.3064 34.0177C46.8851 34.6716 48.2345 35.779 49.1839 37.1999C50.1333 38.6207 50.64 40.2912 50.64 42C50.64 44.2915 49.7297 46.4891 48.1094 48.1094C46.4891 49.7297 44.2915 50.64 42 50.64ZM51.36 34.8C50.9328 34.8 50.5152 34.6733 50.16 34.436C49.8048 34.1986 49.5279 33.8613 49.3644 33.4666C49.2009 33.0719 49.1582 32.6376 49.2415 32.2186C49.3248 31.7996 49.5306 31.4147 49.8327 31.1126C50.1347 30.8106 50.5196 30.6048 50.9386 30.5215C51.3576 30.4382 51.7919 30.4809 52.1866 30.6444C52.5813 30.8079 52.9186 31.0848 53.156 31.44C53.3933 31.7952 53.52 32.2128 53.52 32.64C53.52 33.2129 53.2924 33.7623 52.8874 34.1674C52.4823 34.5724 51.9329 34.8 51.36 34.8Z" fill="#0A0A0A"/>
<path d="M0 0V-1H-1V0H0ZM84 0H85V-1H84V0ZM84 84V85H85V84H84ZM0 84H-1V85H0V84ZM0 1H84V-1H0V1ZM83 0V84H85V0H83ZM84 83H0V85H84V83ZM1 84V0H-1V84H1Z" fill="#FAFAFA"/>
</svg>
