<svg width="1728" height="1424" viewBox="0 0 1728 1424" fill="none" xmlns="http://www.w3.org/2000/svg">
<path opacity="0.8" d="M1055.66 845.968C1232.26 1007.7 1483.83 972.202 1663.59 782.947C1843.34 593.693 1807.29 297.585 1598.83 175.204C1390.37 52.8236 1160.51 57.1745 990.909 238.225C821.311 419.275 879.062 684.24 1055.66 845.968Z" fill="#EAEFF9"/>
<path opacity="0.8" d="M521.744 1290.58C616.276 1367.13 744.643 1349.81 817.805 1259.47C890.967 1169.12 879.162 1019.79 786.688 963.405C694.213 907.018 558.017 885.555 490.627 994.522C423.236 1103.49 427.211 1214.03 521.744 1290.58Z" fill="#F3D250"/>
<path opacity="0.8" d="M52.1275 511.191C79.3904 536.158 118.228 530.679 145.978 501.462C173.728 472.245 168.163 426.533 135.981 407.64C103.8 388.747 68.3134 389.419 42.1313 417.369C15.9492 445.319 24.8646 486.224 52.1275 511.191Z" fill="#3F84E5"/>
<path opacity="0.8" d="M1512.57 1214.63C1562.24 1254.85 1629.71 1245.73 1668.17 1198.23C1706.63 1150.74 1700.44 1072.25 1651.85 1042.62C1603.26 1013 1531.68 1001.73 1496.25 1059.02C1460.82 1116.3 1462.89 1174.4 1512.57 1214.63Z" fill="#F3D250"/>
<path opacity="0.8" d="M168.31 1314.17C156.941 1318.42 152.754 1330.6 157.166 1343.08C161.577 1355.55 175.78 1360.74 186.105 1354.14C196.43 1347.54 201.524 1337.06 197.249 1325.23C192.975 1313.4 179.678 1309.91 168.31 1314.17Z" fill="#3F84E5"/>
<path opacity="0.8" d="M857.127 948.191C884.39 973.158 923.228 967.679 950.978 938.462C978.728 909.245 973.163 863.533 940.981 844.64C908.8 825.747 873.313 826.419 847.131 854.369C820.949 882.319 829.865 923.224 857.127 948.191Z" fill="#3B55C5"/>
<path d="M869.121 1260.98C857.752 1265.24 853.566 1277.41 857.977 1289.89C862.388 1302.36 876.592 1307.55 886.917 1300.95C897.242 1294.35 902.335 1283.87 898.061 1272.04C893.786 1260.22 880.49 1256.73 869.121 1260.98Z" fill="#0B2CB8"/>
</svg>
