<svg width="176" height="105" viewBox="0 0 176 105" fill="none" xmlns="http://www.w3.org/2000/svg">
<rect x="16.9725" y="14.3848" width="142.055" height="77.2286" fill="#FAFAFA"/>
<path fill-rule="evenodd" clip-rule="evenodd" d="M82.4691 37.5309C82.1813 37.5907 81.9524 37.7234 81.811 37.9123C81.7018 38.0582 81.7003 38.1003 81.6695 41.987C81.6364 46.1631 81.6268 46.3192 81.3708 46.8932C81.1078 47.4826 80.7913 47.6616 80.0093 47.6633L79.4717 47.6645V42.9705V38.2766L79.3537 38.0991C79.2873 37.9994 79.1206 37.8643 78.9735 37.791C78.7414 37.6754 78.6449 37.6603 78.1344 37.6603C77.4738 37.6603 77.1724 37.746 76.924 38.0042L76.7708 38.1635L76.7569 42.9139L76.743 47.6645L76.1538 47.6633C75.6885 47.6624 75.5184 47.6413 75.345 47.5629C74.9464 47.3826 74.6687 46.8431 74.5451 46.0089C74.5101 45.7727 74.4895 44.3143 74.4895 42.0803C74.4895 39.7443 74.4702 38.4378 74.4331 38.2657C74.3235 37.7565 73.921 37.5569 73.0722 37.5909C72.3483 37.6198 72.0546 37.8215 71.9674 38.3493C71.9088 38.7048 71.912 43.668 71.9718 44.9218C72.0478 46.5166 72.2521 47.4539 72.7235 48.3697C73.0231 48.9519 73.6755 49.6021 74.234 49.8749C74.7571 50.1304 75.5091 50.3168 76.1954 50.361L76.7469 50.3965L76.7326 51.3422L76.7184 52.2878L76.1153 52.3244C74.9012 52.3981 74.0665 52.7333 73.3588 53.4313C73 53.7853 72.8898 53.9367 72.6892 54.3513C72.2347 55.2905 72.049 56.1637 71.9724 57.7208C71.9132 58.9235 71.909 67.6487 71.9674 68.0025C72.0183 68.3105 72.1496 68.4938 72.4209 68.6356C72.7229 68.7934 73.6863 68.7934 73.9883 68.6356C74.2408 68.5036 74.3763 68.3308 74.4393 68.0605C74.4662 67.9448 74.488 65.5224 74.4893 62.5009C74.4917 56.8043 74.5039 56.4843 74.7478 55.7051C74.9849 54.9475 75.2555 54.7692 76.1682 54.7692H76.7435L76.7571 61.5048L76.7708 68.2405L76.9282 68.4049C77.1553 68.6423 77.3907 68.7251 77.9246 68.7557C78.5893 68.7936 78.9568 68.709 79.2304 68.4548L79.4455 68.2549L79.4592 61.5077L79.4729 54.7605L80.097 54.7779C80.7051 54.7949 80.7262 54.7995 80.9224 54.9573C81.2994 55.2606 81.5155 55.889 81.6214 56.9895C81.6496 57.282 81.6723 59.8278 81.673 62.7741C81.6746 68.7352 81.647 68.3441 82.0835 68.5989C82.2796 68.7133 82.4036 68.7423 82.7721 68.7598C83.0205 68.7715 83.3215 68.7542 83.4451 68.721C83.7371 68.6425 84.0181 68.3925 84.0853 68.1517C84.157 67.8946 84.1579 58.4157 84.0863 57.5064C83.896 55.0877 83.2116 53.7173 81.8755 53.0793C81.6062 52.9508 81.2298 52.8079 81.039 52.7619C80.7446 52.6909 79.8699 52.581 79.5635 52.5765C79.4788 52.5752 79.4717 52.4818 79.4717 51.358V50.1408L80.088 50.0789C81.2892 49.9583 82.0592 49.635 82.7248 48.972C83.3374 48.3618 83.7002 47.5764 83.9282 46.3671C84.1039 45.4354 84.1393 44.5934 84.1393 41.3468V38.231L84.0213 37.9979C83.9337 37.8248 83.8426 37.7353 83.6673 37.6501C83.3941 37.5172 82.8129 37.4594 82.4691 37.5309ZM52.1401 37.7556C51.7924 37.8537 51.6291 37.9767 51.5155 38.226C51.424 38.4267 51.416 38.5918 51.415 40.3149L51.4138 42.1858L45.9989 42.1642C39.2269 42.1373 39.5613 42.1759 39.5613 41.4211C39.5613 41.0206 39.5722 40.9732 39.6793 40.9057C39.9563 40.7311 40.3616 40.7024 43.0062 40.6702L45.6382 40.6381L45.798 40.4855C46.0509 40.244 46.1433 39.9344 46.1421 39.3321C46.1406 38.5467 45.973 38.1532 45.576 38.0034C45.3784 37.9289 40.9856 37.9288 40.3146 38.0034C38.8094 38.1705 37.7989 38.7266 37.3687 39.6246C37.126 40.1311 37.0389 40.5773 37.0396 41.31C37.0406 42.3218 37.2355 42.8561 37.8074 43.4153C38.3733 43.9684 39.2466 44.3166 40.6365 44.5432C41.2916 44.65 41.5152 44.6551 46.366 44.6734L51.4138 44.6925V45.5777V46.4629L46.7856 46.4639C41.788 46.4649 41.6153 46.4729 40.5707 46.7498C38.56 47.2829 37.4933 48.5768 37.116 50.9404C37.0343 51.452 37.0242 52.2878 37.0058 59.9784C36.9919 65.7964 37.0029 68.5463 37.041 68.7515C37.1431 69.3018 37.4643 69.4982 38.265 69.5C38.9504 69.5015 39.3052 69.3487 39.4751 68.9787C39.519 68.8831 39.5424 66.5096 39.5622 60.1239L39.5893 51.3997L39.7078 51.0168C40.124 49.6716 40.903 49.0875 42.5049 48.9194C42.7847 48.89 44.8096 48.8674 47.2051 48.8669L51.4138 48.866V49.592V50.3181L49.0932 50.3434C47.2916 50.3631 46.6454 50.3883 46.2042 50.4559C43.9993 50.7938 42.8974 51.5435 42.5709 52.9277C42.4518 53.4325 42.4951 54.5698 42.6498 55.0001C43.0693 56.167 44.1237 56.81 46.1431 57.1301C46.7328 57.2236 47.1349 57.2416 49.1194 57.2629L51.4138 57.2875V57.9597V58.6319L47.4149 58.6465L43.416 58.6612L43.2231 58.7807C42.902 58.9796 42.7867 59.2861 42.7867 59.9411C42.7867 60.5735 42.8653 60.7964 43.1702 61.028L43.3553 61.1687L47.3897 61.183L51.424 61.1974L51.3994 63.0115C51.3734 64.924 51.3494 65.1456 51.096 65.8165C51.0143 66.0327 50.8942 66.212 50.7047 66.4008C50.2679 66.8359 50.1989 66.8467 47.9941 66.8237C46.0242 66.8032 45.8852 66.7869 45.5922 66.5413C45.2749 66.2753 45.2562 66.1915 45.2264 64.9039C45.2091 64.1565 45.177 63.6905 45.1384 63.624C44.9356 63.2752 44.5649 63.1278 43.891 63.1278C43.2793 63.1278 42.9447 63.2241 42.7066 63.4687L42.5245 63.6558L42.509 65.2333C42.4915 67.0142 42.5256 67.2761 42.8448 67.8153C43.4234 68.7925 44.6348 69.2849 46.8774 69.4542C47.8071 69.5243 49.1489 69.485 49.8143 69.368C51.9663 68.9896 53.1764 67.8468 53.6425 65.7524C53.8253 64.9307 53.8787 64.2216 53.8787 62.6166V61.1833L55.9634 61.2104C57.5109 61.2305 58.1527 61.2578 58.454 61.3162C59.3861 61.497 59.8731 61.7524 60.1196 62.1899C60.2491 62.4197 60.251 62.4397 60.2671 63.8323C60.2887 65.6987 60.219 66.0792 59.786 66.4578C59.5248 66.6862 59.2212 66.7324 57.9791 66.7324C56.6733 66.7324 56.6139 66.7507 56.3727 67.2265C56.2333 67.5014 56.2182 67.5809 56.2182 68.0377C56.2182 68.4806 56.2358 68.5799 56.3584 68.8295C56.4593 69.035 56.5559 69.147 56.7036 69.2296C56.9021 69.3408 56.9582 69.3444 58.4748 69.3436C60.2139 69.3428 60.4792 69.3092 61.0211 69.0215C61.1972 68.928 61.4615 68.717 61.6381 68.5289C62.347 67.7741 62.7022 66.5367 62.7761 64.5644C62.8795 61.8076 62.1702 60.1793 60.513 59.3693C59.3433 58.7976 58.2181 58.6357 55.4127 58.6353L53.8787 58.635V57.9613V57.2875L56.1732 57.262C58.6142 57.235 59.068 57.1976 60.087 56.9401C61.366 56.617 62.1905 56.0229 62.5563 55.161C62.6889 54.8486 62.7944 54.2362 62.7934 53.7851C62.7909 52.6853 62.362 51.8088 61.5671 51.2792C61.1328 50.9899 60.7998 50.8514 60.0934 50.6664C59.0916 50.4039 58.6735 50.3692 56.1994 50.3428L53.8787 50.3181V49.592V48.866L58.1661 48.8669C60.6134 48.8674 62.6644 48.8899 62.945 48.9194C63.9103 49.0207 64.5348 49.2617 65.0408 49.7283C65.5598 50.2071 65.8389 50.8887 65.9401 51.925C65.9702 52.2336 65.9913 55.7348 65.9921 60.5472L65.9934 68.6498L66.1116 68.8245C66.3292 69.1461 66.5185 69.2138 67.1997 69.2138C67.8819 69.2138 68.0701 69.1462 68.2892 68.8224L68.4088 68.6455L68.3915 59.8398L68.3742 51.034L68.2599 50.5148C67.8836 48.8049 67.2125 47.8001 66.0459 47.1994C65.5144 46.9257 65.0123 46.753 64.3329 46.6102C63.7674 46.4915 63.7395 46.4907 58.8216 46.4749L53.8787 46.4589V45.5728V44.6867L58.6381 44.6863C61.3799 44.6861 63.6531 44.6636 64.0006 44.6335C65.8224 44.4752 66.939 44.1055 67.6253 43.4332C68.2065 42.8639 68.4065 42.3258 68.405 41.3358C68.4033 40.2693 68.1646 39.5878 67.5931 39.0186C67.0563 38.484 66.2909 38.1712 65.1615 38.0248C64.6649 37.9605 64.0566 37.9475 62.0821 37.9592C59.6232 37.9738 59.6213 37.9739 59.4555 38.0917C59.3642 38.1565 59.2344 38.3211 59.167 38.4574C59.0584 38.6772 59.0446 38.779 59.0449 39.3582C59.0452 39.894 59.0628 40.044 59.1428 40.194C59.2574 40.4087 59.422 40.5973 59.569 40.6821C59.6435 40.7251 60.5243 40.7502 62.6108 40.7688C65.2137 40.7921 65.5698 40.805 65.7424 40.8829C65.9685 40.9848 66.0061 41.0857 65.9833 41.5284C65.9679 41.8266 65.9595 41.8433 65.7837 41.9277C65.362 42.13 64.9915 42.1437 59.3479 42.1648L53.8824 42.1853L53.8675 40.227C53.8531 38.3473 53.8482 38.2627 53.7449 38.1212C53.4935 37.7768 52.7031 37.5968 52.1401 37.7556ZM86.2497 37.7904C86.0183 37.9313 85.8921 38.1552 85.8152 38.5608C85.6772 39.289 85.8584 40.0389 86.2317 40.2854L86.41 40.403H94.5758H102.742L102.92 40.2854C103.02 40.2193 103.156 40.0532 103.229 39.9067C103.345 39.6755 103.36 39.5794 103.36 39.0709C103.36 38.4128 103.274 38.1126 103.015 37.8651L102.855 37.7126L94.6379 37.6994C86.5114 37.6865 86.4188 37.6875 86.2497 37.7904ZM86.2317 42.8714C86.1313 42.9378 85.9966 43.103 85.923 43.2502C85.809 43.4782 85.7924 43.5809 85.7919 44.0599C85.791 44.8886 86.0047 45.3111 86.4803 45.421C86.5917 45.4468 87.68 45.4684 88.8987 45.4691L91.1144 45.4704L91.1154 48.435C91.117 53.4731 91.2518 54.8791 91.8515 56.1133C92.2035 56.8377 92.6543 57.1963 93.2959 57.2623L93.5814 57.2916L93.5672 58.3943L93.5531 59.497L92.2945 59.4932C91.3009 59.4901 90.9669 59.4711 90.7088 59.403C89.6146 59.1144 89.0944 58.4489 88.8833 57.0678C88.8222 56.668 88.8075 55.8006 88.8072 52.6047C88.8069 48.706 88.805 48.634 88.6988 48.4154C88.5337 48.0756 88.1938 47.9257 87.5887 47.9257C86.8551 47.9257 86.501 48.1328 86.3919 48.6258C86.3498 48.8158 86.3398 50.0896 86.3568 53.0714C86.3824 57.5386 86.389 57.6586 86.6615 58.6263C87.0577 60.0328 87.8302 60.9813 89.0286 61.5328C89.8984 61.9331 90.7596 62.088 92.3469 62.1296L93.5531 62.1613L93.5673 63.2174L93.5815 64.2736L90.0535 64.2883L86.5255 64.3032L86.3272 64.426C86.2182 64.4935 86.0818 64.6409 86.0241 64.7534C85.7966 65.1976 85.8044 66.166 86.0389 66.5931C86.1204 66.7415 86.2329 66.8481 86.3924 66.9283L86.6264 67.0458H90.1029H93.5793V67.6012C93.5793 68.2665 93.6546 68.4332 94.0402 68.6224C94.2554 68.728 94.3654 68.7436 94.8919 68.7436C95.4338 68.7436 95.5227 68.7301 95.751 68.613C96.1248 68.4214 96.2016 68.2455 96.2016 67.5821V67.0458H99.7143C103.696 67.0458 103.543 67.0605 103.782 66.6546C103.971 66.3336 104.051 65.7202 103.967 65.2314C103.898 64.8311 103.769 64.5913 103.527 64.4125C103.381 64.3044 103.338 64.303 99.7902 64.2887L96.2016 64.2743V63.2047V62.1352H97.0911C97.5803 62.1352 98.2234 62.1092 98.5202 62.0775C99.6886 61.9524 100.829 61.5507 101.541 61.0132C102.362 60.3932 102.939 59.3187 103.214 57.8959C103.3 57.4496 103.308 57.0271 103.308 53.01C103.308 48.6323 103.307 48.6119 103.198 48.465C103.138 48.3839 102.992 48.2639 102.875 48.1984C102.444 47.9584 101.563 47.9996 101.234 48.2753C100.907 48.5494 100.922 48.3538 100.921 52.4027C100.921 57.0103 100.891 57.4025 100.474 58.2522C100.268 58.6722 99.9223 59.0214 99.5296 59.2053C99.0214 59.4432 98.712 59.4855 97.434 59.4914L96.2278 59.497L96.2137 58.3943L96.1995 57.2916L96.4951 57.2612C97.7911 57.128 98.4762 55.6811 98.6644 52.6796C98.6941 52.2055 98.7186 50.3895 98.7187 48.644L98.7189 45.4704L100.646 45.4691C101.781 45.4683 102.671 45.4456 102.81 45.4138C102.939 45.3841 103.11 45.2986 103.188 45.2238C103.447 44.9774 103.584 44.3013 103.495 43.7042C103.434 43.2931 103.297 43.0234 103.073 42.8714L102.899 42.7538H94.6545H86.41L86.2317 42.8714ZM95.9226 49.3492C95.9067 51.8817 95.8777 53.346 95.8391 53.5677C95.743 54.1197 95.6191 54.4987 95.4893 54.6384C95.3722 54.7642 95.3429 54.7692 94.7322 54.7692C94.3828 54.7692 94.0545 54.7467 94.0028 54.7191C93.8501 54.6377 93.697 54.2037 93.6335 53.6722C93.5976 53.3721 93.5617 51.6523 93.5427 49.3231L93.5112 45.4704H94.7291H95.947L95.9226 49.3492ZM59.5983 53.1647C60.2775 53.2785 60.2843 53.2847 60.266 53.7666L60.2508 54.1685L60.0672 54.2575C59.6493 54.4602 58.9391 54.4819 52.7249 54.4819C46.5103 54.4819 45.8596 54.4618 45.4351 54.257L45.2516 54.1685L45.2363 53.7666C45.219 53.3109 45.2238 53.3047 45.6776 53.1969C46.1534 53.084 47.8562 53.0571 53.5116 53.0733C58.1195 53.0865 59.2314 53.1032 59.5983 53.1647Z" fill="#0A0A0A"/>
<path fill-rule="evenodd" clip-rule="evenodd" d="M124.843 36.5546C124.495 36.6542 124.332 36.7787 124.218 37.0313C124.124 37.2408 124.119 37.4322 124.118 40.7978C124.117 44.4715 124.146 45.1729 124.336 46.0635C124.864 48.5479 126.271 49.6941 129.142 49.9788C129.895 50.0535 137.901 50.0513 138.098 49.9763C138.472 49.8337 138.691 49.4048 138.691 48.8154C138.691 48.435 138.569 48.02 138.417 47.8796C138.129 47.6145 138.351 47.6267 133.213 47.5944C128.596 47.5655 128.369 47.5596 127.918 47.4556C127.373 47.3302 127.014 47.1732 126.837 46.9828C126.726 46.864 126.71 46.7903 126.694 46.324L126.676 45.7989L132.382 45.7987C137.954 45.7985 138.092 45.796 138.256 45.6949C138.494 45.5486 138.642 45.2233 138.676 44.7732C138.729 44.0565 138.532 43.5527 138.132 43.3838C137.991 43.3243 136.966 43.3116 132.323 43.3116H126.686V42.3325V41.3535L132.308 41.3533C137.86 41.3531 137.933 41.3517 138.105 41.246C138.413 41.0565 138.508 40.7518 138.508 39.951C138.508 39.3147 138.498 39.2455 138.377 39.0296C138.304 38.9012 138.179 38.7464 138.097 38.6856C137.95 38.5753 137.936 38.575 132.318 38.5609L126.686 38.5468V37.8974C126.686 37.0927 126.594 36.8524 126.211 36.6562C125.91 36.5022 125.208 36.45 124.843 36.5546ZM120.357 36.5917C119.946 36.6514 119.707 36.7961 119.569 37.0679C119.466 37.2705 119.451 37.3822 119.451 37.9239V38.5469L113.505 38.561C107.567 38.5751 107.558 38.5752 107.41 38.6856C107.329 38.7464 107.203 38.9012 107.131 39.0296C107.01 39.2455 107 39.3147 107 39.951C107 40.5674 107.013 40.6655 107.124 40.8932C107.355 41.367 106.756 41.3236 113.472 41.3535L119.425 41.3799L119.439 42.3458L119.453 43.3116H113.605C108.784 43.3116 107.727 43.3243 107.586 43.3838C107.186 43.5523 106.996 44.0219 107.037 44.7378C107.063 45.1974 107.182 45.4888 107.414 45.6636C107.557 45.7715 107.606 45.7727 113.491 45.7989L119.425 45.8254L119.44 46.2216C119.449 46.4396 119.443 46.6687 119.428 46.7306C119.379 46.9299 119.081 47.1674 118.734 47.2838C117.906 47.562 117.941 47.5602 112.662 47.5936C107.845 47.624 107.73 47.6271 107.55 47.7314C107.253 47.9043 107.105 48.267 107.107 48.8154C107.108 49.0628 107.139 49.3534 107.175 49.4611C107.268 49.7309 107.545 49.9647 107.823 50.0061C107.947 50.0245 110.077 50.0307 112.557 50.0197C117.451 49.9981 117.411 50.0004 118.471 49.69C120.322 49.1485 121.328 47.9831 121.766 45.8697C121.883 45.307 121.886 45.2191 121.903 41.2462L121.92 37.1963L121.8 37.0125C121.575 36.67 120.991 36.4997 120.357 36.5917ZM122.449 50.1389C122.324 50.1654 122.141 50.238 122.041 50.3002C121.729 50.4952 121.683 50.647 121.662 51.5541L121.643 52.3612H114.71H107.776L107.598 52.4807C107.299 52.6812 107.183 52.9866 107.183 53.5784C107.183 54.1702 107.299 54.4756 107.598 54.6761L107.776 54.7956H122.963H138.151L138.327 54.6764C138.649 54.4568 138.717 54.2658 138.717 53.5784C138.717 52.891 138.649 52.7 138.327 52.4804L138.151 52.3612H131.139H124.126L124.108 51.5277C124.092 50.7467 124.083 50.6829 123.964 50.5155C123.895 50.4172 123.739 50.2927 123.619 50.2388C123.357 50.1222 122.765 50.0716 122.449 50.1389ZM112.085 56.6042C110.359 56.7795 109.012 57.4259 108.313 58.4143C107.824 59.1065 107.532 59.8854 107.365 60.9439C107.255 61.6431 107.187 67.2176 107.282 67.7316C107.389 68.3051 107.703 68.5 108.52 68.5C109.294 68.5 109.635 68.3099 109.748 67.8143C109.782 67.6646 109.803 66.4107 109.803 64.4384C109.805 61.7884 109.818 61.2376 109.888 60.8957C110.036 60.1692 110.319 59.7627 110.853 59.51L111.142 59.3733L113.233 59.3573C115.216 59.342 115.343 59.3468 115.678 59.4495C116.127 59.5872 116.503 59.9138 116.702 60.338C116.93 60.8254 116.983 61.2903 116.985 62.8397C116.988 64.3654 117.048 64.9495 117.268 65.5615C117.795 67.0246 118.987 67.7898 121.254 68.1191C121.836 68.2036 122.574 68.2113 130.146 68.2113H138.403L138.594 68.0913C138.887 67.9072 138.976 67.6707 138.995 67.0205C139.009 66.5249 138.998 66.4394 138.89 66.2298C138.824 66.1005 138.703 65.9457 138.622 65.8858C138.474 65.7772 138.448 65.7768 129.998 65.7472C121.488 65.7174 121.272 65.7126 120.578 65.5346C120.076 65.4059 119.717 65.1933 119.556 64.93C119.471 64.7916 119.451 64.6664 119.451 64.2756V63.7923L121.299 63.7916C125.664 63.7898 127.496 63.5104 128.35 62.7162C128.757 62.3374 128.799 62.2029 128.84 61.1424C128.889 59.8805 128.985 59.694 129.701 59.4709C129.987 59.382 130.232 59.3733 132.479 59.3733C134.663 59.3733 134.976 59.3836 135.234 59.4646C135.638 59.5909 135.927 59.8163 136.076 60.1227C136.198 60.3724 136.201 60.4213 136.227 62.0819C136.257 64.026 136.244 63.9688 136.728 64.2155C136.944 64.3254 137.062 64.3475 137.433 64.3475C137.804 64.3475 137.922 64.3254 138.138 64.2155C138.63 63.9649 138.61 64.0595 138.628 61.8436C138.645 59.657 138.614 59.365 138.295 58.6675C138.05 58.1334 137.464 57.5424 136.909 57.2698C135.798 56.7251 134.185 56.5014 131.797 56.5612C129.072 56.6295 127.642 56.9357 126.923 57.605C126.544 57.957 126.461 58.2271 126.427 59.2172C126.394 60.1491 126.371 60.226 126.042 60.4795C125.8 60.6657 125.532 60.7711 124.982 60.8961C124.553 60.9935 124.281 61.0054 121.992 61.0262L119.473 61.049L119.412 60.4493C119.334 59.6811 119.239 59.3205 118.972 58.7693C118.362 57.5125 116.949 56.7929 114.707 56.5978C113.967 56.5335 112.752 56.5365 112.085 56.6042Z" fill="#0A0A0A"/>
<rect x="16.9725" y="14.3848" width="142.055" height="77.2286" stroke="#0A0A0A" stroke-width="3"/>
<rect x="2" y="2.00977" width="172" height="100.99" stroke="#0A0A0A" stroke-width="4"/>
</svg>
