<svg width="182" height="106" viewBox="0 0 182 106" fill="none" xmlns="http://www.w3.org/2000/svg">
<rect x="17.5" y="14.5" width="147" height="78" fill="#FAFAFA"/>
<path fill-rule="evenodd" clip-rule="evenodd" d="M85.4691 38.0309C85.1813 38.0907 84.9524 38.2234 84.811 38.4123C84.7018 38.5582 84.7003 38.6003 84.6695 42.487C84.6364 46.6631 84.6268 46.8192 84.3708 47.3932C84.1078 47.9826 83.7913 48.1616 83.0093 48.1633L82.4717 48.1645V43.4705V38.7766L82.3537 38.5991C82.2873 38.4994 82.1206 38.3643 81.9735 38.291C81.7414 38.1754 81.6449 38.1603 81.1344 38.1603C80.4738 38.1603 80.1724 38.246 79.924 38.5042L79.7708 38.6635L79.7569 43.4139L79.743 48.1645L79.1538 48.1633C78.6885 48.1624 78.5184 48.1413 78.345 48.0629C77.9464 47.8826 77.6687 47.3431 77.5451 46.5089C77.5101 46.2727 77.4895 44.8143 77.4895 42.5803C77.4895 40.2443 77.4702 38.9378 77.4331 38.7657C77.3235 38.2565 76.921 38.0569 76.0722 38.0909C75.3483 38.1198 75.0546 38.3215 74.9674 38.8493C74.9088 39.2048 74.912 44.168 74.9718 45.4218C75.0478 47.0166 75.2521 47.9539 75.7235 48.8697C76.0231 49.4519 76.6755 50.1021 77.234 50.3749C77.7571 50.6304 78.5091 50.8168 79.1954 50.861L79.7469 50.8965L79.7326 51.8422L79.7184 52.7878L79.1153 52.8244C77.9012 52.8981 77.0665 53.2333 76.3588 53.9313C76 54.2853 75.8898 54.4367 75.6892 54.8513C75.2347 55.7905 75.049 56.6637 74.9724 58.2208C74.9132 59.4235 74.909 68.1487 74.9674 68.5025C75.0183 68.8105 75.1496 68.9938 75.4209 69.1356C75.7229 69.2934 76.6863 69.2934 76.9883 69.1356C77.2408 69.0036 77.3763 68.8308 77.4393 68.5605C77.4662 68.4448 77.488 66.0224 77.4893 63.0009C77.4917 57.3043 77.5039 56.9843 77.7478 56.2051C77.9849 55.4475 78.2555 55.2692 79.1682 55.2692H79.7435L79.7571 62.0048L79.7708 68.7405L79.9282 68.9049C80.1553 69.1423 80.3907 69.2251 80.9246 69.2557C81.5893 69.2936 81.9568 69.209 82.2304 68.9548L82.4455 68.7549L82.4592 62.0077L82.4729 55.2605L83.097 55.2779C83.7051 55.2949 83.7262 55.2995 83.9224 55.4573C84.2994 55.7606 84.5155 56.389 84.6214 57.4895C84.6496 57.782 84.6723 60.3278 84.673 63.2741C84.6746 69.2352 84.647 68.8441 85.0835 69.0989C85.2796 69.2133 85.4036 69.2423 85.7721 69.2598C86.0205 69.2715 86.3215 69.2542 86.4451 69.221C86.7371 69.1425 87.0181 68.8925 87.0853 68.6517C87.157 68.3946 87.1579 58.9157 87.0863 58.0064C86.896 55.5877 86.2116 54.2173 84.8755 53.5793C84.6062 53.4508 84.2298 53.3079 84.039 53.2619C83.7446 53.1909 82.8699 53.081 82.5635 53.0765C82.4788 53.0752 82.4717 52.9818 82.4717 51.858V50.6408L83.088 50.5789C84.2892 50.4583 85.0592 50.135 85.7248 49.472C86.3374 48.8618 86.7002 48.0764 86.9282 46.8671C87.1039 45.9354 87.1393 45.0934 87.1393 41.8468V38.731L87.0213 38.4979C86.9337 38.3248 86.8426 38.2353 86.6673 38.1501C86.3941 38.0172 85.8129 37.9594 85.4691 38.0309ZM55.1401 38.2556C54.7924 38.3537 54.6291 38.4767 54.5155 38.726C54.424 38.9267 54.416 39.0918 54.415 40.8149L54.4138 42.6858L48.9989 42.6642C42.2269 42.6373 42.5613 42.6759 42.5613 41.9211C42.5613 41.5206 42.5722 41.4732 42.6793 41.4057C42.9563 41.2311 43.3616 41.2024 46.0062 41.1702L48.6382 41.1381L48.798 40.9855C49.0509 40.744 49.1433 40.4344 49.1421 39.8321C49.1406 39.0467 48.973 38.6532 48.576 38.5034C48.3784 38.4289 43.9856 38.4288 43.3146 38.5034C41.8094 38.6705 40.7989 39.2266 40.3687 40.1246C40.126 40.6311 40.0389 41.0773 40.0396 41.81C40.0406 42.8219 40.2355 43.3561 40.8074 43.9153C41.3733 44.4684 42.2466 44.8166 43.6365 45.0432C44.2916 45.15 44.5152 45.1551 49.366 45.1734L54.4138 45.1925V46.0777V46.9629L49.7856 46.9639C44.788 46.9649 44.6153 46.9729 43.5707 47.2498C41.56 47.7829 40.4933 49.0768 40.116 51.4404C40.0343 51.952 40.0242 52.7878 40.0058 60.4784C39.9919 66.2964 40.0029 69.0463 40.041 69.2515C40.1431 69.8018 40.4643 69.9982 41.265 70C41.9504 70.0015 42.3052 69.8487 42.4751 69.4787C42.519 69.3831 42.5424 67.0096 42.5622 60.6239L42.5893 51.8997L42.7078 51.5168C43.124 50.1716 43.903 49.5875 45.5049 49.4194C45.7847 49.39 47.8096 49.3674 50.2051 49.3669L54.4138 49.366V50.092V50.8181L52.0932 50.8434C50.2916 50.8631 49.6454 50.8883 49.2042 50.9559C46.9993 51.2938 45.8974 52.0435 45.5709 53.4277C45.4518 53.9325 45.4951 55.0698 45.6498 55.5001C46.0693 56.667 47.1237 57.31 49.1431 57.6301C49.7328 57.7236 50.1349 57.7416 52.1194 57.7629L54.4138 57.7875V58.4597V59.1319L50.4149 59.1465L46.416 59.1612L46.2231 59.2807C45.902 59.4796 45.7867 59.7861 45.7867 60.4411C45.7867 61.0735 45.8653 61.2964 46.1702 61.528L46.3553 61.6687L50.3897 61.683L54.424 61.6974L54.3994 63.5115C54.3734 65.424 54.3494 65.6456 54.096 66.3165C54.0143 66.5327 53.8942 66.712 53.7047 66.9008C53.2679 67.3359 53.1989 67.3467 50.9941 67.3237C49.0242 67.3032 48.8852 67.2869 48.5922 67.0413C48.2749 66.7753 48.2562 66.6915 48.2264 65.4039C48.209 64.6565 48.177 64.1905 48.1384 64.124C47.9356 63.7752 47.5649 63.6278 46.891 63.6278C46.2793 63.6278 45.9447 63.7241 45.7066 63.9687L45.5245 64.1558L45.509 65.7333C45.4915 67.5142 45.5256 67.7761 45.8448 68.3153C46.4234 69.2925 47.6348 69.7849 49.8774 69.9542C50.8071 70.0243 52.1489 69.985 52.8143 69.868C54.9663 69.4896 56.1764 68.3468 56.6425 66.2524C56.8253 65.4307 56.8787 64.7216 56.8787 63.1166V61.6834L58.9634 61.7104C60.5109 61.7305 61.1527 61.7578 61.454 61.8162C62.3861 61.997 62.8731 62.2524 63.1196 62.6899C63.2491 62.9197 63.251 62.9397 63.2671 64.3323C63.2887 66.1987 63.219 66.5792 62.786 66.9578C62.5248 67.1862 62.2212 67.2324 60.9791 67.2324C59.6733 67.2324 59.6139 67.2507 59.3727 67.7265C59.2333 68.0014 59.2182 68.0809 59.2182 68.5377C59.2182 68.9806 59.2358 69.0799 59.3584 69.3295C59.4593 69.535 59.5559 69.647 59.7036 69.7296C59.9021 69.8408 59.9582 69.8444 61.4748 69.8436C63.2139 69.8428 63.4792 69.8092 64.0211 69.5215C64.1972 69.428 64.4615 69.217 64.6381 69.0289C65.347 68.2741 65.7022 67.0367 65.7761 65.0644C65.8795 62.3076 65.1702 60.6793 63.513 59.8693C62.3433 59.2976 61.2181 59.1357 58.4127 59.1353L56.8787 59.135V58.4613V57.7875L59.1732 57.762C61.6142 57.735 62.068 57.6976 63.087 57.4401C64.366 57.117 65.1905 56.5229 65.5563 55.661C65.6889 55.3486 65.7944 54.7362 65.7934 54.2851C65.7909 53.1853 65.362 52.3088 64.5671 51.7792C64.1328 51.4899 63.7998 51.3514 63.0934 51.1664C62.0916 50.9039 61.6735 50.8692 59.1994 50.8428L56.8787 50.8181V50.092V49.366L61.1661 49.3669C63.6134 49.3674 65.6644 49.3899 65.945 49.4194C66.9103 49.5207 67.5348 49.7617 68.0408 50.2283C68.5598 50.7071 68.8389 51.3887 68.9401 52.425C68.9702 52.7336 68.9913 56.2348 68.9921 61.0472L68.9934 69.1498L69.1116 69.3245C69.3292 69.6461 69.5185 69.7138 70.1997 69.7138C70.8819 69.7138 71.0701 69.6462 71.2892 69.3224L71.4088 69.1455L71.3915 60.3398L71.3742 51.534L71.2599 51.0148C70.8836 49.3049 70.2125 48.3001 69.0459 47.6994C68.5144 47.4257 68.0123 47.253 67.3329 47.1102C66.7674 46.9915 66.7395 46.9907 61.8216 46.9749L56.8787 46.9589V46.0728V45.1867L61.6381 45.1863C64.3799 45.1861 66.6531 45.1636 67.0006 45.1335C68.8224 44.9752 69.939 44.6055 70.6253 43.9332C71.2065 43.3639 71.4065 42.8258 71.405 41.8358C71.4033 40.7693 71.1646 40.0878 70.5931 39.5186C70.0563 38.984 69.2909 38.6712 68.1615 38.5248C67.6649 38.4605 67.0566 38.4475 65.0821 38.4592C62.6232 38.4738 62.6213 38.4739 62.4555 38.5917C62.3642 38.6565 62.2344 38.8211 62.167 38.9574C62.0584 39.1772 62.0446 39.279 62.0449 39.8582C62.0452 40.394 62.0628 40.544 62.1428 40.694C62.2574 40.9087 62.422 41.0973 62.569 41.1821C62.6435 41.2251 63.5243 41.2502 65.6108 41.2688C68.2137 41.2921 68.5698 41.305 68.7424 41.3829C68.9685 41.4848 69.0061 41.5857 68.9833 42.0284C68.9679 42.3266 68.9595 42.3433 68.7837 42.4277C68.362 42.63 67.9915 42.6437 62.3479 42.6648L56.8824 42.6853L56.8675 40.727C56.8531 38.8473 56.8482 38.7627 56.7449 38.6212C56.4935 38.2768 55.7031 38.0968 55.1401 38.2556ZM89.2497 38.2904C89.0183 38.4313 88.8921 38.6552 88.8152 39.0608C88.6772 39.789 88.8584 40.5389 89.2317 40.7854L89.41 40.903H97.5758H105.742L105.92 40.7854C106.02 40.7193 106.156 40.5532 106.229 40.4067C106.345 40.1755 106.36 40.0794 106.36 39.5709C106.36 38.9128 106.274 38.6126 106.015 38.3651L105.855 38.2126L97.6379 38.1994C89.5114 38.1865 89.4188 38.1875 89.2497 38.2904ZM89.2317 43.3714C89.1313 43.4378 88.9966 43.603 88.923 43.7502C88.809 43.9782 88.7924 44.0809 88.7919 44.5599C88.791 45.3886 89.0047 45.8111 89.4803 45.921C89.5917 45.9468 90.68 45.9684 91.8987 45.9691L94.1144 45.9704L94.1154 48.935C94.117 53.9731 94.2518 55.3791 94.8515 56.6133C95.2035 57.3377 95.6543 57.6963 96.2959 57.7623L96.5814 57.7916L96.5672 58.8943L96.5531 59.997L95.2945 59.9932C94.3009 59.9901 93.9669 59.9711 93.7088 59.903C92.6146 59.6144 92.0944 58.9489 91.8833 57.5678C91.8222 57.168 91.8075 56.3006 91.8072 53.1047C91.8069 49.206 91.805 49.134 91.6988 48.9154C91.5337 48.5756 91.1938 48.4257 90.5887 48.4257C89.8551 48.4257 89.501 48.6328 89.3919 49.1258C89.3498 49.3158 89.3398 50.5896 89.3568 53.5714C89.3824 58.0386 89.389 58.1586 89.6615 59.1263C90.0577 60.5328 90.8302 61.4813 92.0286 62.0328C92.8984 62.4331 93.7596 62.588 95.3469 62.6296L96.5531 62.6613L96.5673 63.7174L96.5815 64.7736L93.0535 64.7883L89.5255 64.8032L89.3272 64.926C89.2182 64.9935 89.0818 65.1409 89.0241 65.2534C88.7966 65.6976 88.8044 66.666 89.0389 67.0931C89.1204 67.2415 89.2329 67.3481 89.3924 67.4283L89.6264 67.5458H93.1029H96.5793V68.1012C96.5793 68.7665 96.6546 68.9332 97.0402 69.1224C97.2554 69.228 97.3654 69.2436 97.8919 69.2436C98.4338 69.2436 98.5227 69.2301 98.751 69.113C99.1248 68.9214 99.2016 68.7455 99.2016 68.0821V67.5458H102.714C106.696 67.5458 106.543 67.5605 106.782 67.1546C106.971 66.8336 107.051 66.2202 106.967 65.7314C106.898 65.3311 106.769 65.0913 106.527 64.9125C106.381 64.8044 106.338 64.803 102.79 64.7887L99.2016 64.7743V63.7047V62.6352H100.091C100.58 62.6352 101.223 62.6092 101.52 62.5775C102.689 62.4524 103.829 62.0507 104.541 61.5132C105.362 60.8932 105.939 59.8187 106.214 58.3959C106.3 57.9496 106.308 57.5271 106.308 53.51C106.308 49.1323 106.307 49.1119 106.198 48.965C106.138 48.8839 105.992 48.7639 105.875 48.6984C105.444 48.4584 104.563 48.4996 104.234 48.7753C103.907 49.0494 103.922 48.8538 103.921 52.9027C103.921 57.5103 103.891 57.9025 103.474 58.7522C103.268 59.1722 102.922 59.5214 102.53 59.7053C102.021 59.9432 101.712 59.9855 100.434 59.9914L99.2278 59.997L99.2137 58.8943L99.1995 57.7916L99.4951 57.7612C100.791 57.628 101.476 56.1811 101.664 53.1796C101.694 52.7055 101.719 50.8895 101.719 49.144L101.719 45.9704L103.646 45.9691C104.781 45.9683 105.671 45.9456 105.81 45.9138C105.939 45.8841 106.11 45.7986 106.188 45.7238C106.447 45.4774 106.584 44.8013 106.495 44.2042C106.434 43.7931 106.297 43.5234 106.073 43.3714L105.899 43.2538H97.6545H89.41L89.2317 43.3714ZM98.9226 49.8492C98.9067 52.3817 98.8777 53.846 98.8391 54.0677C98.743 54.6197 98.6191 54.9987 98.4893 55.1384C98.3722 55.2642 98.3429 55.2692 97.7322 55.2692C97.3828 55.2692 97.0545 55.2467 97.0028 55.2191C96.8501 55.1377 96.697 54.7037 96.6335 54.1722C96.5976 53.8721 96.5617 52.1523 96.5427 49.8231L96.5112 45.9704H97.7291H98.947L98.9226 49.8492ZM62.5983 53.6647C63.2775 53.7785 63.2843 53.7847 63.266 54.2666L63.2508 54.6685L63.0672 54.7575C62.6493 54.9602 61.9391 54.9819 55.7249 54.9819C49.5103 54.9819 48.8596 54.9618 48.4351 54.757L48.2516 54.6685L48.2363 54.2666C48.219 53.8109 48.2238 53.8046 48.6776 53.6969C49.1534 53.584 50.8562 53.5571 56.5116 53.5733C61.1195 53.5865 62.2314 53.6032 62.5983 53.6647Z" fill="#0A0A0A"/>
<path fill-rule="evenodd" clip-rule="evenodd" d="M127.843 37.0546C127.495 37.1542 127.332 37.2787 127.218 37.5313C127.124 37.7408 127.119 37.9322 127.118 41.2978C127.117 44.9715 127.146 45.6729 127.336 46.5635C127.864 49.0479 129.271 50.1941 132.142 50.4788C132.895 50.5535 140.901 50.5513 141.098 50.4763C141.472 50.3337 141.691 49.9048 141.691 49.3154C141.691 48.935 141.569 48.52 141.417 48.3796C141.129 48.1145 141.351 48.1267 136.213 48.0944C131.596 48.0655 131.369 48.0596 130.918 47.9556C130.373 47.8302 130.014 47.6732 129.837 47.4828C129.726 47.364 129.71 47.2903 129.694 46.824L129.676 46.2989L135.382 46.2987C140.954 46.2985 141.092 46.296 141.256 46.1949C141.494 46.0486 141.642 45.7233 141.676 45.2732C141.729 44.5565 141.532 44.0527 141.132 43.8838C140.991 43.8243 139.966 43.8116 135.323 43.8116H129.686V42.8325V41.8535L135.308 41.8533C140.86 41.8531 140.933 41.8517 141.105 41.746C141.413 41.5565 141.508 41.2518 141.508 40.451C141.508 39.8147 141.498 39.7455 141.377 39.5296C141.304 39.4012 141.179 39.2464 141.097 39.1856C140.95 39.0753 140.936 39.075 135.318 39.0609L129.686 39.0468V38.3974C129.686 37.5927 129.594 37.3524 129.211 37.1562C128.91 37.0022 128.208 36.95 127.843 37.0546ZM123.357 37.0917C122.946 37.1514 122.707 37.2961 122.569 37.5679C122.466 37.7705 122.451 37.8822 122.451 38.4239V39.0469L116.505 39.061C110.567 39.0751 110.558 39.0752 110.41 39.1856C110.329 39.2464 110.203 39.4012 110.131 39.5296C110.01 39.7455 110 39.8147 110 40.451C110 41.0674 110.013 41.1655 110.124 41.3932C110.355 41.867 109.756 41.8236 116.472 41.8535L122.425 41.8799L122.439 42.8458L122.453 43.8116H116.605C111.784 43.8116 110.727 43.8243 110.586 43.8838C110.186 44.0523 109.996 44.5219 110.037 45.2378C110.063 45.6974 110.182 45.9888 110.414 46.1636C110.557 46.2715 110.606 46.2727 116.491 46.2989L122.425 46.3254L122.44 46.7216C122.449 46.9396 122.443 47.1687 122.428 47.2306C122.379 47.4299 122.081 47.6674 121.734 47.7838C120.906 48.062 120.941 48.0602 115.662 48.0936C110.845 48.124 110.73 48.1271 110.55 48.2314C110.253 48.4043 110.105 48.767 110.107 49.3154C110.108 49.5628 110.139 49.8534 110.175 49.9611C110.268 50.2309 110.545 50.4647 110.823 50.5061C110.947 50.5245 113.077 50.5307 115.557 50.5197C120.451 50.4981 120.411 50.5004 121.471 50.19C123.322 49.6485 124.328 48.4831 124.766 46.3697C124.883 45.807 124.886 45.7191 124.903 41.7462L124.92 37.6963L124.8 37.5125C124.575 37.17 123.991 36.9997 123.357 37.0917ZM125.449 50.6389C125.324 50.6654 125.141 50.738 125.041 50.8002C124.729 50.9952 124.683 51.147 124.662 52.0541L124.643 52.8612H117.71H110.776L110.598 52.9807C110.299 53.1812 110.183 53.4866 110.183 54.0784C110.183 54.6702 110.299 54.9756 110.598 55.1761L110.776 55.2956H125.963H141.151L141.327 55.1764C141.649 54.9568 141.717 54.7658 141.717 54.0784C141.717 53.391 141.649 53.2 141.327 52.9804L141.151 52.8612H134.139H127.126L127.108 52.0277C127.092 51.2467 127.083 51.1829 126.964 51.0155C126.895 50.9172 126.739 50.7927 126.619 50.7388C126.357 50.6222 125.765 50.5716 125.449 50.6389ZM115.085 57.1042C113.359 57.2795 112.012 57.9259 111.313 58.9143C110.824 59.6065 110.532 60.3854 110.365 61.4439C110.255 62.1431 110.187 67.7176 110.282 68.2316C110.389 68.8051 110.703 69 111.52 69C112.294 69 112.635 68.8099 112.748 68.3143C112.782 68.1646 112.803 66.9107 112.803 64.9384C112.805 62.2884 112.818 61.7376 112.888 61.3957C113.036 60.6692 113.319 60.2627 113.853 60.01L114.142 59.8733L116.233 59.8573C118.216 59.842 118.343 59.8468 118.678 59.9495C119.127 60.0872 119.503 60.4138 119.702 60.838C119.93 61.3254 119.983 61.7903 119.985 63.3397C119.988 64.8654 120.048 65.4495 120.268 66.0615C120.795 67.5246 121.987 68.2898 124.254 68.6191C124.836 68.7036 125.574 68.7113 133.146 68.7113H141.403L141.594 68.5913C141.887 68.4072 141.976 68.1707 141.995 67.5205C142.009 67.0249 141.998 66.9394 141.89 66.7298C141.824 66.6005 141.703 66.4457 141.622 66.3858C141.474 66.2772 141.448 66.2768 132.998 66.2472C124.488 66.2174 124.272 66.2126 123.578 66.0346C123.076 65.9059 122.717 65.6933 122.556 65.43C122.471 65.2916 122.451 65.1664 122.451 64.7756V64.2923L124.299 64.2916C128.664 64.2898 130.496 64.0104 131.35 63.2162C131.757 62.8374 131.799 62.7029 131.84 61.6424C131.889 60.3805 131.985 60.194 132.701 59.9709C132.987 59.882 133.232 59.8733 135.479 59.8733C137.663 59.8733 137.976 59.8836 138.234 59.9646C138.638 60.0909 138.927 60.3163 139.076 60.6227C139.198 60.8724 139.201 60.9213 139.227 62.5819C139.257 64.526 139.244 64.4688 139.728 64.7155C139.944 64.8254 140.062 64.8475 140.433 64.8475C140.804 64.8475 140.922 64.8254 141.138 64.7155C141.63 64.4649 141.61 64.5595 141.628 62.3436C141.645 60.157 141.614 59.865 141.295 59.1675C141.05 58.6334 140.464 58.0424 139.909 57.7698C138.798 57.2251 137.185 57.0014 134.797 57.0612C132.072 57.1295 130.642 57.4357 129.923 58.105C129.544 58.457 129.461 58.7271 129.427 59.7172C129.394 60.6491 129.371 60.726 129.042 60.9795C128.8 61.1657 128.532 61.2711 127.982 61.3961C127.553 61.4935 127.281 61.5054 124.992 61.5262L122.473 61.549L122.412 60.9493C122.334 60.1811 122.239 59.8205 121.972 59.2693C121.362 58.0125 119.949 57.2929 117.707 57.0978C116.967 57.0335 115.752 57.0365 115.085 57.1042Z" fill="#0A0A0A"/>
<rect x="17.5" y="14.5" width="147" height="78" stroke="#FAFAFA" stroke-width="3"/>
<rect x="2" y="2" width="178" height="102" stroke="#FAFAFA" stroke-width="4"/>
</svg>
