<svg width="176" height="104" viewBox="0 0 176 104" fill="none" xmlns="http://www.w3.org/2000/svg">
<rect width="176" height="104" fill="#0A0A0A"/>
<rect x="16.4725" y="12.8848" width="143.055" height="78.2286" fill="#0A0A0A"/>
<path fill-rule="evenodd" clip-rule="evenodd" d="M82.4691 36.5309C82.1813 36.5907 81.9524 36.7234 81.811 36.9123C81.7018 37.0582 81.7003 37.1003 81.6695 40.987C81.6364 45.1631 81.6268 45.3192 81.3708 45.8932C81.1078 46.4826 80.7913 46.6616 80.0093 46.6633L79.4717 46.6645V41.9705V37.2766L79.3537 37.0991C79.2873 36.9994 79.1206 36.8643 78.9735 36.791C78.7414 36.6754 78.6449 36.6603 78.1344 36.6603C77.4738 36.6603 77.1724 36.746 76.924 37.0042L76.7708 37.1635L76.7569 41.9139L76.743 46.6645L76.1538 46.6633C75.6885 46.6624 75.5184 46.6413 75.345 46.5629C74.9464 46.3826 74.6687 45.8431 74.5451 45.0089C74.5101 44.7727 74.4895 43.3143 74.4895 41.0803C74.4895 38.7443 74.4702 37.4378 74.4331 37.2657C74.3235 36.7565 73.921 36.5569 73.0722 36.5909C72.3483 36.6198 72.0546 36.8215 71.9674 37.3493C71.9088 37.7048 71.912 42.668 71.9718 43.9218C72.0478 45.5166 72.2521 46.4539 72.7235 47.3697C73.0231 47.9519 73.6755 48.6021 74.234 48.8749C74.7571 49.1304 75.5091 49.3168 76.1954 49.361L76.7469 49.3965L76.7326 50.3422L76.7184 51.2878L76.1153 51.3244C74.9012 51.3981 74.0665 51.7333 73.3588 52.4313C73 52.7853 72.8898 52.9367 72.6892 53.3513C72.2347 54.2905 72.049 55.1637 71.9724 56.7208C71.9132 57.9235 71.909 66.6487 71.9674 67.0025C72.0183 67.3105 72.1496 67.4938 72.4209 67.6356C72.7229 67.7934 73.6863 67.7934 73.9883 67.6356C74.2408 67.5036 74.3763 67.3308 74.4393 67.0605C74.4662 66.9448 74.488 64.5224 74.4893 61.5009C74.4917 55.8043 74.5039 55.4843 74.7478 54.7051C74.9849 53.9475 75.2555 53.7692 76.1682 53.7692H76.7435L76.7571 60.5048L76.7708 67.2405L76.9282 67.4049C77.1553 67.6423 77.3907 67.7251 77.9246 67.7557C78.5893 67.7936 78.9568 67.709 79.2304 67.4548L79.4455 67.2549L79.4592 60.5077L79.4729 53.7605L80.097 53.7779C80.7051 53.7949 80.7262 53.7995 80.9224 53.9573C81.2994 54.2606 81.5155 54.889 81.6214 55.9895C81.6496 56.282 81.6723 58.8278 81.673 61.7741C81.6746 67.7352 81.647 67.3441 82.0835 67.5989C82.2796 67.7133 82.4036 67.7423 82.7721 67.7598C83.0205 67.7715 83.3215 67.7542 83.4451 67.721C83.7371 67.6425 84.0181 67.3925 84.0853 67.1517C84.157 66.8946 84.1579 57.4157 84.0863 56.5064C83.896 54.0877 83.2116 52.7173 81.8755 52.0793C81.6062 51.9508 81.2298 51.8079 81.039 51.7619C80.7446 51.6909 79.8699 51.581 79.5635 51.5765C79.4788 51.5752 79.4717 51.4818 79.4717 50.358V49.1408L80.088 49.0789C81.2892 48.9583 82.0592 48.635 82.7248 47.972C83.3374 47.3618 83.7002 46.5764 83.9282 45.3671C84.1039 44.4354 84.1393 43.5934 84.1393 40.3468V37.231L84.0213 36.9979C83.9337 36.8248 83.8426 36.7353 83.6673 36.6501C83.3941 36.5172 82.8129 36.4594 82.4691 36.5309ZM52.1401 36.7556C51.7924 36.8537 51.6291 36.9767 51.5155 37.226C51.424 37.4267 51.416 37.5918 51.415 39.3149L51.4138 41.1858L45.9989 41.1642C39.2269 41.1373 39.5613 41.1759 39.5613 40.4211C39.5613 40.0206 39.5722 39.9732 39.6793 39.9057C39.9563 39.7311 40.3616 39.7024 43.0062 39.6702L45.6382 39.6381L45.798 39.4855C46.0509 39.244 46.1433 38.9344 46.1421 38.3321C46.1406 37.5467 45.973 37.1532 45.576 37.0034C45.3784 36.9289 40.9856 36.9288 40.3146 37.0034C38.8094 37.1705 37.7989 37.7266 37.3687 38.6246C37.126 39.1311 37.0389 39.5773 37.0396 40.31C37.0406 41.3218 37.2355 41.8561 37.8074 42.4153C38.3733 42.9684 39.2466 43.3166 40.6365 43.5432C41.2916 43.65 41.5152 43.6551 46.366 43.6734L51.4138 43.6925V44.5777V45.4629L46.7856 45.4639C41.788 45.4649 41.6153 45.4729 40.5707 45.7498C38.56 46.2829 37.4933 47.5768 37.116 49.9404C37.0343 50.452 37.0242 51.2878 37.0058 58.9784C36.9919 64.7964 37.0029 67.5463 37.041 67.7515C37.1431 68.3018 37.4643 68.4982 38.265 68.5C38.9504 68.5015 39.3052 68.3487 39.4751 67.9787C39.519 67.8831 39.5424 65.5096 39.5622 59.1239L39.5893 50.3997L39.7078 50.0168C40.124 48.6716 40.903 48.0875 42.5049 47.9194C42.7847 47.89 44.8096 47.8674 47.2051 47.8669L51.4138 47.866V48.592V49.3181L49.0932 49.3434C47.2916 49.3631 46.6454 49.3883 46.2042 49.4559C43.9993 49.7938 42.8974 50.5435 42.5709 51.9277C42.4518 52.4325 42.4951 53.5698 42.6498 54.0001C43.0693 55.167 44.1237 55.81 46.1431 56.1301C46.7328 56.2236 47.1349 56.2416 49.1194 56.2629L51.4138 56.2875V56.9597V57.6319L47.4149 57.6465L43.416 57.6612L43.2231 57.7807C42.902 57.9796 42.7867 58.2861 42.7867 58.9411C42.7867 59.5735 42.8653 59.7964 43.1702 60.028L43.3553 60.1687L47.3897 60.183L51.424 60.1974L51.3994 62.0115C51.3734 63.924 51.3494 64.1456 51.096 64.8165C51.0143 65.0327 50.8942 65.212 50.7047 65.4008C50.2679 65.8359 50.1989 65.8467 47.9941 65.8237C46.0242 65.8032 45.8852 65.7869 45.5922 65.5413C45.2749 65.2753 45.2562 65.1915 45.2264 63.9039C45.2091 63.1565 45.177 62.6905 45.1384 62.624C44.9356 62.2752 44.5649 62.1278 43.891 62.1278C43.2793 62.1278 42.9447 62.2241 42.7066 62.4687L42.5245 62.6558L42.509 64.2333C42.4915 66.0142 42.5256 66.2761 42.8448 66.8153C43.4234 67.7925 44.6348 68.2849 46.8774 68.4542C47.8071 68.5243 49.1489 68.485 49.8143 68.368C51.9663 67.9896 53.1764 66.8468 53.6425 64.7524C53.8253 63.9307 53.8787 63.2216 53.8787 61.6166V60.1833L55.9634 60.2104C57.5109 60.2305 58.1527 60.2578 58.454 60.3162C59.3861 60.497 59.8731 60.7524 60.1196 61.1899C60.2491 61.4197 60.251 61.4397 60.2671 62.8323C60.2887 64.6987 60.219 65.0792 59.786 65.4578C59.5248 65.6862 59.2212 65.7324 57.9791 65.7324C56.6733 65.7324 56.6139 65.7507 56.3727 66.2265C56.2333 66.5014 56.2182 66.5809 56.2182 67.0377C56.2182 67.4806 56.2358 67.5799 56.3584 67.8295C56.4593 68.035 56.5559 68.147 56.7036 68.2296C56.9021 68.3408 56.9582 68.3444 58.4748 68.3436C60.2139 68.3428 60.4792 68.3092 61.0211 68.0215C61.1972 67.928 61.4615 67.717 61.6381 67.5289C62.347 66.7741 62.7022 65.5367 62.7761 63.5644C62.8795 60.8076 62.1702 59.1793 60.513 58.3693C59.3433 57.7976 58.2181 57.6357 55.4127 57.6353L53.8787 57.635V56.9613V56.2875L56.1732 56.262C58.6142 56.235 59.068 56.1976 60.087 55.9401C61.366 55.617 62.1905 55.0229 62.5563 54.161C62.6889 53.8486 62.7944 53.2362 62.7934 52.7851C62.7909 51.6853 62.362 50.8088 61.5671 50.2792C61.1328 49.9899 60.7998 49.8514 60.0934 49.6664C59.0916 49.4039 58.6735 49.3692 56.1994 49.3428L53.8787 49.3181V48.592V47.866L58.1661 47.8669C60.6134 47.8674 62.6644 47.8899 62.945 47.9194C63.9103 48.0207 64.5348 48.2617 65.0408 48.7283C65.5598 49.2071 65.8389 49.8887 65.9401 50.925C65.9702 51.2336 65.9913 54.7348 65.9921 59.5472L65.9934 67.6498L66.1116 67.8245C66.3292 68.1461 66.5185 68.2138 67.1997 68.2138C67.8819 68.2138 68.0701 68.1462 68.2892 67.8224L68.4088 67.6455L68.3915 58.8398L68.3742 50.034L68.2599 49.5148C67.8836 47.8049 67.2125 46.8001 66.0459 46.1994C65.5144 45.9257 65.0123 45.753 64.3329 45.6102C63.7674 45.4915 63.7395 45.4907 58.8216 45.4749L53.8787 45.4589V44.5728V43.6867L58.6381 43.6863C61.3799 43.6861 63.6531 43.6636 64.0006 43.6335C65.8224 43.4752 66.939 43.1055 67.6253 42.4332C68.2065 41.8639 68.4065 41.3258 68.405 40.3358C68.4033 39.2693 68.1646 38.5878 67.5931 38.0186C67.0563 37.484 66.2909 37.1712 65.1615 37.0248C64.6649 36.9605 64.0566 36.9475 62.0821 36.9592C59.6232 36.9738 59.6213 36.9739 59.4555 37.0917C59.3642 37.1565 59.2344 37.3211 59.167 37.4574C59.0584 37.6772 59.0446 37.779 59.0449 38.3582C59.0452 38.894 59.0628 39.044 59.1428 39.194C59.2574 39.4087 59.422 39.5973 59.569 39.6821C59.6435 39.7251 60.5243 39.7502 62.6108 39.7688C65.2137 39.7921 65.5698 39.805 65.7424 39.8829C65.9685 39.9848 66.0061 40.0857 65.9833 40.5284C65.9679 40.8266 65.9595 40.8433 65.7837 40.9277C65.362 41.13 64.9915 41.1437 59.3479 41.1648L53.8824 41.1853L53.8675 39.227C53.8531 37.3473 53.8482 37.2627 53.7449 37.1212C53.4935 36.7768 52.7031 36.5968 52.1401 36.7556ZM86.2497 36.7904C86.0183 36.9313 85.8921 37.1552 85.8152 37.5608C85.6772 38.289 85.8584 39.0389 86.2317 39.2854L86.41 39.403H94.5758H102.742L102.92 39.2854C103.02 39.2193 103.156 39.0532 103.229 38.9067C103.345 38.6755 103.36 38.5794 103.36 38.0709C103.36 37.4128 103.274 37.1126 103.015 36.8651L102.855 36.7126L94.6379 36.6994C86.5114 36.6865 86.4188 36.6875 86.2497 36.7904ZM86.2317 41.8714C86.1313 41.9378 85.9966 42.103 85.923 42.2502C85.809 42.4782 85.7924 42.5809 85.7919 43.0599C85.791 43.8886 86.0047 44.3111 86.4803 44.421C86.5917 44.4468 87.68 44.4684 88.8987 44.4691L91.1144 44.4704L91.1154 47.435C91.117 52.4731 91.2518 53.8791 91.8515 55.1133C92.2035 55.8377 92.6543 56.1963 93.2959 56.2623L93.5814 56.2916L93.5672 57.3943L93.5531 58.497L92.2945 58.4932C91.3009 58.4901 90.9669 58.4711 90.7088 58.403C89.6146 58.1144 89.0944 57.4489 88.8833 56.0678C88.8222 55.668 88.8075 54.8006 88.8072 51.6047C88.8069 47.706 88.805 47.634 88.6988 47.4154C88.5337 47.0756 88.1938 46.9257 87.5887 46.9257C86.8551 46.9257 86.501 47.1328 86.3919 47.6258C86.3498 47.8158 86.3398 49.0896 86.3568 52.0714C86.3824 56.5386 86.389 56.6586 86.6615 57.6263C87.0577 59.0328 87.8302 59.9813 89.0286 60.5328C89.8984 60.9331 90.7596 61.088 92.3469 61.1296L93.5531 61.1613L93.5673 62.2174L93.5815 63.2736L90.0535 63.2883L86.5255 63.3032L86.3272 63.426C86.2182 63.4935 86.0818 63.6409 86.0241 63.7534C85.7966 64.1976 85.8044 65.166 86.0389 65.5931C86.1204 65.7415 86.2329 65.8481 86.3924 65.9283L86.6264 66.0458H90.1029H93.5793V66.6012C93.5793 67.2665 93.6546 67.4332 94.0402 67.6224C94.2554 67.728 94.3654 67.7436 94.8919 67.7436C95.4338 67.7436 95.5227 67.7301 95.751 67.613C96.1248 67.4214 96.2016 67.2455 96.2016 66.5821V66.0458H99.7143C103.696 66.0458 103.543 66.0605 103.782 65.6546C103.971 65.3336 104.051 64.7202 103.967 64.2314C103.898 63.8311 103.769 63.5913 103.527 63.4125C103.381 63.3044 103.338 63.303 99.7902 63.2887L96.2016 63.2743V62.2047V61.1352H97.0911C97.5803 61.1352 98.2234 61.1092 98.5202 61.0775C99.6886 60.9524 100.829 60.5507 101.541 60.0132C102.362 59.3932 102.939 58.3187 103.214 56.8959C103.3 56.4496 103.308 56.0271 103.308 52.01C103.308 47.6323 103.307 47.6119 103.198 47.465C103.138 47.3839 102.992 47.2639 102.875 47.1984C102.444 46.9584 101.563 46.9996 101.234 47.2753C100.907 47.5494 100.922 47.3538 100.921 51.4027C100.921 56.0103 100.891 56.4025 100.474 57.2522C100.268 57.6722 99.9223 58.0214 99.5296 58.2053C99.0214 58.4432 98.712 58.4855 97.434 58.4914L96.2278 58.497L96.2137 57.3943L96.1995 56.2916L96.4951 56.2612C97.7911 56.128 98.4762 54.6811 98.6644 51.6796C98.6941 51.2055 98.7186 49.3895 98.7187 47.644L98.7189 44.4704L100.646 44.4691C101.781 44.4683 102.671 44.4456 102.81 44.4138C102.939 44.3841 103.11 44.2986 103.188 44.2238C103.447 43.9774 103.584 43.3013 103.495 42.7042C103.434 42.2931 103.297 42.0234 103.073 41.8714L102.899 41.7538H94.6545H86.41L86.2317 41.8714ZM95.9226 48.3492C95.9067 50.8817 95.8777 52.346 95.8391 52.5677C95.743 53.1197 95.6191 53.4987 95.4893 53.6384C95.3722 53.7642 95.3429 53.7692 94.7322 53.7692C94.3828 53.7692 94.0545 53.7467 94.0028 53.7191C93.8501 53.6377 93.697 53.2037 93.6335 52.6722C93.5976 52.3721 93.5617 50.6523 93.5427 48.3231L93.5112 44.4704H94.7291H95.947L95.9226 48.3492ZM59.5983 52.1647C60.2775 52.2785 60.2843 52.2847 60.266 52.7666L60.2508 53.1685L60.0672 53.2575C59.6493 53.4602 58.9391 53.4819 52.7249 53.4819C46.5103 53.4819 45.8596 53.4618 45.4351 53.257L45.2516 53.1685L45.2363 52.7666C45.219 52.3109 45.2238 52.3047 45.6776 52.1969C46.1534 52.084 47.8562 52.0571 53.5116 52.0733C58.1195 52.0865 59.2314 52.1032 59.5983 52.1647Z" fill="#FAFAFA"/>
<path fill-rule="evenodd" clip-rule="evenodd" d="M124.843 35.5546C124.495 35.6542 124.332 35.7787 124.218 36.0313C124.124 36.2408 124.119 36.4322 124.118 39.7978C124.117 43.4715 124.146 44.1729 124.336 45.0635C124.864 47.5479 126.271 48.6941 129.142 48.9788C129.895 49.0535 137.901 49.0513 138.098 48.9763C138.472 48.8337 138.691 48.4048 138.691 47.8154C138.691 47.435 138.569 47.02 138.417 46.8796C138.129 46.6145 138.351 46.6267 133.213 46.5944C128.596 46.5655 128.369 46.5596 127.918 46.4556C127.373 46.3302 127.014 46.1732 126.837 45.9828C126.726 45.864 126.71 45.7903 126.694 45.324L126.676 44.7989L132.382 44.7987C137.954 44.7985 138.092 44.796 138.256 44.6949C138.494 44.5486 138.642 44.2233 138.676 43.7732C138.729 43.0565 138.532 42.5527 138.132 42.3838C137.991 42.3243 136.966 42.3116 132.323 42.3116H126.686V41.3325V40.3535L132.308 40.3533C137.86 40.3531 137.933 40.3517 138.105 40.246C138.413 40.0565 138.508 39.7518 138.508 38.951C138.508 38.3147 138.498 38.2455 138.377 38.0296C138.304 37.9012 138.179 37.7464 138.097 37.6856C137.95 37.5753 137.936 37.575 132.318 37.5609L126.686 37.5468V36.8974C126.686 36.0927 126.594 35.8524 126.211 35.6562C125.91 35.5022 125.208 35.45 124.843 35.5546ZM120.357 35.5917C119.946 35.6514 119.707 35.7961 119.569 36.0679C119.466 36.2705 119.451 36.3822 119.451 36.9239V37.5469L113.505 37.561C107.567 37.5751 107.558 37.5752 107.41 37.6856C107.329 37.7464 107.203 37.9012 107.131 38.0296C107.01 38.2455 107 38.3147 107 38.951C107 39.5674 107.013 39.6655 107.124 39.8932C107.355 40.367 106.756 40.3236 113.472 40.3535L119.425 40.3799L119.439 41.3458L119.453 42.3116H113.605C108.784 42.3116 107.727 42.3243 107.586 42.3838C107.186 42.5523 106.996 43.0219 107.037 43.7378C107.063 44.1974 107.182 44.4888 107.414 44.6636C107.557 44.7715 107.606 44.7727 113.491 44.7989L119.425 44.8254L119.44 45.2216C119.449 45.4396 119.443 45.6687 119.428 45.7306C119.379 45.9299 119.081 46.1674 118.734 46.2838C117.906 46.562 117.941 46.5602 112.662 46.5936C107.845 46.624 107.73 46.6271 107.55 46.7314C107.253 46.9043 107.105 47.267 107.107 47.8154C107.108 48.0628 107.139 48.3534 107.175 48.4611C107.268 48.7309 107.545 48.9647 107.823 49.0061C107.947 49.0245 110.077 49.0307 112.557 49.0197C117.451 48.9981 117.411 49.0004 118.471 48.69C120.322 48.1485 121.328 46.9831 121.766 44.8697C121.883 44.307 121.886 44.2191 121.903 40.2462L121.92 36.1963L121.8 36.0125C121.575 35.67 120.991 35.4997 120.357 35.5917ZM122.449 49.1389C122.324 49.1654 122.141 49.238 122.041 49.3002C121.729 49.4952 121.683 49.647 121.662 50.5541L121.643 51.3612H114.71H107.776L107.598 51.4807C107.299 51.6812 107.183 51.9866 107.183 52.5784C107.183 53.1702 107.299 53.4756 107.598 53.6761L107.776 53.7956H122.963H138.151L138.327 53.6764C138.649 53.4568 138.717 53.2658 138.717 52.5784C138.717 51.891 138.649 51.7 138.327 51.4804L138.151 51.3612H131.139H124.126L124.108 50.5277C124.092 49.7467 124.083 49.6829 123.964 49.5155C123.895 49.4172 123.739 49.2927 123.619 49.2388C123.357 49.1222 122.765 49.0716 122.449 49.1389ZM112.085 55.6042C110.359 55.7795 109.012 56.4259 108.313 57.4143C107.824 58.1065 107.532 58.8854 107.365 59.9439C107.255 60.6431 107.187 66.2176 107.282 66.7316C107.389 67.3051 107.703 67.5 108.52 67.5C109.294 67.5 109.635 67.3099 109.748 66.8143C109.782 66.6646 109.803 65.4107 109.803 63.4384C109.805 60.7884 109.818 60.2376 109.888 59.8957C110.036 59.1692 110.319 58.7627 110.853 58.51L111.142 58.3733L113.233 58.3573C115.216 58.342 115.343 58.3468 115.678 58.4495C116.127 58.5872 116.503 58.9138 116.702 59.338C116.93 59.8254 116.983 60.2903 116.985 61.8397C116.988 63.3654 117.048 63.9495 117.268 64.5615C117.795 66.0246 118.987 66.7898 121.254 67.1191C121.836 67.2036 122.574 67.2113 130.146 67.2113H138.403L138.594 67.0913C138.887 66.9072 138.976 66.6707 138.995 66.0205C139.009 65.5249 138.998 65.4394 138.89 65.2298C138.824 65.1005 138.703 64.9457 138.622 64.8858C138.474 64.7772 138.448 64.7768 129.998 64.7472C121.488 64.7174 121.272 64.7126 120.578 64.5346C120.076 64.4059 119.717 64.1933 119.556 63.93C119.471 63.7916 119.451 63.6664 119.451 63.2756V62.7923L121.299 62.7916C125.664 62.7898 127.496 62.5104 128.35 61.7162C128.757 61.3374 128.799 61.2029 128.84 60.1424C128.889 58.8805 128.985 58.694 129.701 58.4709C129.987 58.382 130.232 58.3733 132.479 58.3733C134.663 58.3733 134.976 58.3836 135.234 58.4646C135.638 58.5909 135.927 58.8163 136.076 59.1227C136.198 59.3724 136.201 59.4213 136.227 61.0819C136.257 63.026 136.244 62.9688 136.728 63.2155C136.944 63.3254 137.062 63.3475 137.433 63.3475C137.804 63.3475 137.922 63.3254 138.138 63.2155C138.63 62.9649 138.61 63.0595 138.628 60.8436C138.645 58.657 138.614 58.365 138.295 57.6675C138.05 57.1334 137.464 56.5424 136.909 56.2698C135.798 55.7251 134.185 55.5014 131.797 55.5612C129.072 55.6295 127.642 55.9357 126.923 56.605C126.544 56.957 126.461 57.2271 126.427 58.2172C126.394 59.1491 126.371 59.226 126.042 59.4795C125.8 59.6657 125.532 59.7711 124.982 59.8961C124.553 59.9935 124.281 60.0054 121.992 60.0262L119.473 60.049L119.412 59.4493C119.334 58.6811 119.239 58.3205 118.972 57.7693C118.362 56.5125 116.949 55.7929 114.707 55.5978C113.967 55.5335 112.752 55.5365 112.085 55.6042Z" fill="#FAFAFA"/>
<rect x="16.4725" y="12.8848" width="143.055" height="78.2286" stroke="#FAFAFA" stroke-width="2"/>
<rect x="2" y="2" width="172" height="100" stroke="#0A0A0A" stroke-width="4"/>
</svg>
