<svg width="182" height="105" viewBox="0 0 182 105" fill="none" xmlns="http://www.w3.org/2000/svg">
<path fill-rule="evenodd" clip-rule="evenodd" d="M85.2924 36.9642C85.0057 37.0241 84.7777 37.1567 84.6369 37.3456C84.528 37.4915 84.5266 37.5337 84.4959 41.4204C84.4629 45.5964 84.4534 45.7526 84.1983 46.3266C83.9364 46.916 83.6211 47.095 82.8421 47.0967L82.3067 47.0978V42.4039V37.7099L82.1891 37.5324C82.123 37.4327 81.9569 37.2976 81.8103 37.2243C81.5792 37.1087 81.483 37.0937 80.9745 37.0937C80.3165 37.0937 80.0163 37.1793 79.7688 37.4376L79.6162 37.5968L79.6024 42.3473L79.5885 47.0978L79.0016 47.0967C78.5382 47.0958 78.3687 47.0746 78.1959 46.9962C77.7989 46.8159 77.5223 46.2764 77.3992 45.4422C77.3644 45.206 77.3438 43.7477 77.3438 41.5137C77.3438 39.1776 77.3245 37.8711 77.2876 37.699C77.1784 37.1899 76.7775 36.9903 75.932 37.0242C75.2109 37.0532 74.9183 37.2549 74.8315 37.7826C74.7731 38.1381 74.7763 43.1013 74.8359 44.3552C74.9116 45.95 75.1151 46.8872 75.5846 47.8031C75.8831 48.3853 76.533 49.0354 77.0893 49.3083C77.6104 49.5638 78.3594 49.7502 79.043 49.7943L79.5924 49.8299L79.5782 50.7755L79.564 51.7211L78.9632 51.7578C77.7539 51.8314 76.9224 52.1666 76.2175 52.8647C75.8601 53.2186 75.7503 53.3701 75.5504 53.7846C75.0978 54.7239 74.9127 55.597 74.8365 57.1542C74.7775 58.3568 74.7734 67.082 74.8315 67.4358C74.8822 67.7438 75.013 67.9272 75.2832 68.0689C75.584 68.2267 76.5437 68.2267 76.8445 68.0689C77.096 67.9369 77.231 67.7641 77.2938 67.4938C77.3206 67.3782 77.3423 64.9558 77.3436 61.9342C77.346 56.2377 77.3581 55.9176 77.6011 55.1385C77.8373 54.3809 78.1069 54.2026 79.0159 54.2026H79.589L79.6026 60.9382L79.6162 67.6739L79.773 67.8383C79.9992 68.0756 80.2337 68.1585 80.7655 68.189C81.4276 68.227 81.7937 68.1423 82.0662 67.8881L82.2805 67.6882L82.2942 60.941L82.3078 54.1938L82.9295 54.2113C83.5353 54.2282 83.5563 54.2328 83.7517 54.3907C84.1272 54.6939 84.3425 55.3224 84.448 56.4228C84.4761 56.7153 84.4987 59.2612 84.4994 62.2074C84.5009 68.1686 84.4735 67.7775 84.9082 68.0322C85.1036 68.1467 85.2272 68.1757 85.5942 68.1931C85.8416 68.2049 86.1415 68.1875 86.2646 68.1543C86.5554 68.0759 86.8354 67.8259 86.9023 67.585C86.9737 67.328 86.9746 57.8491 86.9033 56.9397C86.7137 54.521 86.032 53.1507 84.7011 52.5127C84.4329 52.3841 84.0579 52.2413 83.8678 52.1953C83.5745 52.1242 82.7033 52.0143 82.3981 52.0098C82.3137 52.0086 82.3067 51.9152 82.3067 50.7913V49.5742L82.9205 49.5123C84.1171 49.3916 84.8841 49.0684 85.5471 48.4054C86.1573 47.7952 86.5187 47.0098 86.7458 45.8004C86.9208 44.8687 86.9561 44.0267 86.9561 40.7802V37.6644L86.8385 37.4313C86.7512 37.2582 86.6605 37.1687 86.4859 37.0834C86.2138 36.9506 85.6349 36.8928 85.2924 36.9642ZM55.0813 37.189C54.7349 37.287 54.5723 37.41 54.4591 37.6594C54.3679 37.8601 54.36 38.0251 54.359 39.7482L54.3578 41.6191L48.9639 41.5976C42.2183 41.5707 42.5514 41.6093 42.5514 40.8544C42.5514 40.4539 42.5622 40.4066 42.6689 40.339C42.9448 40.1645 43.3486 40.1358 45.9829 40.1035L48.6046 40.0714L48.7638 39.9189C49.0157 39.6774 49.1078 39.3677 49.1066 38.7654C49.1051 37.9801 48.9381 37.5866 48.5426 37.4368C48.3459 37.3622 43.9701 37.3622 43.3017 37.4367C41.8024 37.6039 40.7958 38.16 40.3672 39.058C40.1255 39.5645 40.0388 40.0106 40.0395 40.7433C40.0405 41.7552 40.2346 42.2894 40.8043 42.8486C41.3679 43.4017 42.2378 43.7499 43.6223 43.9765C44.275 44.0834 44.4977 44.0884 49.3296 44.1068L54.3578 44.1258V45.0111V45.8963L49.7476 45.8972C44.7694 45.8983 44.5973 45.9062 43.5569 46.1831C41.5539 46.7162 40.4914 48.0102 40.1155 50.3738C40.0342 50.8854 40.0241 51.7211 40.0057 59.4117C39.9919 65.2297 40.0029 67.9796 40.0408 68.1848C40.1426 68.7351 40.4625 68.9316 41.2601 68.9333C41.9428 68.9349 42.2962 68.782 42.4655 68.4121C42.5092 68.3165 42.5325 65.943 42.5522 59.5573L42.5792 50.833L42.6972 50.4502C43.1119 49.1049 43.8878 48.5208 45.4835 48.3527C45.7622 48.3234 47.7793 48.3008 50.1655 48.3002L54.3578 48.2994V49.0254V49.7514L52.0462 49.7768C50.2516 49.7965 49.6079 49.8217 49.1685 49.8893C46.9721 50.2271 45.8745 50.9768 45.5492 52.3611C45.4306 52.8659 45.4737 54.0031 45.6278 54.4334C46.0457 55.6004 47.096 56.2434 49.1076 56.5635C49.695 56.6569 50.0955 56.6749 52.0723 56.6962L54.3578 56.7209V57.3931V58.0653L50.3744 58.0799L46.3911 58.0945L46.1989 58.214C45.879 58.4129 45.7642 58.7195 45.7642 59.3744C45.7642 60.0069 45.8425 60.2297 46.1462 60.4613L46.3306 60.6021L50.3493 60.6164L54.3679 60.6307L54.3434 62.4448C54.3175 64.3574 54.2937 64.5789 54.0412 65.2499C53.9598 65.466 53.8402 65.6454 53.6514 65.8342C53.2163 66.2693 53.1476 66.28 50.9513 66.257C48.9891 66.2366 48.8506 66.2202 48.5588 65.9746C48.2428 65.7087 48.2241 65.6249 48.1944 64.3373C48.1771 63.5899 48.1452 63.1238 48.1068 63.0574C47.9048 62.7086 47.5355 62.5611 46.8642 62.5611C46.2549 62.5611 45.9216 62.6574 45.6844 62.9021L45.503 63.0892L45.4876 64.6666C45.4702 66.4475 45.5041 66.7095 45.8221 67.2486C46.3984 68.2259 47.6051 68.7182 49.839 68.8875C50.7651 68.9577 52.1017 68.9183 52.7645 68.8013C54.9082 68.423 56.1135 67.2801 56.5778 65.1857C56.7599 64.364 56.8131 63.655 56.8131 62.05V60.6167L58.8897 60.6438C60.4312 60.6639 61.0704 60.6911 61.3706 60.7495C62.2991 60.9303 62.7842 61.1857 63.0298 61.6232C63.1588 61.853 63.1606 61.8731 63.1766 63.2657C63.1982 65.132 63.1287 65.5125 62.6974 65.8912C62.4373 66.1196 62.1348 66.1657 60.8976 66.1657C59.5968 66.1657 59.5376 66.184 59.2974 66.6598C59.1586 66.9347 59.1435 67.0142 59.1435 67.471C59.1435 67.9139 59.161 68.0132 59.2832 68.2628C59.3837 68.4683 59.4799 68.5803 59.627 68.663C59.8247 68.7741 59.8807 68.7778 61.3913 68.777C63.1237 68.7761 63.3879 68.7426 63.9277 68.4549C64.1031 68.3613 64.3664 68.1504 64.5424 67.9623C65.2485 67.2075 65.6023 65.97 65.6759 63.9977C65.779 61.241 65.0724 59.6126 63.4216 58.8026C62.2565 58.231 61.1356 58.069 58.3412 58.0686L56.8131 58.0684V57.3946V56.7209L59.0987 56.6954C61.5302 56.6683 61.9822 56.631 62.9972 56.3735C64.2713 56.0503 65.0926 55.4563 65.4569 54.5944C65.5891 54.2819 65.6942 53.6695 65.6932 53.2185C65.6907 52.1187 65.2634 51.2422 64.4716 50.7126C64.039 50.4233 63.7073 50.2848 63.0037 50.0997C62.0058 49.8373 61.5892 49.8025 59.1248 49.7762L56.8131 49.7514V49.0254V48.2994L61.0838 48.3002C63.5216 48.3008 65.5647 48.3233 65.8442 48.3527C66.8058 48.454 67.4277 48.695 67.9318 49.1617C68.4488 49.6404 68.7268 50.322 68.8276 51.3584C68.8576 51.6669 68.8786 55.1681 68.8794 59.9805L68.8808 68.0832L68.9985 68.2579C69.2152 68.5795 69.4037 68.6472 70.0823 68.6472C70.7619 68.6472 70.9493 68.5796 71.1675 68.2557L71.2867 68.0789L71.2695 59.2731L71.2523 50.4674L71.1384 49.9481C70.7635 48.2382 70.0951 47.2334 68.933 46.6327C68.4036 46.359 67.9034 46.1863 67.2267 46.0436C66.6634 45.9248 66.6356 45.9241 61.7368 45.9082L56.8131 45.8923V45.0062V44.1201L61.554 44.1196C64.2852 44.1194 66.5495 44.097 66.8956 44.0668C68.7104 43.9086 69.8226 43.5389 70.5062 42.8666C71.0852 42.2973 71.2845 41.7591 71.2829 40.7692C71.2813 39.7027 71.0434 39.0212 70.4742 38.452C69.9395 37.9174 69.1771 37.6046 68.0521 37.4582C67.5574 37.3939 66.9515 37.3809 64.9846 37.3926C62.5353 37.4071 62.5334 37.4072 62.3682 37.5251C62.2773 37.5899 62.148 37.7544 62.0809 37.8907C61.9726 38.1105 61.9589 38.2123 61.9592 38.7915C61.9595 39.3273 61.977 39.4773 62.0567 39.6274C62.1708 39.842 62.3349 40.0306 62.4813 40.1154C62.5555 40.1584 63.4329 40.1835 65.5112 40.2022C68.104 40.2254 68.4588 40.2384 68.6307 40.3163C68.8559 40.4181 68.8934 40.5191 68.8706 40.9617C68.8553 41.2599 68.847 41.2767 68.6718 41.361C68.2517 41.5634 67.8827 41.577 62.2611 41.5982L56.8168 41.6186L56.8019 39.6603C56.7876 37.7807 56.7827 37.696 56.6798 37.5546C56.4294 37.2102 55.6421 37.0302 55.0813 37.189ZM89.0583 37.2237C88.8278 37.3647 88.702 37.5885 88.6254 37.9941C88.488 38.7224 88.6685 39.4723 89.0404 39.7187L89.2179 39.8363H97.352H105.486L105.664 39.7187C105.763 39.6527 105.898 39.4866 105.972 39.34C106.087 39.1089 106.102 39.0127 106.102 38.5042C106.102 37.8462 106.017 37.5459 105.758 37.2985L105.599 37.1459L97.4139 37.1328C89.3189 37.1198 89.2267 37.1208 89.0583 37.2237ZM89.0404 42.3048C88.9403 42.3711 88.8061 42.5363 88.7328 42.6835C88.6193 42.9116 88.6028 43.0142 88.6022 43.4932C88.6014 44.3219 88.8142 44.7445 89.288 44.8544C89.399 44.8801 90.483 44.9018 91.6969 44.9024L93.9041 44.9037L93.9051 47.8684C93.9067 52.9064 94.0409 54.3125 94.6383 55.5466C94.9889 56.271 95.438 56.6296 96.0771 56.6956L96.3615 56.725L96.3474 57.8277L96.3333 58.9304L95.0795 58.9265C94.0899 58.9234 93.7572 58.9045 93.5 58.8363C92.4101 58.5477 91.892 57.8823 91.6817 56.5012C91.6208 56.1013 91.6061 55.234 91.6058 52.038C91.6055 48.1394 91.6037 48.0673 91.4979 47.8488C91.3334 47.509 90.9948 47.359 90.3921 47.359C89.6613 47.359 89.3086 47.5662 89.1999 48.0591C89.158 48.2492 89.148 49.5229 89.165 52.5047C89.1904 56.9719 89.197 57.092 89.4685 58.0596C89.8632 59.4661 90.6326 60.4146 91.8263 60.9661C92.6928 61.3665 93.5507 61.5214 95.1318 61.563L96.3333 61.5946L96.3475 62.6507L96.3616 63.7069L92.8473 63.7217L89.333 63.7365L89.1355 63.8593C89.0269 63.9269 88.891 64.0742 88.8336 64.1868C88.6069 64.631 88.6147 65.5994 88.8483 66.0264C88.9295 66.1748 89.0415 66.2815 89.2005 66.3616L89.4336 66.4792H92.8965H96.3594V67.0346C96.3594 67.6999 96.4343 67.8665 96.8185 68.0557C97.0329 68.1613 97.1425 68.177 97.6669 68.177C98.2067 68.177 98.2953 68.1635 98.5227 68.0464C98.895 67.8547 98.9715 67.6789 98.9715 67.0155V66.4792H102.471C106.437 66.4792 106.285 66.4938 106.523 66.0879C106.711 65.7669 106.79 65.1535 106.706 64.6647C106.638 64.2645 106.51 64.0246 106.268 63.8458C106.123 63.7378 106.08 63.7364 102.546 63.7221L98.9715 63.7076V62.6381V61.5685H99.8575C100.345 61.5685 100.985 61.5426 101.281 61.5108C102.445 61.3858 103.581 60.9841 104.29 60.4466C105.108 59.8265 105.683 58.7521 105.956 57.3293C106.042 56.883 106.05 56.4605 106.05 52.4433C106.05 48.0656 106.05 48.0452 105.941 47.8984C105.881 47.8172 105.736 47.6972 105.619 47.6317C105.189 47.3917 104.312 47.433 103.984 47.7086C103.658 47.9827 103.673 47.7872 103.673 51.8361C103.672 56.4437 103.642 56.8358 103.227 57.6856C103.022 58.1055 102.678 58.4547 102.287 58.6386C101.78 58.8766 101.472 58.9188 100.199 58.9247L98.9976 58.9304L98.9835 57.8277L98.9694 56.725L99.2639 56.6946C100.555 56.5613 101.237 55.1144 101.425 52.1129C101.454 51.6389 101.479 49.8229 101.479 48.0773L101.479 44.9037L103.399 44.9024C104.529 44.9017 105.415 44.8789 105.554 44.8471C105.683 44.8175 105.853 44.7319 105.931 44.6571C106.189 44.4108 106.325 43.7347 106.237 43.1375C106.176 42.7265 106.04 42.4567 105.816 42.3047L105.643 42.1872H97.4304H89.2179L89.0404 42.3048ZM98.6936 48.7826C98.6777 51.315 98.6489 52.7793 98.6104 53.001C98.5147 53.553 98.3913 53.9321 98.2619 54.0717C98.1453 54.1975 98.1161 54.2026 97.5078 54.2026C97.1598 54.2026 96.8328 54.18 96.7813 54.1524C96.6292 54.071 96.4767 53.637 96.4133 53.1055C96.3776 52.8055 96.3419 51.0856 96.3229 48.7565L96.2916 44.9037H97.5048H98.7179L98.6936 48.7826ZM62.5105 52.598C63.187 52.7119 63.1938 52.7181 63.1756 53.1999L63.1604 53.6018L62.9775 53.6908C62.5612 53.8935 61.8538 53.9152 55.6638 53.9152C49.4733 53.9152 48.8252 53.8952 48.4024 53.6903L48.2195 53.6018L48.2043 53.1999C48.1871 52.7442 48.1919 52.738 48.6439 52.6303C49.1178 52.5173 50.8141 52.4904 56.4474 52.5067C61.0374 52.5198 62.145 52.5366 62.5105 52.598Z" fill="#FAFAFA"/>
<path fill-rule="evenodd" clip-rule="evenodd" d="M127.876 36.0544C127.527 36.1535 127.363 36.2775 127.249 36.529C127.154 36.7377 127.149 36.9283 127.148 40.2799C127.147 43.9384 127.176 44.6369 127.366 45.5237C127.898 47.9978 129.312 49.1392 132.198 49.4228C132.955 49.4971 141.004 49.4949 141.201 49.4203C141.577 49.2782 141.798 48.8512 141.798 48.2642C141.798 47.8854 141.675 47.4721 141.522 47.3322C141.232 47.0683 141.455 47.0804 136.29 47.0483C131.649 47.0195 131.421 47.0136 130.967 46.9101C130.42 46.7851 130.059 46.6288 129.881 46.4392C129.769 46.3209 129.753 46.2475 129.737 45.7831L129.719 45.2602L135.455 45.26C141.057 45.2599 141.195 45.2574 141.361 45.1567C141.6 45.0109 141.749 44.687 141.782 44.2388C141.836 43.525 141.638 43.0234 141.235 42.8551C141.093 42.796 140.063 42.7832 135.396 42.7832H129.729V41.8083V40.8333L135.381 40.8331C140.962 40.8329 141.036 40.8316 141.208 40.7263C141.518 40.5375 141.613 40.2341 141.613 39.4367C141.613 38.803 141.603 38.7341 141.481 38.5191C141.409 38.3912 141.283 38.237 141.201 38.1765C141.052 38.0667 141.039 38.0664 135.39 38.0523L129.729 38.0383V37.3916C129.729 36.5902 129.637 36.3509 129.252 36.1556C128.949 36.0022 128.243 35.9502 127.876 36.0544ZM123.367 36.0914C122.954 36.1508 122.713 36.2948 122.575 36.5655C122.472 36.7673 122.456 36.8785 122.456 37.418V38.0384L116.478 38.0524C110.509 38.0665 110.5 38.0666 110.352 38.1765C110.27 38.237 110.144 38.3912 110.071 38.5191C109.949 38.7341 109.939 38.803 109.939 39.4367C109.939 40.0505 109.952 40.1482 110.064 40.3749C110.296 40.8468 109.694 40.8036 116.446 40.8333L122.43 40.8596L122.444 41.8214L122.458 42.7832H116.579C111.733 42.7832 110.67 42.7959 110.528 42.8551C110.127 43.0229 109.935 43.4906 109.977 44.2036C110.003 44.6612 110.122 44.9514 110.355 45.1255C110.499 45.233 110.549 45.2341 116.465 45.2602L122.43 45.2866L122.445 45.6812C122.454 45.8983 122.449 46.1264 122.433 46.1881C122.383 46.3865 122.084 46.623 121.736 46.7389C120.903 47.016 120.938 47.0142 115.631 47.0474C110.789 47.0777 110.673 47.0809 110.493 47.1847C110.194 47.3569 110.045 47.718 110.047 48.2642C110.048 48.5106 110.079 48.7999 110.116 48.9072C110.208 49.1759 110.488 49.4087 110.767 49.45C110.892 49.4683 113.033 49.4744 115.526 49.4635C120.446 49.4419 120.405 49.4442 121.471 49.1352C123.332 48.5959 124.343 47.4354 124.784 45.3307C124.901 44.7704 124.904 44.6829 124.921 40.7265L124.938 36.6934L124.817 36.5103C124.591 36.1693 124.004 35.9997 123.367 36.0914ZM125.47 49.5822C125.345 49.6086 125.16 49.6808 125.06 49.7428C124.746 49.937 124.7 50.0882 124.679 50.9915L124.66 51.7952H117.69H110.719L110.54 51.9142C110.24 52.1139 110.124 52.418 110.124 53.0074C110.124 53.5967 110.24 53.9009 110.54 54.1005L110.719 54.2195H125.987H141.255L141.431 54.1008C141.756 53.8821 141.824 53.6919 141.824 53.0074C141.824 52.3228 141.756 52.1326 141.431 51.914L141.255 51.7952H134.205H127.156L127.138 50.9652C127.121 50.1875 127.112 50.1239 126.993 49.9572C126.924 49.8593 126.767 49.7353 126.646 49.6816C126.383 49.5655 125.788 49.5151 125.47 49.5822ZM115.052 56.0206C113.316 56.1951 111.962 56.8388 111.26 57.8231C110.768 58.5125 110.474 59.2881 110.306 60.3423C110.196 61.0386 110.127 66.5898 110.223 67.1017C110.33 67.6728 110.646 67.8669 111.468 67.8669C112.246 67.8669 112.588 67.6776 112.702 67.1841C112.736 67.035 112.757 65.7863 112.758 63.8222C112.759 61.1832 112.772 60.6347 112.842 60.2943C112.992 59.5707 113.276 59.1659 113.813 58.9143L114.103 58.7782L116.205 58.7622C118.199 58.747 118.326 58.7518 118.663 58.8541C119.114 58.9912 119.493 59.3164 119.693 59.7388C119.922 60.2243 119.975 60.6872 119.977 62.2302C119.98 63.7495 120.041 64.3312 120.262 64.9406C120.791 66.3977 121.99 67.1597 124.268 67.4876C124.854 67.5717 125.595 67.5794 133.207 67.5794H141.508L141.7 67.4599C141.995 67.2766 142.084 67.041 142.103 66.3936C142.118 65.9 142.106 65.8149 141.998 65.6062C141.931 65.4774 141.81 65.3233 141.728 65.2636C141.58 65.1554 141.553 65.155 133.058 65.1256C124.504 65.0959 124.286 65.0911 123.589 64.9139C123.085 64.7857 122.723 64.574 122.561 64.3118C122.476 64.1739 122.456 64.0493 122.456 63.6601V63.1788L124.314 63.178C128.702 63.1763 130.544 62.898 131.402 62.1072C131.811 61.73 131.853 61.596 131.895 60.5399C131.944 59.2833 132.04 59.0976 132.76 58.8754C133.048 58.7868 133.294 58.7782 135.552 58.7782C137.749 58.7782 138.063 58.7885 138.323 58.8691C138.729 58.9949 139.018 59.2194 139.169 59.5245C139.291 59.7731 139.295 59.8218 139.321 61.4755C139.351 63.4116 139.337 63.3546 139.824 63.6002C140.041 63.7097 140.16 63.7317 140.533 63.7317C140.906 63.7317 141.024 63.7097 141.241 63.6002C141.736 63.3507 141.716 63.4449 141.734 61.2382C141.751 59.0607 141.72 58.7699 141.399 58.0753C141.153 57.5434 140.564 56.9549 140.006 56.6835C138.89 56.141 137.267 55.9182 134.867 55.9778C132.128 56.0458 130.69 56.3507 129.967 57.0172C129.587 57.3677 129.503 57.6368 129.469 58.6227C129.436 59.5507 129.413 59.6273 129.082 59.8798C128.838 60.0652 128.569 60.1702 128.016 60.2946C127.585 60.3917 127.311 60.4035 125.01 60.4242L122.478 60.4469L122.417 59.8497C122.338 59.0847 122.243 58.7256 121.974 58.1767C121.362 56.9252 119.94 56.2085 117.687 56.0143C116.943 55.9502 115.722 55.9531 115.052 56.0206Z" fill="#FAFAFA"/>
<rect x="17" y="13" width="148.108" height="78.9333" stroke="#FAFAFA" stroke-width="2"/>
<rect x="2" y="2" width="178" height="101" stroke="#FAFAFA" stroke-width="4"/>
</svg>
