<svg width="1728" height="1596" viewBox="0 0 1728 1596" fill="none" xmlns="http://www.w3.org/2000/svg">
<path opacity="0.8" d="M1235.63 921.21C1131.14 883.228 1093.73 774.715 1115.35 663.319C1136.97 551.922 1198.53 435.037 1235.04 334.824C1271.55 234.612 1381.95 174.063 1493.13 214.478C1604.3 254.893 1661.15 376.017 1613.41 472.37C1565.66 568.722 1544.37 696.541 1493.72 800.864C1443.06 905.187 1340.11 959.192 1235.63 921.21Z" fill="#EEF1FA"/>
<path d="M845.202 151.735C876.304 176.89 918.544 171.185 942.624 141.481C966.704 111.776 962.828 62.6925 932.402 44.1657C901.977 25.6389 857.162 18.5957 834.98 54.4201C812.799 90.2445 814.1 126.581 845.202 151.735Z" fill="#649CE9"/>
<path opacity="0.8" d="M438.119 1422.95C451.096 1433.45 468.722 1431.07 478.77 1418.68C488.817 1406.28 487.2 1385.8 474.505 1378.07C461.809 1370.34 443.109 1367.4 433.854 1382.35C424.598 1397.3 425.141 1412.46 438.119 1422.95Z" fill="#F3D250"/>
<path opacity="0.8" d="M1471.62 452.148C1484.59 462.644 1502.22 460.264 1512.27 447.869C1522.31 435.474 1520.7 414.993 1508 407.263C1495.31 399.532 1476.61 396.593 1467.35 411.542C1458.1 426.49 1458.64 441.652 1471.62 452.148Z" fill="#F3D250"/>
<path d="M1631.03 819.091C1619.66 823.34 1615.47 835.505 1619.88 847.964C1624.3 860.423 1638.5 865.603 1648.82 859.012C1659.15 852.421 1664.24 841.952 1659.97 830.139C1655.69 818.327 1642.4 814.842 1631.03 819.091Z" fill="#0B2CB8"/>
<path opacity="0.8" d="M246.465 1056.03C423.065 1217.56 674.625 1182.1 854.362 993.063C1034.1 804.027 998.042 508.273 789.583 386.045C581.124 263.816 351.268 268.169 181.686 449.01C12.1042 629.85 69.8661 894.498 246.465 1056.03Z" fill="#EAEFF9"/>
<path d="M1774.73 1520.63C1727.34 1561.77 1655.5 1556.71 1614.26 1509.32C1573.02 1461.93 1530.07 1401.4 1484.57 1360.28C1439.07 1319.16 1443.33 1235.37 1495.7 1199.98C1548.06 1164.59 1610.18 1158.45 1656.17 1211.29C1702.15 1264.14 1740.67 1308.4 1785.86 1360.33C1831.05 1412.26 1822.11 1479.49 1774.73 1520.63Z" fill="#0B2CB8"/>
<path d="M100.807 1343.86C128.07 1368.79 166.905 1363.32 194.653 1334.14C222.4 1304.95 216.834 1259.29 184.652 1240.43C152.471 1221.56 116.986 1222.23 90.8063 1250.15C64.6266 1278.06 73.5437 1318.92 100.807 1343.86Z" fill="#3F84E5"/>
<path d="M1146.87 1196.48C1196.54 1236.65 1264.01 1227.54 1302.47 1180.1C1340.92 1132.66 1334.74 1054.27 1286.14 1024.68C1237.55 995.087 1165.97 983.838 1130.55 1041.05C1095.12 1098.27 1097.2 1156.3 1146.87 1196.48Z" fill="#3F84E5"/>
<path d="M1286.03 1326.47C1274.66 1330.71 1270.48 1342.88 1274.89 1355.34C1279.3 1367.8 1293.5 1372.98 1303.83 1366.39C1314.15 1359.8 1319.24 1349.33 1314.97 1337.51C1310.7 1325.7 1297.4 1322.22 1286.03 1326.47Z" fill="#3F84E5"/>
</svg>
