<svg width="1728" height="1524" viewBox="0 0 1728 1524" fill="none" xmlns="http://www.w3.org/2000/svg">
<path opacity="0.8" d="M246.66 1015.97C423.259 1177.7 674.831 1142.2 854.585 952.947C1034.34 763.693 998.295 467.585 789.834 345.204C581.373 222.824 351.507 227.174 181.909 408.225C12.3112 589.275 70.0621 854.24 246.66 1015.97Z" fill="#EAEFF9"/>
<path opacity="0.8" d="M1282.63 779.075C1178.15 740.772 1140.92 632.02 1162.8 520.533C1184.67 409.047 1246.51 292.167 1283.26 191.917C1320.01 91.6673 1430.62 31.325 1541.8 72.0809C1652.98 112.837 1709.62 234.267 1661.64 330.623C1613.65 426.978 1592.08 554.91 1541.17 659.239C1490.26 763.568 1387.12 817.377 1282.63 779.075Z" fill="#EEF1FA"/>
<path opacity="0.8" d="M993.73 1413.96C946.259 1455.23 874.322 1450.2 833.056 1402.73C791.789 1355.26 748.808 1294.61 703.269 1253.43C657.731 1212.24 662.051 1128.26 714.505 1092.75C766.959 1057.25 829.161 1051.05 875.18 1103.99C921.199 1156.93 959.746 1201.27 1004.97 1253.29C1050.19 1305.31 1041.2 1372.7 993.73 1413.96Z" fill="#0B2CB8"/>
<path opacity="0.8" d="M101.127 1304.19C128.39 1329.16 167.228 1323.68 194.978 1294.46C222.728 1265.25 217.163 1219.53 184.981 1200.64C152.8 1181.75 117.313 1182.42 91.1313 1210.37C64.9492 1238.32 73.8646 1279.22 101.127 1304.19Z" fill="#3F84E5"/>
<path opacity="0.8" d="M1146.57 1156.63C1196.24 1196.85 1263.71 1187.73 1302.17 1140.23C1340.63 1092.74 1334.44 1014.25 1285.85 984.625C1237.26 954.998 1165.68 943.734 1130.25 1001.02C1094.82 1058.3 1096.89 1116.4 1146.57 1156.63Z" fill="#3F84E5"/>
<path opacity="0.8" d="M1536.74 1390.58C1631.28 1467.13 1759.64 1449.81 1832.81 1359.47C1905.97 1269.12 1894.16 1119.79 1801.69 1063.4C1709.21 1007.02 1573.02 985.555 1505.63 1094.52C1438.24 1203.49 1442.21 1314.03 1536.74 1390.58Z" fill="#F3D250"/>
<path opacity="0.8" d="M1286.12 1286.98C1274.75 1291.24 1270.57 1303.41 1274.98 1315.89C1279.39 1328.36 1293.59 1333.55 1303.92 1326.95C1314.24 1320.35 1319.34 1309.87 1315.06 1298.04C1310.79 1286.22 1297.49 1282.73 1286.12 1286.98Z" fill="#3F84E5"/>
</svg>
