<svg width="80" height="80" viewBox="0 0 80 80" fill="none" xmlns="http://www.w3.org/2000/svg">
<path d="M80 26.7533L58.7933 21.2167L53.25 0L40.0233 13.6367L26.75 0L21.2067 21.2167L0 26.7533L13.2567 40L0 53.2667L21.2067 58.8033L26.7433 80L40 66.7533L53.2567 80L58.7933 58.7933L80 53.2667L66.7433 40L80 26.7533ZM49.1367 61.0567L57.37 59.1467L52.9267 76.1467L49.1367 61.0567ZM51.72 76.65L40.7733 65.7L56.3767 31.5L76.8633 28.0667L65.3767 39.5533L57.2733 48.7567L47.6467 60.4233L51.72 76.65ZM27 75.88L22.6367 59.1733L29.97 61.05L27 75.88ZM31.4133 60.4033L14.6667 39.6067L3.13667 28.0633L23.7233 31.5L39.2267 65.7L28.1367 76.7933L31.4133 60.4033ZM39.3567 62.8533L25.5833 32.4767L39.3633 40.39L39.3567 62.8533ZM40.6567 40.3767L54.5133 32.47L40.6467 62.8633L40.6567 40.3767ZM40.6567 38.89V16.1533L54.8767 30.77L40.6567 38.89ZM39.3667 38.89L25.21 30.7733L39.3767 16.16L39.3667 38.89ZM75.6667 26.9567L56.1633 30.2267L45.22 18.98L57.7367 22.2733L57.9667 22.3333L58.1033 22.37L75.6667 26.9567ZM52.58 2.53667L57.36 20.84L43.4733 17.1733L40.9233 14.55L52.58 2.53667ZM27.42 2.53667L39.1233 14.5667L36.5933 17.1767L22.64 20.8433L27.42 2.53667ZM21.9 22.37L22.02 22.34L22.2667 22.2767L34.8567 18.97L23.9433 30.2267L4.33333 26.9567L21.9 22.37ZM2.50667 52.5867L14.1167 40.9767L29 59.4667L21.9467 57.6667L2.50667 52.5867ZM58.1 57.65L50.0667 59.5133L58.2567 49.5933L65.8633 40.95L77.4967 52.5833L58.1 57.65Z" fill="url(#paint0_linear_946_1112)"/>
<defs>
<linearGradient id="paint0_linear_946_1112" x1="40.5742" y1="79.2344" x2="39.0431" y2="0.57416" gradientUnits="userSpaceOnUse">
<stop offset="0.00478469" stop-color="#343061"/>
<stop offset="0.222529" stop-color="#6E4B74"/>
<stop offset="0.424683" stop-color="#C27193"/>
<stop offset="0.626411" stop-color="#EE988E"/>
<stop offset="0.805208" stop-color="#F5BB95"/>
<stop offset="0.9875" stop-color="#F5D6A2"/>
</linearGradient>
</defs>
</svg>
