<svg width="224" height="299" viewBox="0 0 224 299" fill="none" xmlns="http://www.w3.org/2000/svg">
<path fill-rule="evenodd" clip-rule="evenodd" d="M140.142 61.7925L140.133 61.7951L140.105 61.803L140.059 61.8165L139.995 61.8362L139.913 61.8622L139.813 61.8951L139.695 61.935L139.56 61.9824L139.407 62.0376L139.237 62.1009L139.051 62.1727L138.847 62.2532L138.627 62.3428L138.391 62.4417L138.139 62.5503L137.872 62.6688L137.589 62.7975L137.29 62.9367L136.977 63.0867L136.65 63.2476L136.309 63.4197L135.953 63.6033L135.584 63.7986L135.202 64.0057L134.807 64.225L134.4 64.4564L133.981 64.7003L133.55 64.9568L133.107 65.2261L132.654 65.5082L132.191 65.8034L131.717 66.1117L131.233 66.4332L130.74 66.7681L130.238 67.1164L129.728 67.4782L129.21 67.8536L128.684 68.2425L128.151 68.6451L127.611 69.0613L127.065 69.4912L126.513 69.9347L125.956 70.3918L125.393 70.8625L124.826 71.3467L124.255 71.8444L123.68 72.3555L123.102 72.88L122.521 73.4177L121.938 73.9685L121.353 74.5323L120.766 75.109L120.178 75.6984L119.59 76.3003L119.002 76.9147L118.413 77.5412L117.825 78.1797L117.239 78.8301L116.654 79.492L116.07 80.1652L115.489 80.8496L114.911 81.5448L114.335 82.2506L113.763 82.9667L113.195 83.6927L112.631 84.4286L112.072 85.1738L111.517 85.9281L110.968 86.6912L110.424 87.4627L109.886 88.2424L109.354 89.0297L108.829 89.8244L108.31 90.6261L107.799 91.4344L107.295 92.2489L106.799 93.0693L106.311 93.8951L105.831 94.7259L105.359 95.5614L104.896 96.401L104.442 97.2443L103.997 98.091L103.561 98.9406L103.134 99.7926L102.718 100.647L102.311 101.502L101.914 102.359L101.527 103.216L101.15 104.074L100.783 104.931L100.427 105.787L100.082 106.643L99.7468 107.496L99.4224 108.348L99.1087 109.196L98.8058 110.042L98.5135 110.884L98.2321 111.722L97.9613 112.556L97.7014 113.385L97.4521 114.208L97.2135 115.025L96.9856 115.836L96.7682 116.64L96.5612 117.437L96.3647 118.227L96.1785 119.008L96.0025 119.781L95.8365 120.544L95.6805 121.298L95.5343 122.043L95.3977 122.777L95.2705 123.5L95.1526 124.212L95.0439 124.913L94.944 125.602L94.8527 126.278L94.77 126.942L94.6955 127.593L94.6289 128.231L94.5701 128.855L94.5187 129.464L94.4746 130.06L94.4373 130.641L94.4067 131.206L94.3825 131.757L94.3643 132.292L94.3518 132.811L94.3448 133.313L94.3428 133.8L94.3456 134.27L94.3528 134.722L94.3642 135.158L94.3792 135.577L94.3977 135.978L94.4192 136.361L94.4433 136.726L94.4697 137.074L94.4981 137.403L94.528 137.714L94.5591 138.007L94.5911 138.281L94.6234 138.536L94.6558 138.773L94.6878 138.991L94.7191 139.19L94.7493 139.37L94.7779 139.531L94.8047 139.674L94.8292 139.797L94.8511 139.902L94.8699 139.987L94.8852 140.054L94.8968 140.102L94.9042 140.132L94.907 140.143L94.9048 140.135L94.8974 140.109L94.8843 140.064L94.8651 140.001L94.8396 139.921L94.8073 139.822L94.7679 139.705L94.7211 139.572L94.6666 139.42L94.6039 139.252L94.5328 139.066L94.453 138.864L94.3642 138.646L94.266 138.411L94.1582 138.16L94.0405 137.894L93.9126 137.612L93.7742 137.315L93.6252 137.003L93.4651 136.677L93.2939 136.337L93.1112 135.982L92.9169 135.614L92.7107 135.233L92.4925 134.84L92.262 134.433L92.0191 134.015L91.7636 133.585L91.4953 133.143L91.2142 132.691L90.9201 132.228L90.6128 131.755L90.2923 131.272L89.9585 130.78L89.6113 130.279L89.2505 129.77L88.8763 129.252L88.4884 128.727L88.0869 128.194L87.6718 127.655L87.2431 127.109L86.8007 126.558L86.3446 126.001L85.875 125.439L85.3919 124.872L84.8952 124.301L84.3851 123.726L83.8617 123.149L83.3251 122.568L82.7753 121.985L82.2125 121.4L81.6369 120.813L81.0485 120.226L80.4476 119.637L79.8342 119.049L79.2086 118.46L78.571 117.873L77.9216 117.286L77.2607 116.7L76.5883 116.117L75.9048 115.536L75.2105 114.957L74.5055 114.381L73.7903 113.809L73.0649 113.24L72.3299 112.676L71.5854 112.116L70.8318 111.561L70.0694 111.011L69.2985 110.467L68.5195 109.929L67.7328 109.396L66.9387 108.871L66.1375 108.352L65.3297 107.84L64.5157 107.335L63.6957 106.839L62.8704 106.35L62.0399 105.869L61.2049 105.396L60.3656 104.933L59.5225 104.478L58.676 104.032L57.8267 103.595L56.9748 103.168L56.121 102.751L55.2655 102.343L54.4089 101.945L53.5516 101.557L52.6941 101.18L51.8369 100.812L50.9804 100.456L50.125 100.109L49.2713 99.7733L48.4198 99.4481L47.5707 99.1335L46.7248 98.8297L45.8824 98.5366L45.0439 98.2543L44.2099 97.9827L43.3808 97.7219L42.5571 97.4718L41.7393 97.2323L40.9277 97.0035L40.1229 96.7853L39.3253 96.5775L38.5354 96.3802L37.7535 96.1932L36.9802 96.0163L36.2159 95.8496L35.461 95.6928L34.7159 95.5457L33.9811 95.4084L33.2569 95.2805L32.5437 95.1619L31.8421 95.0524L31.1523 94.9518L30.4747 94.8599L29.8097 94.7764L29.1577 94.7013L28.5191 94.6341L27.8941 94.5746L27.2832 94.5227L26.6866 94.478L26.1046 94.4402L25.5377 94.4091L24.9861 94.3844L24.45 94.3657L23.9298 94.3528L23.4256 94.3453L22.9379 94.3429L22.4668 94.3454L22.0126 94.3523L21.5754 94.3633L21.1556 94.3781L20.7532 94.3962L20.3685 94.4175L20.0016 94.4414L19.6528 94.4677L19.3221 94.4959L19.0096 94.5257L18.7156 94.5568L18.4402 94.5886L18.1833 94.621L17.9451 94.6533L17.7257 94.6854L17.5251 94.7168L17.3434 94.7471L17.1806 94.7759L17.0367 94.8028L16.9117 94.8275L16.8056 94.8496L16.7183 94.8686L16.6499 94.8843L16.6003 94.8962L16.5694 94.9039L16.5572 94.9071L16.5635 94.9053L16.5883 94.8983L16.6313 94.8857L16.6926 94.867L16.772 94.842L16.8692 94.8103L16.9842 94.7715L17.1168 94.7253L17.2667 94.6714L17.4338 94.6094L17.6178 94.539L17.8186 94.4599L18.0359 94.3718L18.2694 94.2744L18.5188 94.1673L18.784 94.0504L19.0646 93.9233L19.3604 93.7858L19.671 93.6376L19.9961 93.4784L20.3354 93.3081L20.6886 93.1263L21.0554 92.9329L21.4353 92.7277L21.8282 92.5104L22.2335 92.2809L22.6509 92.039L23.08 91.7845L23.5206 91.5173L23.9721 91.2372L24.4342 90.9442L24.9064 90.6379L25.3885 90.3185L25.8799 89.9857L26.3803 89.6396L26.8892 89.2799L27.4062 88.9067L27.9309 88.52L28.4628 88.1196L29.0016 87.7055L29.5467 87.2779L30.0978 86.8365L30.6544 86.3816L31.2161 85.9131L31.7825 85.431L32.353 84.9354L32.9272 84.4264L33.5048 83.9041L34.0853 83.3685L34.6682 82.8197L35.2531 82.258L35.8395 81.6833L36.4271 81.096L37.0154 80.496L37.604 79.8836L38.1924 79.259L38.7802 78.6224L39.3671 77.9739L39.9526 77.3138L40.5363 76.6424L41.1178 75.9598L41.6967 75.2663L42.2726 74.5622L42.8452 73.8477L43.414 73.1232L43.9787 72.3889L44.5389 71.6451L45.0943 70.8923L45.6446 70.1305L46.1893 69.3603L46.7282 68.582L47.261 67.7959L47.7872 67.0023L48.3067 66.2017L48.8192 65.3944L49.3243 64.5808L49.8217 63.7614L50.3113 62.9364L50.7927 62.1064L51.2658 61.2716L51.7302 60.4327L52.1858 59.5899L52.6324 58.7437L53.0697 57.8945L53.4976 57.0429L53.9159 56.1891L54.3245 55.3338L54.7231 54.4772L55.1117 53.62L55.4901 52.7625L55.8582 51.9053L56.2159 51.0487L56.5632 50.1932L56.8998 49.3393L57.2259 48.4876L57.5413 47.6383L57.846 46.7921L58.1399 45.9494L58.4231 45.1106L58.6955 44.2762L58.9572 43.4467L59.2082 42.6226L59.4485 41.8042L59.6781 40.9922L59.8972 40.1868L60.1058 39.3886L60.3039 38.598L60.4918 37.8155L60.6694 37.0416L60.837 36.2765L60.9945 35.5208L61.1423 34.7749L61.2805 34.0393L61.4091 33.3142L61.5284 32.6002L61.6387 31.8976L61.74 31.2068L61.8325 30.5283L61.9166 29.8623L61.9925 29.2092L62.0603 28.5695L62.1203 27.9434L62.1729 27.3313L62.2181 26.7336L62.2564 26.1505L62.2881 25.5823L62.3133 25.0295L62.3325 24.4921L62.3458 23.9706L62.3537 23.4652L62.3565 22.9762L62.3544 22.5038L62.3478 22.0482L62.3371 21.6096L62.3227 21.1884L62.3047 20.7846L62.2837 20.3985L62.26 20.0302L62.2339 19.6799L62.2058 19.3478L62.1761 19.0339L62.1451 18.7384L62.1133 18.4614L62.081 18.2031L62.0486 17.9634L62.0165 17.7425L61.9851 17.5404L61.9547 17.3572L61.9258 17.1929L61.8987 17.0475L61.8738 16.921L61.8515 16.8134L61.8322 16.7246L61.8162 16.6547L61.804 16.6036L61.796 16.5712L61.7924 16.5575L61.7938 16.5623L61.8003 16.5856L61.8125 16.6273L61.8307 16.6871L61.8552 16.765L61.8864 16.8609L61.9246 16.9745L61.9702 17.1056L62.0235 17.2542L62.0848 17.4199L62.1545 17.6026L62.2329 17.802L62.3203 18.018L62.4169 18.2502L62.5232 18.4984L62.6393 18.7624L62.7656 19.0417L62.9023 19.3363L63.0496 19.6457L63.2079 19.9697L63.3773 20.3079L63.5582 20.66L63.7506 21.0257L63.9549 21.4047L64.1712 21.7965L64.3998 22.2008L64.6407 22.6172L64.8941 23.0455L65.1603 23.4851L65.4394 23.9358L65.7314 24.397L66.0366 24.8685L66.355 25.3498L66.6867 25.8405L67.0318 26.3402L67.3903 26.8484L67.7625 27.3648L68.1481 27.8889L68.5475 28.4203L68.9604 28.9585L69.387 29.5032L69.8272 30.0538L70.2811 30.61L70.7485 31.1713L71.2295 31.7373L71.724 32.3075L72.232 32.8815L72.7533 33.4588L73.2878 34.039L73.8355 34.6218L74.3962 35.2065L74.9698 35.7929L75.5562 36.3804L76.1552 36.9686L76.7665 37.5572L77.3902 38.1456L78.0259 38.7336L78.6734 39.3205L79.3326 39.9062L80.0031 40.49L80.6848 41.0717L81.3775 41.6508L82.0808 42.227L82.7944 42.7998L83.5181 43.3689L84.2517 43.934L84.9947 44.4946L85.7468 45.0504L86.5079 45.6011L87.2774 46.1463L88.0551 46.6857L88.8407 47.2189L89.6336 47.7457L90.4337 48.2658L91.2404 48.7788L92.0535 49.2845L92.8725 49.7825L93.6971 50.2727L94.5267 50.7548L95.3611 51.2286L96.1997 51.6937L97.0423 52.15L97.8882 52.5973L98.7371 53.0354L99.5886 53.464L100.442 53.8831L101.297 54.2925L102.154 54.6919L103.011 55.0813L103.869 55.4605L104.726 55.8294L105.583 56.188L106.438 56.5361L107.292 56.8736L108.144 57.2005L108.993 57.5168L109.84 57.8223L110.683 58.1171L111.522 58.4011L112.357 58.6744L113.187 58.937L114.011 59.1888L114.83 59.4299L115.643 59.6604L116.449 59.8803L117.247 60.0897L118.039 60.2887L118.822 60.4774L119.596 60.6558L120.362 60.8242L121.119 60.9826L121.865 61.1311L122.602 61.27L123.328 61.3994L124.043 61.5195L124.746 61.6304L125.438 61.7324L126.117 61.8257L126.784 61.9105L127.439 61.987L128.079 62.0554L128.707 62.1161L129.32 62.1692L129.919 62.215L130.503 62.2539L131.072 62.286L131.626 62.3118L132.165 62.3314L132.688 62.3452L133.194 62.3535L133.685 62.3567L134.159 62.355L134.615 62.3487L135.055 62.3384L135.478 62.3242L135.883 62.3065L136.271 62.2857L136.64 62.2622L136.992 62.2363L137.326 62.2083L137.641 62.1787L137.938 62.1479L138.216 62.1161L138.476 62.0838L138.717 62.0514L138.94 62.0193L139.143 61.9878L139.328 61.9573L139.494 61.9282L139.641 61.901L139.769 61.8759L139.878 61.8534L139.968 61.8338L140.04 61.8176L140.092 61.8051L140.126 61.7967L140.142 61.7925Z" fill="url(#paint0_linear_1071_1659)"/>
<path fill-rule="evenodd" clip-rule="evenodd" d="M140.635 254.596L140.628 254.592L140.608 254.581L140.575 254.562L140.527 254.537L140.466 254.506L140.391 254.468L140.302 254.424L140.199 254.374L140.081 254.319L139.95 254.259L139.803 254.194L139.643 254.124L139.468 254.051L139.279 253.973L139.075 253.892L138.857 253.808L138.624 253.721L138.377 253.631L138.116 253.539L137.84 253.445L137.55 253.349L137.245 253.252L136.926 253.154L136.594 253.055L136.247 252.956L135.886 252.857L135.511 252.757L135.123 252.659L134.721 252.561L134.305 252.464L133.876 252.369L133.435 252.276L132.98 252.184L132.512 252.095L132.032 252.008L131.539 251.924L131.034 251.844L130.517 251.766L129.989 251.692L129.449 251.623L128.897 251.557L128.335 251.496L127.762 251.439L127.178 251.387L126.584 251.34L125.98 251.299L125.366 251.263L124.744 251.233L124.112 251.208L123.471 251.19L122.822 251.178L122.164 251.172L121.499 251.173L120.827 251.181L120.147 251.195L119.461 251.217L118.768 251.246L118.069 251.282L117.365 251.325L116.655 251.376L115.94 251.434L115.22 251.5L114.496 251.574L113.768 251.655L113.037 251.744L112.303 251.841L111.566 251.946L110.826 252.059L110.085 252.18L109.342 252.308L108.597 252.445L107.852 252.589L107.106 252.742L106.36 252.902L105.615 253.07L104.87 253.245L104.126 253.428L103.384 253.619L102.643 253.817L101.904 254.023L101.169 254.235L100.435 254.455L99.7056 254.682L98.9794 254.916L98.2571 255.156L97.5391 255.403L96.8258 255.657L96.1175 255.916L95.4145 256.182L94.7172 256.454L94.0258 256.731L93.3408 257.014L92.6624 257.302L91.9909 257.595L91.3266 257.892L90.6698 258.195L90.0208 258.501L89.3799 258.812L88.7474 259.127L88.1235 259.445L87.5084 259.766L86.9024 260.09L86.3058 260.417L85.7188 260.747L85.1416 261.078L84.5744 261.412L84.0175 261.746L83.4709 262.083L82.9349 262.42L82.4098 262.757L81.8955 263.095L81.3924 263.433L80.9005 263.771L80.42 264.107L79.951 264.443L79.4937 264.778L79.0481 265.11L78.6143 265.441L78.1924 265.77L77.7825 266.095L77.3847 266.418L76.999 266.737L76.6254 267.053L76.2641 267.364L75.9149 267.671L75.578 267.973L75.2533 268.271L74.9409 268.563L74.6406 268.849L74.3526 269.129L74.0767 269.403L73.8128 269.67L73.5611 269.93L73.3212 270.182L73.0933 270.427L72.8772 270.664L72.6728 270.893L72.4799 271.113L72.2986 271.324L72.1286 271.526L71.9698 271.719L71.8221 271.902L71.6854 272.074L71.5593 272.237L71.4439 272.389L71.3389 272.53L71.2441 272.66L71.1593 272.779L71.0844 272.887L71.0191 272.982L70.9631 273.066L70.9164 273.137L70.8786 273.196L70.8494 273.243L70.8288 273.276L70.8163 273.297L70.8118 273.305L70.815 273.299L70.8256 273.28L70.8434 273.248L70.868 273.201L70.8992 273.141L70.9367 273.067L70.9803 272.979L71.0295 272.877L71.0842 272.761L71.1439 272.63L71.2085 272.485L71.2776 272.326L71.3509 272.153L71.4281 271.964L71.5088 271.762L71.5928 271.545L71.6798 271.313L71.7694 271.067L71.8613 270.807L71.9552 270.532L72.0508 270.243L72.1478 269.94L72.2458 269.622L72.3446 269.29L72.4438 268.945L72.5431 268.585L72.6422 268.211L72.7409 267.824L72.8387 267.423L72.9355 267.009L73.0308 266.581L73.1245 266.14L73.2162 265.686L73.3057 265.22L73.3926 264.74L73.4767 264.249L73.5577 263.745L73.6353 263.229L73.7093 262.701L73.7795 262.162L73.8455 261.611L73.9072 261.05L73.9643 260.477L74.0165 259.894L74.0637 259.301L74.1056 258.698L74.142 258.085L74.1728 257.463L74.1977 256.832L74.2165 256.192L74.229 255.544L74.2352 254.887L74.2348 254.222L74.2277 253.551L74.2137 252.871L74.1927 252.186L74.1645 251.493L74.1292 250.795L74.0864 250.091L74.0362 249.381L73.9785 248.667L73.9132 247.947L73.8401 247.224L73.7593 246.496L73.6707 245.765L73.5743 245.031L73.47 244.294L73.3578 243.555L73.2377 242.814L73.1097 242.071L72.9738 241.326L72.83 240.581L72.6784 239.835L72.5189 239.089L72.3517 238.344L72.1768 237.599L71.9943 236.855L71.8042 236.112L71.6067 235.372L71.4017 234.633L71.1896 233.897L70.9702 233.163L70.7439 232.433L70.5107 231.707L70.2708 230.984L70.0242 230.266L69.7713 229.552L69.5121 228.843L69.2468 228.14L68.9757 227.442L68.6989 226.75L68.4166 226.065L68.1291 225.386L67.8365 224.714L67.5391 224.049L67.2372 223.392L66.9309 222.742L66.6205 222.1L66.3063 221.467L65.9885 220.843L65.6675 220.227L65.3434 219.62L65.0166 219.023L64.6874 218.435L64.356 217.857L64.0227 217.289L63.6879 216.731L63.3519 216.184L63.0149 215.647L62.6773 215.121L62.3393 214.606L62.0014 214.102L61.6639 213.609L61.327 213.128L60.9911 212.658L60.6565 212.199L60.3237 211.753L59.9928 211.318L59.6642 210.895L59.3383 210.484L59.0155 210.086L58.6959 209.699L58.3801 209.324L58.0683 208.962L57.7609 208.612L57.4581 208.274L57.1604 207.949L56.8681 207.635L56.5815 207.334L56.3009 207.045L56.0267 206.768L55.7592 206.503L55.4986 206.25L55.2454 206.01L54.9999 205.781L54.7622 205.564L54.5329 205.358L54.3121 205.165L54.1002 204.982L53.8974 204.812L53.704 204.652L53.5204 204.503L53.3467 204.366L53.1834 204.239L53.0305 204.123L52.8884 204.017L52.7574 203.921L52.6376 203.835L52.5293 203.76L52.4328 203.694L52.3482 203.637L52.2758 203.59L52.2157 203.551L52.1683 203.521L52.1335 203.5L52.1117 203.487L52.103 203.482L52.1075 203.484L52.1255 203.494L52.157 203.511L52.2021 203.536L52.2611 203.566L52.334 203.603L52.4209 203.646L52.5219 203.695L52.637 203.749L52.7665 203.809L52.9102 203.873L53.0683 203.942L53.2408 204.015L53.4278 204.092L53.6292 204.172L53.8451 204.256L54.0754 204.343L54.3202 204.432L54.5794 204.524L54.853 204.617L55.141 204.713L55.4432 204.81L55.7597 204.908L56.0903 205.006L56.435 205.106L56.7937 205.205L57.1662 205.304L57.5524 205.403L57.9523 205.501L58.3656 205.598L58.7923 205.693L59.2321 205.787L59.6849 205.879L60.1506 205.968L60.6289 206.056L61.1196 206.14L61.6225 206.221L62.1375 206.299L62.6642 206.373L63.2025 206.444L63.7522 206.51L64.3129 206.572L64.8844 206.63L65.4664 206.682L66.0587 206.73L66.6611 206.772L67.2731 206.809L67.8945 206.84L68.5251 206.866L69.1644 206.885L69.8122 206.898L70.4682 206.905L71.1321 206.905L71.8034 206.898L72.4819 206.885L73.1672 206.864L73.8591 206.837L74.557 206.802L75.2607 206.76L75.9699 206.71L76.684 206.653L77.4029 206.588L78.1261 206.516L78.8533 206.436L79.584 206.348L80.3179 206.252L81.0546 206.148L81.7938 206.037L82.535 205.917L83.2779 205.79L84.0221 205.655L84.7673 205.511L85.513 205.36L86.2588 205.202L87.0044 205.035L87.7494 204.861L88.4934 204.679L89.2361 204.489L89.9771 204.292L90.716 204.088L91.4524 203.876L92.1859 203.658L92.9163 203.432L93.6431 203.199L94.3661 202.96L95.0847 202.714L95.7988 202.461L96.508 202.203L97.2118 201.938L97.9101 201.667L98.6024 201.391L99.2885 201.109L99.968 200.822L100.641 200.53L101.306 200.233L101.964 199.931L102.614 199.625L103.256 199.315L103.89 199.001L104.516 198.684L105.132 198.363L105.74 198.039L106.338 197.712L106.926 197.383L107.505 197.052L108.074 196.719L108.632 196.384L109.181 196.048L109.718 195.711L110.245 195.374L110.761 195.036L111.266 194.698L111.76 194.36L112.242 194.023L112.713 193.687L113.172 193.353L113.62 193.02L114.055 192.689L114.479 192.36L114.891 192.034L115.291 191.711L115.678 191.391L116.054 191.075L116.417 190.763L116.768 190.455L117.107 190.152L117.434 189.854L117.748 189.561L118.05 189.274L118.34 188.993L118.618 188.718L118.884 188.45L119.138 188.189L119.379 187.935L119.609 187.689L119.827 187.45L120.033 187.22L120.228 186.999L120.411 186.786L120.583 186.583L120.744 186.389L120.893 186.204L121.031 186.03L121.159 185.866L121.276 185.712L121.383 185.569L121.479 185.437L121.566 185.316L121.642 185.207L121.709 185.11L121.766 185.024L121.815 184.951L121.854 184.89L121.884 184.841L121.906 184.805L121.92 184.783L121.926 184.773L121.924 184.776L121.914 184.793L121.898 184.824L121.874 184.868L121.844 184.925L121.808 184.997L121.765 185.083L121.717 185.183L121.663 185.297L121.604 185.425L121.54 185.568L121.472 185.725L121.399 185.896L121.322 186.082L121.242 186.282L121.159 186.497L121.072 186.726L120.983 186.97L120.891 187.228L120.798 187.5L120.702 187.787L120.606 188.088L120.508 188.404L120.409 188.733L120.31 189.077L120.211 189.434L120.111 189.806L120.013 190.191L119.915 190.59L119.818 191.002L119.722 191.427L119.628 191.866L119.536 192.318L119.446 192.783L119.359 193.26L119.274 193.75L119.193 194.252L119.115 194.766L119.04 195.291L118.969 195.829L118.903 196.378L118.84 196.937L118.782 197.508L118.729 198.089L118.681 198.681L118.639 199.282L118.601 199.894L118.57 200.514L118.544 201.144L118.524 201.783L118.51 202.43L118.503 203.085L118.503 203.749L118.509 204.419L118.522 205.097L118.541 205.782L118.568 206.473L118.603 207.171L118.644 207.874L118.693 208.583L118.75 209.297L118.814 210.015L118.886 210.738L118.965 211.465L119.053 212.195L119.148 212.929L119.251 213.665L119.362 214.404L119.481 215.146L119.607 215.888L119.742 216.632L119.884 217.378L120.035 218.123L120.193 218.869L120.359 219.615L120.533 220.36L120.714 221.104L120.903 221.847L121.099 222.588L121.303 223.327L121.514 224.063L121.732 224.797L121.957 225.528L122.19 226.255L122.428 226.978L122.674 227.697L122.926 228.412L123.184 229.121L123.448 229.826L123.719 230.524L123.995 231.217L124.276 231.904L124.563 232.584L124.854 233.257L125.151 233.923L125.452 234.582L125.758 235.232L126.068 235.875L126.381 236.51L126.699 237.136L127.019 237.753L127.343 238.361L127.669 238.96L127.998 239.549L128.329 240.129L128.662 240.699L128.997 241.258L129.332 241.807L129.669 242.346L130.007 242.873L130.345 243.39L130.683 243.896L131.02 244.391L131.357 244.874L131.693 245.345L132.028 245.806L132.361 246.254L132.693 246.691L133.022 247.115L133.348 247.528L133.671 247.929L133.991 248.318L134.308 248.694L134.62 249.058L134.928 249.41L135.232 249.75L135.53 250.078L135.824 250.393L136.111 250.696L136.393 250.987L136.668 251.266L136.937 251.533L137.198 251.787L137.453 252.03L137.699 252.261L137.938 252.48L138.169 252.687L138.391 252.883L138.605 253.067L138.809 253.239L139.004 253.401L139.189 253.551L139.364 253.69L139.529 253.819L139.684 253.937L139.828 254.044L139.96 254.142L140.082 254.229L140.192 254.306L140.291 254.374L140.377 254.432L140.451 254.481L140.513 254.521L140.563 254.552L140.6 254.575L140.624 254.589L140.635 254.596Z" fill="url(#paint1_linear_1071_1659)"/>
<path fill-rule="evenodd" clip-rule="evenodd" d="M224 135.409L223.995 135.409L223.98 135.409L223.955 135.41L223.919 135.411L223.874 135.413L223.819 135.416L223.754 135.42L223.679 135.426L223.594 135.433L223.499 135.442L223.394 135.453L223.28 135.467L223.156 135.482L223.023 135.5L222.881 135.521L222.729 135.545L222.567 135.572L222.397 135.602L222.218 135.635L222.03 135.672L221.833 135.713L221.628 135.758L221.414 135.807L221.192 135.86L220.962 135.918L220.724 135.98L220.478 136.047L220.224 136.118L219.963 136.195L219.695 136.276L219.419 136.363L219.137 136.455L218.848 136.552L218.552 136.655L218.25 136.764L217.942 136.878L217.628 136.998L217.308 137.124L216.983 137.256L216.653 137.394L216.317 137.538L215.977 137.688L215.631 137.844L215.282 138.006L214.928 138.175L214.571 138.35L214.21 138.531L213.845 138.718L213.477 138.912L213.106 139.112L212.733 139.319L212.357 139.532L211.978 139.751L211.598 139.977L211.216 140.208L210.832 140.446L210.447 140.69L210.061 140.941L209.674 141.197L209.286 141.459L208.898 141.728L208.51 142.002L208.122 142.282L207.734 142.567L207.347 142.858L206.961 143.155L206.576 143.457L206.192 143.765L205.809 144.077L205.428 144.395L205.049 144.717L204.672 145.044L204.298 145.376L203.926 145.713L203.556 146.053L203.19 146.398L202.826 146.747L202.466 147.1L202.11 147.456L201.757 147.816L201.408 148.179L201.063 148.545L200.721 148.914L200.385 149.286L200.053 149.661L199.725 150.037L199.402 150.416L199.084 150.797L198.771 151.179L198.463 151.563L198.161 151.948L197.864 152.335L197.572 152.722L197.286 153.109L197.006 153.497L196.731 153.885L196.462 154.273L196.199 154.661L195.943 155.048L195.692 155.434L195.447 155.819L195.209 156.203L194.977 156.586L194.751 156.966L194.531 157.345L194.318 157.721L194.111 158.095L193.91 158.466L193.715 158.834L193.527 159.199L193.346 159.561L193.17 159.918L193.001 160.272L192.838 160.622L192.682 160.967L192.531 161.308L192.387 161.644L192.248 161.975L192.116 162.301L191.99 162.621L191.869 162.936L191.755 163.244L191.646 163.547L191.542 163.843L191.444 164.132L191.352 164.415L191.265 164.691L191.183 164.96L191.106 165.222L191.034 165.476L190.967 165.723L190.905 165.962L190.847 166.192L190.793 166.415L190.744 166.629L190.699 166.835L190.657 167.033L190.62 167.222L190.586 167.401L190.556 167.572L190.529 167.734L190.505 167.887L190.484 168.03L190.465 168.164L190.45 168.289L190.436 168.404L190.425 168.509L190.416 168.605L190.408 168.69L190.403 168.766L190.398 168.832L190.395 168.888L190.393 168.934L190.392 168.97L190.391 168.996L190.391 169.012L190.391 169.018L190.391 169.014L190.391 169L190.39 168.975L190.389 168.941L190.387 168.896L190.384 168.842L190.38 168.778L190.374 168.703L190.367 168.619L190.358 168.525L190.347 168.421L190.334 168.308L190.319 168.185L190.301 168.052L190.28 167.91L190.257 167.759L190.23 167.599L190.2 167.429L190.167 167.251L190.13 167.064L190.09 166.867L190.045 166.663L189.997 166.45L189.944 166.228L189.887 165.999L189.825 165.761L189.758 165.516L189.687 165.263L189.611 165.002L189.53 164.735L189.444 164.46L189.352 164.178L189.255 163.889L189.153 163.594L189.045 163.293L188.931 162.985L188.811 162.672L188.686 162.352L188.555 162.027L188.417 161.697L188.274 161.362L188.124 161.022L187.969 160.677L187.807 160.328L187.639 159.975L187.464 159.618L187.283 159.257L187.096 158.892L186.903 158.525L186.703 158.154L186.497 157.781L186.285 157.405L186.066 157.027L185.841 156.646L185.61 156.264L185.373 155.881L185.129 155.496L184.879 155.109L184.623 154.723L184.362 154.335L184.094 153.947L183.82 153.559L183.541 153.171L183.255 152.783L182.965 152.396L182.668 152.01L182.367 151.625L182.06 151.24L181.748 150.858L181.43 150.477L181.108 150.098L180.781 149.72L180.45 149.346L180.114 148.973L179.774 148.604L179.429 148.237L179.081 147.873L178.728 147.513L178.372 147.156L178.013 146.803L177.65 146.453L177.284 146.108L176.915 145.767L176.543 145.43L176.169 145.097L175.792 144.769L175.414 144.446L175.033 144.127L174.651 143.814L174.267 143.506L173.882 143.203L173.496 142.905L173.109 142.613L172.721 142.327L172.333 142.046L171.945 141.771L171.557 141.502L171.17 141.238L170.783 140.981L170.396 140.73L170.011 140.485L169.627 140.246L169.245 140.013L168.864 139.787L168.485 139.566L168.109 139.353L167.735 139.145L167.363 138.944L166.995 138.749L166.63 138.56L166.268 138.378L165.91 138.202L165.556 138.033L165.205 137.869L164.86 137.712L164.518 137.561L164.182 137.416L163.851 137.277L163.525 137.145L163.204 137.018L162.889 136.897L162.58 136.782L162.277 136.672L161.98 136.569L161.69 136.47L161.407 136.377L161.13 136.29L160.861 136.207L160.598 136.13L160.344 136.058L160.096 135.99L159.857 135.927L159.625 135.869L159.402 135.815L159.187 135.766L158.98 135.72L158.782 135.679L158.593 135.641L158.412 135.607L158.241 135.576L158.078 135.549L157.925 135.525L157.78 135.503L157.646 135.485L157.52 135.469L157.405 135.455L157.299 135.444L157.202 135.435L157.116 135.427L157.039 135.421L156.972 135.417L156.915 135.414L156.869 135.411L156.832 135.41L156.805 135.409L156.788 135.409L156.782 135.409L156.785 135.409L156.799 135.409L156.822 135.408L156.856 135.407L156.899 135.405L156.953 135.402L157.017 135.398L157.09 135.393L157.174 135.386L157.267 135.377L157.37 135.366L157.483 135.353L157.605 135.338L157.737 135.321L157.878 135.3L158.028 135.277L158.188 135.251L158.357 135.221L158.534 135.188L158.721 135.152L158.916 135.111L159.12 135.067L159.333 135.019L159.553 134.966L159.782 134.909L160.019 134.848L160.264 134.782L160.516 134.711L160.776 134.636L161.043 134.555L161.318 134.469L161.599 134.378L161.887 134.281L162.182 134.179L162.483 134.072L162.79 133.958L163.103 133.839L163.422 133.714L163.746 133.583L164.076 133.446L164.411 133.304L164.75 133.155L165.095 132.999L165.444 132.838L165.796 132.67L166.153 132.496L166.514 132.316L166.878 132.13L167.246 131.937L167.616 131.738L167.989 131.532L168.365 131.32L168.743 131.102L169.123 130.878L169.505 130.647L169.889 130.41L170.273 130.167L170.659 129.917L171.046 129.662L171.434 129.401L171.822 129.133L172.21 128.86L172.598 128.581L172.986 128.296L173.373 128.006L173.759 127.71L174.145 127.409L174.529 127.102L174.912 126.791L175.293 126.474L175.672 126.152L176.049 125.826L176.424 125.495L176.797 125.159L177.167 124.819L177.534 124.475L177.897 124.127L178.258 123.775L178.615 123.419L178.969 123.059L179.319 122.697L179.664 122.331L180.006 121.962L180.343 121.591L180.676 121.217L181.005 120.841L181.328 120.462L181.647 120.082L181.961 119.699L182.27 119.316L182.573 118.931L182.871 118.545L183.163 118.158L183.45 117.77L183.732 117.382L184.007 116.994L184.277 116.606L184.541 116.219L184.798 115.831L185.05 115.445L185.296 115.06L185.535 114.676L185.768 114.293L185.995 113.912L186.216 113.533L186.43 113.157L186.638 112.782L186.84 112.411L187.036 112.042L187.225 111.677L187.407 111.315L187.584 110.956L187.754 110.602L187.918 110.251L188.075 109.905L188.227 109.564L188.372 109.227L188.511 108.895L188.645 108.568L188.772 108.247L188.893 107.932L189.009 107.622L189.119 107.319L189.223 107.022L189.322 106.731L189.415 106.447L189.503 106.17L189.586 105.9L189.664 105.637L189.736 105.382L189.804 105.134L189.867 104.894L189.926 104.662L189.98 104.438L190.03 104.222L190.076 104.015L190.118 103.816L190.156 103.626L190.19 103.444L190.221 103.272L190.249 103.109L190.273 102.954L190.295 102.81L190.313 102.674L190.33 102.548L190.343 102.432L190.355 102.325L190.364 102.228L190.372 102.14L190.378 102.063L190.383 101.995L190.386 101.938L190.388 101.89L190.39 101.852L190.39 101.825L190.391 101.807L190.391 101.8L190.391 101.802L190.391 101.815L190.391 101.838L190.393 101.871L190.394 101.914L190.397 101.967L190.401 102.029L190.406 102.102L190.413 102.185L190.422 102.277L190.432 102.379L190.445 102.491L190.46 102.613L190.478 102.744L190.498 102.884L190.521 103.034L190.547 103.193L190.576 103.361L190.609 103.538L190.645 103.724L190.685 103.919L190.729 104.122L190.777 104.334L190.829 104.554L190.886 104.782L190.947 105.018L191.012 105.262L191.083 105.514L191.158 105.773L191.238 106.04L191.324 106.314L191.414 106.594L191.511 106.882L191.612 107.176L191.719 107.477L191.832 107.783L191.951 108.096L192.075 108.414L192.206 108.738L192.342 109.068L192.484 109.402L192.633 109.741L192.788 110.085L192.949 110.434L193.116 110.786L193.289 111.143L193.469 111.503L193.655 111.867L193.847 112.234L194.046 112.604L194.251 112.977L194.462 113.353L194.68 113.731L194.904 114.111L195.134 114.493L195.371 114.876L195.613 115.261L195.862 115.647L196.117 116.034L196.378 116.421L196.645 116.809L196.917 117.197L197.196 117.585L197.48 117.973L197.77 118.36L198.066 118.746L198.366 119.132L198.673 119.516L198.984 119.899L199.3 120.281L199.622 120.66L199.948 121.037L200.278 121.413L200.614 121.785L200.953 122.155L201.297 122.523L201.645 122.887L201.997 123.248L202.352 123.605L202.711 123.959L203.074 124.309L203.439 124.655L203.808 124.997L204.179 125.335L204.553 125.668L204.929 125.997L205.307 126.321L205.688 126.64L206.07 126.954L206.453 127.263L206.838 127.567L207.224 127.865L207.611 128.158L207.998 128.446L208.386 128.728L208.774 129.004L209.162 129.274L209.55 129.538L209.937 129.796L210.324 130.048L210.709 130.294L211.093 130.534L211.476 130.768L211.857 130.996L212.236 131.217L212.613 131.432L212.988 131.64L213.359 131.842L213.728 132.038L214.094 132.228L214.456 132.411L214.815 132.588L215.17 132.759L215.521 132.923L215.867 133.081L216.209 133.233L216.546 133.379L216.878 133.519L217.205 133.652L217.527 133.78L217.843 133.902L218.153 134.018L218.457 134.128L218.754 134.233L219.046 134.332L219.33 134.426L219.608 134.514L219.879 134.598L220.142 134.676L220.398 134.749L220.646 134.817L220.887 134.881L221.12 134.94L221.344 134.994L221.561 135.044L221.769 135.091L221.968 135.133L222.159 135.171L222.341 135.206L222.514 135.237L222.678 135.265L222.833 135.289L222.979 135.311L223.115 135.33L223.242 135.347L223.359 135.36L223.467 135.372L223.564 135.382L223.653 135.39L223.731 135.396L223.799 135.4L223.858 135.404L223.906 135.406L223.945 135.408L223.973 135.408L223.991 135.409L224 135.409Z" fill="url(#paint2_linear_1071_1659)"/>
<path fill-rule="evenodd" clip-rule="evenodd" d="M209.54 266.994L209.538 266.993L209.532 266.992L209.522 266.99L209.509 266.986L209.491 266.982L209.469 266.978L209.443 266.973L209.414 266.967L209.38 266.961L209.342 266.955L209.3 266.948L209.255 266.941L209.205 266.935L209.152 266.928L209.094 266.921L209.033 266.914L208.967 266.908L208.898 266.902L208.825 266.896L208.748 266.891L208.668 266.887L208.583 266.883L208.495 266.88L208.404 266.877L208.308 266.876L208.21 266.875L208.107 266.875L208.001 266.877L207.892 266.879L207.78 266.883L207.664 266.888L207.544 266.894L207.422 266.902L207.297 266.911L207.168 266.922L207.037 266.934L206.903 266.948L206.765 266.964L206.626 266.981L206.483 267L206.338 267.021L206.19 267.044L206.04 267.069L205.888 267.095L205.733 267.124L205.576 267.155L205.417 267.187L205.256 267.222L205.093 267.259L204.928 267.298L204.762 267.34L204.594 267.383L204.424 267.429L204.253 267.477L204.081 267.527L203.907 267.579L203.732 267.634L203.557 267.691L203.38 267.75L203.202 267.812L203.024 267.875L202.845 267.941L202.665 268.01L202.485 268.08L202.304 268.153L202.124 268.228L201.943 268.305L201.762 268.384L201.581 268.466L201.4 268.55L201.22 268.635L201.039 268.723L200.86 268.813L200.68 268.905L200.502 268.998L200.323 269.094L200.146 269.192L199.97 269.291L199.794 269.392L199.62 269.495L199.447 269.6L199.275 269.706L199.104 269.814L198.935 269.923L198.767 270.034L198.601 270.146L198.436 270.259L198.273 270.374L198.112 270.49L197.953 270.607L197.795 270.725L197.64 270.844L197.486 270.964L197.335 271.084L197.186 271.206L197.039 271.328L196.895 271.45L196.752 271.573L196.612 271.697L196.475 271.821L196.34 271.945L196.208 272.069L196.078 272.193L195.951 272.317L195.826 272.441L195.704 272.565L195.585 272.688L195.468 272.812L195.355 272.934L195.244 273.056L195.136 273.178L195.03 273.298L194.928 273.418L194.828 273.537L194.732 273.654L194.638 273.771L194.547 273.886L194.459 274L194.374 274.113L194.291 274.224L194.212 274.334L194.135 274.441L194.062 274.547L193.991 274.652L193.923 274.754L193.857 274.854L193.795 274.952L193.735 275.048L193.678 275.141L193.624 275.232L193.572 275.321L193.523 275.407L193.477 275.491L193.433 275.572L193.391 275.65L193.352 275.725L193.316 275.797L193.282 275.867L193.25 275.933L193.22 275.996L193.193 276.056L193.168 276.113L193.145 276.166L193.124 276.216L193.105 276.263L193.087 276.306L193.072 276.346L193.059 276.382L193.047 276.415L193.037 276.443L193.028 276.469L193.021 276.49L193.016 276.508L193.011 276.521L193.008 276.531L193.007 276.538L193.006 276.54L193.006 276.538L193.008 276.533L193.01 276.523L193.013 276.51L193.017 276.492L193.022 276.471L193.027 276.445L193.032 276.416L193.038 276.382L193.045 276.345L193.051 276.304L193.058 276.258L193.065 276.209L193.072 276.156L193.078 276.099L193.085 276.037L193.091 275.972L193.097 275.904L193.103 275.831L193.108 275.754L193.113 275.674L193.117 275.59L193.12 275.502L193.123 275.411L193.124 275.316L193.125 275.217L193.125 275.115L193.123 275.01L193.121 274.901L193.117 274.788L193.112 274.673L193.106 274.554L193.099 274.432L193.089 274.307L193.079 274.178L193.067 274.047L193.053 273.913L193.037 273.776L193.02 273.637L193.001 273.494L192.981 273.349L192.958 273.202L192.933 273.052L192.907 272.9L192.878 272.745L192.848 272.588L192.815 272.43L192.78 272.269L192.744 272.106L192.705 271.941L192.664 271.775L192.62 271.607L192.575 271.438L192.527 271.267L192.477 271.094L192.425 270.921L192.37 270.746L192.314 270.57L192.254 270.394L192.193 270.216L192.13 270.038L192.064 269.859L191.996 269.679L191.925 269.499L191.853 269.319L191.778 269.138L191.701 268.957L191.622 268.776L191.541 268.595L191.457 268.414L191.372 268.234L191.284 268.054L191.194 267.874L191.103 267.694L191.009 267.516L190.913 267.337L190.816 267.16L190.717 266.984L190.616 266.808L190.513 266.634L190.408 266.46L190.302 266.288L190.195 266.118L190.086 265.948L189.975 265.78L189.863 265.614L189.75 265.449L189.635 265.286L189.519 265.125L189.402 264.965L189.285 264.808L189.166 264.652L189.046 264.498L188.925 264.347L188.804 264.198L188.682 264.051L188.559 263.906L188.436 263.763L188.313 263.623L188.189 263.486L188.065 263.35L187.941 263.218L187.817 263.088L187.693 262.96L187.569 262.836L187.445 262.713L187.321 262.594L187.198 262.477L187.075 262.363L186.953 262.252L186.832 262.144L186.711 262.038L186.591 261.936L186.473 261.836L186.355 261.739L186.238 261.645L186.123 261.554L186.009 261.466L185.896 261.38L185.785 261.298L185.675 261.218L185.567 261.141L185.461 261.067L185.357 260.996L185.254 260.928L185.154 260.862L185.056 260.8L184.96 260.74L184.866 260.682L184.775 260.628L184.686 260.576L184.599 260.527L184.516 260.48L184.435 260.436L184.356 260.394L184.281 260.355L184.208 260.318L184.139 260.284L184.072 260.252L184.009 260.222L183.948 260.195L183.891 260.17L183.838 260.146L183.787 260.125L183.74 260.106L183.697 260.089L183.657 260.073L183.621 260.059L183.588 260.048L183.559 260.037L183.533 260.029L183.512 260.021L183.494 260.016L183.479 260.011L183.469 260.008L183.463 260.006L183.46 260.006L183.461 260.006L183.467 260.007L183.476 260.01L183.489 260.013L183.506 260.017L183.527 260.021L183.552 260.026L183.582 260.032L183.615 260.038L183.652 260.044L183.693 260.05L183.738 260.057L183.787 260.064L183.84 260.071L183.897 260.078L183.957 260.084L184.022 260.091L184.091 260.097L184.163 260.102L184.239 260.108L184.319 260.112L184.403 260.116L184.49 260.12L184.582 260.122L184.676 260.124L184.775 260.125L184.876 260.125L184.982 260.123L185.09 260.121L185.202 260.117L185.318 260.113L185.436 260.107L185.558 260.099L185.683 260.09L185.811 260.08L185.942 260.068L186.076 260.054L186.213 260.039L186.352 260.022L186.494 260.003L186.639 259.982L186.786 259.96L186.936 259.935L187.088 259.909L187.242 259.88L187.399 259.85L187.558 259.818L187.718 259.783L187.881 259.746L188.045 259.708L188.212 259.667L188.379 259.624L188.549 259.578L188.719 259.531L188.892 259.481L189.065 259.429L189.24 259.374L189.415 259.318L189.592 259.259L189.77 259.198L189.948 259.135L190.127 259.069L190.306 259.001L190.486 258.931L190.667 258.858L190.847 258.784L191.028 258.707L191.209 258.628L191.39 258.547L191.571 258.464L191.752 258.378L191.932 258.291L192.112 258.201L192.291 258.11L192.47 258.016L192.648 257.921L192.826 257.824L193.002 257.724L193.178 257.624L193.352 257.521L193.526 257.417L193.698 257.311L193.869 257.203L194.038 257.094L194.206 256.984L194.373 256.872L194.538 256.758L194.701 256.644L194.862 256.528L195.022 256.412L195.18 256.294L195.336 256.175L195.489 256.055L195.641 255.935L195.79 255.813L195.938 255.692L196.083 255.569L196.225 255.446L196.366 255.323L196.503 255.199L196.639 255.075L196.772 254.951L196.902 254.827L197.029 254.702L197.154 254.578L197.277 254.454L197.396 254.331L197.513 254.208L197.627 254.085L197.739 253.963L197.847 253.841L197.953 253.721L198.056 253.601L198.156 253.482L198.253 253.364L198.347 253.247L198.439 253.132L198.527 253.017L198.613 252.905L198.696 252.793L198.776 252.683L198.853 252.575L198.927 252.469L198.998 252.365L199.067 252.262L199.132 252.162L199.195 252.063L199.256 251.967L199.313 251.873L199.368 251.782L199.42 251.692L199.469 251.606L199.516 251.522L199.561 251.441L199.602 251.362L199.642 251.286L199.679 251.214L199.713 251.144L199.745 251.077L199.775 251.013L199.803 250.953L199.828 250.896L199.852 250.842L199.873 250.791L199.893 250.744L199.91 250.7L199.926 250.66L199.939 250.623L199.951 250.59L199.962 250.561L199.971 250.535L199.978 250.513L199.984 250.495L199.988 250.48L199.991 250.47L199.993 250.463L199.994 250.46L199.994 250.461L199.993 250.466L199.99 250.475L199.987 250.488L199.984 250.504L199.979 250.525L199.974 250.55L199.969 250.579L199.963 250.612L199.957 250.648L199.95 250.689L199.943 250.734L199.936 250.782L199.93 250.835L199.923 250.892L199.916 250.952L199.91 251.017L199.904 251.085L199.898 251.157L199.893 251.233L199.888 251.313L199.884 251.396L199.88 251.483L199.878 251.574L199.876 251.668L199.875 251.766L199.875 251.868L199.876 251.973L199.879 252.081L199.882 252.193L199.887 252.308L199.893 252.427L199.9 252.548L199.909 252.673L199.919 252.801L199.931 252.931L199.945 253.065L199.96 253.201L199.977 253.341L199.996 253.483L200.016 253.627L200.038 253.774L200.063 253.924L200.089 254.076L200.117 254.23L200.147 254.386L200.18 254.545L200.214 254.705L200.25 254.868L200.289 255.032L200.33 255.198L200.373 255.366L200.418 255.535L200.465 255.706L200.515 255.878L200.567 256.051L200.621 256.226L200.677 256.401L200.736 256.578L200.797 256.755L200.86 256.933L200.926 257.112L200.993 257.292L201.063 257.472L201.136 257.652L201.21 257.833L201.287 258.014L201.365 258.195L201.446 258.376L201.53 258.556L201.615 258.737L201.702 258.917L201.791 259.097L201.883 259.277L201.976 259.456L202.071 259.634L202.168 259.811L202.267 259.988L202.368 260.164L202.471 260.338L202.575 260.512L202.681 260.684L202.788 260.855L202.897 261.025L203.007 261.193L203.119 261.359L203.232 261.525L203.347 261.688L203.462 261.849L203.579 262.009L203.697 262.167L203.815 262.323L203.935 262.477L204.055 262.629L204.177 262.778L204.299 262.926L204.421 263.071L204.544 263.214L204.667 263.354L204.791 263.492L204.915 263.628L205.039 263.761L205.163 263.891L205.288 264.019L205.412 264.144L205.536 264.267L205.659 264.387L205.782 264.504L205.905 264.618L206.027 264.73L206.149 264.839L206.27 264.945L206.39 265.048L206.509 265.148L206.627 265.245L206.743 265.34L206.859 265.431L206.973 265.52L207.086 265.606L207.198 265.689L207.308 265.769L207.416 265.846L207.522 265.921L207.627 265.992L207.73 266.061L207.83 266.127L207.929 266.19L208.025 266.251L208.119 266.308L208.211 266.363L208.3 266.416L208.387 266.465L208.471 266.512L208.553 266.557L208.632 266.599L208.707 266.638L208.78 266.676L208.851 266.71L208.918 266.743L208.981 266.773L209.042 266.801L209.1 266.826L209.154 266.85L209.205 266.871L209.252 266.891L209.296 266.908L209.337 266.924L209.374 266.938L209.407 266.95L209.437 266.961L209.463 266.97L209.485 266.977L209.504 266.983L209.519 266.988L209.53 266.991L209.537 266.993L209.54 266.994Z" stroke="#FAFAFA" stroke-width="2"/>
<path fill-rule="evenodd" clip-rule="evenodd" d="M74.0341 159.534L74.032 159.534L74.026 159.534L74.0158 159.534L74.0017 159.535L73.9835 159.536L73.9613 159.537L73.9351 159.539L73.9049 159.541L73.8708 159.544L73.8327 159.548L73.7908 159.552L73.7449 159.557L73.6952 159.564L73.6417 159.571L73.5844 159.579L73.5233 159.589L73.4586 159.6L73.3902 159.612L73.3183 159.625L73.2427 159.64L73.1637 159.656L73.0812 159.674L72.9954 159.694L72.9062 159.715L72.8137 159.739L72.7181 159.764L72.6193 159.79L72.5174 159.819L72.4126 159.85L72.3048 159.883L72.1941 159.917L72.0807 159.954L71.9646 159.993L71.8458 160.035L71.7245 160.078L71.6007 160.124L71.4746 160.173L71.3462 160.223L71.2155 160.276L71.0828 160.331L70.948 160.389L70.8112 160.449L70.6726 160.512L70.5323 160.577L70.3902 160.645L70.2466 160.715L70.1015 160.788L69.9551 160.863L69.8073 160.941L69.6583 161.022L69.5082 161.105L69.3572 161.19L69.2052 161.278L69.0524 161.369L68.8988 161.462L68.7447 161.558L68.59 161.656L68.4349 161.756L68.2794 161.859L68.1238 161.964L67.9679 162.072L67.8121 162.182L67.6562 162.295L67.5005 162.409L67.345 162.526L67.1899 162.646L67.0351 162.767L66.8809 162.89L66.7272 163.016L66.5742 163.144L66.422 163.273L66.2706 163.404L66.1201 163.538L65.9707 163.673L65.8223 163.81L65.6751 163.948L65.5292 164.088L65.3845 164.23L65.2413 164.373L65.0995 164.518L64.9592 164.664L64.8206 164.811L64.6836 164.959L64.5484 165.108L64.4149 165.259L64.2833 165.41L64.1537 165.562L64.0259 165.715L63.9002 165.869L63.7766 166.023L63.6551 166.178L63.5357 166.333L63.4186 166.488L63.3037 166.644L63.191 166.8L63.0807 166.956L62.9728 167.111L62.8672 167.267L62.7641 167.423L62.6634 167.578L62.5651 167.732L62.4693 167.887L62.3761 168.04L62.2853 168.193L62.1971 168.345L62.1114 168.496L62.0282 168.647L61.9476 168.796L61.8695 168.943L61.794 169.09L61.721 169.235L61.6505 169.379L61.5826 169.521L61.5171 169.662L61.4542 169.8L61.3938 169.937L61.3358 170.072L61.2802 170.205L61.2271 170.336L61.1763 170.465L61.128 170.591L61.0819 170.715L61.0381 170.836L60.9966 170.955L60.9573 171.072L60.9201 171.185L60.8851 171.296L60.8522 171.404L60.8213 171.509L60.7924 171.611L60.7655 171.71L60.7404 171.806L60.7171 171.899L60.6956 171.989L60.6758 172.075L60.6577 172.157L60.6411 172.237L60.6261 172.313L60.6125 172.385L60.6003 172.453L60.5894 172.518L60.5798 172.58L60.5713 172.637L60.564 172.691L60.5577 172.741L60.5523 172.787L60.5478 172.83L60.5441 172.868L60.5411 172.902L60.5388 172.933L60.5371 172.96L60.5358 172.982L60.5349 173.001L60.5344 173.015L60.5342 173.025L60.534 173.032L60.534 173.034L60.534 173.032L60.5339 173.027L60.5337 173.017L60.5332 173.003L60.5324 172.985L60.5312 172.963L60.5296 172.937L60.5273 172.908L60.5245 172.874L60.5209 172.836L60.5166 172.794L60.5113 172.749L60.5052 172.699L60.498 172.646L60.4897 172.589L60.4802 172.528L60.4696 172.464L60.4576 172.396L60.4442 172.324L60.4294 172.249L60.4131 172.17L60.3952 172.088L60.3757 172.002L60.3545 171.914L60.3315 171.821L60.3067 171.726L60.2801 171.627L60.2515 171.526L60.2209 171.421L60.1883 171.314L60.1536 171.203L60.1168 171.09L60.0779 170.974L60.0367 170.855L59.9933 170.734L59.9476 170.611L59.8996 170.485L59.8492 170.357L59.7965 170.226L59.7413 170.094L59.6837 169.959L59.6236 169.822L59.5611 169.684L59.4961 169.544L59.4286 169.402L59.3585 169.258L59.2859 169.113L59.2108 168.967L59.1331 168.819L59.0529 168.67L58.9701 168.52L58.8848 168.369L58.797 168.217L58.7066 168.065L58.6137 167.911L58.5184 167.757L58.4205 167.602L58.3202 167.447L58.2174 167.292L58.1122 167.136L58.0047 166.98L57.8947 166.825L57.7825 166.669L57.6679 166.513L57.5511 166.358L57.4321 166.202L57.311 166.048L57.1877 165.893L57.0623 165.74L56.9349 165.586L56.8055 165.434L56.6742 165.283L56.5411 165.132L56.4061 164.983L56.2694 164.834L56.131 164.687L55.991 164.541L55.8495 164.396L55.7065 164.253L55.562 164.111L55.4163 163.97L55.2693 163.832L55.1211 163.695L54.9718 163.559L54.8215 163.426L54.6703 163.294L54.5181 163.164L54.3653 163.036L54.2117 162.91L54.0575 162.786L53.9029 162.665L53.7478 162.545L53.5923 162.428L53.4367 162.313L53.2808 162.2L53.125 162.09L52.9691 161.981L52.8134 161.876L52.6579 161.772L52.5027 161.671L52.348 161.573L52.1938 161.477L52.0401 161.384L51.8872 161.293L51.7351 161.204L51.5838 161.118L51.4336 161.035L51.2844 160.954L51.1365 160.876L50.9898 160.8L50.8445 160.727L50.7006 160.656L50.5583 160.588L50.4177 160.522L50.2788 160.459L50.1418 160.399L50.0066 160.34L49.8736 160.285L49.7426 160.231L49.6138 160.18L49.4873 160.132L49.3631 160.086L49.2414 160.042L49.1222 160L49.0057 159.96L48.8918 159.923L48.7807 159.888L48.6725 159.855L48.5671 159.824L48.4648 159.795L48.3655 159.768L48.2693 159.742L48.1764 159.719L48.0867 159.697L48.0003 159.677L47.9173 159.659L47.8377 159.643L47.7616 159.627L47.689 159.614L47.6201 159.601L47.5548 159.59L47.4932 159.581L47.4353 159.572L47.3811 159.565L47.3308 159.558L47.2844 159.553L47.2418 159.548L47.2031 159.544L47.1683 159.541L47.1375 159.539L47.1107 159.537L47.0878 159.536L47.069 159.535L47.0542 159.535L47.0434 159.534L47.0367 159.534L47.0341 159.534L47.0354 159.534L47.0409 159.534L47.0503 159.534L47.0639 159.533L47.0814 159.533L47.103 159.531L47.1285 159.53L47.1581 159.528L47.1916 159.525L47.229 159.521L47.2704 159.517L47.3156 159.512L47.3647 159.506L47.4176 159.499L47.4743 159.49L47.5348 159.481L47.5989 159.471L47.6667 159.459L47.7381 159.445L47.8131 159.431L47.8915 159.415L47.9735 159.397L48.0588 159.377L48.1474 159.356L48.2394 159.333L48.3345 159.309L48.4328 159.282L48.5342 159.254L48.6386 159.223L48.7459 159.191L48.8561 159.157L48.9691 159.12L49.0848 159.081L49.2032 159.04L49.3241 158.997L49.4474 158.951L49.5732 158.904L49.7013 158.853L49.8316 158.801L49.964 158.746L50.0985 158.688L50.2349 158.629L50.3733 158.566L50.5133 158.501L50.6551 158.434L50.7985 158.364L50.9433 158.292L51.0896 158.217L51.2372 158.139L51.386 158.059L51.5359 157.977L51.6868 157.892L51.8386 157.804L51.9913 157.714L52.1447 157.621L52.2988 157.526L52.4534 157.428L52.6084 157.328L52.7638 157.226L52.9195 157.121L53.0753 157.013L53.2312 156.904L53.387 156.792L53.5428 156.677L53.6983 156.561L53.8535 156.442L54.0083 156.321L54.1627 156.198L54.3164 156.072L54.4695 155.945L54.6219 155.816L54.7734 155.685L54.924 155.552L55.0737 155.417L55.2222 155.28L55.3696 155.142L55.5158 155.002L55.6606 154.861L55.8041 154.718L55.9461 154.574L56.0866 154.428L56.2255 154.281L56.3627 154.133L56.4983 153.984L56.632 153.834L56.7639 153.682L56.8939 153.53L57.0219 153.378L57.148 153.224L57.2719 153.07L57.3938 152.915L57.5135 152.76L57.631 152.605L57.7462 152.449L57.8592 152.293L57.9699 152.137L58.0782 151.982L58.1842 151.826L58.2877 151.67L58.3888 151.515L58.4875 151.36L58.5836 151.206L58.6773 151.052L58.7685 150.899L58.8571 150.747L58.9432 150.596L59.0268 150.446L59.1078 150.296L59.1863 150.148L59.2623 150.001L59.3357 149.856L59.4065 149.712L59.4749 149.57L59.5407 149.429L59.604 149.29L59.6648 149.153L59.7232 149.017L59.7792 148.884L59.8327 148.753L59.8838 148.624L59.9326 148.497L59.979 148.373L60.0231 148.251L60.065 148.132L60.1047 148.015L60.1421 147.901L60.1775 147.79L60.2107 147.681L60.2419 147.575L60.2712 147.473L60.2984 147.373L60.3238 147.277L60.3474 147.184L60.3691 147.094L60.3892 147.007L60.4076 146.924L60.4244 146.844L60.4397 146.768L60.4535 146.695L60.4659 146.626L60.477 146.56L60.4868 146.498L60.4955 146.44L60.503 146.385L60.5095 146.335L60.515 146.288L60.5196 146.245L60.5234 146.206L60.5265 146.171L60.5289 146.14L60.5308 146.113L60.5321 146.09L60.533 146.07L60.5336 146.055L60.5339 146.044L60.534 146.037L60.534 146.034L60.534 146.035L60.5341 146.04L60.5343 146.049L60.5347 146.063L60.5355 146.08L60.5366 146.101L60.5382 146.126L60.5403 146.156L60.5431 146.189L60.5465 146.226L60.5508 146.267L60.5558 146.312L60.5619 146.361L60.5689 146.413L60.577 146.47L60.5862 146.53L60.5967 146.594L60.6085 146.661L60.6216 146.732L60.6362 146.807L60.6523 146.885L60.6699 146.967L60.6891 147.052L60.7101 147.14L60.7328 147.232L60.7573 147.327L60.7836 147.425L60.8119 147.526L60.8422 147.63L60.8744 147.737L60.9088 147.847L60.9452 147.96L60.9838 148.076L61.0246 148.194L61.0677 148.314L61.113 148.438L61.1607 148.563L61.2107 148.691L61.263 148.821L61.3178 148.953L61.375 149.088L61.4347 149.224L61.4968 149.362L61.5614 149.502L61.6286 149.644L61.6982 149.787L61.7704 149.932L61.8451 150.078L61.9224 150.225L62.0022 150.374L62.0846 150.524L62.1695 150.675L62.2569 150.827L62.3469 150.979L62.4394 151.133L62.5343 151.287L62.6318 151.441L62.7317 151.596L62.8341 151.752L62.9389 151.907L63.0461 152.063L63.1557 152.219L63.2675 152.375L63.3817 152.53L63.4982 152.686L63.6168 152.841L63.7377 152.996L63.8606 153.15L63.9857 153.304L64.1128 153.457L64.2418 153.61L64.3728 153.761L64.5057 153.912L64.6404 154.062L64.7768 154.21L64.9149 154.358L65.0546 154.504L65.1959 154.649L65.3387 154.793L65.4829 154.935L65.6285 155.076L65.7753 155.215L65.9233 155.352L66.0724 155.488L66.2226 155.621L66.3737 155.754L66.5256 155.884L66.6784 156.012L66.8319 156.138L66.9859 156.262L67.1405 156.384L67.2956 156.504L67.451 156.622L67.6066 156.737L67.7624 156.85L67.9183 156.961L68.0741 157.07L68.2299 157.176L68.3854 157.28L68.5406 157.381L68.6955 157.48L68.8498 157.576L69.0035 157.67L69.1566 157.761L69.3088 157.85L69.4602 157.937L69.6106 158.02L69.76 158.102L69.9081 158.18L70.055 158.256L70.2006 158.33L70.3446 158.401L70.4872 158.47L70.6281 158.536L70.7673 158.599L70.9046 158.66L71.04 158.719L71.1735 158.775L71.3048 158.829L71.4339 158.88L71.5608 158.929L71.6853 158.975L71.8074 159.02L71.927 159.062L72.044 159.102L72.1583 159.139L72.2698 159.175L72.3785 159.208L72.4843 159.24L72.5872 159.269L72.687 159.296L72.7836 159.322L72.8771 159.346L72.9673 159.368L73.0543 159.388L73.1378 159.406L73.2179 159.423L73.2946 159.439L73.3677 159.453L73.4372 159.465L73.5031 159.476L73.5653 159.486L73.6238 159.495L73.6786 159.503L73.7295 159.509L73.7766 159.515L73.8198 159.519L73.8591 159.523L73.8945 159.526L73.9259 159.529L73.9534 159.531L73.9769 159.532L73.9963 159.533L74.0118 159.534L74.0232 159.534L74.0305 159.534L74.0341 159.534Z" stroke="#FAFAFA" stroke-width="2"/>
<path fill-rule="evenodd" clip-rule="evenodd" d="M191.324 64.9404L191.322 64.9408L191.318 64.9421L191.311 64.9442L191.3 64.9473L191.287 64.9515L191.272 64.9567L191.253 64.963L191.231 64.9705L191.207 64.9793L191.18 64.9893L191.151 65.0007L191.118 65.0134L191.084 65.0276L191.046 65.0433L191.006 65.0605L190.964 65.0793L190.919 65.0998L190.872 65.1218L190.822 65.1456L190.77 65.1711L190.716 65.1984L190.66 65.2275L190.601 65.2585L190.54 65.2913L190.478 65.3261L190.413 65.3628L190.347 65.4015L190.278 65.4421L190.208 65.4848L190.136 65.5296L190.063 65.5764L189.988 65.6253L189.911 65.6763L189.833 65.7294L189.753 65.7846L189.672 65.842L189.59 65.9015L189.507 65.9632L189.422 66.027L189.337 66.093L189.25 66.1611L189.163 66.2315L189.074 66.3039L188.985 66.3786L188.895 66.4554L188.805 66.5343L188.713 66.6153L188.622 66.6985L188.53 66.7838L188.437 66.8711L188.344 66.9605L188.251 67.0519L188.158 67.1454L188.065 67.2408L187.972 67.3383L187.878 67.4376L187.785 67.5389L187.692 67.642L187.599 67.7469L187.507 67.8537L187.415 67.9622L187.323 68.0724L187.232 68.1844L187.141 68.2979L187.051 68.413L186.961 68.5297L186.873 68.6479L186.785 68.7675L186.698 68.8885L186.611 69.0108L186.526 69.1345L186.442 69.2593L186.359 69.3853L186.276 69.5124L186.195 69.6406L186.115 69.7698L186.037 69.8998L185.959 70.0308L185.883 70.1625L185.808 70.295L185.735 70.4281L185.663 70.5619L185.592 70.6961L185.523 70.8308L185.456 70.9659L185.389 71.1014L185.325 71.237L185.262 71.3729L185.201 71.5088L185.141 71.6448L185.083 71.7807L185.026 71.9165L184.972 72.0521L184.918 72.1874L184.867 72.3225L184.817 72.457L184.769 72.5911L184.723 72.7247L184.678 72.8576L184.635 72.9898L184.594 73.1212L184.555 73.2517L184.517 73.3813L184.481 73.5099L184.446 73.6374L184.413 73.7638L184.382 73.889L184.353 74.0128L184.325 74.1353L184.298 74.2564L184.274 74.376L184.25 74.494L184.229 74.6104L184.209 74.7251L184.19 74.838L184.173 74.9492L184.157 75.0584L184.142 75.1657L184.129 75.271L184.117 75.3742L184.107 75.4753L184.098 75.5742L184.089 75.6709L184.082 75.7653L184.077 75.8574L184.072 75.9471L184.068 76.0344L184.065 76.1192L184.063 76.2015L184.062 76.2812L184.062 76.3583L184.062 76.4328L184.063 76.5046L184.065 76.5737L184.067 76.6401L184.07 76.7037L184.074 76.7645L184.077 76.8224L184.082 76.8775L184.086 76.9297L184.091 76.979L184.096 77.0254L184.101 77.0688L184.106 77.1093L184.111 77.1469L184.116 77.1814L184.121 77.213L184.126 77.2416L184.131 77.2671L184.135 77.2897L184.139 77.3093L184.142 77.3259L184.145 77.3395L184.148 77.3501L184.149 77.3577L184.151 77.3624L184.151 77.3641L184.151 77.3628L184.149 77.3587L184.147 77.3516L184.144 77.3417L184.14 77.3289L184.135 77.3132L184.129 77.2948L184.122 77.2735L184.113 77.2495L184.103 77.2228L184.092 77.1934L184.079 77.1614L184.065 77.1267L184.049 77.0895L184.032 77.0497L184.014 77.0075L183.993 76.9628L183.971 76.9157L183.948 76.8663L183.922 76.8146L183.895 76.7606L183.866 76.7044L183.835 76.6461L183.803 76.5857L183.768 76.5232L183.732 76.4588L183.693 76.3924L183.653 76.3242L183.61 76.2543L183.565 76.1825L183.519 76.1091L183.47 76.0341L183.419 75.9576L183.366 75.8795L183.311 75.8001L183.254 75.7193L183.195 75.6372L183.133 75.5539L183.07 75.4695L183.004 75.3839L182.936 75.2974L182.866 75.21L182.793 75.1216L182.719 75.0325L182.642 74.9427L182.563 74.8521L182.483 74.761L182.4 74.6694L182.314 74.5773L182.227 74.4849L182.138 74.3921L182.047 74.2991L181.953 74.2059L181.858 74.1126L181.761 74.0193L181.662 73.926L181.561 73.8328L181.458 73.7398L181.353 73.6469L181.246 73.5544L181.138 73.4622L181.028 73.3705L180.916 73.2792L180.803 73.1884L180.688 73.0983L180.571 73.0088L180.453 72.92L180.333 72.832L180.213 72.7448L180.09 72.6585L179.967 72.5732L179.842 72.4888L179.716 72.4054L179.589 72.3231L179.461 72.242L179.332 72.162L179.202 72.0832L179.071 72.0056L178.939 71.9294L178.807 71.8545L178.674 71.781L178.54 71.7088L178.406 71.6381L178.271 71.5689L178.136 71.5012L178.001 71.435L177.865 71.3703L177.729 71.3072L177.593 71.2458L177.457 71.1859L177.322 71.1276L177.186 71.071L177.05 71.0161L176.915 70.9629L176.78 70.9113L176.645 70.8614L176.511 70.8132L176.377 70.7668L176.244 70.722L176.112 70.6789L175.981 70.6376L175.85 70.5979L175.72 70.56L175.592 70.5237L175.464 70.4891L175.338 70.4561L175.212 70.4248L175.088 70.3952L174.966 70.3671L174.845 70.3407L174.725 70.3158L174.607 70.2925L174.49 70.2707L174.375 70.2505L174.262 70.2317L174.151 70.2143L174.042 70.1983L173.934 70.1838L173.829 70.1705L173.725 70.1586L173.624 70.148L173.525 70.1385L173.428 70.1303L173.334 70.1232L173.241 70.1172L173.151 70.1123L173.064 70.1084L172.979 70.1054L172.896 70.1034L172.816 70.1022L172.739 70.1018L172.664 70.1022L172.592 70.1033L172.523 70.105L172.456 70.1074L172.393 70.1103L172.332 70.1136L172.274 70.1174L172.218 70.1216L172.166 70.1261L172.116 70.1308L172.07 70.1357L172.026 70.1408L171.985 70.1459L171.947 70.151L171.913 70.1561L171.881 70.1611L171.852 70.1659L171.826 70.1704L171.803 70.1747L171.784 70.1786L171.767 70.1821L171.753 70.1852L171.742 70.1876L171.734 70.1895L171.729 70.1907L171.727 70.1912L171.728 70.191L171.732 70.1899L171.739 70.1879L171.749 70.1849L171.761 70.1809L171.777 70.1759L171.795 70.1697L171.816 70.1624L171.84 70.1539L171.866 70.144L171.896 70.1329L171.927 70.1203L171.962 70.1064L171.999 70.0909L172.038 70.074L172.08 70.0554L172.125 70.0353L172.172 70.0135L172.221 69.99L172.273 69.9647L172.326 69.9377L172.382 69.9089L172.441 69.8782L172.501 69.8457L172.563 69.8112L172.627 69.7748L172.694 69.7365L172.762 69.6961L172.832 69.6537L172.903 69.6093L172.976 69.5629L173.051 69.5143L173.128 69.4637L173.206 69.4109L173.285 69.356L173.366 69.299L173.448 69.2398L173.531 69.1785L173.615 69.115L173.701 69.0493L173.787 68.9815L173.874 68.9115L173.963 68.8394L174.052 68.7651L174.142 68.6887L174.232 68.6101L174.323 68.5294L174.415 68.4465L174.507 68.3616L174.599 68.2746L174.692 68.1855L174.785 68.0944L174.878 68.0013L174.971 67.9061L175.065 67.809L175.158 67.71L175.251 67.609L175.344 67.5062L175.437 67.4016L175.53 67.2951L175.622 67.1868L175.714 67.0769L175.805 66.9652L175.896 66.8519L175.986 66.7371L176.075 66.6206L176.164 66.5027L176.252 66.3833L176.34 66.2625L176.426 66.1404L176.511 66.017L176.596 65.8923L176.679 65.7665L176.762 65.6395L176.843 65.5115L176.923 65.3825L177.002 65.2526L177.08 65.1218L177.156 64.9902L177.231 64.8578L177.305 64.7248L177.377 64.5911L177.448 64.457L177.517 64.3223L177.585 64.1873L177.651 64.0519L177.716 63.9163L177.779 63.7804L177.841 63.6445L177.901 63.5085L177.959 63.3726L178.016 63.2368L178.071 63.1011L178.124 62.9657L178.176 62.8307L178.226 62.696L178.274 62.5618L178.321 62.4282L178.366 62.2952L178.409 62.1629L178.451 62.0314L178.49 61.9007L178.528 61.7709L178.565 61.6422L178.6 61.5145L178.633 61.3879L178.664 61.2625L178.694 61.1385L178.722 61.0157L178.749 60.8944L178.774 60.7746L178.797 60.6563L178.819 60.5397L178.839 60.4247L178.858 60.3115L178.876 60.2001L178.892 60.0905L178.906 59.9829L178.92 59.8773L178.932 59.7738L178.943 59.6723L178.952 59.5731L178.96 59.476L178.968 59.3812L178.974 59.2888L178.979 59.1987L178.983 59.111L178.986 59.0258L178.988 58.9431L178.989 58.863L178.99 58.7854L178.989 58.7105L178.988 58.6383L178.987 58.5687L178.984 58.5019L178.981 58.4379L178.978 58.3767L178.974 58.3183L178.97 58.2628L178.966 58.2101L178.961 58.1603L178.956 58.1135L178.951 58.0695L178.946 58.0286L178.941 57.9906L178.936 57.9556L178.931 57.9235L178.926 57.8945L178.921 57.8684L178.917 57.8453L178.913 57.8253L178.909 57.8082L178.906 57.7941L178.904 57.7831L178.902 57.775L178.901 57.7698L178.9 57.7676L178.9 57.7684L178.901 57.7721L178.903 57.7787L178.906 57.7882L178.91 57.8006L178.915 57.8157L178.921 57.8338L178.928 57.8546L178.937 57.8781L178.946 57.9044L178.958 57.9334L178.97 57.965L178.984 57.9992L178.999 58.036L179.016 58.0754L179.034 58.1173L179.054 58.1616L179.076 58.2083L179.099 58.2573L179.125 58.3087L179.151 58.3623L179.18 58.4182L179.211 58.4762L179.243 58.5362L179.277 58.5984L179.314 58.6625L179.352 58.7285L179.392 58.7964L179.434 58.8661L179.478 58.9376L179.525 59.0107L179.573 59.0855L179.624 59.1618L179.676 59.2396L179.731 59.3188L179.788 59.3994L179.847 59.4813L179.908 59.5644L179.971 59.6487L180.037 59.734L180.104 59.8204L180.174 59.9077L180.246 59.9959L180.32 60.0849L180.397 60.1746L180.475 60.2651L180.555 60.3561L180.638 60.4476L180.723 60.5396L180.81 60.632L180.899 60.7247L180.99 60.8177L181.083 60.9109L181.178 61.0042L181.275 61.0975L181.373 61.1908L181.474 61.284L181.577 61.3771L181.681 61.47L181.788 61.5625L181.896 61.6548L182.006 61.7466L182.117 61.838L182.23 61.9288L182.345 62.019L182.461 62.1086L182.579 62.1975L182.698 62.2857L182.819 62.373L182.941 62.4594L183.065 62.545L183.189 62.6295L183.315 62.713L183.442 62.7955L183.57 62.8769L183.699 62.957L183.828 63.036L183.959 63.1137L184.091 63.1902L184.223 63.2653L184.356 63.3391L184.49 63.4114L184.624 63.4823L184.758 63.5518L184.893 63.6198L185.029 63.6862L185.164 63.7511L185.3 63.8145L185.436 63.8762L185.572 63.9363L185.708 63.9949L185.844 64.0517L185.979 64.1069L186.115 64.1604L186.25 64.2123L186.385 64.2624L186.519 64.3109L186.653 64.3576L186.786 64.4026L186.918 64.446L187.05 64.4876L187.18 64.5275L187.31 64.5658L187.439 64.6023L187.567 64.6372L187.693 64.6704L187.819 64.7019L187.943 64.7319L188.066 64.7602L188.187 64.7869L188.307 64.812L188.426 64.8355L188.542 64.8575L188.658 64.8781L188.771 64.8971L188.882 64.9147L188.992 64.9309L189.1 64.9457L189.206 64.9591L189.309 64.9712L189.411 64.9821L189.51 64.9917L189.608 65.0001L189.703 65.0074L189.795 65.0136L189.886 65.0187L189.973 65.0227L190.059 65.0258L190.142 65.028L190.222 65.0294L190.3 65.0298L190.375 65.0296L190.447 65.0286L190.517 65.027L190.584 65.0247L190.648 65.0219L190.71 65.0186L190.769 65.0149L190.824 65.0108L190.877 65.0063L190.927 65.0016L190.974 64.9967L191.018 64.9917L191.06 64.9866L191.098 64.9815L191.133 64.9764L191.165 64.9714L191.195 64.9665L191.221 64.9619L191.244 64.9576L191.265 64.9536L191.282 64.95L191.296 64.9469L191.308 64.9444L191.316 64.9424L191.321 64.9411L191.324 64.9404Z" stroke="#FAFAFA" stroke-width="2"/>
<defs>
<linearGradient id="paint0_linear_1071_1659" x1="95.4772" y1="138.722" x2="60.5519" y2="17.8406" gradientUnits="userSpaceOnUse">
<stop offset="0.00478469" stop-color="#343061"/>
<stop offset="0.222529" stop-color="#6E4B74"/>
<stop offset="0.424683" stop-color="#C27193"/>
<stop offset="0.626411" stop-color="#EE988E"/>
<stop offset="0.805208" stop-color="#F5BB95"/>
<stop offset="0.9875" stop-color="#F5D6A2"/>
</linearGradient>
<linearGradient id="paint1_linear_1071_1659" x1="71.9365" y1="272.825" x2="120.5" y2="184.797" gradientUnits="userSpaceOnUse">
<stop offset="0.00478469" stop-color="#343061"/>
<stop offset="0.222529" stop-color="#6E4B74"/>
<stop offset="0.424683" stop-color="#C27193"/>
<stop offset="0.626411" stop-color="#EE988E"/>
<stop offset="0.805208" stop-color="#F5BB95"/>
<stop offset="0.9875" stop-color="#F5D6A2"/>
</linearGradient>
<linearGradient id="paint2_linear_1071_1659" x1="190.873" y1="168.375" x2="189.587" y2="102.282" gradientUnits="userSpaceOnUse">
<stop offset="0.00478469" stop-color="#343061"/>
<stop offset="0.222529" stop-color="#6E4B74"/>
<stop offset="0.424683" stop-color="#C27193"/>
<stop offset="0.626411" stop-color="#EE988E"/>
<stop offset="0.805208" stop-color="#F5BB95"/>
<stop offset="0.9875" stop-color="#F5D6A2"/>
</linearGradient>
</defs>
</svg>
