<svg width="225" height="289" viewBox="0 0 225 289" fill="none" xmlns="http://www.w3.org/2000/svg">
<path fill-rule="evenodd" clip-rule="evenodd" d="M140.239 61.8095L140.229 61.812L140.202 61.8199L140.156 61.8335L140.092 61.8532L140.009 61.8792L139.909 61.9121L139.791 61.952L139.656 61.9995L139.503 62.0547L139.333 62.118L139.147 62.1898L138.943 62.2703L138.723 62.3599L138.487 62.4589L138.235 62.5675L137.967 62.6861L137.684 62.8149L137.386 62.9541L137.073 63.1041L136.745 63.2651L136.404 63.4373L136.048 63.621L135.679 63.8163L135.297 64.0235L134.902 64.2428L134.495 64.4744L134.075 64.7183L133.644 64.9749L133.202 65.2443L132.748 65.5265L132.284 65.8218L131.811 66.1302L131.327 66.4519L130.834 66.7869L130.332 67.1353L129.822 67.4972L129.303 67.8727L128.777 68.2618L128.244 68.6645L127.704 69.0808L127.158 69.5108L126.606 69.9545L126.049 70.4117L125.486 70.8826L124.919 71.367L124.348 71.8649L123.773 72.3762L123.195 72.9008L122.614 73.4387L122.031 73.9897L121.445 74.5537L120.859 75.1305L120.271 75.7201L119.682 76.3223L119.094 76.9368L118.506 77.5635L117.918 78.2023L117.331 78.8528L116.746 79.5149L116.163 80.1884L115.582 80.873L115.003 81.5684L114.428 82.2744L113.856 82.9907L113.288 83.717L112.724 84.4531L112.164 85.1986L111.61 85.9531L111.061 86.7165L110.517 87.4882L109.979 88.2681L109.447 89.0557L108.922 89.8506L108.404 90.6526L107.893 91.4611L107.389 92.2759L106.893 93.0965L106.405 93.9226L105.925 94.7537L105.453 95.5894L104.991 96.4292L104.537 97.2729L104.092 98.1198L103.656 98.9696L103.23 99.8219L102.813 100.676L102.407 101.532L102.01 102.389L101.623 103.247L101.247 104.104L100.88 104.962L100.525 105.818L100.179 106.674L99.8445 107.528L99.5205 108.379L99.207 109.228L98.9044 110.074L98.6124 110.917L98.3312 111.755L98.0608 112.589L97.8011 113.418L97.5522 114.241L97.3139 115.059L97.0862 115.87L96.8691 116.675L96.6625 117.472L96.4663 118.262L96.2804 119.043L96.1047 119.816L95.9391 120.58L95.7834 121.334L95.6375 122.079L95.5012 122.813L95.3743 123.536L95.2568 124.249L95.1483 124.95L95.0488 125.639L94.9578 126.316L94.8754 126.98L94.8012 127.631L94.7349 128.269L94.6764 128.893L94.6253 129.503L94.5815 130.098L94.5445 130.679L94.5142 131.245L94.4903 131.796L94.4724 132.331L94.4602 132.85L94.4534 133.353L94.4517 133.839L94.4547 134.309L94.4622 134.762L94.4738 135.198L94.4891 135.617L94.5077 136.018L94.5294 136.401L94.5538 136.767L94.5804 137.114L94.609 137.444L94.6391 137.755L94.6704 138.047L94.7025 138.321L94.735 138.577L94.7675 138.813L94.7997 139.031L94.8311 139.231L94.8614 139.411L94.8902 139.572L94.917 139.715L94.9416 139.838L94.9635 139.943L94.9824 140.029L94.9978 140.096L95.0094 140.144L95.0168 140.173L95.0196 140.184L95.0174 140.176L95.01 140.15L94.9968 140.105L94.9776 140.043L94.952 139.962L94.9197 139.863L94.8802 139.747L94.8333 139.613L94.7787 139.461L94.7159 139.293L94.6447 139.107L94.5647 138.905L94.4757 138.687L94.3774 138.452L94.2694 138.201L94.1514 137.934L94.0233 137.653L93.8847 137.355L93.7353 137.044L93.575 136.717L93.4035 136.377L93.2205 136.022L93.0259 135.654L92.8194 135.273L92.6008 134.879L92.37 134.473L92.1267 134.055L91.8708 133.624L91.6022 133.183L91.3207 132.73L91.0261 132.267L90.7184 131.794L90.3975 131.311L90.0632 130.819L89.7155 130.318L89.3543 129.808L88.9795 129.29L88.5912 128.765L88.1892 128.232L87.7735 127.693L87.3442 127.147L86.9013 126.595L86.4447 126.038L85.9745 125.476L85.4907 124.909L84.9935 124.338L84.4828 123.763L83.9588 123.185L83.4215 122.605L82.8711 122.021L82.3077 121.436L81.7314 120.849L81.1424 120.262L80.5407 119.673L79.9267 119.084L79.3005 118.496L78.6622 117.908L78.0121 117.321L77.3504 116.736L76.6774 116.152L75.9932 115.57L75.2981 114.992L74.5924 114.416L73.8765 113.843L73.1504 113.275L72.4146 112.71L71.6694 112.15L70.9151 111.595L70.1519 111.045L69.3803 110.501L68.6006 109.962L67.8131 109.43L67.0182 108.904L66.2164 108.385L65.4078 107.873L64.593 107.368L63.7724 106.871L62.9462 106.382L62.1151 105.901L61.2793 105.429L60.4392 104.965L59.5954 104.51L58.7482 104.064L57.8981 103.628L57.0456 103.2L56.191 102.783L55.3348 102.375L54.4775 101.977L53.6195 101.589L52.7613 101.211L51.9034 100.844L51.0462 100.487L50.1902 100.141L49.3358 99.8047L48.4835 99.4794L47.6339 99.1648L46.7873 98.8609L45.9442 98.5678L45.1051 98.2854L44.2705 98.0138L43.4408 97.7529L42.6165 97.5027L41.798 97.2633L40.9858 97.0344L40.1805 96.8162L39.3823 96.6084L38.5918 96.411L37.8094 96.224L37.0356 96.0471L36.2707 95.8803L35.5153 95.7235L34.7697 95.5765L34.0343 95.4391L33.3097 95.3112L32.5961 95.1926L31.8939 95.0831L31.2037 94.9825L30.5257 94.8906L29.8603 94.8072L29.2079 94.732L28.5688 94.6648L27.9434 94.6054L27.3321 94.5534L26.7351 94.5087L26.1529 94.471L25.5856 94.4399L25.0336 94.4151L24.4972 94.3965L23.9767 94.3836L23.4723 94.3761L22.9843 94.3738L22.5129 94.3763L22.0584 94.3832L21.621 94.3942L21.2009 94.409L20.7983 94.4272L20.4134 94.4485L20.0463 94.4724L19.6973 94.4987L19.3664 94.527L19.0538 94.5568L18.7597 94.5879L18.484 94.6197L18.227 94.6521L17.9887 94.6845L17.7692 94.7166L17.5686 94.748L17.3867 94.7783L17.2238 94.8071L17.0799 94.834L16.9548 94.8587L16.8486 94.8808L16.7614 94.8999L16.6929 94.9155L16.6433 94.9274L16.6124 94.9351L16.6002 94.9383L16.6065 94.9366L16.6312 94.9296L16.6743 94.9169L16.7356 94.8983L16.815 94.8732L16.9123 94.8415L17.0274 94.8027L17.16 94.7565L17.31 94.7025L17.4771 94.6405L17.6612 94.5701L17.8621 94.491L18.0794 94.4028L18.313 94.3054L18.5625 94.1983L18.8278 94.0813L19.1085 93.9542L19.4043 93.8166L19.715 93.6684L20.0402 93.5091L20.3797 93.3387L20.733 93.1569L21.0999 92.9635L21.4799 92.7582L21.8729 92.5408L22.2783 92.3112L22.6958 92.0692L23.1251 91.8146L23.5657 91.5473L24.0173 91.2672L24.4795 90.974L24.9519 90.6677L25.4341 90.3481L25.9256 90.0152L26.426 89.6689L26.935 89.3092L27.4521 88.9359L27.9769 88.5489L28.509 88.1484L29.0478 87.7342L29.593 87.3064L30.1442 86.865L30.7009 86.4099L31.2627 85.9412L31.8291 85.4589L32.3997 84.9632L32.974 84.454L33.5516 83.9315L34.1321 83.3957L34.715 82.8468L35.3 82.2849L35.8865 81.7101L36.4741 81.1225L37.0624 80.5223L37.6509 79.9098L38.2394 79.285L38.8272 78.6481L39.4141 77.9994L39.9996 77.3392L40.5832 76.6675L41.1647 75.9847L41.7435 75.2909L42.3194 74.5866L42.8919 73.8719L43.4607 73.1472L44.0253 72.4126L44.5855 71.6686L45.1408 70.9155L45.6909 70.1535L46.2356 69.3831L46.7744 68.6045L47.307 67.8181L47.8331 67.0243L48.3525 66.2235L48.8648 65.4159L49.3697 64.6021L49.867 63.7824L50.3564 62.9572L50.8377 62.1269L51.3106 61.2919L51.7748 60.4527L52.2302 59.6096L52.6766 58.7632L53.1137 57.9137L53.5414 57.0618L53.9595 56.2078L54.3678 55.3522L54.7662 54.4954L55.1546 53.6379L55.5327 52.7802L55.9006 51.9226L56.258 51.0658L56.605 50.2101L56.9414 49.356L57.2672 48.5039L57.5823 47.6544L57.8867 46.808L58.1804 45.965L58.4633 45.1259L58.7354 44.2913L58.9968 43.4616L59.2475 42.6372L59.4875 41.8186L59.7168 41.0063L59.9356 40.2007L60.1438 39.4022L60.3417 38.6114L60.5292 37.8287L60.7065 37.0545L60.8738 36.2892L61.031 35.5333L61.1785 34.7872L61.3163 34.0513L61.4447 33.326L61.5637 32.6118L61.6736 31.909L61.7746 31.218L61.8668 30.5393L61.9506 29.8731L62.0261 29.2199L62.0936 28.5799L62.1534 27.9537L62.2056 27.3414L62.2506 26.7435L62.2886 26.1602L62.32 25.5919L62.3449 25.0389L62.3638 24.5014L62.3769 23.9797L62.3845 23.4742L62.387 22.985L62.3846 22.5125L62.3778 22.0567L62.3669 21.6181L62.3522 21.1967L62.334 20.7928L62.3128 20.4066L62.2888 20.0382L62.2625 19.6878L62.2342 19.3555L62.2043 19.0416L62.1732 18.746L62.1412 18.469L62.1088 18.2106L62.0763 17.9708L62.044 17.7499L62.0124 17.5477L61.9819 17.3645L61.9529 17.2001L61.9257 17.0546L61.9007 16.9281L61.8784 16.8204L61.859 16.7317L61.843 16.6618L61.8308 16.6106L61.8227 16.5783L61.8191 16.5645L61.8205 16.5694L61.8271 16.5926L61.8393 16.6343L61.8575 16.6942L61.882 16.7721L61.9133 16.868L61.9516 16.9816L61.9973 17.1128L62.0507 17.2614L62.1122 17.4271L62.182 17.6099L62.2605 17.8094L62.3481 18.0254L62.4449 18.2577L62.5514 18.5059L62.6677 18.77L62.7942 19.0494L62.9311 19.3441L63.0787 19.6536L63.2373 19.9776L63.407 20.3159L63.5881 20.6681L63.7809 21.0339L63.9855 21.413L64.2021 21.8049L64.431 22.2093L64.6723 22.6259L64.9262 23.0542L65.1927 23.494L65.4722 23.9448L65.7647 24.4061L66.0702 24.8777L66.3891 25.3592L66.7212 25.85L67.0668 26.3498L67.4258 26.8581L67.7985 27.3746L68.1847 27.8989L68.5845 28.4304L68.9979 28.9688L69.4251 29.5136L69.8659 30.0644L70.3203 30.6207L70.7883 31.1822L71.2699 31.7483L71.765 32.3186L72.2735 32.8927L72.7954 33.4702L73.3306 34.0506L73.8789 34.6335L74.4403 35.2184L75.0145 35.8049L75.6016 36.3925L76.2012 36.9809L76.8132 37.5696L77.4376 38.1582L78.0739 38.7463L78.7222 39.3334L79.382 39.9192L80.0533 40.5032L80.7357 41.085L81.4291 41.6643L82.133 42.2406L82.8474 42.8135L83.5719 43.3828L84.3061 43.948L85.0499 44.5087L85.8028 45.0647L86.5646 45.6155L87.3348 46.1608L88.1133 46.7003L88.8995 47.2337L89.6933 47.7606L90.4941 48.2808L91.3016 48.7939L92.1154 49.2997L92.9351 49.7979L93.7604 50.2882L94.5908 50.7704L95.4259 51.2442L96.2653 51.7095L97.1086 52.1659L97.9552 52.6133L98.8049 53.0514L99.6571 53.4802L100.511 53.8994L101.367 54.3088L102.224 54.7083L103.082 55.0977L103.941 55.477L104.799 55.846L105.656 56.2047L106.512 56.5528L107.367 56.8904L108.219 57.2174L109.07 57.5337L109.917 57.8393L110.76 58.1341L111.6 58.4182L112.436 58.6915L113.266 58.9541L114.091 59.206L114.911 59.4472L115.724 59.6777L116.53 59.8977L117.33 60.1071L118.121 60.3061L118.905 60.4948L119.68 60.6733L120.447 60.8416L121.204 61L121.951 61.1486L122.688 61.2875L123.414 61.4169L124.13 61.537L124.834 61.6479L125.526 61.7499L126.206 61.8432L126.873 61.928L127.528 62.0045L128.169 62.0729L128.796 62.1335L129.41 62.1867L130.009 62.2325L130.594 62.2713L131.164 62.3035L131.718 62.3292L132.257 62.3488L132.78 62.3626L133.287 62.3709L133.778 62.374L134.252 62.3723L134.709 62.3661L135.149 62.3557L135.572 62.3415L135.977 62.3238L136.365 62.303L136.735 62.2794L137.087 62.2535L137.421 62.2255L137.736 62.1959L138.033 62.165L138.312 62.1332L138.572 62.1009L138.813 62.0685L139.036 62.0364L139.239 62.0048L139.424 61.9744L139.59 61.9453L139.737 61.918L139.865 61.8929L139.974 61.8704L140.065 61.8508L140.136 61.8346L140.189 61.8221L140.223 61.8137L140.239 61.8095Z" stroke="url(#paint0_linear_1358_7352)" stroke-width="1.5"/>
<path fill-rule="evenodd" clip-rule="evenodd" d="M146.704 238.408L146.697 238.406L146.674 238.402L146.636 238.396L146.583 238.388L146.515 238.378L146.432 238.367L146.334 238.354L146.22 238.341L146.091 238.328L145.948 238.314L145.789 238.3L145.615 238.287L145.426 238.275L145.222 238.264L145.004 238.254L144.77 238.246L144.522 238.239L144.26 238.236L143.983 238.234L143.693 238.236L143.388 238.24L143.069 238.248L142.736 238.26L142.39 238.275L142.03 238.295L141.658 238.319L141.272 238.348L140.873 238.382L140.462 238.421L140.039 238.466L139.603 238.516L139.156 238.572L138.697 238.634L138.227 238.703L137.746 238.778L137.254 238.86L136.751 238.948L136.238 239.044L135.716 239.147L135.184 239.258L134.642 239.376L134.091 239.502L133.532 239.636L132.965 239.777L132.389 239.927L131.806 240.085L131.216 240.252L130.618 240.426L130.014 240.61L129.404 240.802L128.788 241.002L128.166 241.212L127.539 241.43L126.907 241.656L126.27 241.892L125.63 242.136L124.986 242.39L124.338 242.652L123.688 242.923L123.035 243.202L122.379 243.491L121.722 243.788L121.063 244.094L120.403 244.408L119.742 244.731L119.081 245.062L118.42 245.402L117.759 245.75L117.099 246.106L116.44 246.469L115.782 246.841L115.126 247.221L114.473 247.608L113.821 248.002L113.173 248.404L112.527 248.812L111.885 249.228L111.247 249.65L110.613 250.079L109.983 250.514L109.358 250.954L108.738 251.401L108.124 251.853L107.515 252.311L106.912 252.773L106.315 253.24L105.725 253.712L105.141 254.188L104.565 254.668L103.995 255.152L103.434 255.639L102.88 256.129L102.333 256.622L101.795 257.118L101.266 257.615L100.745 258.115L100.232 258.616L99.7291 259.118L99.2349 259.621L98.7499 260.124L98.2744 260.628L97.8085 261.131L97.3522 261.635L96.9058 262.137L96.4693 262.638L96.0429 263.137L95.6266 263.635L95.2206 264.13L94.8248 264.623L94.4394 265.113L94.0644 265.599L93.6999 266.082L93.3459 266.561L93.0023 267.035L92.6693 267.505L92.3468 267.969L92.0349 268.428L91.7334 268.882L91.4424 269.329L91.1619 269.77L90.8917 270.204L90.6319 270.631L90.3823 271.05L90.1429 271.462L89.9136 271.865L89.6943 272.26L89.4848 272.646L89.2852 273.024L89.0952 273.391L88.9147 273.749L88.7436 274.097L88.5817 274.435L88.4289 274.763L88.285 275.079L88.1498 275.384L88.0231 275.678L87.9047 275.961L87.7946 276.231L87.6923 276.489L87.5978 276.735L87.5107 276.969L87.431 277.189L87.3583 277.397L87.2923 277.591L87.233 277.772L87.1799 277.94L87.1329 278.093L87.0917 278.233L87.0559 278.359L87.0255 278.47L86.9999 278.567L86.9791 278.65L86.9627 278.718L86.9503 278.771L86.9418 278.81L86.9369 278.833L86.9351 278.842L86.9363 278.836L86.9401 278.814L86.9462 278.778L86.9544 278.726L86.9643 278.659L86.9756 278.577L86.9879 278.48L87.0011 278.368L87.0148 278.24L87.0286 278.098L87.0424 277.94L87.0557 277.767L87.0682 277.58L87.0797 277.377L87.0899 277.16L87.0985 276.928L87.1051 276.681L87.1095 276.42L87.1114 276.145L87.1105 275.855L87.1065 275.551L87.0991 275.234L87.0881 274.902L87.0732 274.557L87.0541 274.199L87.0306 273.827L87.0024 273.443L86.9693 273.046L86.931 272.636L86.8873 272.213L86.8379 271.779L86.7826 271.333L86.7213 270.875L86.6537 270.406L86.5795 269.926L86.4987 269.435L86.4109 268.934L86.3161 268.422L86.214 267.9L86.1046 267.369L85.9875 266.829L85.8627 266.279L85.7301 265.721L85.5895 265.154L85.4408 264.58L85.2839 263.998L85.1186 263.408L84.945 262.812L84.7628 262.208L84.572 261.599L84.3727 260.984L84.1646 260.363L83.9477 259.736L83.7221 259.105L83.4877 258.47L83.2445 257.83L82.9924 257.187L82.7315 256.54L82.4618 255.89L82.1834 255.238L81.8961 254.583L81.6002 253.926L81.2956 253.268L80.9824 252.609L80.6607 251.949L80.3306 251.288L79.9922 250.628L79.6455 249.967L79.2907 249.308L78.9279 248.649L78.5572 247.992L78.1788 247.336L77.7929 246.683L77.3995 246.032L76.9989 245.384L76.5913 244.739L76.1767 244.097L75.7555 243.459L75.3279 242.825L74.8939 242.196L74.454 241.571L74.0082 240.951L73.5569 240.337L73.1002 239.728L72.6385 239.126L72.1719 238.529L71.7009 237.939L71.2255 237.355L70.7461 236.779L70.2631 236.21L69.7766 235.648L69.287 235.094L68.7946 234.548L68.2997 234.01L67.8026 233.48L67.3036 232.959L66.803 232.447L66.3013 231.943L65.7986 231.449L65.2954 230.964L64.792 230.488L64.2887 230.022L63.7858 229.566L63.2838 229.119L62.7829 228.683L62.2835 228.256L61.786 227.84L61.2906 227.433L60.7979 227.037L60.3081 226.652L59.8215 226.276L59.3386 225.912L58.8596 225.557L58.385 225.214L57.9151 224.88L57.4502 224.558L56.9908 224.245L56.537 223.944L56.0893 223.652L55.6481 223.371L55.2136 223.101L54.7863 222.841L54.3664 222.591L53.9542 222.351L53.5502 222.121L53.1545 221.902L52.7676 221.692L52.3898 221.492L52.0213 221.302L51.6625 221.121L51.3136 220.949L50.975 220.787L50.6469 220.634L50.3296 220.49L50.0234 220.354L49.7286 220.227L49.4453 220.108L49.1739 219.998L48.9147 219.895L48.6677 219.8L48.4333 219.713L48.2117 219.633L48.003 219.56L47.8076 219.494L47.6255 219.434L47.457 219.381L47.3023 219.333L47.1614 219.292L47.0346 219.256L46.922 219.225L46.8238 219.199L46.74 219.178L46.6708 219.161L46.6163 219.149L46.5766 219.14L46.5518 219.135L46.5419 219.133L46.547 219.134L46.5672 219.137L46.6025 219.143L46.653 219.151L46.7186 219.161L46.7994 219.172L46.8954 219.184L47.0065 219.197L47.1328 219.211L47.2743 219.224L47.4308 219.238L47.6023 219.251L47.7888 219.264L47.9902 219.275L48.2064 219.285L48.4374 219.294L48.6829 219.3L48.9429 219.305L49.2173 219.306L49.506 219.305L49.8087 219.301L50.1254 219.294L50.4558 219.283L50.7998 219.268L51.1573 219.249L51.5279 219.226L51.9116 219.197L52.3081 219.164L52.7172 219.126L53.1386 219.082L53.5722 219.033L54.0177 218.978L54.4747 218.917L54.9432 218.849L55.4227 218.775L55.913 218.694L56.4139 218.607L56.9251 218.512L57.4462 218.41L57.9769 218.301L58.517 218.184L59.0661 218.059L59.6239 217.927L60.1901 217.786L60.7643 217.638L61.3463 217.481L61.9356 217.316L62.532 217.143L63.135 216.961L63.7444 216.77L64.3598 216.571L64.9807 216.363L65.6069 216.146L66.2381 215.921L66.8737 215.687L67.5135 215.444L68.1571 215.192L68.8042 214.931L69.4542 214.662L70.107 214.383L70.7621 214.096L71.4191 213.8L72.0777 213.496L72.7375 213.183L73.3981 212.862L74.0592 212.532L74.7203 212.193L75.3813 211.847L76.0415 211.492L76.7008 211.13L77.3588 210.759L78.015 210.381L78.6692 209.995L79.321 209.602L79.9701 209.201L80.6161 208.794L81.2586 208.379L81.8975 207.958L82.5323 207.531L83.1627 207.097L83.7884 206.657L84.4091 206.211L85.0245 205.76L85.6343 205.303L86.2383 204.841L86.836 204.375L87.4274 203.904L88.012 203.428L88.5897 202.949L89.1602 202.466L89.7232 201.979L90.2786 201.489L90.826 200.997L91.3653 200.502L91.8963 200.005L92.4187 199.505L92.9324 199.005L93.4372 198.503L93.9328 198L94.4193 197.496L94.8963 196.993L95.3638 196.489L95.8216 195.986L96.2696 195.484L96.7076 194.983L97.1357 194.483L97.5536 193.985L97.9613 193.489L98.3587 192.996L98.7457 192.506L99.1224 192.019L99.4886 191.535L99.8443 191.056L100.189 190.581L100.524 190.11L100.848 189.645L101.162 189.185L101.465 188.731L101.758 188.282L102.04 187.84L102.312 187.405L102.573 186.977L102.824 186.557L103.065 186.144L103.296 185.739L103.517 185.343L103.728 184.955L103.929 184.576L104.121 184.207L104.303 183.848L104.476 183.498L104.639 183.158L104.793 182.829L104.939 182.511L105.075 182.204L105.203 181.908L105.323 181.624L105.434 181.352L105.538 181.092L105.634 180.844L105.722 180.608L105.803 180.386L105.876 180.176L105.943 179.979L106.004 179.796L106.058 179.627L106.106 179.471L106.148 179.329L106.185 179.201L106.216 179.087L106.242 178.988L106.264 178.903L106.281 178.833L106.294 178.777L106.303 178.736L106.308 178.71L106.311 178.699L106.31 178.703L106.306 178.722L106.301 178.756L106.293 178.805L106.283 178.87L106.272 178.949L106.26 179.044L106.247 179.154L106.233 179.279L106.219 179.419L106.206 179.574L106.192 179.745L106.18 179.93L106.168 180.13L106.157 180.345L106.149 180.575L106.142 180.819L106.137 181.078L106.135 181.351L106.135 181.638L106.139 181.94L106.145 182.255L106.156 182.585L106.17 182.927L106.188 183.284L106.211 183.653L106.239 184.036L106.271 184.431L106.308 184.839L106.351 185.259L106.4 185.691L106.454 186.136L106.514 186.592L106.581 187.059L106.654 187.537L106.734 188.027L106.82 188.526L106.914 189.036L107.015 189.557L107.123 190.086L107.239 190.625L107.363 191.173L107.494 191.73L107.633 192.295L107.781 192.869L107.936 193.45L108.1 194.038L108.273 194.633L108.453 195.236L108.643 195.844L108.841 196.458L109.048 197.079L109.263 197.704L109.487 198.334L109.72 198.969L109.962 199.608L110.213 200.251L110.472 200.897L110.74 201.547L111.018 202.199L111.303 202.853L111.598 203.509L111.901 204.167L112.213 204.827L112.533 205.487L112.862 206.147L113.199 206.808L113.545 207.468L113.898 208.128L114.26 208.787L114.629 209.444L115.006 210.1L115.391 210.754L115.783 211.405L116.183 212.054L116.589 212.699L117.003 213.342L117.423 213.98L117.849 214.615L118.282 215.245L118.721 215.87L119.166 216.491L119.617 217.106L120.073 217.716L120.533 218.319L120.999 218.917L121.47 219.508L121.944 220.093L122.423 220.67L122.906 221.241L123.392 221.804L123.881 222.359L124.373 222.906L124.867 223.446L125.364 223.977L125.863 224.499L126.363 225.013L126.865 225.518L127.367 226.013L127.87 226.5L128.374 226.977L128.877 227.445L129.38 227.903L129.882 228.351L130.383 228.789L130.883 229.217L131.381 229.635L131.876 230.043L132.37 230.441L132.86 230.828L133.347 231.205L133.831 231.571L134.31 231.927L134.786 232.273L135.256 232.608L135.722 232.932L136.182 233.246L136.637 233.55L137.086 233.843L137.528 234.125L137.963 234.397L138.392 234.659L138.813 234.911L139.227 235.152L139.632 235.383L140.029 235.604L140.417 235.816L140.796 236.017L141.166 236.209L141.527 236.392L141.877 236.564L142.218 236.728L142.547 236.883L142.866 237.028L143.174 237.165L143.471 237.294L143.756 237.414L144.029 237.526L144.291 237.629L144.54 237.726L144.776 237.814L145 237.895L145.21 237.969L145.408 238.037L145.592 238.097L145.763 238.152L145.92 238.2L146.063 238.243L146.192 238.279L146.307 238.311L146.407 238.338L146.493 238.359L146.565 238.377L146.622 238.39L146.664 238.399L146.691 238.405L146.704 238.408Z" stroke="url(#paint1_linear_1358_7352)" stroke-width="1.5"/>
<path fill-rule="evenodd" clip-rule="evenodd" d="M224 135.629L223.995 135.629L223.98 135.629L223.955 135.63L223.92 135.631L223.875 135.633L223.819 135.636L223.754 135.64L223.68 135.646L223.595 135.653L223.5 135.662L223.396 135.673L223.282 135.686L223.159 135.702L223.026 135.72L222.884 135.741L222.733 135.764L222.572 135.791L222.402 135.821L222.224 135.854L222.036 135.891L221.84 135.932L221.636 135.977L221.423 136.026L221.201 136.079L220.972 136.136L220.734 136.198L220.489 136.265L220.237 136.336L219.976 136.412L219.709 136.493L219.434 136.58L219.153 136.672L218.865 136.769L218.57 136.871L218.269 136.979L217.962 137.093L217.649 137.213L217.33 137.338L217.006 137.47L216.676 137.607L216.342 137.751L216.003 137.9L215.659 138.056L215.31 138.218L214.958 138.386L214.602 138.56L214.242 138.741L213.878 138.928L213.511 139.121L213.142 139.32L212.769 139.526L212.394 139.738L212.017 139.957L211.638 140.182L211.257 140.413L210.874 140.65L210.491 140.893L210.106 141.143L209.72 141.398L209.334 141.659L208.947 141.927L208.56 142.2L208.173 142.479L207.787 142.764L207.401 143.054L207.016 143.35L206.632 143.651L206.25 143.957L205.868 144.269L205.489 144.585L205.111 144.907L204.735 145.233L204.362 145.564L203.991 145.899L203.623 146.239L203.257 146.582L202.895 146.93L202.536 147.282L202.181 147.637L201.829 147.995L201.481 148.357L201.137 148.722L200.797 149.09L200.461 149.461L200.13 149.834L199.804 150.21L199.482 150.587L199.165 150.967L198.853 151.348L198.546 151.731L198.245 152.115L197.949 152.5L197.658 152.885L197.373 153.272L197.093 153.658L196.82 154.045L196.552 154.432L196.29 154.818L196.034 155.204L195.784 155.589L195.54 155.973L195.302 156.356L195.071 156.737L194.846 157.116L194.627 157.493L194.414 157.868L194.208 158.241L194.008 158.611L193.814 158.978L193.626 159.342L193.445 159.702L193.27 160.059L193.102 160.411L192.939 160.76L192.783 161.104L192.633 161.444L192.489 161.779L192.352 162.109L192.22 162.433L192.094 162.752L191.974 163.066L191.859 163.374L191.751 163.675L191.648 163.97L191.55 164.259L191.458 164.541L191.371 164.816L191.29 165.084L191.213 165.345L191.141 165.598L191.074 165.844L191.012 166.082L190.954 166.312L190.901 166.534L190.852 166.748L190.807 166.953L190.766 167.15L190.728 167.338L190.695 167.517L190.664 167.688L190.637 167.849L190.614 168.001L190.593 168.144L190.574 168.278L190.559 168.402L190.545 168.516L190.534 168.621L190.525 168.717L190.518 168.802L190.512 168.878L190.507 168.944L190.504 168.999L190.502 169.045L190.501 169.081L190.5 169.107L190.5 169.123L190.5 169.129L190.5 169.125L190.5 169.11L190.499 169.086L190.498 169.052L190.496 169.007L190.493 168.953L190.489 168.889L190.483 168.815L190.476 168.731L190.467 168.637L190.457 168.534L190.444 168.421L190.428 168.298L190.41 168.166L190.39 168.025L190.366 167.874L190.34 167.714L190.31 167.545L190.277 167.367L190.24 167.181L190.2 166.985L190.155 166.781L190.107 166.569L190.054 166.348L189.997 166.119L189.936 165.883L189.87 165.638L189.799 165.386L189.723 165.126L189.642 164.859L189.556 164.585L189.465 164.304L189.368 164.017L189.266 163.723L189.158 163.422L189.045 163.115L188.926 162.803L188.801 162.485L188.67 162.161L188.533 161.832L188.39 161.498L188.241 161.159L188.086 160.815L187.924 160.467L187.757 160.115L187.583 159.759L187.403 159.399L187.216 159.036L187.024 158.67L186.825 158.3L186.619 157.928L186.407 157.553L186.189 157.176L185.965 156.797L185.735 156.416L185.498 156.034L185.255 155.65L185.006 155.265L184.751 154.88L184.49 154.493L184.223 154.107L183.951 153.72L183.672 153.333L183.388 152.947L183.098 152.561L182.803 152.176L182.502 151.792L182.196 151.409L181.885 151.027L181.569 150.648L181.248 150.27L180.922 149.894L180.591 149.52L180.257 149.149L179.917 148.781L179.574 148.415L179.227 148.053L178.875 147.694L178.52 147.338L178.162 146.986L177.8 146.637L177.436 146.293L177.068 145.953L176.697 145.617L176.324 145.285L175.949 144.958L175.572 144.636L175.192 144.319L174.811 144.007L174.429 143.699L174.045 143.397L173.66 143.101L173.274 142.81L172.888 142.524L172.501 142.244L172.114 141.97L171.728 141.702L171.341 141.439L170.955 141.183L170.57 140.932L170.186 140.688L169.804 140.45L169.422 140.218L169.043 139.992L168.665 139.773L168.29 139.56L167.917 139.353L167.547 139.152L167.18 138.958L166.816 138.77L166.455 138.588L166.098 138.413L165.745 138.244L165.396 138.081L165.052 137.924L164.712 137.774L164.376 137.63L164.046 137.491L163.721 137.359L163.402 137.232L163.088 137.112L162.779 136.997L162.478 136.888L162.182 136.785L161.893 136.687L161.61 136.594L161.334 136.507L161.066 136.425L160.804 136.348L160.55 136.276L160.304 136.208L160.065 136.146L159.835 136.088L159.612 136.034L159.398 135.984L159.192 135.939L158.994 135.898L158.805 135.86L158.625 135.826L158.454 135.796L158.292 135.768L158.139 135.744L157.996 135.723L157.861 135.704L157.736 135.689L157.621 135.675L157.515 135.664L157.419 135.654L157.333 135.647L157.257 135.641L157.19 135.637L157.133 135.633L157.087 135.631L157.05 135.63L157.023 135.629L157.007 135.629L157 135.629L157.003 135.629L157.017 135.629L157.04 135.628L157.074 135.627L157.117 135.625L157.171 135.622L157.234 135.618L157.308 135.613L157.391 135.606L157.484 135.597L157.586 135.586L157.699 135.574L157.82 135.558L157.952 135.541L158.092 135.52L158.242 135.497L158.402 135.471L158.57 135.442L158.747 135.409L158.933 135.372L159.128 135.332L159.331 135.288L159.543 135.24L159.763 135.188L159.991 135.131L160.227 135.07L160.471 135.004L160.723 134.933L160.982 134.858L161.248 134.777L161.521 134.692L161.802 134.601L162.089 134.505L162.383 134.403L162.683 134.296L162.989 134.183L163.301 134.064L163.619 133.94L163.942 133.809L164.271 133.673L164.604 133.53L164.943 133.382L165.286 133.227L165.634 133.066L165.986 132.899L166.341 132.726L166.701 132.546L167.064 132.36L167.43 132.168L167.799 131.969L168.171 131.765L168.546 131.553L168.922 131.336L169.301 131.112L169.682 130.882L170.064 130.646L170.448 130.404L170.833 130.155L171.218 129.901L171.605 129.64L171.991 129.374L172.378 129.101L172.765 128.823L173.151 128.539L173.537 128.25L173.922 127.955L174.307 127.655L174.689 127.349L175.071 127.039L175.451 126.723L175.829 126.402L176.205 126.077L176.579 125.747L176.95 125.412L177.319 125.073L177.684 124.73L178.047 124.383L178.407 124.032L178.763 123.678L179.115 123.319L179.464 122.958L179.808 122.594L180.149 122.226L180.485 121.856L180.817 121.483L181.144 121.108L181.467 120.731L181.785 120.351L182.097 119.97L182.405 119.588L182.707 119.204L183.004 118.819L183.296 118.434L183.582 118.048L183.862 117.661L184.137 117.274L184.406 116.887L184.669 116.501L184.926 116.115L185.177 115.73L185.421 115.346L185.66 114.963L185.893 114.582L186.119 114.202L186.339 113.824L186.552 113.449L186.76 113.076L186.961 112.705L187.156 112.338L187.344 111.974L187.526 111.613L187.702 111.256L187.872 110.902L188.035 110.553L188.192 110.208L188.343 109.867L188.488 109.532L188.627 109.201L188.76 108.876L188.886 108.556L189.007 108.241L189.123 107.933L189.232 107.63L189.336 107.334L189.434 107.044L189.527 106.761L189.615 106.485L189.698 106.216L189.775 105.954L189.848 105.699L189.915 105.452L189.978 105.213L190.037 104.981L190.091 104.758L190.14 104.543L190.186 104.336L190.228 104.138L190.266 103.949L190.3 103.768L190.331 103.596L190.358 103.433L190.383 103.28L190.404 103.135L190.423 103L190.439 102.875L190.453 102.759L190.464 102.652L190.474 102.555L190.481 102.468L190.487 102.391L190.492 102.324L190.495 102.266L190.497 102.219L190.499 102.181L190.5 102.154L190.5 102.136L190.5 102.129L190.5 102.132L190.5 102.144L190.501 102.167L190.502 102.2L190.504 102.242L190.506 102.295L190.51 102.358L190.516 102.43L190.522 102.513L190.531 102.605L190.541 102.707L190.554 102.818L190.569 102.939L190.586 103.07L190.607 103.21L190.629 103.359L190.655 103.517L190.685 103.685L190.717 103.861L190.753 104.047L190.793 104.241L190.837 104.443L190.885 104.654L190.937 104.874L190.993 105.101L191.054 105.337L191.119 105.58L191.19 105.831L191.265 106.09L191.345 106.355L191.43 106.628L191.52 106.908L191.616 107.195L191.717 107.488L191.824 107.787L191.937 108.093L192.055 108.405L192.179 108.722L192.309 109.045L192.445 109.373L192.587 109.706L192.735 110.045L192.889 110.387L193.049 110.735L193.216 111.086L193.389 111.442L193.568 111.801L193.753 112.163L193.945 112.529L194.143 112.898L194.348 113.27L194.558 113.645L194.775 114.021L194.998 114.4L195.228 114.78L195.464 115.163L195.706 115.546L195.954 115.931L196.208 116.316L196.468 116.703L196.734 117.089L197.005 117.476L197.283 117.863L197.566 118.249L197.855 118.635L198.15 119.02L198.45 119.405L198.755 119.788L199.065 120.17L199.38 120.55L199.701 120.928L200.026 121.304L200.356 121.678L200.69 122.049L201.028 122.418L201.371 122.784L201.718 123.147L202.068 123.507L202.423 123.863L202.781 124.216L203.142 124.565L203.506 124.91L203.873 125.251L204.243 125.587L204.616 125.92L204.991 126.247L205.368 126.57L205.747 126.888L206.128 127.202L206.51 127.51L206.894 127.812L207.279 128.11L207.664 128.402L208.05 128.688L208.437 128.969L208.824 129.244L209.211 129.514L209.597 129.777L209.983 130.034L210.368 130.286L210.752 130.531L211.135 130.77L211.517 131.003L211.897 131.23L212.274 131.45L212.65 131.664L213.023 131.872L213.394 132.074L213.762 132.269L214.126 132.458L214.487 132.641L214.845 132.817L215.199 132.987L215.548 133.151L215.893 133.309L216.234 133.46L216.57 133.605L216.901 133.745L217.227 133.878L217.548 134.005L217.863 134.127L218.172 134.242L218.475 134.352L218.771 134.457L219.062 134.556L219.345 134.649L219.622 134.737L219.892 134.82L220.154 134.898L220.41 134.971L220.657 135.039L220.897 135.102L221.129 135.161L221.353 135.215L221.569 135.266L221.776 135.312L221.975 135.354L222.165 135.392L222.346 135.426L222.519 135.457L222.682 135.485L222.837 135.51L222.982 135.531L223.118 135.55L223.244 135.567L223.361 135.581L223.468 135.592L223.566 135.602L223.654 135.61L223.732 135.616L223.8 135.62L223.858 135.624L223.906 135.626L223.945 135.628L223.973 135.628L223.991 135.629L224 135.629Z" fill="url(#paint2_linear_1358_7352)" stroke="url(#paint3_linear_1358_7352)" stroke-width="2"/>
<path fill-rule="evenodd" clip-rule="evenodd" d="M203.582 232.026L203.58 232.026L203.574 232.024L203.564 232.022L203.55 232.018L203.532 232.015L203.511 232.01L203.485 232.005L203.455 231.999L203.421 231.993L203.384 231.987L203.342 231.98L203.296 231.974L203.247 231.967L203.193 231.96L203.136 231.953L203.074 231.947L203.009 231.94L202.94 231.934L202.867 231.929L202.79 231.923L202.709 231.919L202.625 231.915L202.537 231.912L202.445 231.909L202.35 231.908L202.251 231.907L202.149 231.907L202.043 231.909L201.933 231.911L201.821 231.915L201.705 231.92L201.586 231.926L201.463 231.934L201.338 231.943L201.21 231.954L201.078 231.966L200.944 231.98L200.807 231.996L200.667 232.013L200.524 232.032L200.379 232.053L200.231 232.076L200.081 232.101L199.929 232.127L199.774 232.156L199.617 232.187L199.458 232.219L199.297 232.254L199.134 232.291L198.969 232.33L198.803 232.372L198.634 232.415L198.465 232.461L198.294 232.509L198.121 232.559L197.948 232.611L197.773 232.666L197.597 232.723L197.42 232.782L197.242 232.843L197.064 232.907L196.885 232.973L196.705 233.041L196.525 233.112L196.344 233.185L196.164 233.26L195.983 233.337L195.802 233.416L195.621 233.498L195.44 233.581L195.259 233.667L195.079 233.755L194.899 233.844L194.719 233.936L194.541 234.03L194.363 234.126L194.185 234.223L194.009 234.323L193.833 234.424L193.659 234.527L193.486 234.631L193.313 234.737L193.143 234.845L192.973 234.954L192.805 235.065L192.639 235.177L192.474 235.291L192.311 235.405L192.15 235.521L191.991 235.638L191.833 235.756L191.678 235.875L191.524 235.995L191.373 236.115L191.223 236.237L191.077 236.359L190.932 236.481L190.789 236.604L190.65 236.728L190.512 236.851L190.377 236.975L190.244 237.1L190.115 237.224L189.987 237.348L189.863 237.472L189.741 237.596L189.621 237.719L189.505 237.842L189.391 237.965L189.28 238.087L189.172 238.208L189.066 238.329L188.964 238.449L188.864 238.567L188.768 238.685L188.674 238.802L188.583 238.917L188.494 239.031L188.409 239.144L188.327 239.255L188.247 239.364L188.171 239.472L188.097 239.578L188.026 239.682L187.958 239.784L187.892 239.884L187.83 239.982L187.77 240.078L187.713 240.172L187.659 240.263L187.607 240.351L187.558 240.438L187.511 240.521L187.467 240.602L187.426 240.68L187.387 240.755L187.35 240.828L187.316 240.897L187.284 240.963L187.255 241.026L187.227 241.086L187.202 241.143L187.179 241.196L187.158 241.247L187.139 241.293L187.122 241.336L187.106 241.376L187.093 241.412L187.081 241.445L187.071 241.474L187.062 241.499L187.055 241.52L187.05 241.538L187.045 241.552L187.042 241.562L187.041 241.568L187.04 241.57L187.04 241.568L187.042 241.563L187.044 241.553L187.047 241.54L187.051 241.522L187.056 241.501L187.061 241.475L187.066 241.446L187.072 241.413L187.079 241.375L187.085 241.334L187.092 241.289L187.099 241.239L187.106 241.186L187.113 241.129L187.119 241.068L187.126 241.003L187.132 240.934L187.137 240.861L187.143 240.785L187.147 240.704L187.151 240.62L187.155 240.533L187.157 240.441L187.159 240.346L187.16 240.248L187.159 240.146L187.158 240.04L187.156 239.931L187.152 239.819L187.147 239.703L187.141 239.584L187.134 239.462L187.125 239.337L187.114 239.209L187.102 239.078L187.088 238.944L187.073 238.807L187.056 238.667L187.037 238.525L187.016 238.38L186.994 238.232L186.969 238.083L186.943 237.93L186.914 237.776L186.884 237.619L186.851 237.46L186.817 237.299L186.78 237.137L186.741 236.972L186.7 236.806L186.657 236.638L186.611 236.469L186.564 236.298L186.514 236.125L186.462 235.952L186.407 235.777L186.351 235.601L186.292 235.425L186.23 235.247L186.167 235.069L186.101 234.89L186.033 234.71L185.963 234.53L185.89 234.35L185.816 234.169L185.739 233.988L185.66 233.807L185.579 233.626L185.495 233.446L185.41 233.265L185.322 233.085L185.233 232.905L185.141 232.726L185.048 232.547L184.952 232.369L184.855 232.192L184.756 232.015L184.655 231.84L184.552 231.665L184.448 231.492L184.342 231.32L184.234 231.149L184.125 230.98L184.014 230.812L183.902 230.645L183.789 230.481L183.675 230.318L183.559 230.156L183.442 229.997L183.324 229.839L183.206 229.684L183.086 229.53L182.965 229.379L182.844 229.229L182.722 229.082L182.6 228.938L182.477 228.795L182.353 228.655L182.23 228.517L182.106 228.382L181.982 228.25L181.857 228.12L181.733 227.992L181.609 227.867L181.485 227.745L181.362 227.626L181.239 227.509L181.116 227.395L180.994 227.284L180.873 227.176L180.752 227.07L180.632 226.968L180.514 226.868L180.396 226.771L180.279 226.677L180.164 226.586L180.05 226.498L179.937 226.412L179.826 226.33L179.716 226.25L179.608 226.173L179.502 226.099L179.398 226.028L179.295 225.96L179.195 225.894L179.097 225.832L179.001 225.772L178.907 225.714L178.816 225.66L178.727 225.608L178.641 225.559L178.557 225.512L178.476 225.468L178.398 225.426L178.322 225.387L178.25 225.351L178.18 225.316L178.114 225.284L178.05 225.255L177.99 225.227L177.933 225.202L177.879 225.178L177.829 225.157L177.782 225.138L177.739 225.121L177.699 225.105L177.662 225.092L177.629 225.08L177.6 225.069L177.575 225.061L177.553 225.054L177.535 225.048L177.521 225.044L177.511 225.04L177.504 225.039L177.502 225.038L177.503 225.038L177.508 225.04L177.517 225.042L177.531 225.045L177.548 225.049L177.569 225.053L177.594 225.058L177.623 225.064L177.656 225.07L177.693 225.076L177.734 225.083L177.779 225.089L177.828 225.096L177.881 225.103L177.938 225.11L177.999 225.116L178.064 225.123L178.132 225.129L178.205 225.134L178.281 225.14L178.361 225.144L178.445 225.148L178.532 225.152L178.623 225.154L178.718 225.156L178.816 225.157L178.918 225.157L179.023 225.156L179.132 225.153L179.244 225.15L179.36 225.145L179.478 225.139L179.6 225.131L179.725 225.122L179.853 225.112L179.984 225.1L180.118 225.086L180.254 225.071L180.394 225.054L180.536 225.035L180.681 225.014L180.828 224.992L180.978 224.967L181.13 224.941L181.285 224.913L181.441 224.882L181.6 224.85L181.761 224.815L181.923 224.779L182.088 224.74L182.254 224.699L182.422 224.656L182.591 224.611L182.762 224.563L182.934 224.513L183.108 224.461L183.282 224.407L183.458 224.35L183.635 224.292L183.812 224.23L183.991 224.167L184.17 224.101L184.349 224.034L184.53 223.963L184.71 223.891L184.891 223.816L185.072 223.74L185.253 223.661L185.434 223.58L185.615 223.496L185.795 223.411L185.976 223.323L186.156 223.234L186.335 223.142L186.514 223.049L186.692 222.954L186.87 222.856L187.046 222.757L187.222 222.656L187.397 222.554L187.57 222.45L187.742 222.344L187.913 222.236L188.083 222.127L188.251 222.017L188.418 221.905L188.583 221.792L188.746 221.677L188.908 221.561L189.067 221.445L189.225 221.327L189.381 221.208L189.535 221.088L189.686 220.968L189.836 220.847L189.983 220.725L190.128 220.602L190.271 220.479L190.411 220.356L190.549 220.232L190.685 220.108L190.818 219.984L190.948 219.86L191.076 219.736L191.201 219.612L191.323 219.488L191.443 219.364L191.56 219.241L191.674 219.119L191.786 218.996L191.894 218.875L192 218.754L192.103 218.634L192.203 218.515L192.3 218.398L192.395 218.281L192.486 218.165L192.575 218.051L192.66 217.938L192.743 217.827L192.823 217.717L192.9 217.609L192.975 217.503L193.046 217.398L193.115 217.296L193.18 217.195L193.243 217.097L193.304 217.001L193.361 216.907L193.416 216.815L193.468 216.726L193.518 216.64L193.565 216.556L193.609 216.475L193.651 216.396L193.69 216.32L193.727 216.248L193.762 216.178L193.794 216.111L193.824 216.048L193.852 215.987L193.877 215.93L193.901 215.876L193.922 215.825L193.941 215.778L193.959 215.734L193.975 215.694L193.988 215.657L194 215.624L194.011 215.595L194.02 215.569L194.027 215.547L194.033 215.529L194.037 215.514L194.04 215.504L194.042 215.497L194.043 215.494L194.043 215.495L194.042 215.5L194.039 215.509L194.036 215.522L194.033 215.539L194.028 215.559L194.023 215.584L194.018 215.613L194.012 215.646L194.005 215.682L193.999 215.723L193.992 215.768L193.985 215.817L193.978 215.869L193.972 215.926L193.965 215.986L193.959 216.051L193.952 216.119L193.947 216.191L193.941 216.267L193.937 216.347L193.932 216.43L193.929 216.517L193.926 216.608L193.924 216.702L193.923 216.8L193.924 216.902L193.925 217.007L193.927 217.115L193.93 217.227L193.935 217.342L193.941 217.46L193.948 217.582L193.957 217.707L193.967 217.834L193.979 217.965L193.992 218.099L194.008 218.235L194.024 218.374L194.043 218.516L194.063 218.661L194.086 218.808L194.11 218.957L194.136 219.109L194.164 219.263L194.194 219.42L194.226 219.578L194.261 219.739L194.297 219.901L194.336 220.065L194.376 220.231L194.419 220.399L194.464 220.568L194.512 220.739L194.561 220.911L194.613 221.084L194.667 221.259L194.723 221.434L194.782 221.611L194.843 221.788L194.906 221.967L194.971 222.146L195.039 222.325L195.109 222.505L195.181 222.685L195.255 222.866L195.332 223.047L195.411 223.228L195.491 223.409L195.574 223.59L195.66 223.77L195.747 223.95L195.836 224.13L195.927 224.31L196.021 224.489L196.116 224.667L196.213 224.844L196.312 225.021L196.412 225.196L196.515 225.371L196.619 225.545L196.725 225.717L196.832 225.888L196.941 226.057L197.051 226.226L197.163 226.392L197.276 226.557L197.39 226.721L197.506 226.882L197.622 227.042L197.74 227.2L197.859 227.356L197.978 227.51L198.099 227.661L198.22 227.811L198.342 227.958L198.464 228.103L198.587 228.246L198.71 228.387L198.834 228.525L198.958 228.66L199.082 228.793L199.206 228.924L199.33 229.052L199.454 229.177L199.578 229.299L199.702 229.419L199.825 229.536L199.947 229.651L200.07 229.762L200.191 229.871L200.312 229.977L200.432 230.08L200.551 230.18L200.669 230.278L200.785 230.372L200.901 230.464L201.015 230.552L201.128 230.638L201.24 230.721L201.35 230.801L201.458 230.879L201.564 230.953L201.669 231.025L201.771 231.093L201.872 231.159L201.971 231.222L202.067 231.283L202.161 231.341L202.253 231.395L202.342 231.448L202.429 231.497L202.513 231.545L202.594 231.589L202.673 231.631L202.749 231.671L202.822 231.708L202.892 231.742L202.959 231.775L203.023 231.805L203.084 231.833L203.141 231.858L203.195 231.882L203.246 231.903L203.294 231.923L203.338 231.941L203.378 231.956L203.415 231.97L203.449 231.982L203.479 231.993L203.505 232.002L203.527 232.009L203.545 232.015L203.56 232.02L203.571 232.023L203.578 232.025L203.582 232.026Z" stroke="#FAFAFA"/>
<path fill-rule="evenodd" clip-rule="evenodd" d="M66 156.5L65.9971 156.5L65.9883 156.5L65.9737 156.5L65.9532 156.501L65.927 156.502L65.8949 156.504L65.8571 156.507L65.8135 156.51L65.7642 156.514L65.7092 156.519L65.6486 156.526L65.5823 156.533L65.5105 156.542L65.4332 156.553L65.3505 156.565L65.2623 156.579L65.1688 156.594L65.07 156.612L64.9661 156.631L64.857 156.653L64.7428 156.677L64.6237 156.703L64.4997 156.731L64.3709 156.762L64.2373 156.795L64.0992 156.831L63.9564 156.87L63.8093 156.911L63.6578 156.956L63.5021 157.003L63.3423 157.054L63.1785 157.107L63.0107 157.163L62.8392 157.223L62.664 157.286L62.4852 157.352L62.303 157.422L62.1175 157.495L61.9288 157.572L61.737 157.651L61.5423 157.735L61.3448 157.822L61.1446 157.913L60.9418 158.007L60.7367 158.105L60.5293 158.206L60.3197 158.311L60.1081 158.42L59.8947 158.533L59.6795 158.649L59.4627 158.769L59.2445 158.892L59.0249 159.019L58.8042 159.15L58.5824 159.285L58.3598 159.423L58.1364 159.564L57.9123 159.709L57.6878 159.858L57.4629 160.01L57.2378 160.166L57.0127 160.325L56.7876 160.487L56.5627 160.653L56.3381 160.822L56.114 160.994L55.8904 161.17L55.6676 161.348L55.4457 161.529L55.2247 161.713L55.0048 161.901L54.7861 162.09L54.5688 162.283L54.3529 162.478L54.1386 162.676L53.926 162.876L53.7151 163.078L53.5062 163.283L53.2993 163.49L53.0945 163.698L52.8919 163.909L52.6917 164.122L52.4938 164.336L52.2985 164.552L52.1057 164.769L51.9156 164.987L51.7283 165.207L51.5438 165.428L51.3622 165.65L51.1837 165.873L51.0081 166.096L50.8357 166.32L50.6665 166.545L50.5005 166.77L50.3379 166.995L50.1785 167.22L50.0226 167.445L49.8701 167.67L49.7212 167.894L49.5757 168.119L49.4338 168.342L49.2954 168.565L49.1607 168.787L49.0296 169.007L48.9021 169.227L48.7783 169.445L48.6582 169.662L48.5417 169.878L48.429 170.091L48.3198 170.303L48.2144 170.513L48.1126 170.72L48.0145 170.926L47.92 171.129L47.8291 171.329L47.7418 171.527L47.658 171.722L47.5778 171.914L47.5011 172.103L47.4277 172.288L47.3579 172.471L47.2913 172.65L47.2281 172.825L47.1681 172.997L47.1113 173.165L47.0577 173.329L47.0071 173.49L46.9596 173.646L46.915 173.797L46.8732 173.945L46.8343 174.088L46.798 174.227L46.7644 174.36L46.7334 174.49L46.7048 174.614L46.6786 174.734L46.6547 174.848L46.633 174.958L46.6133 175.062L46.5957 175.161L46.58 175.255L46.5661 175.344L46.5539 175.427L46.5432 175.505L46.5341 175.577L46.5263 175.644L46.5198 175.705L46.5145 175.76L46.5102 175.81L46.5069 175.854L46.5043 175.892L46.5025 175.925L46.5013 175.951L46.5005 175.972L46.5001 175.987L46.5 175.997L46.5 176L46.4999 175.998L46.4998 175.989L46.4995 175.975L46.4988 175.955L46.4976 175.929L46.4959 175.898L46.4935 175.86L46.4903 175.817L46.4862 175.768L46.481 175.714L46.4747 175.654L46.4672 175.588L46.4583 175.516L46.4479 175.44L46.4359 175.357L46.4223 175.27L46.4068 175.176L46.3895 175.078L46.3702 174.975L46.3488 174.866L46.3253 174.752L46.2995 174.633L46.2713 174.51L46.2406 174.381L46.2074 174.248L46.1716 174.11L46.1331 173.968L46.0918 173.821L46.0477 173.67L46.0006 173.515L45.9505 173.355L45.8973 173.192L45.8411 173.024L45.7816 172.853L45.7189 172.678L45.6529 172.5L45.5835 172.318L45.5108 172.132L45.4346 171.944L45.3549 171.752L45.2717 171.558L45.185 171.361L45.0946 171.161L45.0007 170.958L44.9032 170.753L44.802 170.546L44.6971 170.336L44.5886 170.125L44.4764 169.912L44.3605 169.697L44.241 169.48L44.1178 169.262L43.9909 169.042L43.8604 168.822L43.7262 168.6L43.5884 168.378L43.4471 168.154L43.3022 167.93L43.1537 167.706L43.0018 167.481L42.8464 167.256L42.6877 167.031L42.5255 166.805L42.3601 166.581L42.1914 166.356L42.0195 166.132L41.8444 165.908L41.6663 165.685L41.4852 165.463L41.3012 165.242L41.1143 165.022L40.9247 164.803L40.7323 164.586L40.5374 164.37L40.3399 164.156L40.14 163.943L39.9378 163.732L39.7334 163.523L39.5268 163.316L39.3182 163.111L39.1077 162.908L38.8953 162.708L38.6813 162.509L38.4656 162.314L38.2485 162.121L38.0301 161.931L37.8104 161.743L37.5895 161.558L37.3677 161.377L37.145 161.198L36.9216 161.022L36.6976 160.849L36.4731 160.68L36.2482 160.514L36.0231 160.351L35.798 160.191L35.5729 160.035L35.3479 159.882L35.1233 159.733L34.8992 159.587L34.6757 159.445L34.4529 159.306L34.231 159.171L34.0101 159.04L33.7903 158.912L33.5719 158.788L33.3549 158.668L33.1394 158.551L32.9257 158.438L32.7138 158.328L32.5039 158.223L32.2961 158.121L32.0906 158.022L31.8875 157.927L31.6869 157.836L31.4889 157.749L31.2937 157.665L31.1015 157.584L30.9123 157.507L30.7262 157.433L30.5435 157.363L30.3642 157.296L30.1884 157.233L30.0163 157.173L29.8479 157.116L29.6834 157.062L29.523 157.011L29.3666 156.963L29.2144 156.918L29.0666 156.876L28.9232 156.837L28.7843 156.801L28.65 156.767L28.5204 156.736L28.3956 156.707L28.2757 156.681L28.1608 156.656L28.0509 156.635L27.9461 156.615L27.8465 156.597L27.7522 156.581L27.6632 156.567L27.5795 156.555L27.5013 156.544L27.4287 156.535L27.3615 156.527L27.3 156.52L27.2441 156.515L27.1939 156.51L27.1494 156.507L27.1106 156.504L27.0777 156.503L27.0505 156.501L27.0291 156.501L27.0136 156.5L27.0039 156.5L27 156.5L27.002 156.5L27.0098 156.5L27.0235 156.499L27.043 156.499L27.0684 156.498L27.0995 156.496L27.1364 156.494L27.1791 156.491L27.2275 156.487L27.2816 156.481L27.3413 156.475L27.4067 156.468L27.4776 156.459L27.554 156.449L27.6359 156.437L27.7232 156.423L27.8159 156.408L27.9138 156.391L28.0169 156.372L28.1252 156.351L28.2386 156.327L28.3569 156.302L28.4802 156.274L28.6082 156.243L28.741 156.21L28.8785 156.175L29.0204 156.136L29.1669 156.095L29.3177 156.051L29.4727 156.004L29.6319 155.955L29.7951 155.902L29.9622 155.846L30.1332 155.786L30.3078 155.724L30.486 155.658L30.6677 155.589L30.8527 155.517L31.0409 155.441L31.2322 155.361L31.4264 155.278L31.6235 155.192L31.8233 155.102L32.0256 155.008L32.2304 154.911L32.4375 154.81L32.6467 154.706L32.858 154.597L33.0712 154.485L33.2861 154.37L33.5026 154.251L33.7206 154.128L33.9399 154.001L34.1605 153.871L34.3821 153.737L34.6046 153.6L34.8279 153.458L35.0519 153.314L35.2764 153.166L35.5012 153.014L35.7262 152.859L35.9514 152.7L36.1765 152.538L36.4015 152.373L36.6261 152.205L36.8503 152.033L37.0739 151.858L37.2969 151.681L37.519 151.5L37.7401 151.316L37.9602 151.129L38.1791 150.94L38.3966 150.748L38.6128 150.553L38.8273 150.356L39.0402 150.156L39.2513 149.954L39.4606 149.75L39.6678 149.543L39.8729 149.335L40.0759 149.124L40.2765 148.912L40.4748 148.698L40.6705 148.483L40.8637 148.266L41.0542 148.047L41.242 147.828L41.4269 147.607L41.609 147.385L41.788 147.163L41.964 146.939L42.1369 146.715L42.3067 146.491L42.4732 146.266L42.6364 146.041L42.7962 145.816L42.9527 145.591L43.1057 145.366L43.2553 145.141L43.4013 144.917L43.5438 144.693L43.6827 144.471L43.818 144.249L43.9497 144.028L44.0778 143.808L44.2021 143.589L44.3229 143.372L44.4399 143.156L44.5533 142.943L44.6629 142.731L44.769 142.52L44.8713 142.313L44.97 142.107L45.0651 141.903L45.1566 141.703L45.2445 141.504L45.3288 141.309L45.4096 141.117L45.4869 140.927L45.5607 140.741L45.6312 140.558L45.6982 140.378L45.762 140.202L45.8225 140.03L45.8798 139.861L45.9339 139.696L45.985 139.536L46.033 139.379L46.0781 139.226L46.1203 139.078L46.1596 138.934L46.1963 138.795L46.2303 138.66L46.2618 138.53L46.2907 138.405L46.3173 138.285L46.3416 138.17L46.3637 138.059L46.3836 137.954L46.4015 137.854L46.4176 137.759L46.4318 137.67L46.4442 137.586L46.4551 137.507L46.4645 137.434L46.4725 137.367L46.4791 137.305L46.4847 137.248L46.4891 137.198L46.4926 137.153L46.4952 137.113L46.4972 137.08L46.4985 137.052L46.4993 137.03L46.4997 137.014L46.4999 137.004L46.5 137L46.5 137.002L46.5001 137.009L46.5004 137.022L46.501 137.041L46.5021 137.066L46.5037 137.097L46.506 137.133L46.5091 137.175L46.513 137.223L46.518 137.277L46.5241 137.336L46.5315 137.401L46.5402 137.472L46.5503 137.548L46.562 137.629L46.5754 137.716L46.5905 137.808L46.6075 137.906L46.6265 138.008L46.6475 138.116L46.6707 138.229L46.6962 138.347L46.724 138.47L46.7543 138.598L46.787 138.73L46.8224 138.867L46.8605 139.009L46.9014 139.155L46.945 139.305L46.9917 139.46L47.0413 139.619L47.0939 139.782L47.1497 139.949L47.2086 140.119L47.2708 140.294L47.3363 140.472L47.4051 140.653L47.4773 140.838L47.553 141.026L47.6321 141.217L47.7147 141.411L47.8009 141.608L47.8907 141.807L47.984 142.009L48.081 142.214L48.1816 142.421L48.2859 142.63L48.3938 142.841L48.5054 143.054L48.6207 143.269L48.7397 143.485L48.8623 143.703L48.9886 143.922L49.1185 144.143L49.2521 144.364L49.3893 144.587L49.5301 144.81L49.6744 145.034L49.8223 145.258L49.9737 145.483L50.1285 145.708L50.2868 145.933L50.4484 146.159L50.6133 146.384L50.7815 146.608L50.9529 146.832L51.1274 147.056L51.305 147.279L51.4857 147.501L51.6692 147.722L51.8557 147.943L52.0449 148.162L52.2368 148.379L52.4313 148.596L52.6284 148.81L52.8279 149.023L53.0297 149.235L53.2338 149.444L53.4401 149.651L53.6484 149.857L53.8586 150.06L54.0707 150.261L54.2844 150.459L54.4998 150.655L54.7167 150.848L54.935 151.039L55.1545 151.227L55.3752 151.412L55.5968 151.595L55.8194 151.774L56.0427 151.95L56.2666 152.123L56.4911 152.293L56.7159 152.46L56.9409 152.623L57.1661 152.784L57.3912 152.94L57.6162 153.094L57.8408 153.243L58.0651 153.39L58.2887 153.533L58.5116 153.672L58.7337 153.807L58.9547 153.939L59.1747 154.068L59.3933 154.192L59.6106 154.313L59.8263 154.431L60.0403 154.544L60.2525 154.654L60.4627 154.761L60.6709 154.863L60.8767 154.962L61.0803 155.058L61.2813 155.149L61.4797 155.238L61.6753 155.322L61.868 155.403L62.0577 155.481L62.2443 155.555L62.4275 155.626L62.6074 155.693L62.7838 155.757L62.9565 155.818L63.1255 155.875L63.2906 155.93L63.4517 155.981L63.6087 156.029L63.7615 156.075L63.9101 156.117L64.0542 156.157L64.1938 156.193L64.3288 156.228L64.4592 156.259L64.5847 156.288L64.7054 156.315L64.8212 156.34L64.9319 156.362L65.0375 156.382L65.1379 156.4L65.2331 156.416L65.323 156.431L65.4074 156.443L65.4865 156.454L65.5601 156.464L65.6281 156.472L65.6905 156.479L65.7473 156.484L65.7984 156.489L65.8438 156.492L65.8835 156.495L65.9174 156.497L65.9455 156.498L65.9678 156.499L65.9843 156.5L65.9949 156.5L66 156.5Z" stroke="#FAFAFA"/>
<path fill-rule="evenodd" clip-rule="evenodd" d="M190.912 64.6102L190.911 64.6106L190.907 64.6119L190.899 64.614L190.889 64.6171L190.876 64.6211L190.861 64.6263L190.842 64.6325L190.821 64.6399L190.797 64.6486L190.771 64.6585L190.742 64.6697L190.71 64.6823L190.675 64.6963L190.639 64.7117L190.599 64.7287L190.557 64.7472L190.513 64.7673L190.467 64.7891L190.418 64.8125L190.366 64.8377L190.313 64.8646L190.258 64.8933L190.2 64.9238L190.14 64.9562L190.078 64.9905L190.015 65.0266L189.949 65.0648L189.882 65.1048L189.813 65.1469L189.742 65.191L189.669 65.2372L189.595 65.2854L189.52 65.3356L189.443 65.388L189.364 65.4424L189.285 65.499L189.204 65.5576L189.121 65.6184L189.038 65.6813L188.954 65.7464L188.868 65.8136L188.782 65.8829L188.695 65.9543L188.607 66.0279L188.519 66.1036L188.429 66.1814L188.34 66.2613L188.249 66.3433L188.158 66.4273L188.067 66.5134L187.976 66.6015L187.884 66.6917L187.792 66.7838L187.7 66.8779L187.608 66.9739L187.516 67.0718L187.425 67.1716L187.333 67.2733L187.242 67.3767L187.15 67.482L187.06 67.5889L186.969 67.6976L186.879 67.8079L186.79 67.9198L186.701 68.0333L186.613 68.1483L186.526 68.2648L186.439 68.3827L186.353 68.502L186.268 68.6225L186.184 68.7444L186.101 68.8675L186.019 68.9917L185.938 69.117L185.858 69.2433L185.78 69.3706L185.702 69.4988L185.626 69.6279L185.551 69.7578L185.477 69.8884L185.405 70.0196L185.334 70.1514L185.264 70.2837L185.196 70.4165L185.13 70.5497L185.065 70.6832L185.001 70.8169L184.939 70.9508L184.879 71.0848L184.82 71.2188L184.763 71.3528L184.707 71.4866L184.653 71.6203L184.601 71.7537L184.55 71.8868L184.501 72.0195L184.454 72.1516L184.408 72.2833L184.364 72.4143L184.322 72.5446L184.281 72.6741L184.243 72.8027L184.205 72.9305L184.17 73.0573L184.136 73.183L184.104 73.3075L184.073 73.4309L184.044 73.553L184.016 73.6737L183.99 73.7931L183.966 73.911L183.943 74.0273L183.922 74.142L183.902 74.2551L183.884 74.3664L183.867 74.4759L183.851 74.5836L183.837 74.6893L183.824 74.7931L183.813 74.8948L183.802 74.9945L183.793 75.092L183.785 75.1873L183.778 75.2804L183.773 75.3711L183.768 75.4596L183.764 75.5456L183.761 75.6292L183.759 75.7103L183.758 75.7889L183.758 75.8649L183.759 75.9383L183.76 76.0091L183.762 76.0772L183.764 76.1426L183.767 76.2053L183.77 76.2652L183.774 76.3223L183.778 76.3766L183.783 76.4281L183.787 76.4767L183.792 76.5224L183.797 76.5652L183.802 76.6051L183.807 76.6421L183.812 76.6762L183.817 76.7073L183.822 76.7355L183.827 76.7607L183.831 76.7829L183.835 76.8022L183.838 76.8186L183.841 76.832L183.843 76.8424L183.845 76.85L183.846 76.8546L183.847 76.8562L183.846 76.855L183.845 76.8509L183.843 76.844L183.84 76.8342L183.836 76.8215L183.831 76.8061L183.825 76.7879L183.818 76.767L183.809 76.7433L183.799 76.717L183.788 76.688L183.776 76.6564L183.762 76.6223L183.746 76.5856L183.73 76.5464L183.711 76.5048L183.691 76.4607L183.669 76.4143L183.646 76.3656L183.621 76.3146L183.594 76.2614L183.566 76.206L183.535 76.1485L183.503 76.089L183.469 76.0274L183.433 75.9639L183.395 75.8985L183.355 75.8313L183.313 75.7623L183.269 75.6916L183.223 75.6193L183.175 75.5453L183.125 75.4699L183.072 75.393L183.018 75.3147L182.962 75.235L182.903 75.1541L182.842 75.072L182.78 74.9888L182.715 74.9045L182.648 74.8192L182.578 74.733L182.507 74.646L182.434 74.5581L182.358 74.4696L182.28 74.3803L182.2 74.2905L182.119 74.2002L182.035 74.1095L181.949 74.0184L181.861 73.9269L181.771 73.8352L181.678 73.7434L181.584 73.6514L181.489 73.5595L181.391 73.4675L181.291 73.3756L181.189 73.2839L181.086 73.1924L180.981 73.1012L180.874 73.0104L180.765 72.92L180.655 72.83L180.543 72.7405L180.43 72.6517L180.315 72.5635L180.198 72.476L180.08 72.3892L179.961 72.3033L179.841 72.2183L179.719 72.1341L179.596 72.0509L179.472 71.9688L179.346 71.8877L179.22 71.8077L179.093 71.7288L178.964 71.6512L178.835 71.5748L178.705 71.4996L178.575 71.4258L178.444 71.3533L178.312 71.2822L178.179 71.2125L178.047 71.1443L177.913 71.0776L177.78 71.0123L177.646 70.9486L177.512 70.8864L177.378 70.8258L177.244 70.7668L177.11 70.7094L176.976 70.6536L176.842 70.5995L176.709 70.547L176.576 70.4962L176.443 70.447L176.311 70.3995L176.179 70.3537L176.048 70.3096L175.917 70.2672L175.788 70.2264L175.659 70.1873L175.531 70.1499L175.404 70.1141L175.278 70.08L175.153 70.0476L175.03 70.0167L174.908 69.9875L174.787 69.9599L174.667 69.9338L174.549 69.9093L174.433 69.8863L174.318 69.8649L174.205 69.8449L174.093 69.8264L173.983 69.8092L173.876 69.7935L173.77 69.7792L173.666 69.7661L173.564 69.7544L173.464 69.7439L173.366 69.7346L173.271 69.7265L173.177 69.7195L173.086 69.7136L172.998 69.7087L172.911 69.7049L172.828 69.702L172.746 69.7L172.668 69.6988L172.591 69.6984L172.518 69.6988L172.447 69.6999L172.378 69.7016L172.313 69.7039L172.25 69.7068L172.19 69.7101L172.132 69.7138L172.078 69.7179L172.026 69.7224L171.977 69.727L171.931 69.7319L171.888 69.7368L171.848 69.7419L171.811 69.747L171.776 69.752L171.745 69.7569L171.717 69.7616L171.691 69.7661L171.669 69.7703L171.649 69.7742L171.633 69.7776L171.619 69.7806L171.608 69.7831L171.601 69.7849L171.596 69.7861L171.594 69.7866L171.595 69.7864L171.599 69.7853L171.605 69.7833L171.615 69.7804L171.627 69.7765L171.643 69.7715L171.661 69.7654L171.681 69.7582L171.705 69.7498L171.731 69.7401L171.76 69.7291L171.791 69.7167L171.825 69.703L171.861 69.6877L171.9 69.671L171.942 69.6527L171.986 69.6329L172.032 69.6114L172.08 69.5882L172.131 69.5633L172.184 69.5367L172.24 69.5083L172.297 69.4781L172.356 69.446L172.418 69.412L172.481 69.3761L172.546 69.3383L172.613 69.2986L172.682 69.2568L172.753 69.213L172.825 69.1672L172.899 69.1193L172.974 69.0694L173.051 69.0174L173.129 68.9633L173.209 68.9071L173.289 68.8487L173.371 68.7883L173.455 68.7257L173.539 68.661L173.624 68.5941L173.71 68.5252L173.797 68.4541L173.885 68.3808L173.973 68.3055L174.062 68.228L174.152 68.1485L174.242 68.0668L174.333 67.9831L174.424 67.8973L174.516 67.8095L174.607 67.7197L174.699 67.6279L174.791 67.5341L174.883 67.4384L174.975 67.3408L175.067 67.2413L175.158 67.1399L175.25 67.0368L175.341 66.9318L175.432 66.8251L175.522 66.7167L175.612 66.6067L175.702 66.495L175.791 66.3818L175.879 66.267L175.966 66.1507L176.053 66.0331L176.139 65.914L176.224 65.7936L176.308 65.672L176.392 65.5491L176.474 65.4251L176.555 65.2999L176.635 65.1738L176.714 65.0466L176.792 64.9185L176.868 64.7896L176.943 64.6598L177.017 64.5294L177.09 64.3982L177.161 64.2665L177.231 64.1343L177.299 64.0015L177.366 63.8684L177.431 63.735L177.495 63.6013L177.557 63.4674L177.618 63.3334L177.677 63.1994L177.734 63.0654L177.79 62.9315L177.845 62.7978L177.897 62.6644L177.948 62.5313L177.997 62.3985L178.045 62.2663L178.091 62.1345L178.135 62.0034L178.177 61.873L178.218 61.7434L178.257 61.6146L178.295 61.4867L178.331 61.3597L178.365 61.2339L178.397 61.1091L178.428 60.9856L178.458 60.8633L178.485 60.7423L178.512 60.6227L178.536 60.5046L178.559 60.388L178.581 60.273L178.601 60.1597L178.619 60.0481L178.636 59.9383L178.652 59.8303L178.667 59.7243L178.68 59.6202L178.692 59.5181L178.702 59.4181L178.711 59.3203L178.72 59.2246L178.727 59.1312L178.733 59.04L178.737 58.9513L178.741 58.8648L178.744 58.7809L178.746 58.6993L178.748 58.6204L178.748 58.5439L178.748 58.4701L178.747 58.3989L178.745 58.3303L178.743 58.2645L178.74 58.2014L178.736 58.141L178.733 58.0835L178.729 58.0287L178.724 57.9768L178.719 57.9278L178.715 57.8816L178.71 57.8383L178.704 57.7979L178.699 57.7605L178.694 57.7259L178.689 57.6943L178.685 57.6657L178.68 57.64L178.676 57.6173L178.672 57.5975L178.668 57.5807L178.665 57.5668L178.663 57.5559L178.661 57.5479L178.66 57.5429L178.659 57.5407L178.659 57.5415L178.66 57.5451L178.662 57.5516L178.665 57.561L178.669 57.5732L178.674 57.5881L178.68 57.6059L178.687 57.6264L178.695 57.6496L178.705 57.6755L178.716 57.7041L178.728 57.7352L178.742 57.769L178.757 57.8053L178.774 57.8441L178.792 57.8853L178.812 57.929L178.833 57.975L178.856 58.0234L178.881 58.074L178.907 58.1269L178.936 58.1819L178.966 58.2391L178.998 58.2983L179.032 58.3595L179.067 58.4227L179.105 58.4878L179.145 58.5547L179.186 58.6235L179.23 58.6939L179.276 58.766L179.323 58.8397L179.373 58.9149L179.425 58.9916L179.479 59.0697L179.535 59.1491L179.594 59.2298L179.654 59.3117L179.716 59.3948L179.781 59.4789L179.848 59.564L179.917 59.6501L179.988 59.737L180.061 59.8247L180.136 59.9132L180.213 60.0023L180.293 60.092L180.374 60.1822L180.458 60.2729L180.544 60.364L180.631 60.4554L180.721 60.547L180.813 60.6388L180.906 60.7308L181.002 60.8228L181.1 60.9147L181.199 61.0066L181.3 61.0984L181.403 61.1899L181.508 61.2811L181.615 61.372L181.723 61.4626L181.833 61.5526L181.945 61.6421L182.058 61.7311L182.173 61.8194L182.289 61.907L182.407 61.9939L182.526 62.0799L182.646 62.1651L182.768 62.2494L182.891 62.3328L183.015 62.4151L183.14 62.4964L183.266 62.5766L183.393 62.6556L183.521 62.7334L183.65 62.81L183.78 62.8854L183.91 62.9594L184.041 63.0321L184.173 63.1034L184.306 63.1733L184.438 63.2418L184.571 63.3088L184.705 63.3743L184.839 63.4383L184.973 63.5007L185.107 63.5615L185.241 63.6208L185.375 63.6785L185.509 63.7345L185.643 63.7889L185.776 63.8416L185.909 63.8927L186.042 63.9422L186.174 63.9899L186.306 64.036L186.438 64.0804L186.568 64.1231L186.698 64.1641L186.827 64.2035L186.955 64.2411L187.082 64.2772L187.208 64.3115L187.333 64.3442L187.456 64.3753L187.579 64.4048L187.7 64.4327L187.82 64.459L187.938 64.4838L188.055 64.507L188.17 64.5287L188.283 64.5489L188.395 64.5677L188.505 64.585L188.613 64.6009L188.72 64.6155L188.824 64.6288L188.926 64.6407L189.026 64.6514L189.124 64.6609L189.22 64.6692L189.314 64.6763L189.405 64.6824L189.494 64.6874L189.581 64.6915L189.665 64.6945L189.747 64.6967L189.826 64.698L189.903 64.6985L189.977 64.6982L190.048 64.6972L190.117 64.6956L190.183 64.6934L190.246 64.6906L190.307 64.6874L190.365 64.6837L190.42 64.6796L190.472 64.6753L190.521 64.6706L190.568 64.6658L190.611 64.6608L190.652 64.6558L190.69 64.6507L190.724 64.6457L190.756 64.6408L190.785 64.636L190.811 64.6315L190.834 64.6272L190.854 64.6233L190.871 64.6198L190.885 64.6167L190.896 64.6142L190.904 64.6122L190.91 64.6109L190.912 64.6102Z" stroke="#FAFAFA"/>
<defs>
<linearGradient id="paint0_linear_1358_7352" x1="95.5893" y1="138.763" x2="60.6486" y2="17.8278" gradientUnits="userSpaceOnUse">
<stop offset="0.00478469" stop-color="#343061"/>
<stop offset="0.222529" stop-color="#6E4B74"/>
<stop offset="0.424683" stop-color="#C27193"/>
<stop offset="0.626411" stop-color="#EE988E"/>
<stop offset="0.805208" stop-color="#F5BB95"/>
<stop offset="0.9875" stop-color="#F5D6A2"/>
</linearGradient>
<linearGradient id="paint1_linear_1358_7352" x1="87.8395" y1="278.022" x2="104.874" y2="179.17" gradientUnits="userSpaceOnUse">
<stop offset="0.00478469" stop-color="#343061"/>
<stop offset="0.222529" stop-color="#6E4B74"/>
<stop offset="0.424683" stop-color="#C27193"/>
<stop offset="0.626411" stop-color="#EE988E"/>
<stop offset="0.805208" stop-color="#F5BB95"/>
<stop offset="0.9875" stop-color="#F5D6A2"/>
</linearGradient>
<linearGradient id="paint2_linear_1358_7352" x1="190.981" y1="168.488" x2="189.699" y2="102.61" gradientUnits="userSpaceOnUse">
<stop offset="0.00478469" stop-color="#343061"/>
<stop offset="0.222529" stop-color="#6E4B74"/>
<stop offset="0.424683" stop-color="#C27193"/>
<stop offset="0.626411" stop-color="#EE988E"/>
<stop offset="0.805208" stop-color="#F5BB95"/>
<stop offset="0.9875" stop-color="#F5D6A2"/>
</linearGradient>
<linearGradient id="paint3_linear_1358_7352" x1="190.981" y1="168.488" x2="189.699" y2="102.61" gradientUnits="userSpaceOnUse">
<stop offset="0.00478469" stop-color="#343061"/>
<stop offset="0.222529" stop-color="#6E4B74"/>
<stop offset="0.424683" stop-color="#C27193"/>
<stop offset="0.626411" stop-color="#EE988E"/>
<stop offset="0.805208" stop-color="#F5BB95"/>
<stop offset="0.9875" stop-color="#F5D6A2"/>
</linearGradient>
</defs>
</svg>
