<svg width="1728" height="1329" viewBox="0 0 1728 1329" fill="none" xmlns="http://www.w3.org/2000/svg">
<path opacity="0.8" d="M-93.3737 813.091C-197.857 775.109 -235.275 666.596 -213.651 555.2C-192.027 443.803 -130.475 326.918 -93.9618 226.705C-57.4487 126.492 52.9524 65.9438 164.129 106.359C275.305 146.774 332.154 267.898 284.406 364.25C236.657 460.603 215.369 588.422 164.717 692.745C114.064 797.068 11.1097 851.073 -93.3737 813.091Z" fill="#EEF1FA"/>
<path opacity="0.8" d="M972.906 715.449C1106.33 837.484 1296.38 810.695 1432.17 667.879C1567.96 525.064 1540.72 301.624 1383.23 209.281C1225.74 116.939 1052.08 120.227 923.966 256.851C795.848 393.475 839.487 593.415 972.906 715.449Z" fill="#EAEFF9"/>
<path d="M386.554 1058.66C480.978 1135.03 609.219 1117.71 682.325 1027.53C755.43 937.35 743.664 788.333 651.293 732.086C558.921 675.839 422.865 654.456 355.522 763.218C288.179 871.98 292.131 982.295 386.554 1058.66Z" fill="#F3D250"/>
<path d="M51.8068 447.571C79.0698 472.507 117.905 467.033 145.653 437.85C173.4 408.667 167.834 363.01 135.652 344.14C103.471 325.271 67.9859 325.943 41.8063 353.861C15.6266 381.778 24.5437 422.634 51.8068 447.571Z" fill="#3F84E5"/>
<path d="M1512.87 1150.14C1562.54 1190.32 1630.01 1181.21 1668.47 1133.77C1706.92 1086.33 1700.73 1007.93 1652.14 978.343C1603.55 948.753 1531.97 937.504 1496.55 994.72C1461.12 1051.94 1463.2 1109.97 1512.87 1150.14Z" fill="#F3D250"/>
<path d="M1577.93 295.036C1628.39 335.847 1696.92 326.592 1735.99 278.399C1775.06 230.207 1768.77 150.575 1719.41 120.517C1670.04 90.4594 1597.34 79.0327 1561.35 137.154C1525.36 195.275 1527.47 254.226 1577.93 295.036Z" fill="#649CE9"/>
<path opacity="0.8" d="M791.119 94.1988C804.097 104.695 821.722 102.315 831.77 89.9199C841.818 77.5252 840.201 57.0442 827.505 49.3136C814.809 41.583 796.11 38.6441 786.854 53.5924C777.598 68.5408 778.141 83.7026 791.119 94.1988Z" fill="#F3D250"/>
<path d="M1062.12 989.972C1050.75 994.221 1046.57 1006.39 1050.98 1018.84C1055.39 1031.3 1069.59 1036.48 1079.91 1029.89C1090.24 1023.3 1095.33 1012.83 1091.06 1001.02C1086.79 989.208 1073.49 985.722 1062.12 989.972Z" fill="#0B2CB8"/>
<path d="M1660.12 498.292C1648.75 502.541 1644.56 514.706 1648.97 527.165C1653.38 539.624 1667.59 544.804 1677.91 538.213C1688.24 531.623 1693.33 521.153 1689.06 509.34C1684.78 497.528 1671.49 494.043 1660.12 498.292Z" fill="#0B2CB8"/>
<path d="M259.582 1217.82C243.331 1278.39 180.935 1314.32 120.217 1298.07C59.4978 1281.81 -10.0045 1255.62 -70.7482 1246.94C-131.492 1238.27 -174.863 1166.42 -151.265 1107.83C-127.667 1049.25 -79.611 1009.46 -11.8995 1027.59C55.812 1045.71 112.53 1060.9 179.065 1078.71C245.6 1096.52 275.833 1157.25 259.582 1217.82Z" fill="#0B2CB8"/>
<path d="M1207.12 103.778C1195.75 108.027 1191.57 120.192 1195.98 132.651C1200.39 145.11 1214.59 150.291 1224.91 143.7C1235.24 137.109 1240.33 126.639 1236.06 114.827C1231.79 103.014 1218.49 99.5291 1207.12 103.778Z" fill="#3F84E5"/>
</svg>
